<svg xmlns="http://www.w3.org/2000/svg" xmlns:svg="http://www.w3.org/2000/svg" id="Flag of Macedonia" width="256" height="256" version="1.0"><metadata/><rect id="red background" width="256" height="128" x="0" y="64" style="fill:#d20000"/><polygon id="yellow ray 1" points="0 0 120 0 680 400 800 400 0 0" transform="matrix(0.32,0,0,0.32,0,64.00001)" style="fill:#ffe600"/><polygon id="yellow ray 2" points="360 0 440 0 360 400 440 400 360 0" transform="matrix(0.32,0,0,0.32,0,64.00001)" style="fill:#ffe600"/><polygon id="yellow ray 3" points="680 0 800 0 0 400 120 400 680 0" transform="matrix(0.32,0,0,0.32,0,64.00001)" style="fill:#ffe600"/><polygon id="yellow ray 4" points="0 160 0 240 800 160 800 240 0 160" transform="matrix(0.32,0,0,0.32,0,64.00001)" style="fill:#ffe600"/><circle id="outer circle" cx="400" cy="200" r="60" transform="matrix(0.3809524,0,0,0.3809524,-24.380965,51.809531)" style="fill:#d20000"/><circle id="inner circle" cx="400" cy="200" r="50" transform="matrix(0.3657143,0,0,0.3657143,-18.285715,54.857161)" style="fill:#ffe600"/></svg>