<svg xmlns="http://www.w3.org/2000/svg" xmlns:svg="http://www.w3.org/2000/svg" id="svg607" width="256" height="256" version="1.0"><metadata/><rect id="rect611" width="256" height="42.667" x="0" y="64" style="fill:#000"/><rect id="rect612" width="256" height="42.667" x="0" y="149.333" style="fill:green"/><rect id="rect643" width="256" height="42.667" x="0" y="106.667" style="fill:#fff"/><path id="path615" d="M 0,64 L 85.333309,128.15443 L 0,192 L 0,64 L 0,64 L 0,64 L 0,64 z" style="fill:#c00"/><circle id="circle1456" cx="120" cy="120" r="60" transform="matrix(0.2835979,0,0,0.2835979,93.968234,93.96826)" style="fill:#c00"/><circle id="circle3256" cx="120" cy="120" r="60" transform="matrix(0.2835979,0,0,0.2835979,100.46981,93.96826)" style="fill:#fff"/><path id="path3258" d="M 123.41885,138.33404 L 130.69622,133.1318 L 137.91668,138.4127 L 135.2179,129.88394 L 142.47158,124.64874 L 133.52628,124.57992 L 130.78882,116.0635 L 127.9591,124.54972 L 119.01359,124.52148 L 126.21004,129.83507 L 123.41885,138.33404 z" style="fill:#c00"/></svg>