<svg xmlns="http://www.w3.org/2000/svg" xmlns:svg="http://www.w3.org/2000/svg" id="svg548" width="256" height="256" version="1.0"><metadata/><rect id="rect585" width="256" height="170.667" x="0" y="42.333" style="font-size:12px;fill:#3e5eb9;fill-opacity:1;fill-rule:evenodd;stroke:none;stroke-width:1pt;stroke-opacity:1"/><rect id="rect966" width="256" height="109.714" x="0" y="72.81" style="font-size:12px;fill:#ffd900;fill-opacity:1;fill-rule:evenodd;stroke:none;stroke-width:1pt;stroke-opacity:1"/><rect id="rect967" width="256" height="85.333" x="0" y="85" style="font-size:12px;fill:#b10c0c;fill-opacity:1;fill-rule:evenodd;stroke:none;stroke-width:1pt;stroke-opacity:1"/><rect id="rect969" width="207.238" height="3.657" x="25.52" y="125.838" rx="1.802" ry="1.829" style="font-size:12px;fill:#ffd900;fill-rule:evenodd;stroke:#000;stroke-width:.46067613"/><g id="g978" transform="matrix(0.3440423,0,0,0.3440423,-209.67622,33.800029)"><path id="path971" d="M -106.299,265.748 L -194.882,301.181 L -106.299,336.614 L -17.7165,301.181 L -106.299,265.748 z" transform="matrix(0.340001,0,0,0.300002,1256.811,136.4168)" style="font-size:12px;fill:#fff;fill-opacity:1;fill-rule:evenodd;stroke:#000;stroke-width:3.91388011;stroke-dasharray:none;stroke-opacity:1"/><rect id="rect968" width="442.913" height="7.087" x="761.811" y="223.228" rx="3.851" ry="3.543" style="font-size:12px;fill:#ffd900;fill-rule:evenodd;stroke:#000;stroke-width:1.25;stroke-dasharray:none"/><path id="path975" d="M 1224.44,279.921 C 1220.9,279.921 1217.35,276.377 1217.35,272.834 C 1217.35,269.291 1220.9,265.747 1224.44,265.747" transform="matrix(-0.500011,0,0,0.500001,1806.328,90.35433)" style="font-size:12px;fill:none;fill-rule:evenodd;stroke:#000;stroke-width:2.49996996;stroke-dasharray:none;stroke-opacity:1"/><path id="path976" d="M 1224.44,279.921 C 1220.9,279.921 1217.35,276.377 1217.35,272.834 C 1217.35,269.291 1220.9,265.747 1224.44,265.747" transform="matrix(-0.500011,0,0,0.500001,1802.785,90.35418)" style="font-size:12px;fill:none;fill-rule:evenodd;stroke:#000;stroke-width:2.49996996;stroke-dasharray:none;stroke-opacity:1"/><path id="path977" d="M 1224.44,279.921 C 1220.9,279.921 1217.35,276.377 1217.35,272.834 C 1217.35,269.291 1220.9,265.747 1224.44,265.747" transform="matrix(-0.500011,0,0,0.500001,1799.241,90.3546)" style="font-size:12px;fill:none;fill-rule:evenodd;stroke:#000;stroke-width:2.49996996;stroke-dasharray:none;stroke-opacity:1"/></g><g id="g984" transform="matrix(0.3440423,0,0,0.3440423,-219.42858,41.114279)"><path id="path985" d="M -106.299,265.748 L -194.882,301.181 L -106.299,336.614 L -17.7165,301.181 L -106.299,265.748 z" transform="matrix(0.340001,0,0,0.300002,1256.811,136.4168)" style="font-size:12px;fill:#fff;fill-opacity:1;fill-rule:evenodd;stroke:#000;stroke-width:3.91388011;stroke-dasharray:none;stroke-opacity:1"/><rect id="rect986" width="442.913" height="7.087" x="761.811" y="223.228" rx="3.851" ry="3.543" style="font-size:12px;fill:#ffd900;fill-rule:evenodd;stroke:#000;stroke-width:1.25;stroke-dasharray:none"/><path id="path987" d="M 1224.44,279.921 C 1220.9,279.921 1217.35,276.377 1217.35,272.834 C 1217.35,269.291 1220.9,265.747 1224.44,265.747" transform="matrix(-0.500011,0,0,0.500001,1806.328,90.35433)" style="font-size:12px;fill:none;fill-rule:evenodd;stroke:#000;stroke-width:2.49996996;stroke-dasharray:none;stroke-opacity:1"/><path id="path988" d="M 1224.44,279.921 C 1220.9,279.921 1217.35,276.377 1217.35,272.834 C 1217.35,269.291 1220.9,265.747 1224.44,265.747" transform="matrix(-0.500011,0,0,0.500001,1802.785,90.35418)" style="font-size:12px;fill:none;fill-rule:evenodd;stroke:#000;stroke-width:2.49996996;stroke-dasharray:none;stroke-opacity:1"/><path id="path989" d="M 1224.44,279.921 C 1220.9,279.921 1217.35,276.377 1217.35,272.834 C 1217.35,269.291 1220.9,265.747 1224.44,265.747" transform="matrix(-0.500011,0,0,0.500001,1799.241,90.3546)" style="font-size:12px;fill:none;fill-rule:evenodd;stroke:#000;stroke-width:2.49996996;stroke-dasharray:none;stroke-opacity:1"/></g><g id="g943" transform="matrix(0.1610163,0,0,0.1617319,118.92872,128.86713)"><path id="path925" d="M 338.066,-0.416313 C 332.495,12.0255 342.341,-4.55386 366.365,16.2743 C 370.817,20.1439 374.707,30.3644 374.707,37.451 C 373.577,36.4762 372.738,34.3067 371.493,32.8988 C 369.75,35.1515 373.157,45.4754 373.655,50.3561 C 369.899,47.6453 370.261,46.3623 369.013,43.0319 C 369.262,47.0577 368.368,58.1475 369.862,62.4183 C 366.902,61.3286 367.098,58.2554 365.552,57.6382 C 366.604,62.4722 364.636,67.7322 365.158,73.1659 C 363.428,70.9577 361.585,69.2284 360.782,68.3369 C 360.647,70.9251 357.455,77.7252 357.382,80.1716 C 355.914,79.028 355.516,77.2451 355.271,76.0451 C 353.447,79.0005 346.963,89.9168 346.547,93.2471 C 341.551,87.5579 328.754,73.7024 327.088,66.3481 C 325.615,70.5231 323.484,71.9311 319.271,74.9798 C 317.606,63.3238 311.38,50.2237 314.71,40.2329 C 312.351,42.0368 310.408,43.8406 308.05,46.0608 C 310.284,29.1808 321.678,9.38682 338.066,-0.416313 z" transform="matrix(2.058631,0,0,1.589422,-79.54089,-15.73869)" style="fill:#3d5da7;fill-opacity:1;fill-rule:evenodd;stroke:#000;stroke-width:1pt;stroke-linecap:butt;stroke-linejoin:miter;stroke-opacity:1"/><path id="path938" d="M 273.498,33.156 C 253.933,33.8186 246.343,31.4908 233.743,31.9071 C 211.58,32.6159 195.653,36.3164 195.653,31.4909 C 195.653,26.6653 203.659,24.414 225.834,24.414 C 248.008,24.414 253.516,25.8327 273.498,33.156 z" transform="matrix(-0.276657,0.475558,-0.981454,-0.259237,681.8329,-39.92822)" style="font-size:12px;fill:#a70000;fill-opacity:1;fill-rule:evenodd;stroke-width:1pt"/><path id="path939" d="M 273.498,33.156 C 253.933,33.8186 246.343,31.4908 233.743,31.9071 C 211.58,32.6159 195.653,36.3164 195.653,31.4909 C 195.653,26.6653 203.659,24.414 225.834,24.414 C 248.008,24.414 253.516,25.8327 273.498,33.156 z" transform="matrix(5.95138e-4,0.371544,-0.904786,8.268648e-2,635.6661,-0.247017)" style="font-size:12px;fill:#a70000;fill-opacity:1;fill-rule:evenodd;stroke-width:1pt"/><path id="path940" d="M 273.498,33.156 C 253.933,33.8186 246.343,31.4908 233.743,31.9071 C 211.58,32.6159 195.653,36.3164 195.653,31.4909 C 195.653,26.6653 203.659,24.414 225.834,24.414 C 248.008,24.414 253.516,25.8327 273.498,33.156 z" transform="matrix(6.912644e-2,0.522143,-0.838604,0.216493,639.1691,-31.72491)" style="font-size:12px;fill:#a70000;fill-opacity:1;fill-rule:evenodd;stroke-width:1pt"/><path id="path941" d="M 273.498,33.156 C 253.933,33.8186 246.343,31.4908 233.743,31.9071 C 211.58,32.6159 195.653,36.3164 195.653,31.4909 C 195.653,26.6653 203.659,24.414 225.834,24.414 C 248.008,24.414 253.516,25.8327 273.498,33.156 z" transform="matrix(0.320317,0.211522,0.45182,-0.559948,553.0942,8.394493)" style="font-size:12px;fill:#a70000;fill-opacity:1;fill-rule:evenodd;stroke-width:1pt"/><path id="path942" d="M 273.498,33.156 C 253.933,33.8186 246.343,31.4908 233.743,31.9071 C 211.58,32.6159 195.653,36.3164 195.653,31.4909 C 195.653,26.6653 203.659,24.414 225.834,24.414 C 248.008,24.414 253.516,25.8327 273.498,33.156 z" transform="matrix(0.188149,0.320913,0.808386,-0.337905,573.209,4.559387)" style="font-size:12px;fill:#a70000;fill-opacity:1;fill-rule:evenodd;stroke-width:1pt"/></g><g id="g950" transform="matrix(0.1577534,0,0,0.1614443,-38.04802,127.60432)"><path id="path926" d="M 329.598,20.7033 C 329.326,18.041 329.851,17.7227 328.34,15.7144 C 330.54,16.7118 330.624,19.3631 333.299,17.4812 C 334.282,16.9301 334.71,16.9126 333.516,13.9552 C 336.306,14.0953 345.443,17.4905 346.906,17.5694 C 350.748,17.7604 357.761,13.1961 362.629,18.8086 C 367.301,23.9261 365.741,29.238 365.741,36.3246 C 363.864,35.3498 364.768,34.8698 362.776,32.3355 C 364.27,38.5305 362.696,49.6993 362.696,56.2695 C 361.929,54.6851 362.042,55.3732 361.292,53.7325 C 359.3,59.7294 356.912,60.9635 356.912,68.0502 C 356.193,65.2709 356.887,65.8585 356.087,64.3966 C 354.151,68.9489 341.162,72.8403 346.167,77.4292 C 341.649,74.5593 339.668,74.8603 337.619,72.2792 C 336.737,72.8963 336.035,74.0644 335.215,75.666 C 327.272,71.7064 330.112,63.1653 323.889,57.4599 C 322.812,59.8521 323.303,59.5047 322.139,63.3982 C 320.879,57.9906 320.535,54.5541 319.118,50.5789 C 317.895,52.7827 318.005,51.9379 315.785,55.2682 C 314.867,48.6809 313.372,47.1262 313.963,42.7673 C 311.604,44.5712 313.148,43.8406 310.79,46.0608 C 313.024,29.1808 322.674,16.7083 329.598,20.7033 z" transform="matrix(2.40293,0,0,2.166935,-332.3264,-34.37559)" style="fill:#3d5da7;fill-opacity:1;fill-rule:evenodd;stroke:#000;stroke-width:1pt;stroke-linecap:butt;stroke-linejoin:miter;stroke-opacity:1"/><path id="path928" d="M 273.498,33.156 C 253.933,33.8186 246.343,31.4908 233.743,31.9071 C 211.58,32.6159 195.653,36.3164 195.653,31.4909 C 195.653,26.6653 203.659,24.414 225.834,24.414 C 248.008,24.414 253.516,25.8327 273.498,33.156 z" transform="matrix(-0.28442,0.590521,-0.977125,-0.336744,546.3839,-80.15939)" style="font-size:12px;fill:#a70000;fill-opacity:1;fill-rule:evenodd;stroke-width:1pt"/><path id="path929" d="M 273.498,33.156 C 253.933,33.8186 246.343,31.4908 233.743,31.9071 C 211.58,32.6159 195.653,36.3164 195.653,31.4909 C 195.653,26.6653 203.659,24.414 225.834,24.414 C 248.008,24.414 253.516,25.8327 273.498,33.156 z" transform="matrix(-0.131478,0.536393,-0.907928,-9.700552e-2,520.879,-43.83943)" style="font-size:12px;fill:#a70000;fill-opacity:1;fill-rule:evenodd;stroke-width:1pt"/><path id="path930" d="M 273.498,33.156 C 253.933,33.8186 246.343,31.4908 233.743,31.9071 C 211.58,32.6159 195.653,36.3164 195.653,31.4909 C 195.653,26.6653 203.659,24.414 225.834,24.414 C 248.008,24.414 253.516,25.8327 273.498,33.156 z" transform="matrix(-5.77307e-2,0.523526,-0.866044,9.690915e-3,521.5908,-23.37511)" style="font-size:12px;fill:#a70000;fill-opacity:1;fill-rule:evenodd;stroke-width:1pt"/><path id="path931" d="M 273.498,33.156 C 253.933,33.8186 246.343,31.4908 233.743,31.9071 C 211.58,32.6159 195.653,36.3164 195.653,31.4909 C 195.653,26.6653 203.659,24.414 225.834,24.414 C 248.008,24.414 253.516,25.8327 273.498,33.156 z" transform="matrix(0.49337,0.431504,0.766549,-0.693234,364.558,-41.83645)" style="font-size:12px;fill:#a70000;fill-opacity:1;fill-rule:evenodd;stroke-width:1pt"/><path id="path932" d="M 273.498,33.156 C 253.933,33.8186 246.343,31.4908 233.743,31.9071 C 211.58,32.6159 195.653,36.3164 195.653,31.4909 C 195.653,26.6653 203.659,24.414 225.834,24.414 C 248.008,24.414 253.516,25.8327 273.498,33.156 z" transform="matrix(0.331456,0.441747,0.796999,-0.445574,402.2715,-18.44129)" style="font-size:12px;fill:#a70000;fill-opacity:1;fill-rule:evenodd;stroke-width:1pt"/></g><g id="g1018" transform="matrix(0.3440423,0,0,0.3440423,0,42.333359)"><path id="path552" d="M 637.795,230.315 C 584.646,289.37 513.779,407.48 372.047,407.48 C 248.031,407.48 159.449,289.37 106.299,230.315 C 159.449,171.26 248.031,53.1496 372.047,53.1496 C 513.779,53.1496 584.646,171.26 637.795,230.315 z" transform="matrix(0.666667,0,0,0.6,124.016,109.8426)" style="font-size:12px;fill:#fff;fill-rule:evenodd;stroke:#000;stroke-width:1.97642004;stroke-dasharray:none;stroke-opacity:1"/><path id="path555" d="M 353.498,114.777 C 367.638,132.448 355.831,139.572 370.798,140.732 C 386.582,142.02 377.635,159.404 390.912,160.008 C 400.194,160.458 389.985,201.66 398.921,215.255 C 408.023,229.429 415.646,219.408 415.806,229.648 C 415.964,240.238 391.033,239.17 390.596,271.794 C 389.865,290.594 369.557,291.798 368.588,303.895 C 367.383,315.273 408.596,321.661 408.047,331.847 C 407.482,342.002 363.546,340.412 361.633,351.993 C 360.652,362.395 421.992,370.921 426.924,401.006 C 417.771,404.332 391.73,407.463 372.047,407.48 C 248.038,407.589 159.449,289.37 106.299,230.315 C 159.449,171.26 248.031,53.1496 372.047,53.1496 C 372.047,53.1496 335.234,90.5233 353.498,114.777 z" transform="matrix(0.666667,0,0,0.6,124.0159,109.8424)" style="font-size:12px;fill-rule:evenodd;stroke-width:1pt"/><g id="g569" transform="matrix(0.484849,0,0,0.533333,183.7152,210.2362)" style="font-size:12px;fill:#fff"><rect id="rect557" width="17.717" height="53.15" x="159.449" y="0" style="font-size:12px;fill:#fff;fill-opacity:1;fill-rule:evenodd;stroke-width:1pt"/><rect id="rect558" width="17.717" height="53.15" x="159.449" y="88.583" style="font-size:12px;fill:#fff;fill-opacity:1;fill-rule:evenodd;stroke-width:1pt"/><rect id="rect559" width="17.717" height="53.15" x="194.882" y="0" style="font-size:12px;fill:#fff;fill-opacity:1;fill-rule:evenodd;stroke-width:1pt"/><rect id="rect560" width="17.717" height="53.15" x="194.882" y="88.583" style="font-size:12px;fill:#fff;fill-opacity:1;fill-rule:evenodd;stroke-width:1pt"/><rect id="rect561" width="17.717" height="53.15" x="230.315" y="0" style="font-size:12px;fill:#fff;fill-opacity:1;fill-rule:evenodd;stroke-width:1pt"/><rect id="rect562" width="17.717" height="53.15" x="230.315" y="88.583" style="font-size:12px;fill:#fff;fill-opacity:1;fill-rule:evenodd;stroke-width:1pt"/><rect id="rect563" width="17.717" height="53.15" x="265.748" y="0" style="font-size:12px;fill:#fff;fill-opacity:1;fill-rule:evenodd;stroke-width:1pt"/><rect id="rect564" width="17.717" height="53.15" x="265.748" y="88.583" style="font-size:12px;fill:#fff;fill-opacity:1;fill-rule:evenodd;stroke-width:1pt"/><rect id="rect565" width="17.717" height="53.15" x="301.181" y="0" style="font-size:12px;fill:#fff;fill-opacity:1;fill-rule:evenodd;stroke-width:1pt"/><rect id="rect566" width="17.717" height="53.15" x="301.181" y="88.583" style="font-size:12px;fill:#fff;fill-opacity:1;fill-rule:evenodd;stroke-width:1pt"/><rect id="rect567" width="17.717" height="53.15" x="336.614" y="0" style="font-size:12px;fill:#fff;fill-opacity:1;fill-rule:evenodd;stroke-width:1pt"/><rect id="rect568" width="17.717" height="53.15" x="336.614" y="88.583" style="font-size:12px;fill:#fff;fill-opacity:1;fill-rule:evenodd;stroke-width:1pt"/></g><g id="g586" transform="matrix(0.484849,0,0,0.533333,313.6365,210.2362)" style="font-size:12px"><rect id="rect587" width="17.717" height="53.15" x="159.449" y="0" style="font-size:12px;fill:#000;fill-opacity:1;fill-rule:evenodd;stroke-width:1pt"/><rect id="rect588" width="17.717" height="53.15" x="159.449" y="88.583" style="font-size:12px;fill:#000;fill-opacity:1;fill-rule:evenodd;stroke-width:1pt"/><rect id="rect589" width="17.717" height="53.15" x="194.882" y="0" style="font-size:12px;fill:#000;fill-opacity:1;fill-rule:evenodd;stroke-width:1pt"/><rect id="rect590" width="17.717" height="53.15" x="194.882" y="88.583" style="font-size:12px;fill:#000;fill-opacity:1;fill-rule:evenodd;stroke-width:1pt"/><rect id="rect591" width="17.717" height="53.15" x="230.315" y="0" style="font-size:12px;fill:#000;fill-opacity:1;fill-rule:evenodd;stroke-width:1pt"/><rect id="rect592" width="17.717" height="53.15" x="230.315" y="88.583" style="font-size:12px;fill:#000;fill-opacity:1;fill-rule:evenodd;stroke-width:1pt"/><rect id="rect593" width="17.717" height="53.15" x="265.748" y="0" style="font-size:12px;fill:#000;fill-opacity:1;fill-rule:evenodd;stroke-width:1pt"/><rect id="rect594" width="17.717" height="53.15" x="265.748" y="88.583" style="font-size:12px;fill:#000;fill-opacity:1;fill-rule:evenodd;stroke-width:1pt"/><rect id="rect595" width="17.717" height="53.15" x="301.181" y="0" style="font-size:12px;fill:#000;fill-opacity:1;fill-rule:evenodd;stroke-width:1pt"/><rect id="rect596" width="17.717" height="53.15" x="301.181" y="88.583" style="font-size:12px;fill:#000;fill-opacity:1;fill-rule:evenodd;stroke-width:1pt"/><rect id="rect597" width="17.717" height="53.15" x="336.614" y="0" style="font-size:12px;fill:#000;fill-opacity:1;fill-rule:evenodd;stroke-width:1pt"/><rect id="rect598" width="17.717" height="53.15" x="336.614" y="88.583" style="font-size:12px;fill:#000;fill-opacity:1;fill-rule:evenodd;stroke-width:1pt"/></g></g><g id="g957" transform="matrix(0.1813647,0,0,0.1775664,49.085517,97.661699)"><path id="path924" d="M 338.066,-0.416298 C 332.495,12.0255 347.82,-4.55387 371.844,16.2743 C 376.296,20.1439 382.677,35.4331 382.677,42.5197 C 377.562,41.2633 368.504,35.4331 368.504,35.4331 C 368.504,35.4331 379.134,47.7281 379.134,61.9014 C 375.378,59.1906 373.499,59.5971 372.251,56.2669 C 372.251,60.8558 375.591,63.7795 375.591,70.8662 C 372.88,68.3685 370.585,66.7033 368.291,65.2414 C 371.834,72.328 361.834,86.0752 366.839,90.6641 C 358.087,89.2022 349.132,82.7449 345.589,75.6583 C 343.711,77.1202 343.507,79.4147 343.434,81.8611 C 343.71,82.1254 330.112,70.2052 331.361,65.6261 C 329.537,68.5815 329.28,70.2052 328.864,73.5355 C 323.868,67.8463 319.29,62.1571 317.624,54.8028 C 315.404,58.133 315.265,58.133 313.045,61.4633 C 311.38,49.8073 311.38,50.2237 314.71,40.2329 C 312.351,42.0368 310.408,43.8406 308.05,46.0608 C 310.284,29.1808 321.678,9.38683 338.066,-0.416298 z" transform="matrix(1.671432,0,0,1.478311,-238.6252,0.199112)" style="fill:#3d5da7;fill-opacity:1;fill-rule:evenodd;stroke:#000;stroke-width:1pt;stroke-linecap:butt;stroke-linejoin:miter;stroke-opacity:1"/><path id="path933" d="M 273.498,33.156 C 253.933,33.8186 246.343,31.4908 233.743,31.9071 C 211.58,32.6159 195.653,36.3164 195.653,31.4909 C 195.653,26.6653 203.659,24.414 225.834,24.414 C 248.008,24.414 253.516,25.8327 273.498,33.156 z" transform="matrix(-0.111023,0.645975,-1.032059,-5.499046e-2,368.0553,-85.39377)" style="font-size:12px;fill:#a70000;fill-opacity:1;fill-rule:evenodd;stroke-width:1pt"/><path id="path934" d="M 273.498,33.156 C 253.933,33.8186 246.343,31.4908 233.743,31.9071 C 211.58,32.6159 195.653,36.3164 195.653,31.4909 C 195.653,26.6653 203.659,24.414 225.834,24.414 C 248.008,24.414 253.516,25.8327 273.498,33.156 z" transform="matrix(2.11318e-2,0.551867,-0.899589,0.156468,353.5242,-43.45949)" style="font-size:12px;fill:#a70000;fill-opacity:1;fill-rule:evenodd;stroke-width:1pt"/><path id="path935" d="M 273.498,33.156 C 253.933,33.8186 246.343,31.4908 233.743,31.9071 C 211.58,32.6159 195.653,36.3164 195.653,31.4909 C 195.653,26.6653 203.659,24.414 225.834,24.414 C 248.008,24.414 253.516,25.8327 273.498,33.156 z" transform="matrix(0.252816,0.462057,0.80443,-0.320963,274.2416,15.86573)" style="font-size:12px;fill:#a70000;fill-opacity:1;fill-rule:evenodd;stroke-width:1pt"/><path id="path936" d="M 273.498,33.156 C 253.933,33.8186 246.343,31.4908 233.743,31.9071 C 211.58,32.6159 195.653,36.3164 195.653,31.4909 C 195.653,26.6653 203.659,24.414 225.834,24.414 C 248.008,24.414 253.516,25.8327 273.498,33.156 z" transform="matrix(0.593028,0.279155,0.546303,-0.877339,203.7838,1.463341)" style="font-size:12px;fill:#a70000;fill-opacity:1;fill-rule:evenodd;stroke-width:1pt"/><path id="path937" d="M 273.498,33.156 C 253.933,33.8186 246.343,31.4908 233.743,31.9071 C 211.58,32.6159 195.653,36.3164 195.653,31.4909 C 195.653,26.6653 203.659,24.414 225.834,24.414 C 248.008,24.414 253.516,25.8327 273.498,33.156 z" transform="matrix(0.440176,0.333539,0.643699,-0.647607,246.4775,13.58279)" style="font-size:12px;fill:#a70000;fill-opacity:1;fill-rule:evenodd;stroke-width:1pt"/></g></svg>