<svg xmlns="http://www.w3.org/2000/svg" xmlns:svg="http://www.w3.org/2000/svg" xmlns:xlink="http://www.w3.org/1999/xlink" id="svg2390" width="256" height="256" version="1.0" viewBox="0 0 200 100"><metadata/><rect id="rect2392" width="200" height="100" x="0" y="0" style="fill:#0d2b88"/><path id="star" d="M 116.91604,94.060661 L 122.5,76.875 L 128.08396,94.060662 L 113.46496,83.439338 L 131.53504,83.439339 L 116.91604,94.060661 z" style="fill:#fff"/><path id="path2395" d="M 53,0 L 153,0 L 153,100 L 53,0 z" style="fill:#ffd911"/><path id="path11682" d="M 31.53125,0 L 35,0 L 38.46875,0 L 40.58396,6.560662 L 35,2.5 L 29.41604,6.560661 L 31.53125,0 z" style="fill:#fff"/><path id="path11689" d="M 131.53125,100 L 125.96496,95.939338 L 132.875,95.9375 L 135,89.375 L 137.125,95.9375 L 144.03504,95.939339 L 138.46875,100 L 135,100 L 131.53125,100 z" style="fill:#fff"/><use id="use2399" width="200" height="100" x="0" y="0" transform="translate(-75,-75)" xlink:href="#star"/><use id="use2401" width="200" height="100" x="0" y="0" transform="translate(-62.5,-62.5)" xlink:href="#star"/><use id="use2403" width="200" height="100" x="0" y="0" transform="translate(-50,-50)" xlink:href="#star"/><use id="use2405" width="200" height="100" x="0" y="0" transform="translate(-37.5,-37.5)" xlink:href="#star"/><use id="use2407" width="200" height="100" x="0" y="0" transform="translate(-24.999998,-25)" xlink:href="#star"/><use id="use2409" width="200" height="100" x="0" y="0" transform="translate(-12.5,-12.5)" xlink:href="#star"/></svg>