<svg xmlns="http://www.w3.org/2000/svg" xmlns:svg="http://www.w3.org/2000/svg" xmlns:xlink="http://www.w3.org/1999/xlink" id="svg2442" width="256" height="256" version="1.0" viewBox="-69 -46 138 92"><metadata/><title id="title2444">Flag of Antigua and Barbuda</title><rect id="field" width="138" height="92" x="-69" y="-46" style="fill:#fff"/><rect id="blueband" width="138" height="20" x="-69" y="-10" style="fill:#0072c6"/><rect id="blackband" width="138" height="36" x="-69" y="-46" style="fill:#000"/><path id="redtriangles" d="M -69,-46 L -69,46 L 69,46 L 69,-46 L 0,46 L -69,-46 z" style="fill:#ce1126"/><clipPath id="clipsun"><rect id="rect2451" width="138" height="46" x="-69" y="-46"/></clipPath><g id="sun" clip-path="url(#clipsun)" transform="matrix(30,0,0,30,0,-10)" style="fill:#fcd116"><g id="three_cones"><g id="cone"><polygon id="triangle" points="0 0 0 1 .25 1 0 0" transform="matrix(0.9807853,0.1950903,-0.1950903,0.9807853,0,-1)"/><use id="use2457" width="138" height="92" x="0" y="0" transform="scale(-1,1)" xlink:href="#triangle"/></g><use id="use2459" width="138" height="92" x="0" y="0" transform="matrix(0.9238795,0.3826834,-0.3826834,0.9238795,0,0)" xlink:href="#cone"/><use id="use2461" width="138" height="92" x="0" y="0" transform="matrix(0.9238795,-0.3826834,0.3826834,0.9238795,0,0)" xlink:href="#cone"/></g><use id="use2463" width="138" height="92" x="0" y="0" transform="matrix(0.3826834,0.9238795,-0.9238795,0.3826834,0,0)" xlink:href="#three_cones"/><use id="use2465" width="138" height="92" x="0" y="0" transform="matrix(0.3826834,-0.9238795,0.9238795,0.3826834,0,0)" xlink:href="#three_cones"/></g></svg>