<svg xmlns="http://www.w3.org/2000/svg" xmlns:svg="http://www.w3.org/2000/svg" xmlns:xlink="http://www.w3.org/1999/xlink" id="svg2761" width="256" height="256" version="1.0"><metadata/><defs id="defs2763"><polygon id="pt" points="-.162 0 0 -.5 .162 0 -.162 0" transform="scale(6.16e-2,6.16e-2)" style="fill:#fff"/><g id="star"><use id="use2767" width="1235" height="650" x="0" y="0" transform="matrix(-0.809017,-0.5877853,0.5877853,-0.809017,0,0)" xlink:href="#pt"/><use id="use2769" width="1235" height="650" x="0" y="0" transform="matrix(0.309017,-0.9510565,0.9510565,0.309017,0,0)" xlink:href="#pt"/><use id="use2771" width="1235" height="650" x="0" y="0" xlink:href="#pt"/><use id="use2773" width="1235" height="650" x="0" y="0" transform="matrix(0.309017,0.9510565,-0.9510565,0.309017,0,0)" xlink:href="#pt"/><use id="use2775" width="1235" height="650" x="0" y="0" transform="matrix(-0.809017,0.5877853,-0.5877853,-0.809017,0,0)" xlink:href="#pt"/></g><g id="s5"><use id="use2778" width="1235" height="650" x="-.252" y="0" xlink:href="#star"/><use id="use2780" width="1235" height="650" x="-.126" y="0" xlink:href="#star"/><use id="use2782" width="1235" height="650" x="0" y="0" xlink:href="#star"/><use id="use2784" width="1235" height="650" x=".126" y="0" xlink:href="#star"/><use id="use2786" width="1235" height="650" x=".252" y="0" xlink:href="#star"/></g><g id="s6"><use id="use2789" width="1235" height="650" x="-.063" y="0" xlink:href="#s5"/><use id="use2791" width="1235" height="650" x=".315" y="0" xlink:href="#star"/></g><g id="x4"><use id="use2794" width="1235" height="650" x="0" y="0" xlink:href="#s6"/><use id="use2796" width="1235" height="650" x="0" y=".054" xlink:href="#s5"/><use id="use2798" width="1235" height="650" x="0" y=".108" xlink:href="#s6"/><use id="use2800" width="1235" height="650" x="0" y=".162" xlink:href="#s5"/></g><g id="u"><use id="use2803" width="1235" height="650" x="0" y="-.216" xlink:href="#x4"/><use id="use2805" width="1235" height="650" x="0" y="0" xlink:href="#x4"/><use id="use2807" width="1235" height="650" x="0" y=".216" xlink:href="#s6"/></g><rect id="stripe" width="1235" height="50" x="0" y="0" style="fill:#bb133e"/></defs><rect id="rect2810" width="256" height="134.737" x="0" y="60.263" style="fill:#fff"/><use id="use2812" width="1235" height="650" x="0" y="0" transform="matrix(0.2072874,0,0,0.2072876,0,60.263)" xlink:href="#stripe"/><use id="use2814" width="1235" height="650" x="0" y="100" transform="matrix(0.2072874,0,0,0.2072876,0,60.263)" xlink:href="#stripe"/><use id="use2816" width="1235" height="650" x="0" y="200" transform="matrix(0.2072874,0,0,0.2072876,0,60.263)" xlink:href="#stripe"/><use id="use2818" width="1235" height="650" x="0" y="300" transform="matrix(0.2072874,0,0,0.2072876,0,60.263)" xlink:href="#stripe"/><use id="use2820" width="1235" height="650" x="0" y="400" transform="matrix(0.2072874,0,0,0.2072876,0,60.263)" xlink:href="#stripe"/><use id="use2822" width="1235" height="650" x="0" y="500" transform="matrix(0.2072874,0,0,0.2072876,0,60.263)" xlink:href="#stripe"/><use id="use2824" width="1235" height="650" x="0" y="600" transform="matrix(0.2072874,0,0,0.2072876,0,60.263)" xlink:href="#stripe"/><rect id="rect2826" width="102.4" height="72.551" x="0" y="60.263" style="fill:#002664"/><use id="use2828" width="1235" height="650" x="0" y="0" transform="matrix(134.73684,0,0,134.73697,51.2,96.538335)" xlink:href="#u"/></svg>