<svg xmlns="http://www.w3.org/2000/svg" xmlns:svg="http://www.w3.org/2000/svg" xmlns:xlink="http://www.w3.org/1999/xlink" id="svg2383" width="256" height="256" version="1.0"><metadata/><defs id="defs2385"><path id="Allahu_Akbar" d="M 0,0 L 1,0 L 1,-2 L 4,-2 L 4,0 L 9,0 L 9,-3 L 6,-3 L 6,-2 L 8,-2 L 8,-1 L 5,-1 L 5,-3 L 0,-3 L 0,0 z M 2,0 L 3,0 L 3,-1 L 2,-1 L 2,0 z M 0,-4 L 13,-4 L 13,-5 L 0,-5 L 0,-4 z M 13,0 L 10,0 L 10,-3 L 14,-3 L 14,-5 L 15,-5 L 15,-1 L 16,-1 L 16,-5 L 17,-5 L 17,-1 L 18,-1 L 18,-5 L 19,-5 L 19,0 L 14,0 L 14,-2 L 11,-2 L 11,-1 L 13,-1 L 13,0 z" transform="translate(-9.5,0)" style="fill:#fff"/><path id="lines" d="M 0,0 L 9,0 L 9,-2 L 0,-2 L 0,0 z M 10,0 L 19,0 L 19,-2 L 10,-2 L 10,0 z" transform="translate(-9.5,0)" style="fill:#fff"/></defs><rect id="rect2389" width="256" height="146.286" x="0" y="54.714" style="fill:#fff"/><rect id="rect2391" width="256" height="48.873" x="0" y="54.714" style="fill:#239f40"/><rect id="rect2395" width="256" height="48.873" x="0" y="152.127" style="fill:#da0000"/><path id="path2399" d="M 128,112.48919 L 125.72685,114.33613 L 126.15306,143.88708 L 128,146.01816 L 129.84694,143.88708 L 130.27315,114.33613 L 128,112.48919 z" style="fill:#da0000"/><path id="path2401" d="M 132.5463,109.36361 C 132.08416,110.11323 131.32724,110.63312 130.4617,110.79541 C 129.59615,110.9577 128.70231,110.74733 128,110.21604 C 127.29769,110.74733 126.40385,110.9577 125.5383,110.79541 C 124.67276,110.63312 123.91584,110.11323 123.4537,109.36361 C 123.14929,110.54788 123.67895,111.78886 124.74468,112.38833 C 125.81041,112.98781 127.14601,112.79603 128,111.9209 C 128.85399,112.79603 130.18959,112.98781 131.25532,112.38833 C 132.32105,111.78886 132.85071,110.54788 132.5463,109.36361" style="fill:#da0000"/><path id="path2403" d="M 133.68288,113.48369 C 138.03056,119.41099 138.44941,127.35221 134.74936,133.70397 C 131.0493,140.05572 123.93485,143.60862 116.63425,142.7505 C 124.51401,145.90266 133.51372,142.80599 137.78557,135.47264 C 142.05742,128.13929 140.31176,118.78318 133.68288,113.48369" style="fill:#da0000"/><path id="path2405" d="M 122.31712,113.48369 C 117.96944,119.41099 117.55059,127.35221 121.25064,133.70397 C 124.9507,140.05572 132.06515,143.60862 139.36575,142.7505 C 131.48599,145.90266 122.48628,142.80599 118.21443,135.47264 C 113.94258,128.13929 115.68824,118.78318 122.31712,113.48369" style="fill:#da0000"/><path id="path2407" d="M 135.81395,112.91541 C 139.98901,115.95242 142.70231,120.5983 143.29615,125.72683 C 143.88997,130.85537 142.31011,135.99835 138.93953,139.90907 C 144.20307,137.06263 147.20323,131.2983 146.51496,125.35413 C 145.82669,119.40995 141.58867,114.48373 135.81395,112.91541" style="fill:#da0000"/><path id="path2409" d="M 120.18605,112.91541 C 116.01099,115.95242 113.29769,120.5983 112.70385,125.72683 C 112.11003,130.85537 113.68989,135.99835 117.06047,139.90907 C 111.79693,137.06263 108.79677,131.2983 109.48504,125.35413 C 110.17331,119.40995 114.41133,114.48373 120.18605,112.91541" style="fill:#da0000"/><use id="use2412" width="1540" height="880" x="0" y="0" transform="matrix(1.1636364,0,0,1.1636364,11.636364,101.25972)" xlink:href="#Allahu_Akbar"/><use id="use2414" width="1540" height="880" x="0" y="0" transform="matrix(1.1636364,0,0,1.1636364,34.909091,101.25972)" xlink:href="#Allahu_Akbar"/><use id="use2416" width="1540" height="880" x="0" y="0" transform="matrix(1.1636364,0,0,1.1636364,58.181818,101.25972)" xlink:href="#Allahu_Akbar"/><use id="use2418" width="1540" height="880" x="0" y="0" transform="matrix(1.1636364,0,0,1.1636364,81.454545,101.25972)" xlink:href="#Allahu_Akbar"/><use id="use2420" width="1540" height="880" x="0" y="0" transform="matrix(1.1636364,0,0,1.1636364,104.72727,101.25972)" xlink:href="#Allahu_Akbar"/><use id="use2422" width="1540" height="880" x="0" y="0" transform="matrix(1.1636364,0,0,1.1636364,128,101.25972)" xlink:href="#Allahu_Akbar"/><use id="use2424" width="1540" height="880" x="0" y="0" transform="matrix(1.1636364,0,0,1.1636364,151.27273,101.25972)" xlink:href="#Allahu_Akbar"/><use id="use2426" width="1540" height="880" x="0" y="0" transform="matrix(1.1636364,0,0,1.1636364,174.54545,101.25972)" xlink:href="#Allahu_Akbar"/><use id="use2428" width="1540" height="880" x="0" y="0" transform="matrix(1.1636364,0,0,1.1636364,197.81818,101.25972)" xlink:href="#Allahu_Akbar"/><use id="use2430" width="1540" height="880" x="0" y="0" transform="matrix(1.1636364,0,0,1.1636364,221.09091,101.25972)" xlink:href="#Allahu_Akbar"/><use id="use2432" width="1540" height="880" x="0" y="0" transform="matrix(1.1636364,0,0,1.1636364,244.36364,101.25972)" xlink:href="#Allahu_Akbar"/><use id="use2435" width="1540" height="880" x="0" y="0" transform="matrix(1.1636364,0,0,1.1636364,11.636364,104.75063)" xlink:href="#lines"/><use id="use2437" width="1540" height="880" x="0" y="0" transform="matrix(1.1636364,0,0,1.1636364,34.909091,104.75063)" xlink:href="#lines"/><use id="use2439" width="1540" height="880" x="0" y="0" transform="matrix(1.1636364,0,0,1.1636364,58.181818,104.75063)" xlink:href="#lines"/><use id="use2441" width="1540" height="880" x="0" y="0" transform="matrix(1.1636364,0,0,1.1636364,81.454545,104.75063)" xlink:href="#lines"/><use id="use2443" width="1540" height="880" x="0" y="0" transform="matrix(1.1636364,0,0,1.1636364,104.72727,104.75063)" xlink:href="#lines"/><use id="use2445" width="1540" height="880" x="0" y="0" transform="matrix(1.1636364,0,0,1.1636364,128,104.75063)" xlink:href="#lines"/><use id="use2447" width="1540" height="880" x="0" y="0" transform="matrix(1.1636364,0,0,1.1636364,151.27273,104.75063)" xlink:href="#lines"/><use id="use2449" width="1540" height="880" x="0" y="0" transform="matrix(1.1636364,0,0,1.1636364,174.54545,104.75063)" xlink:href="#lines"/><use id="use2451" width="1540" height="880" x="0" y="0" transform="matrix(1.1636364,0,0,1.1636364,197.81818,104.75063)" xlink:href="#lines"/><use id="use2453" width="1540" height="880" x="0" y="0" transform="matrix(1.1636364,0,0,1.1636364,221.09091,104.75063)" xlink:href="#lines"/><use id="use2455" width="1540" height="880" x="0" y="0" transform="matrix(1.1636364,0,0,1.1636364,244.36364,104.75063)" xlink:href="#lines"/><use id="use2579" width="1540" height="880" x="0" y="0" transform="matrix(1.1636364,0,0,1.1636364,11.636364,160.27271)" xlink:href="#Allahu_Akbar"/><use id="use2581" width="1540" height="880" x="0" y="0" transform="matrix(1.1636364,0,0,1.1636364,34.909091,160.27271)" xlink:href="#Allahu_Akbar"/><use id="use2583" width="1540" height="880" x="0" y="0" transform="matrix(1.1636364,0,0,1.1636364,58.181818,160.27271)" xlink:href="#Allahu_Akbar"/><use id="use2585" width="1540" height="880" x="0" y="0" transform="matrix(1.1636364,0,0,1.1636364,81.454545,160.27271)" xlink:href="#Allahu_Akbar"/><use id="use2587" width="1540" height="880" x="0" y="0" transform="matrix(1.1636364,0,0,1.1636364,104.72727,160.27271)" xlink:href="#Allahu_Akbar"/><use id="use2589" width="1540" height="880" x="0" y="0" transform="matrix(1.1636364,0,0,1.1636364,128,160.27271)" xlink:href="#Allahu_Akbar"/><use id="use2591" width="1540" height="880" x="0" y="0" transform="matrix(1.1636364,0,0,1.1636364,151.27273,160.27271)" xlink:href="#Allahu_Akbar"/><use id="use2593" width="1540" height="880" x="0" y="0" transform="matrix(1.1636364,0,0,1.1636364,174.54545,160.27271)" xlink:href="#Allahu_Akbar"/><use id="use2595" width="1540" height="880" x="0" y="0" transform="matrix(1.1636364,0,0,1.1636364,197.81818,160.27271)" xlink:href="#Allahu_Akbar"/><use id="use2597" width="1540" height="880" x="0" y="0" transform="matrix(1.1636364,0,0,1.1636364,221.09091,160.27271)" xlink:href="#Allahu_Akbar"/><use id="use2599" width="1540" height="880" x="0" y="0" transform="matrix(1.1636364,0,0,1.1636364,244.36364,160.27271)" xlink:href="#Allahu_Akbar"/><use id="use2544" width="1540" height="880" x="0" y="0" transform="matrix(1.1636364,0,0,1.1636364,11.636364,153.29089)" xlink:href="#lines"/><use id="use2546" width="1540" height="880" x="0" y="0" transform="matrix(1.1636364,0,0,1.1636364,34.909091,153.29089)" xlink:href="#lines"/><use id="use2548" width="1540" height="880" x="0" y="0" transform="matrix(1.1636364,0,0,1.1636364,58.181818,153.29089)" xlink:href="#lines"/><use id="use2550" width="1540" height="880" x="0" y="0" transform="matrix(1.1636364,0,0,1.1636364,81.454545,153.29089)" xlink:href="#lines"/><use id="use2552" width="1540" height="880" x="0" y="0" transform="matrix(1.1636364,0,0,1.1636364,104.72727,153.29089)" xlink:href="#lines"/><use id="use2554" width="1540" height="880" x="0" y="0" transform="matrix(1.1636364,0,0,1.1636364,128,153.29089)" xlink:href="#lines"/><use id="use2556" width="1540" height="880" x="0" y="0" transform="matrix(1.1636364,0,0,1.1636364,151.27273,153.29089)" xlink:href="#lines"/><use id="use2558" width="1540" height="880" x="0" y="0" transform="matrix(1.1636364,0,0,1.1636364,174.54545,153.29089)" xlink:href="#lines"/><use id="use2560" width="1540" height="880" x="0" y="0" transform="matrix(1.1636364,0,0,1.1636364,197.81818,153.29089)" xlink:href="#lines"/><use id="use2562" width="1540" height="880" x="0" y="0" transform="matrix(1.1636364,0,0,1.1636364,221.09091,153.29089)" xlink:href="#lines"/><use id="use2564" width="1540" height="880" x="0" y="0" transform="matrix(1.1636364,0,0,1.1636364,244.36364,153.29089)" xlink:href="#lines"/></svg>