<svg xmlns="http://www.w3.org/2000/svg" xmlns:svg="http://www.w3.org/2000/svg" xmlns:xlink="http://www.w3.org/1999/xlink" id="svg4214" width="256" height="256" version="1.0"><metadata/><defs id="defs4216"><clipPath id="Canton"><path id="path4219" d="M 0,0 L 600,0 L 600,300 L 0,300 L 0,0 z"/></clipPath><clipPath id="Diagonals"><path id="path4222" d="M 0,0 L 300,150 L 0,150 L 0,0 z M 300,0 L 600,0 L 300,150 L 300,0 z M 300,150 L 600,150 L 600,300 L 300,150 z M 300,150 L 300,300 L 0,300 L 300,150 z"/></clipPath><g id="Pentagram"><g id="Arm" transform="translate(0,-0.324925)"><path id="path4226" d="M 0,0 L 0,0.5 L 1,0 L 0,0 z"/><path id="path4228" d="M 0,0 L 0,-0.5 L 1,0 L 0,0 z" transform="matrix(0.809017,-0.5877853,0.5877853,0.809017,0.190983,0.5877853)"/></g><use id="use4230" width="1200" height="600" x="0" y="0" transform="scale(-1,1)" xlink:href="#Arm"/><use id="use4232" width="1200" height="600" x="0" y="0" transform="matrix(0.309017,0.9510565,-0.9510565,0.309017,0,0)" xlink:href="#Arm"/><use id="use4234" width="1200" height="600" x="0" y="0" transform="matrix(0.309017,-0.9510565,0.9510565,0.309017,0,0)" xlink:href="#Arm"/><use id="use4236" width="1200" height="600" x="0" y="0" transform="matrix(-0.309017,0.9510565,0.9510565,0.309017,0,0)" xlink:href="#Arm"/></g></defs><rect id="rect4238" width="256" height="128" x="0" y="69" style="fill:#00247d"/><g id="Flag_of_the_United_Kingdom" transform="matrix(0.2133333,0,0,0.2133338,0,68.999691)"><path id="Saint_Andrews_Cross" d="M 0,0 L 600,300 M 0,300 L 600,0" clip-path="url(#Canton)" style="stroke:#fff;stroke-width:60"/><path id="Saint_Patricks_Cross" d="M 0,0 L 600,300 M 0,300 L 600,0" clip-path="url(#Diagonals)" style="stroke:#cc142b;stroke-width:40"/><g id="Saint_Georges_Cross"><path id="path4244" d="M 300,0 L 300,300 M 0,150 L 600,150" clip-path="url(#Canton)" style="stroke:#fff;stroke-width:100"/><path id="path4246" d="M 300,0 L 300,300 M 0,150 L 600,150" clip-path="url(#Canton)" style="stroke:#cc142b;stroke-width:60"/></g></g><g id="Southern_Cross" transform="matrix(0.2133333,0,0,0.2133338,0,68.999691)"><g id="Gamma_Crucis"><use id="use4250" width="1200" height="600" x="0" y="0" transform="matrix(40,0,0,40,900,120)" xlink:href="#Pentagram" style="fill:#fff"/><use id="use4252" width="1200" height="600" x="0" y="0" transform="matrix(30,0,0,30,900,120)" xlink:href="#Pentagram" style="fill:#cc142b"/></g><g id="g4254" transform="matrix(0.1391731,0.9902681,-0.9902681,0.1391731,1012.4085,-684.64281)"><g id="Delta_Crucis"><use id="use4257" width="1200" height="600" x="0" y="0" transform="matrix(4.8710585,-34.659382,34.659382,4.8710585,900,120)" xlink:href="#Pentagram" style="fill:#fff"/><use id="use4259" width="1200" height="600" x="0" y="0" transform="matrix(3.4793275,-24.756702,24.756702,3.4793275,900,120)" xlink:href="#Pentagram" style="fill:#cc142b"/></g><g id="Beta_Crucis"><use id="use4262" width="1200" height="600" x="0" y="0" transform="matrix(5.566924,-39.610723,39.610723,5.566924,900,380)" xlink:href="#Pentagram" style="fill:#fff"/><use id="use4264" width="1200" height="600" x="0" y="0" transform="matrix(4.175193,-29.708042,29.708042,4.175193,900,380)" xlink:href="#Pentagram" style="fill:#cc142b"/></g></g><g id="Alpha_Crucis"><use id="use4267" width="1200" height="600" x="0" y="0" transform="matrix(45,0,0,45,900,480)" xlink:href="#Pentagram" style="fill:#fff"/><use id="use4269" width="1200" height="600" x="0" y="0" transform="matrix(35,0,0,35,900,480)" xlink:href="#Pentagram" style="fill:#cc142b"/></g></g></svg>