<svg xmlns="http://www.w3.org/2000/svg" xmlns:svg="http://www.w3.org/2000/svg" xmlns:xlink="http://www.w3.org/1999/xlink" id="svg4097" width="256" height="256" version="1.0" viewBox="0 0 252 126"><metadata/><rect id="green_stripes" width="252" height="126" x="0" y="0" style="fill:#319208"/><rect id="yellow_stripes" width="252" height="90" x="0" y="18" style="fill:#ffd200"/><rect id="red_stripes" width="252" height="54" x="0" y="36" style="fill:#de2010"/><rect id="black_stripe" width="252" height="18" x="0" y="54" style="fill:#000"/><path id="path4103" d="M 4.5825757,0 L 88.582576,63 L 4.5825757,126 L 0,126 L 0,0 L 4.5825757,0 z" style="fill:#000"/><comment id="comment4105">value has to be sqrt(21)</comment><path id="path4107" d="M 0,0 L 84,63 L 0,126" style="fill:#fff"/><g id="star"><g id="upper_star_part" transform="matrix(32,0,0,32,34,63)" style="fill:#de2010"><g id="g4111"><polygon id="triangle_ur" points="0 0 0 1 .75 1 0 0" transform="matrix(0.8967361,0.4425657,-0.4425657,0.8967361,0,-1)"/><use id="triangle_ul" width="252" height="126" x="0" y="0" transform="scale(-1,1)" xlink:href="#triangle_ur"/><polygon id="triangle2_ur" points="0 0 0 1 .75 1 0 0" transform="matrix(0.9421747,0.3351221,-0.3351221,0.9421747,0,-1)"/><use id="triangle2_ul" width="252" height="126" x="0" y="0" transform="scale(-1,1)" xlink:href="#triangle2_ur"/></g><use id="use4117" width="252" height="126" x="0" y="0" transform="matrix(0.309017,0.9510565,-0.9510565,0.309017,0,0)" xlink:href="#triangle_ur"/><use id="use4119" width="252" height="126" x="0" y="0" transform="matrix(0.309017,-0.9510565,0.9510565,0.309017,0,0)" xlink:href="#triangle_ul"/><use id="use4121" width="252" height="126" x="0" y="0" transform="matrix(0.309017,0.9510565,-0.9510565,0.309017,0,0)" xlink:href="#triangle2_ur"/><use id="use4123" width="252" height="126" x="0" y="0" transform="matrix(0.309017,-0.9510565,0.9510565,0.309017,0,0)" xlink:href="#triangle2_ul"/></g><g id="lower_star_part" transform="matrix(27.5,0,0,27.5,34,63)" style="fill:#de2010"><g id="cone_l"><polygon id="triangle_l" points="0 0 0 1 .5 1 0 0" transform="matrix(0.9119424,0.4103181,-0.4103181,0.9119424,0,-1)"/><use id="use4128" width="252" height="126" x="0" y="0" transform="scale(-1,1)" xlink:href="#triangle_l"/></g><use id="use4130" width="252" height="126" x="0" y="0" transform="matrix(-0.809017,0.5877853,-0.5877853,-0.809017,0,0)" xlink:href="#cone_l"/><use id="use4132" width="252" height="126" x="0" y="0" transform="matrix(-0.809017,-0.5877853,0.5877853,-0.809017,0,0)" xlink:href="#cone_l"/></g></g><g id="bird"><path id="path4135" d="M 28.63541,55.109321 C 30.611561,59.414581 31.105753,59.697041 36.046234,61.390941 C 40.986715,63.084631 54.943835,64.690451 56.320131,64.849251 C 55.420245,63.949371 39.698712,52.303801 36.46971,49.974681 C 33.240707,47.645571 32.340822,46.586881 32.340822,46.586881 C 32.340822,46.586881 29.429427,41.346381 28.423672,39.811281 C 27.417918,38.276181 25.565211,36.105871 23.130227,36.105871 C 20.695242,36.105871 19.21318,37.535101 18.507353,40.075951 C 18.119132,40.181821 16.037009,41.452451 16.107623,42.758031 C 16.707582,42.687311 20.483608,41.628621 21.78929,45.898731 C 23.095075,50.168841 23.165585,57.155981 21.824545,60.614501 C 20.483504,64.073021 18.401485,66.684171 18.401485,69.719221 C 18.401485,70.142691 18.683733,70.989641 19.38956,70.989641 C 19.636553,72.330791 21.612807,81.894131 21.612807,81.894131 L 49.774042,81.894131 L 54.247003,64.602161" style="fill:#ffc618;overflow:visible"/><g id="g4137" style="fill:none;stroke:#000;stroke-width:.21173774;overflow:visible"><path id="path4139" d="M 28.63541,55.109321 C 30.611561,59.414581 31.105753,59.697041 36.046234,61.390941 C 40.986715,63.084631 54.943835,64.690451 56.320131,64.849251 C 55.420245,63.949371 39.698712,52.303801 36.46971,49.974681 C 33.240707,47.645571 32.340822,46.586881 32.340822,46.586881 C 32.340822,46.586881 29.429427,41.346381 28.423672,39.811281 C 27.417918,38.276181 25.565211,36.105871 23.130227,36.105871 C 20.695242,36.105871 19.21318,37.535101 18.507353,40.075951 C 18.119132,40.181821 16.037009,41.452451 16.107623,42.758031 C 16.707582,42.687311 20.483608,41.628621 21.78929,45.898731 C 23.095075,50.168841 23.165585,57.155981 21.824545,60.614501 C 20.483504,64.073021 18.401485,66.684171 18.401485,69.719221 C 18.401485,70.142691 18.683733,70.989641 19.38956,70.989641 C 19.636553,72.330791 21.612807,81.894131 21.612807,81.894131 L 49.774042,81.894131 L 54.247003,64.602161"/><path id="path4141" d="M 19.38956,70.989641 C 19.38956,70.989641 25.388832,70.636881 27.012225,70.636881 C 28.63541,70.636881 43.74613,70.655501 52.176976,72.604761"/><path id="path4143" d="M 21.508178,70.870751 C 21.508178,70.870751 20.907083,70.142691 21.2952,68.695891 C 21.683318,67.249081 25.918177,63.508111 25.918177,58.214871"/><path id="path4145" d="M 25.141736,70.636881 C 25.141736,70.636881 24.64775,68.272411 30.047065,66.260901 C 31.564587,65.802071 35.905007,63.367091 36.046234,61.390941"/><path id="path4147" d="M 29.473056,66.485261 C 29.473056,66.485261 42.71639,66.543151 53.197205,68.660531"/><path id="path4149" d="M 32.792626,64.905291 C 32.792626,64.905291 37.343128,65.060991 38.084211,64.849251 C 38.825293,64.637511 40.137077,64.087081 40.658976,62.536061"/><path id="path4151" d="M 35.490423,64.959261 C 35.490423,64.959261 37.924582,63.693791 38.401404,62.048281"/><path id="path4153" d="M 28.141424,81.894131 C 28.141424,81.894131 27.100311,74.677681 26.888574,70.636881 L 29.606013,73.230671 L 32.480809,70.716491 L 34.952392,73.354321 L 37.810027,70.929471 L 40.28099,73.707081 L 43.110918,71.300431 L 45.362698,73.918821 L 48.184976,71.877951 L 51.540109,75.066631"/><path id="path4155" d="M 50.9508,77.345081 C 40.870302,75.901381 27.380491,75.995051 27.380491,75.995051"/><path id="path4157" d="M 22.693931,51.052191 C 22.693931,51.052191 30.89381,47.133801 32.340822,46.586881"/></g><g id="g4159" transform="matrix(0.211738,0,0,0.211738,16,36)" style="fill:none;stroke:#000;overflow:visible"><polyline id="polyline4161" points="52.487 177.086 65.505 188.938 77.267 177.176 89.163 189.442 102.009 178.084 113.836 190.514 127.175 179.501 138.072 192.229 151.342 182.084 165.289 194.403"/><circle id="circle4163" cx="89.425" cy="154.584" r="5.167"/><circle id="circle4165" cx="111.237" cy="156.047" r="5.167"/><circle id="circle4167" cx="30.05" cy="16.5" r="4"/></g></g></svg>