<svg xmlns="http://www.w3.org/2000/svg" xmlns:svg="http://www.w3.org/2000/svg" xmlns:xlink="http://www.w3.org/1999/xlink" id="svg2692" width="256" height="256" version="1.0" viewBox="-125 -75 250 150"><metadata/><defs id="defs2694"><clipPath id="frame"><rect id="rect2697" width="250" height="150" x="-125" y="-75"/></clipPath><g id="star"><g id="triangle"><g id="cone"><path id="helper" d="M 0,0 L 0,10 L 10,10" transform="matrix(0.8660254,0.5,-0.5,0.8660254,0,-10)"/><use id="use2703" width="250" height="150" x="0" y="0" transform="scale(-1,1)" xlink:href="#helper"/></g><use id="use2705" width="250" height="150" x="0" y="0" transform="matrix(-0.5,0.8660254,-0.8660254,-0.5,0,0)" xlink:href="#cone"/><use id="use2707" width="250" height="150" x="0" y="0" transform="matrix(-0.5,-0.8660254,0.8660254,-0.5,0,0)" xlink:href="#cone"/></g><use id="use2709" width="250" height="150" x="0" y="0" transform="scale(-1,-1)" xlink:href="#triangle"/></g></defs><path id="path2711" d="M 0,0 L -125,-75 L 125,-75 L 0,0 z M 0,0 L 125,75 L -125,75 L 0,0 z" style="fill:#ce1126"/><path id="path2713" d="M 0,0 L -125,-75 L -125,75 L 0,0 z M 0,0 L 125,75 L 125,-75 L 0,0 z" style="fill:#1eb53a"/><g id="g2715" clip-path="url(#frame)" style="stroke:#fff;stroke-width:20"><line id="line2717" x1="-150" x2="150" y1="-90" y2="90"/><line id="line2719" x1="-150" x2="150" y1="90" y2="-90"/></g><circle id="circle2721" cx="0" cy="0" r="42.5" style="fill:#fff"/><g id="g2723" style="fill:#1eb53a"><use id="use2725" width="250" height="150" x="0" y="0" transform="translate(0,-22)" xlink:href="#star"/><use id="use2727" width="250" height="150" x="0" y="0" transform="matrix(-0.5,0.8660254,-0.8660254,-0.5,19.052559,11)" xlink:href="#star"/><use id="use2729" width="250" height="150" x="0" y="0" transform="matrix(-0.5,-0.8660254,0.8660254,-0.5,-19.052559,11)" xlink:href="#star"/></g><comment id="comment2731">The size of the red stars needs to be precisely 82% of the size of the green stars</comment><g id="g2733" style="fill:#ce1126"><use id="use2735" width="250" height="150" x="0" y="0" transform="matrix(0.82,0,0,0.82,0,-22)" xlink:href="#star"/><use id="use2737" width="250" height="150" x="0" y="0" transform="matrix(-0.41,0.7101408,-0.7101408,-0.41,19.052559,11)" xlink:href="#star"/><use id="use2739" width="250" height="150" x="0" y="0" transform="matrix(-0.41,-0.7101408,0.7101408,-0.41,-19.052559,11)" xlink:href="#star"/></g></svg>