<svg xmlns="http://www.w3.org/2000/svg" xmlns:svg="http://www.w3.org/2000/svg" xmlns:xlink="http://www.w3.org/1999/xlink" id="svg2436" width="256" height="256" version="1.0" viewBox="-45 -45 243 162"><metadata/><rect id="rect2438" width="243" height="162" x="-45" y="-45" style="fill:#fff"/><path id="path2440" d="M 45,-18 L 198,-18 M 45,18 L 198,18 M -45,54 L 198,54 M -45,90 L 198,90" style="fill:none;stroke:#0038a8;stroke-width:18"/><g id="sun" stroke-miterlimit="20" style="fill:#fcd116;stroke:#000;stroke-width:.60000002;stroke-miterlimit:20"><g id="4wavyrays"><g id="2wavyrays"><g id="wavyray" transform="matrix(0.9238795,0.3826834,-0.3826834,0.9238795,0,0)"><path id="path2446" d="M 0,0 L 6,12 C -2,25 7,27 0,33 C 3,25 -4,28 -3,13"/><path id="path2448" d="M 0,11 C -2,24 4.5,28 0,33" style="fill:none"/></g><use id="use2450" width="243" height="162" x="0" y="0" transform="scale(-1,-1)" xlink:href="#wavyray"/></g><use id="use2452" width="243" height="162" x="0" y="0" transform="matrix(0,1,-1,0,0,0)" xlink:href="#2wavyrays"/></g><use id="use2454" width="243" height="162" x="0" y="0" transform="matrix(0.7071068,0.7071068,-0.7071068,0.7071068,0,0)" xlink:href="#4wavyrays"/><g id="4straightrays"><g id="2straightrays"><path id="straightray" d="M 0,0 L 6,0 L 0,33 L -6,0 L 0,0 L 0,33"/><use id="use2459" width="243" height="162" x="0" y="0" transform="scale(-1,-1)" xlink:href="#straightray"/></g><use id="use2461" width="243" height="162" x="0" y="0" transform="matrix(0,1,-1,0,0,0)" xlink:href="#2straightrays"/></g><use id="use2463" width="243" height="162" x="0" y="0" transform="matrix(0.7071068,0.7071068,-0.7071068,0.7071068,0,0)" xlink:href="#4straightrays"/><circle id="circle2465" cx="0" cy="0" r="11"/><g id="face" transform="scale(0.1,0.1)" style="fill:#000;stroke:none"><g id="right"><path id="path2469" d="M 81,-44 C 74,-36 70,-50 45,-50 C 20,-50 16,-35 12,-38 C 8,-41 33,-59 41,-60 C 49,-61 72,-53 81,-44"/><path id="path2471" d="M 52,-35 C 59,-29 53,-16 46,-16 C 39,-16 26,-28 32,-36"/><path id="path2473" d="M 19,-26 C 20,-38 30,-40 46,-40 C 62,-40 69,-28 75,-25 C 68,-25 62,-35 46,-35 C 30,-35 30,-35 19,-25"/><path id="path2475" d="M 22,-23 C 26,-29 31,-17 42,-17 C 53,-17 59,-20 66,-25 C 73,-30 56,-13 45,-13 C 34,-13 19,-19 22,-23"/><path id="path2477" d="M 56,-17 C 69,-24 61,-34 56,-36 C 58,-34 66,-24 56,-17"/><path id="path2479" d="M 0,43 C 6,43 8,41 16,41 C 24,41 43,52 54,48 C 31,57 40,51 0,51 L -5,51"/><path id="path2481" d="M 58,57 C 54,50 55,52 47,41 C 55,47 57,50 58,57"/><path id="path2483" d="M 0,67 C 25,67 21,62 54,48 C 30,51 25,59 0,59 L -5,59"/><path id="path2485" d="M 0,30 C 7,30 9,25 17,25 C 25,25 36,28 41,32 C 42,33 38,24 30,23 C 22,22 25,9 16,7 C 16,11 19,10 20,16 C 20,21 11,21 9,16 C 11,24 5,24 0,24"/></g><use id="use2487" width="243" height="162" x="0" y="0" transform="scale(-1,1)" xlink:href="#right"/><path id="path2489" d="M 0,76 C -5,76 -18,79 0,79 C 18,79 5,76 0,76"/></g></g></svg>