<svg xmlns="http://www.w3.org/2000/svg" xmlns:svg="http://www.w3.org/2000/svg" xmlns:xlink="http://www.w3.org/1999/xlink" id="svg3441" width="256" height="256" version="1.0" viewBox="0 0 16.18 10"><metadata/><rect id="green_ground" width="16.18" height="10" x="0" y="0" style="fill:#006a4e"/><rect id="upper_yellow_stripe" width="16.18" height="2" x="0" y="2" style="fill:#ffce00"/><rect id="lower_yellow_stripe" width="16.18" height="2" x="0" y="6" style="fill:#ffce00"/><rect id="red_square" width="6" height="6" x="0" y="0" style="fill:#d21034"/><g id="star" transform="matrix(1.9,0,0,1.9,3,3)" style="fill:#fff"><g id="cone"><polygon id="triangle" points="0 0 0 1 .5 1 0 0" transform="matrix(0.9510565,0.309017,-0.309017,0.9510565,0,-1)"/><use id="use3450" width="16.18" height="10" x="0" y="0" transform="scale(-1,1)" xlink:href="#triangle"/></g><use id="use3452" width="16.18" height="10" x="0" y="0" transform="matrix(0.309017,0.9510565,-0.9510565,0.309017,0,0)" xlink:href="#cone"/><use id="use3454" width="16.18" height="10" x="0" y="0" transform="matrix(0.309017,-0.9510565,0.9510565,0.309017,0,0)" xlink:href="#cone"/><use id="use3456" width="16.18" height="10" x="0" y="0" transform="matrix(-0.809017,0.5877853,-0.5877853,-0.809017,0,0)" xlink:href="#cone"/><use id="use3458" width="16.18" height="10" x="0" y="0" transform="matrix(-0.809017,-0.5877853,0.5877853,-0.809017,0,0)" xlink:href="#cone"/></g></svg>