<svg xmlns="http://www.w3.org/2000/svg" xmlns:svg="http://www.w3.org/2000/svg" xmlns:xlink="http://www.w3.org/1999/xlink" id="svg2734" width="256" height="256" version="1.0" viewBox="0 0 36 24"><metadata/><desc id="desc2736">Flag of Panama</desc><defs id="defs2738"><g id="star" transform="scale(3,3)"><g id="c"><path id="t" d="M 0,0 L 0,1 L 0.5,1 L 0,0 z" transform="matrix(0.9510565,0.309017,-0.309017,0.9510565,0,-1)"/><use id="use2743" width="36" height="24" x="0" y="0" transform="scale(-1,1)" xlink:href="#t"/></g><use id="use2745" width="36" height="24" x="0" y="0" transform="matrix(0.309017,0.9510565,-0.9510565,0.309017,0,0)" xlink:href="#c"/><use id="use2747" width="36" height="24" x="0" y="0" transform="matrix(0.309017,-0.9510565,0.9510565,0.309017,0,0)" xlink:href="#c"/><use id="use2749" width="36" height="24" x="0" y="0" transform="matrix(-0.809017,0.5877853,-0.5877853,-0.809017,0,0)" xlink:href="#c"/><use id="use2751" width="36" height="24" x="0" y="0" transform="matrix(-0.809017,-0.5877853,0.5877853,-0.809017,0,0)" xlink:href="#c"/></g></defs><path id="path2753" d="M 0,0 L 36,0 L 36,24 L 0,24 L 0,0 z" style="fill:#fff"/><g id="g2755" style="fill:#0067c6"><use id="use2757" width="36" height="24" x="9" y="6" xlink:href="#star"/><path id="path2759" d="M 0,12 L 18,12 L 18,24 L 0,24 L 0,12 z"/></g><g id="g2761" style="fill:#d21034"><path id="path2763" d="M 18,0 L 36,0 L 36,12 L 18,12 L 18,0 z"/><use id="use2765" width="36" height="24" x="27" y="18" xlink:href="#star"/></g></svg>