<svg xmlns="http://www.w3.org/2000/svg" xmlns:svg="http://www.w3.org/2000/svg" xmlns:xlink="http://www.w3.org/1999/xlink" id="Flag of Tunisia" width="256" height="256" baseProfile="full" preserveAspectRatio="xMidYMid meet" version="1.0" viewBox="-60 -40 120 80" zoomAndPan="magnify"><metadata/><g id="g4048" style="fill:#e70013"><rect id="rect4050" width="120" height="80" x="-60" y="-40"/><circle id="circle4052" cx="0" cy="0" r="20" style="fill:#fff"/><circle id="circle4054" cx="0" cy="0" r="15"/><circle id="circle4056" cx="4" cy="0" r="12" style="fill:#fff"/><g id="star" transform="matrix(0,-9,9,0,4,0)"><g id="cone"><polyline id="triangle" points="0 0 0 1 .5 1" transform="matrix(0.9510565,0.309017,-0.309017,0.9510565,0,-1)"/><use id="use4061" width="120" height="80" x="0" y="0" transform="scale(-1,1)" xlink:href="#triangle"/></g><use id="use4063" width="120" height="80" x="0" y="0" transform="matrix(0.309017,0.9510565,-0.9510565,0.309017,0,0)" xlink:href="#cone"/><use id="use4065" width="120" height="80" x="0" y="0" transform="matrix(0.309017,-0.9510565,0.9510565,0.309017,0,0)" xlink:href="#cone"/><use id="use4067" width="120" height="80" x="0" y="0" transform="matrix(-0.809017,0.5877853,-0.5877853,-0.809017,0,0)" xlink:href="#cone"/><use id="use4069" width="120" height="80" x="0" y="0" transform="matrix(-0.809017,-0.5877853,0.5877853,-0.809017,0,0)" xlink:href="#cone"/></g></g></svg>