<svg xmlns="http://www.w3.org/2000/svg" xmlns:svg="http://www.w3.org/2000/svg" xmlns:xlink="http://www.w3.org/1999/xlink" id="svg548" width="256" height="256" version="1.0"><metadata/><defs id="defs550"><linearGradient id="linearGradient604" x1="0" x2="1" y1="0" y2="0" gradientUnits="objectBoundingBox" spreadMethod="pad"><stop id="stop605" offset="0" style="stop-color:#000;stop-opacity:1"/><stop id="stop606" offset="1" style="stop-color:#fff;stop-opacity:1"/></linearGradient><radialGradient id="radialGradient607" cx=".5" cy=".5" r=".5" fx=".5" fy=".5" gradientUnits="objectBoundingBox" spreadMethod="pad" xlink:href="#linearGradient604"/><linearGradient id="linearGradient608" x1="0" x2="1" y1="0" y2="0" gradientTransform="translate(1.039138e-6,-2.002184e-7)" gradientUnits="objectBoundingBox" spreadMethod="pad" xlink:href="#linearGradient604"/></defs><rect id="rect781" width="256" height="142.222" x="0" y="56.778" style="font-size:12px;fill:#da2d1c;fill-rule:evenodd;stroke-width:1pt"/><rect id="rect578" width="110.866" height="70.551" x="0" y="56.778" style="font-size:12px;fill:#2042a1;fill-rule:evenodd;stroke-width:1pt"/><path id="path577" d="M 64.584789,92.423862 C 64.584789,97.490643 60.421143,101.60285 55.291042,101.60285 C 50.161061,101.60285 45.997412,97.490643 45.997412,92.423862 C 45.997412,87.35708 50.161061,83.244986 55.291042,83.244986 C 60.421143,83.244986 64.584789,87.35708 64.584789,92.423862 z M 35.610459,90.368915 L 36.703778,86.121972 L 39.710615,87.35498 L 41.350653,83.929965 L 38.753798,82.285998 L 41.350653,78.724034 L 43.81077,81.18993 L 46.544128,78.724034 L 44.90409,75.983998 L 48.867507,73.929051 L 49.824208,77.353956 L 53.514382,76.258008 L 53.104401,73.107013 L 57.341178,72.970063 L 57.067819,76.258008 L 60.894615,77.491016 L 61.851315,74.066001 L 65.678111,75.983998 L 63.901335,78.860983 L 66.908169,81.18993 L 69.231548,78.724034 L 71.828287,82.011978 L 69.094926,83.929965 L 70.871589,87.35498 L 73.878423,86.258922 L 74.835123,90.505875 L 71.691665,90.779884 L 71.554927,94.615868 L 74.698385,94.889878 L 73.741685,99.273891 L 70.598346,97.903813 L 69.231548,101.4659 L 71.828287,103.10987 L 69.231548,106.53477 L 67.04479,104.06886 L 64.038073,106.53477 L 65.814733,109.41175 L 61.851315,111.32975 L 60.757993,108.0418 L 57.067819,109.00079 L 57.4778,112.28874 L 53.104401,112.42581 L 53.514382,109.13774 L 49.960946,108.17875 L 48.730886,111.32975 L 45.040711,109.41175 L 46.817488,106.67184 L 43.674032,104.34276 L 41.350653,106.67184 L 38.617176,103.38388 L 41.487275,101.32883 L 39.710615,98.040883 L 36.840516,99.136821 L 35.610459,94.889878 L 39.027274,94.615868 L 39.027274,90.779884 L 35.610459,90.368915 z" style="font-size:12px;fill:#fff;fill-rule:evenodd;stroke-width:1pt"/><polygon id="polygon579" points="390.906 29.178 360.233 7.705 329.44 29.004 340.384 -6.803 310.612 -29.508 348.047 -30.164 360.441 -65.496 372.634 -30.095 410.065 -29.226 380.165 -6.69 390.906 29.178" transform="matrix(9.6837063e-2,0,0,9.4648565e-2,20.538957,68.016401)" style="font-size:12px;fill:#fff;fill-rule:evenodd;stroke-width:1pt"/><path id="path596" d="M 68.392801,83.287276 C 70.262727,89.866976 68.963186,93.42515 68.467519,93.49037 C 67.832852,93.2125 67.784963,86.503531 65.083233,84.794904 C 62.536215,83.225126 64.056772,81.700889 64.749716,81.10873 C 65.45592,80.79475 67.597158,80.526231 68.392801,83.287276 z" style="font-size:12px;fill:#fff;fill-rule:evenodd;stroke:#2042a1;stroke-width:.35378507"/><path id="path594" d="M 61.290428,91.854603 C 56.507961,102.71762 58.353775,110.07946 56.53027,110.02773 C 54.656677,110.04306 54.161163,103.26576 57.623689,91.926972 C 61.990241,77.673935 67.548413,78.864963 68.222034,82.853327 C 64.546142,84.592434 64.048956,85.024764 61.290428,91.854603 z" style="font-size:12px;fill:#fff;fill-rule:evenodd;stroke:#2042a1;stroke-width:.41850847"/><path id="path597" d="M 67.428284,95.467777 C 68.205201,102.50057 65.876292,105.56377 65.27226,105.46881 C 64.578352,104.99386 67.237604,100.66166 63.159273,95.882176 C 60.820972,93.18504 63.363263,94.176689 64.317926,93.819559 C 65.227162,93.73869 67.089226,92.513092 67.428284,95.467777 z" style="font-size:12px;fill:#fff;fill-rule:evenodd;stroke:#2042a1;stroke-width:.39296925"/><path id="path598" d="M 59.625105,102.41757 C 57.779405,106.65884 56.975354,111.82552 54.817362,111.19098 C 52.585025,110.60598 54.717568,103.35071 57.575745,98.291052 C 61.103966,92.102812 67.427246,90.531965 67.320585,94.988828 C 62.960959,95.685416 61.046201,98.989701 59.625105,102.41757 z" style="font-size:12px;fill:#fff;fill-rule:evenodd;stroke:#2042a1;stroke-width:.46486124"/><path id="path599" d="M 43.634133,91.107334 C 41.791662,99.102931 42.17817,104.03596 42.680095,103.90104 C 43.36731,103.9845 43.162354,96.268375 46.376397,93.124221 C 49.351532,90.087055 47.682631,90.700294 47.003383,89.570176 C 45.618933,89.007337 44.560344,87.3655 43.634133,91.107334 z" style="font-size:12px;fill:#fff;fill-rule:evenodd;stroke:#2042a1;stroke-width:.45663124"/><path id="path600" d="M 50.98389,99.72929 C 53.193008,105.12537 54.60951,111.74423 56.427071,110.8604 C 58.317019,110.03795 55.281576,100.8534 52.227786,94.358339 C 49.620452,89.223927 47.68902,88.590538 44.804642,88.754678 C 48.167464,90.094655 49.260774,95.365867 50.98389,99.72929 z" style="font-size:12px;fill:#fff;fill-rule:evenodd;stroke:#2042a1;stroke-width:.4961473"/><path id="path602" d="M 51.363723,96.734305 C 53.004979,103.58796 53.712216,111.81991 55.644234,110.99188 C 57.64265,110.2482 55.580882,98.680682 53.206719,90.377845 C 51.134734,83.788246 47.944124,83.893525 45.013422,83.703106 C 49.706897,86.048712 50.100417,91.200794 51.363723,96.734305 z" style="font-size:12px;fill:#fff;fill-rule:evenodd;stroke:#2042a1;stroke-width:.55282283"/><path id="path601" d="M 44.518343,84.013625 C 40.21917,87.5424 40.242517,94.692238 41.059917,94.805358 C 41.912155,94.949338 42.373763,89.153567 45.002559,86.98256 C 47.786249,84.770554 48.191474,85.973602 51.335632,86.208882 C 50.495855,84.355735 48.044498,80.98198 44.518343,84.013625 z" style="font-size:12px;fill:#fff;fill-rule:evenodd;stroke:#2042a1;stroke-width:.50879329"/><ellipse id="path672" cx="372.067" cy="394.769" rx="11.774" ry="25.315" transform="matrix(0.105478,-4.8107186e-2,4.176603e-2,8.2103562e-2,-3.3117236,62.978159)" style="font-size:12px;fill:#fff;fill-rule:evenodd;stroke:#2042a1;stroke-width:1pt"/><ellipse id="path670" cx="372.067" cy="394.769" rx="11.774" ry="25.315" transform="matrix(0.109358,-3.8428212e-2,3.424987e-2,8.5528239e-2,-1.8255668,61.073472)" style="font-size:12px;fill:#fff;fill-rule:evenodd;stroke:#2042a1;stroke-width:1pt"/><ellipse id="path671" cx="372.067" cy="394.769" rx="11.774" ry="25.315" transform="matrix(0.1154761,-9.7246034e-3,1.1769767e-2,9.1403458e-2,6.9284982,47.203975)" style="font-size:12px;fill:#fff;fill-rule:evenodd;stroke:#2042a1;stroke-width:1pt"/><ellipse id="path668" cx="372.067" cy="394.769" rx="11.774" ry="25.315" transform="matrix(0.1144804,-1.8017053e-2,1.8291502e-2,9.0319385e-2,3.1882401,54.405543)" style="font-size:12px;fill:#fff;fill-rule:evenodd;stroke:#2042a1;stroke-width:1pt"/><ellipse id="path666" cx="372.067" cy="394.769" rx="11.774" ry="25.315" transform="matrix(0.1144804,-1.8017053e-2,1.8291502e-2,9.0319385e-2,3.1882401,57.282538)" style="font-size:12px;fill:#fff;fill-rule:evenodd;stroke:#2042a1;stroke-width:1pt"/><ellipse id="path669" cx="372.067" cy="394.769" rx="11.774" ry="25.315" transform="matrix(0.1153311,1.1322023e-2,-4.8772224e-3,9.2031994e-2,14.295293,42.347122)" style="font-size:12px;fill:#fff;fill-rule:evenodd;stroke:#2042a1;stroke-width:1pt"/><ellipse id="path667" cx="372.067" cy="394.769" rx="11.774" ry="25.315" transform="matrix(0.1153311,1.1322023e-2,-4.8772224e-3,9.2031994e-2,14.295293,45.224108)" style="font-size:12px;fill:#fff;fill-rule:evenodd;stroke:#2042a1;stroke-width:1pt"/><ellipse id="path638" cx="372.067" cy="394.769" rx="11.774" ry="25.315" transform="matrix(0.1157445,5.6742118e-3,-3.9670676e-4,9.2160791e-2,8.5671224,50.778709)" style="font-size:12px;fill:#fff;fill-rule:evenodd;stroke:#2042a1;stroke-width:1pt"/><ellipse id="path639" cx="372.067" cy="394.769" rx="11.774" ry="25.315" transform="matrix(0.1157445,5.6742118e-3,-3.9670676e-4,9.2160791e-2,10.617191,50.785169)" style="font-size:12px;fill:#fff;fill-rule:evenodd;stroke:#2042a1;stroke-width:1pt"/><ellipse id="path640" cx="372.067" cy="394.769" rx="11.774" ry="25.315" transform="matrix(0.1106307,3.4574564e-2,-2.3429378e-2,8.9119173e-2,23.936686,41.240354)" style="font-size:12px;fill:#fff;fill-rule:evenodd;stroke:#2042a1;stroke-width:1pt"/><ellipse id="path635" cx="372.067" cy="394.769" rx="11.774" ry="25.315" transform="matrix(0.1157445,5.6742118e-3,-3.9670676e-4,9.2160791e-2,8.4304497,53.929684)" style="font-size:12px;fill:#fff;fill-rule:evenodd;stroke:#2042a1;stroke-width:1pt"/><ellipse id="path636" cx="372.067" cy="394.769" rx="11.774" ry="25.315" transform="matrix(0.1157445,5.6742118e-3,-3.9670676e-4,9.2160791e-2,10.480517,53.114145)" style="font-size:12px;fill:#fff;fill-rule:evenodd;stroke:#2042a1;stroke-width:1pt"/><ellipse id="path637" cx="372.067" cy="394.769" rx="11.774" ry="25.315" transform="matrix(0.1106307,3.4574564e-2,-2.3429378e-2,8.9119173e-2,23.800018,44.117329)" style="font-size:12px;fill:#fff;fill-rule:evenodd;stroke:#2042a1;stroke-width:1pt"/><ellipse id="path603" cx="372.067" cy="394.769" rx="11.774" ry="25.315" transform="matrix(0.1496806,-1.0948581e-2,1.4147238e-2,0.1158384,-5.7116317,67.139492)" style="font-size:12px;fill:#fff;fill-rule:evenodd;stroke:#2042a1;stroke-width:1pt"/><ellipse id="path632" cx="372.067" cy="394.769" rx="11.774" ry="25.315" transform="matrix(0.1157445,5.6742118e-3,-3.9670676e-4,9.2160791e-2,7.4737507,57.080669)" style="font-size:12px;fill:#fff;fill-rule:evenodd;stroke:#2042a1;stroke-width:1pt"/><ellipse id="path633" cx="372.067" cy="394.769" rx="11.774" ry="25.315" transform="matrix(0.1157445,5.6742118e-3,-3.9670676e-4,9.2160791e-2,9.933829,56.40213)" style="font-size:12px;fill:#fff;fill-rule:evenodd;stroke:#2042a1;stroke-width:1pt"/><ellipse id="path634" cx="372.067" cy="394.769" rx="11.774" ry="25.315" transform="matrix(0.1106307,3.4574564e-2,-2.3429378e-2,8.9119173e-2,22.843323,47.268314)" style="font-size:12px;fill:#fff;fill-rule:evenodd;stroke:#2042a1;stroke-width:1pt"/><ellipse id="path629" cx="372.067" cy="394.769" rx="11.774" ry="25.315" transform="matrix(0.1135371,2.3253944e-2,-1.4375211e-2,9.1028191e-2,14.904634,53.791934)" style="font-size:12px;fill:#fff;fill-rule:evenodd;stroke:#2042a1;stroke-width:1pt"/><ellipse id="path630" cx="372.067" cy="394.769" rx="11.774" ry="25.315" transform="matrix(0.1135371,2.3253944e-2,-1.4375211e-2,9.1028191e-2,16.929872,54.110853)" style="font-size:12px;fill:#fff;fill-rule:evenodd;stroke:#2042a1;stroke-width:1pt"/><ellipse id="path631" cx="372.067" cy="394.769" rx="11.774" ry="25.315" transform="matrix(0.1040978,5.1038496e-2,-3.6678428e-2,8.451047e-2,31.584185,46.436876)" style="font-size:12px;fill:#fff;fill-rule:evenodd;stroke:#2042a1;stroke-width:1pt"/><ellipse id="path609" cx="372.067" cy="394.769" rx="11.774" ry="25.315" transform="matrix(0.115561,-8.6490653e-3,1.0922386e-2,9.1508987e-2,6.479487,72.668923)" style="font-size:12px;fill:#fff;fill-rule:evenodd;stroke:#2042a1;stroke-width:1pt"/><ellipse id="path610" cx="372.067" cy="394.769" rx="11.774" ry="25.315" transform="matrix(0.1084076,4.1044329e-2,-2.8623559e-2,8.7581555e-2,28.579322,55.730071)" style="font-size:12px;fill:#fff;fill-rule:evenodd;stroke:#2042a1;stroke-width:1pt"/><ellipse id="path611" cx="372.067" cy="394.769" rx="11.774" ry="25.315" transform="matrix(0.1157616,5.3100401e-3,-1.0815767e-4,9.2161616e-2,12.672786,66.806573)" style="font-size:12px;fill:#fff;fill-rule:evenodd;stroke:#2042a1;stroke-width:1pt"/><ellipse id="path612" cx="372.067" cy="394.769" rx="11.774" ry="25.315" transform="matrix(0.1157616,5.3100401e-3,-1.0815767e-4,9.2161616e-2,9.9393589,63.518598)" style="font-size:12px;fill:#fff;fill-rule:evenodd;stroke:#2042a1;stroke-width:1pt"/><ellipse id="path613" cx="372.067" cy="394.769" rx="11.774" ry="25.315" transform="matrix(0.1157616,5.3100401e-3,-1.0815767e-4,9.2161616e-2,11.989434,63.518598)" style="font-size:12px;fill:#fff;fill-rule:evenodd;stroke:#2042a1;stroke-width:1pt"/><ellipse id="path616" cx="372.067" cy="394.769" rx="11.774" ry="25.315" transform="matrix(0.1107383,3.4226434e-2,-2.3150215e-2,8.9192361e-2,24.731435,50.780969)" style="font-size:12px;fill:#fff;fill-rule:evenodd;stroke:#2042a1;stroke-width:1pt"/><ellipse id="path614" cx="372.067" cy="394.769" rx="11.774" ry="25.315" transform="matrix(0.1107383,3.4226434e-2,-2.3150215e-2,8.9192361e-2,25.278119,53.657934)" style="font-size:12px;fill:#fff;fill-rule:evenodd;stroke:#2042a1;stroke-width:1pt"/><ellipse id="path615" cx="372.067" cy="394.769" rx="11.774" ry="25.315" transform="matrix(0.1107383,3.4226434e-2,-2.3150215e-2,8.9192361e-2,26.91817,54.205933)" style="font-size:12px;fill:#fff;fill-rule:evenodd;stroke:#2042a1;stroke-width:1pt"/><ellipse id="path617" cx="372.067" cy="394.769" rx="11.774" ry="25.315" transform="matrix(0.1107383,3.4226434e-2,-2.3150215e-2,8.9192361e-2,25.961482,47.492984)" style="font-size:12px;fill:#fff;fill-rule:evenodd;stroke:#2042a1;stroke-width:1pt"/><ellipse id="path628" cx="372.067" cy="394.769" rx="11.774" ry="25.315" transform="matrix(0.1155893,8.2633936e-3,-2.4495235e-3,9.2129047e-2,18.171386,43.252751)" style="font-size:12px;fill:#fff;fill-rule:evenodd;stroke:#2042a1;stroke-width:1pt"/><ellipse id="path618" cx="372.067" cy="394.769" rx="11.774" ry="25.315" transform="matrix(0.1107383,3.4226434e-2,-2.3150215e-2,8.9192361e-2,26.644834,50.506959)" style="font-size:12px;fill:#fff;fill-rule:evenodd;stroke:#2042a1;stroke-width:1pt"/><ellipse id="path619" cx="372.067" cy="394.769" rx="11.774" ry="25.315" transform="matrix(0.1107383,3.4226434e-2,-2.3150215e-2,8.9192361e-2,28.284884,50.917959)" style="font-size:12px;fill:#fff;fill-rule:evenodd;stroke:#2042a1;stroke-width:1pt"/><ellipse id="path626" cx="372.067" cy="394.769" rx="11.774" ry="25.315" transform="matrix(0.1155893,8.2633936e-3,-2.4495235e-3,9.2129047e-2,16.804672,46.129736)" style="font-size:12px;fill:#fff;fill-rule:evenodd;stroke:#2042a1;stroke-width:1pt"/><ellipse id="path627" cx="372.067" cy="394.769" rx="11.774" ry="25.315" transform="matrix(0.1150566,1.3845855e-2,-6.8824681e-3,9.1903198e-2,21.076214,44.141839)" style="font-size:12px;fill:#fff;fill-rule:evenodd;stroke:#2042a1;stroke-width:1pt"/><ellipse id="path624" cx="372.067" cy="394.769" rx="11.774" ry="25.315" transform="matrix(0.1155893,8.2633936e-3,-2.4495235e-3,9.2129047e-2,16.531334,48.732702)" style="font-size:12px;fill:#fff;fill-rule:evenodd;stroke:#2042a1;stroke-width:1pt"/><ellipse id="path625" cx="372.067" cy="394.769" rx="11.774" ry="25.315" transform="matrix(0.1150566,1.3845855e-2,-6.8824681e-3,9.1903198e-2,20.802877,47.018815)" style="font-size:12px;fill:#fff;fill-rule:evenodd;stroke:#2042a1;stroke-width:1pt"/><ellipse id="path620" cx="372.067" cy="394.769" rx="11.774" ry="25.315" transform="matrix(0.1155893,8.2633936e-3,-2.4495235e-3,9.2129047e-2,16.804671,52.157697)" style="font-size:12px;fill:#fff;fill-rule:evenodd;stroke:#2042a1;stroke-width:1pt"/><ellipse id="path621" cx="372.067" cy="394.769" rx="11.774" ry="25.315" transform="matrix(0.1107383,3.4226434e-2,-2.3150215e-2,8.9192361e-2,27.874869,46.944965)" style="font-size:12px;fill:#fff;fill-rule:evenodd;stroke:#2042a1;stroke-width:1pt"/><ellipse id="path622" cx="372.067" cy="394.769" rx="11.774" ry="25.315" transform="matrix(0.1107383,3.4226434e-2,-2.3150215e-2,8.9192361e-2,29.651587,47.492964)" style="font-size:12px;fill:#fff;fill-rule:evenodd;stroke:#2042a1;stroke-width:1pt"/><ellipse id="path623" cx="372.067" cy="394.769" rx="11.774" ry="25.315" transform="matrix(0.1150566,1.3845855e-2,-6.8824681e-3,9.1903198e-2,21.349557,50.1698)" style="font-size:12px;fill:#fff;fill-rule:evenodd;stroke:#2042a1;stroke-width:1pt"/><use id="use2752" width="900" height="500" x="0" y="0" transform="translate(-11.480384,2.4659937)" xlink:href="#polygon579"/><use id="use2754" width="900" height="500" x="0" y="0" transform="translate(-9.2936425,6.575972)" xlink:href="#use2752"/><use id="use2756" width="900" height="500" x="0" y="0" transform="translate(-4.6468045,9.863942)" xlink:href="#use2754"/><use id="use2758" width="900" height="500" x="0" y="0" transform="translate(-1.1662222e-5,10.959934)" xlink:href="#use2756"/><use id="use2760" width="900" height="500" x="0" y="0" transform="translate(4.6468161,10.959923)" xlink:href="#use2758"/><use id="use2762" width="900" height="500" x="0" y="0" transform="translate(8.8836363,7.9459288)" xlink:href="#use2760"/><use id="use2764" width="900" height="500" x="0" y="0" transform="translate(11.480374,2.7399895)" xlink:href="#use2762"/><use id="use2766" width="900" height="500" x="0" y="0" transform="translate(12.027079,-2.1919706)" xlink:href="#use2764"/><use id="use2768" width="900" height="500" x="0" y="0" transform="translate(8.8835794,-7.945951)" xlink:href="#use2766"/><use id="use2770" width="900" height="500" x="0" y="0" transform="translate(4.9201863,-10.959922)" xlink:href="#use2768"/><use id="use2772" width="900" height="500" x="0" y="0" transform="translate(-0.8200534,-10.685929)" xlink:href="#use2770"/><use id="use2774" width="900" height="500" x="0" y="0" transform="translate(-4.9201408,-10.137947)" xlink:href="#use2772"/><use id="use2776" width="900" height="500" x="0" y="0" transform="translate(-7.6535791,-7.1239676)" xlink:href="#use2774"/></svg>