<svg xmlns="http://www.w3.org/2000/svg" xmlns:svg="http://www.w3.org/2000/svg" id="svg2739" width="256" height="256" version="1.0" viewBox="0 0 60 30"><metadata id="metadata7622"/><clipPath id="t"><path id="path2742" d="M 30,15 L 60,15 L 60,30 L 30,15 z M 30,15 L 30,30 L 0,30 L 30,15 z M 30,15 L 0,15 L 0,0 L 30,15 z M 30,15 L 30,0 L 60,0 L 30,15 z"/></clipPath><path style="fill:#00247d" id="path8157" d="M 227.3125 64 L 28.6875 64 L 128 113.59375 L 227.3125 64 z" transform="matrix(0.234375,0,0,0.234375,0,-15)"/><path style="fill:#00247d" id="path8155" d="M 256 177.6875 L 256 78.3125 L 156.65625 128 L 256 177.6875 z" transform="matrix(0.234375,0,0,0.234375,0,-15)"/><path style="fill:#00247d" id="path8153" d="M 28.6875 192 L 227.3125 192 L 128 142.40625 L 28.6875 192 z" transform="matrix(0.234375,0,0,0.234375,0,-15)"/><path style="fill:#00247d" id="path8151" d="M 0 78.3125 L 0 177.6875 L 99.34375 128 L 0 78.3125 z" transform="matrix(0.234375,0,0,0.234375,0,-15)"/><path style="fill:#fff;fill-opacity:1" id="path2744" d="M 0 64 L 0 78.3125 L 99.34375 128 L 0 177.6875 L 0 192 L 28.6875 192 L 128 142.40625 L 227.3125 192 L 256 192 L 256 177.6875 L 156.65625 128 L 256 78.3125 L 256 64 L 227.3125 64 L 128 113.59375 L 28.6875 64 L 0 64 z" transform="matrix(0.234375,0,0,0.234375,0,-15)"/><path id="path2748" d="M 0,0 L 60,30 M 60,0 L 0,30" clip-path="url(#t)" style="stroke:#cf142b;stroke-width:4"/><path id="path2750" d="M 30,3.9889385 30,26.011061 M 3.9889391,15 56.011061,15" style="stroke:#fff;stroke-width:7.97787714000000037;stroke-linecap:square;fill:#fff;fill-opacity:1"/><path style="font-size:medium;font-style:normal;font-variant:normal;font-weight:400;font-stretch:normal;text-indent:0;text-align:start;text-decoration:none;line-height:normal;letter-spacing:normal;word-spacing:normal;text-transform:none;direction:ltr;block-progression:tb;writing-mode:lr-tb;text-anchor:start;baseline-shift:baseline;color:#000;fill:#cf142b;fill-opacity:1;fill-rule:nonzero;stroke:none;stroke-width:5.21173;marker:none;visibility:visible;display:inline;overflow:visible;enable-background:accumulate;font-family:Sans;-inkscape-font-specification:Sans" id="path2752" d="M 27.40625,0 27.40625,2.59375 27.40625,12.40625 2.59375,12.40625 0,12.40625 0,17.59375 2.59375,17.59375 27.40625,17.59375 27.40625,27.40625 27.40625,30 32.59375,30 32.59375,27.40625 32.59375,17.59375 57.40625,17.59375 60,17.59375 60,12.40625 57.40625,12.40625 32.59375,12.40625 32.59375,2.59375 32.59375,0 27.40625,0 z"/></svg>