<svg xmlns="http://www.w3.org/2000/svg" xmlns:svg="http://www.w3.org/2000/svg" id="svg3305" width="256" height="256" version="1.0"><metadata/><desc id="desc3307">flag of Rwanda</desc><rect id="rect3309" width="256" height="85.333" x="0" y="42.333" style="fill:#0084c9"/><rect id="rect3311" width="256" height="42.667" x="0" y="127.667" style="fill:#f9d616"/><rect id="rect3313" width="256" height="42.667" x="0" y="170.333" style="fill:#007c59"/><path id="path3315" d="M 238.67159,104.47158 L 225.43299,94.319709 L 231.81254,109.73471 L 221.65254,96.502359 L 223.82501,113.04325 L 217.43598,97.632179 L 215.25333,114.17174 L 213.07069,97.632179 L 206.68166,113.04325 L 208.85413,96.502359 L 198.69413,109.73471 L 205.07368,94.319709 L 191.83508,104.47158 L 201.98694,91.232979 L 186.57195,97.612529 L 199.8043,87.452529 L 183.2634,89.624999 L 198.67447,83.235969 L 182.13492,81.053319 L 198.67447,78.870679 L 183.2634,72.481649 L 199.8043,74.654119 L 186.57195,64.494119 L 201.98694,70.873669 L 191.83508,57.635069 L 205.07368,67.786929 L 198.69413,52.371939 L 208.85413,65.604289 L 206.68166,49.063389 L 213.07069,64.474459 L 215.25333,47.934909 L 217.43598,64.474459 L 223.82501,49.063389 L 221.65254,65.604289 L 231.81254,52.371939 L 225.43299,67.786929 L 238.67159,57.635069 L 228.51972,70.873669 L 243.93472,64.494119 L 230.70237,74.654119 L 247.24326,72.481649 L 231.83219,78.870679 L 248.37175,81.053319 L 231.83219,83.235969 L 247.24326,89.624999 L 230.70237,87.452529 L 243.93472,97.612529 L 228.51972,91.232979 L 238.67159,104.47158 z" style="fill:#eaaf0f"/><path id="path3317" d="M 227.30667,81.053319 C 227.30667,87.710189 221.9102,93.106659 215.25333,93.106659 C 208.59646,93.106659 203.2,87.710189 203.2,81.053319 C 203.2,74.396449 208.59646,68.999989 215.25333,68.999989 C 221.9102,68.999989 227.30667,74.396449 227.30667,81.053319 L 227.30667,81.053319 z" style="fill:#eaaf0f;stroke:#0084c9;stroke-width:1.19466662"/></svg>