<svg xmlns="http://www.w3.org/2000/svg" xmlns:svg="http://www.w3.org/2000/svg" xmlns:xlink="http://www.w3.org/1999/xlink" id="svg2689" width="256" height="256" version="1.0" viewBox="-75 -40 120 80"><metadata/><rect id="rect2691" width="120" height="80" x="-75" y="-40" style="fill:#fff"/><rect id="rect2693" width="90" height="80" x="-45" y="-40" style="fill:#060"/><circle id="circle2695" cx="0" cy="0" r="24" style="fill:#fff"/><circle id="circle2697" cx="-7" cy="-40" r="22" transform="matrix(0.7474093,-0.6643638,0.6643638,0.7474093,37.941134,19.792745)" style="fill:#060"/><comment id="comment2699">rotation angles = -arctan(8/9)</comment><g id="star" transform="matrix(0.7474093,-0.6643638,0.6643638,0.7474093,11.958549,-10.629821)" style="fill:#fff"><g id="cone"><polygon id="triangle" points="0 0 -8 0 -8 4 0 0" transform="matrix(0.9510565,0.309017,-0.309017,0.9510565,8,0)"/><use id="use2704" width="120" height="80" x="0" y="0" transform="scale(1,-1)" xlink:href="#triangle"/></g><use id="use2706" width="120" height="80" x="0" y="0" transform="matrix(0.309017,0.9510565,-0.9510565,0.309017,0,0)" xlink:href="#cone"/><use id="use2708" width="120" height="80" x="0" y="0" transform="matrix(0.309017,-0.9510565,0.9510565,0.309017,0,0)" xlink:href="#cone"/><use id="use2710" width="120" height="80" x="0" y="0" transform="matrix(-0.809017,0.5877853,-0.5877853,-0.809017,0,0)" xlink:href="#cone"/><use id="use2712" width="120" height="80" x="0" y="0" transform="matrix(-0.809017,-0.5877853,0.5877853,-0.809017,0,0)" xlink:href="#cone"/></g></svg>