<svg xmlns="http://www.w3.org/2000/svg" xmlns:svg="http://www.w3.org/2000/svg" xmlns:xlink="http://www.w3.org/1999/xlink" id="svg2439" width="256" height="256" preserveAspectRatio="xMidYMid meet" version="1.0" viewBox="-72 -28 144 96" zoomAndPan="magnify"><metadata/><rect id="rect2441" width="144" height="96" x="-72" y="-28" style="fill:#006233"/><circle id="circle2443" cx="0" cy="8" r="31" style="fill:#ffc400"/><path id="path2445" d="M -30,0 C -30,16.568542 -16.568542,30 1.8369702e-15,30 C 16.568542,30 30,16.568542 30,0 L 30,-24 L -30,-24" style="fill:#006233"/><g id="g2447" transform="scale(12,12)" style="fill:#ffc400"><g id="cone"><polygon id="triangle" points="0 0 0 1 .5 1 0 0" transform="matrix(0.9510565,0.309017,-0.309017,0.9510565,0,-1)"/><use id="use2451" width="144" height="96" x="0" y="0" transform="scale(-1,1)" xlink:href="#triangle"/></g><use id="use2453" width="144" height="96" x="0" y="0" transform="matrix(0.309017,0.9510565,-0.9510565,0.309017,0,0)" xlink:href="#cone"/><use id="use2455" width="144" height="96" x="0" y="0" transform="matrix(0.309017,-0.9510565,0.9510565,0.309017,0,0)" xlink:href="#cone"/><use id="use2457" width="144" height="96" x="0" y="0" transform="matrix(-0.809017,0.5877853,-0.5877853,-0.809017,0,0)" xlink:href="#cone"/><use id="use2459" width="144" height="96" x="0" y="0" transform="matrix(-0.809017,-0.5877853,0.5877853,-0.809017,0,0)" xlink:href="#cone"/></g></svg>