<svg xmlns="http://www.w3.org/2000/svg" xmlns:svg="http://www.w3.org/2000/svg" xmlns:xlink="http://www.w3.org/1999/xlink" id="svg2665" width="256" height="256" version="1.0" viewBox="-9 -6 18 12"><metadata/><rect id="rect2667" width="18" height="12" x="-9" y="-6" style="fill:#ef2b2d"/><rect id="rect2669" width="18" height="6" x="-9" y="0" style="fill:#009e49"/><g id="g2671" transform="scale(2,2)" style="fill:#fcd116"><g id="cone"><polygon id="triangle" points="0 0 0 1 .5 1 0 0" transform="matrix(0.9510565,0.309017,-0.309017,0.9510565,0,-1)"/><use id="use2675" width="18" height="12" x="0" y="0" transform="scale(-1,1)" xlink:href="#triangle"/></g><use id="use2677" width="18" height="12" x="0" y="0" transform="matrix(0.309017,0.9510565,-0.9510565,0.309017,0,0)" xlink:href="#cone"/><use id="use2679" width="18" height="12" x="0" y="0" transform="matrix(0.309017,-0.9510565,0.9510565,0.309017,0,0)" xlink:href="#cone"/><use id="use2681" width="18" height="12" x="0" y="0" transform="matrix(-0.809017,0.5877853,-0.5877853,-0.809017,0,0)" xlink:href="#cone"/><use id="use2683" width="18" height="12" x="0" y="0" transform="matrix(-0.809017,-0.5877853,0.5877853,-0.809017,0,0)" xlink:href="#cone"/></g></svg>