<svg xmlns="http://www.w3.org/2000/svg" xmlns:svg="http://www.w3.org/2000/svg" xmlns:xlink="http://www.w3.org/1999/xlink" id="svg2432" width="256" height="256" version="1.0" viewBox="-2100 -1470 4200 2940"><metadata/><title id="title2434">Flag of Brazil</title><defs id="defs2436"><path id="O" d="M 0,0 C 17.39697,-1.1836191e-15 31.5,-15.670034 31.5,-35 C 31.5,-54.329966 17.39697,-70 1.9288187e-15,-70 C -17.39697,-70 -31.5,-54.329966 -31.5,-35 C -31.5,-15.670034 -17.39697,-3.5508572e-15 -5.7864561e-15,0 M 0,-13 C 10.217268,-13 18.5,-22.849736 18.5,-35 C 18.5,-47.150264 10.217268,-57 1.1327983e-15,-57 C -10.217268,-57 -18.5,-47.150264 -18.5,-35 C -18.5,-22.849736 -10.217268,-13 -3.3983949e-15,-13" style="fill-rule:evenodd"/><g id="R"><use id="use2440" width="4200" height="2940" x="0" y="0" xlink:href="#P"/><path id="path2442" d="M 28,0 C 28,-10 28,-32 13,-32 L -6,-32 C 16,-32 16,-10 16,0"/></g><path id="D" d="M -31.5,0 L 1.5,0 C 18.068542,-1.0145306e-15 31.5,-13.431458 31.5,-30 L 31.5,-40 C 31.5,-56.568542 18.068542,-70 1.5,-70 L -31.5,-70 L -31.5,0 z M -18.5,-13 L 0.5,-13 C 10.99341,-13 19.5,-21.50659 19.5,-32 L 19.5,-38 C 19.5,-48.49341 10.99341,-57 0.5,-57 L -18.5,-57 L -18.5,-13 z" style="fill-rule:evenodd"/><path id="E" d="M 0,0 L 63,0 L 63,-13 L 12,-13 L 12,-31 L 52,-31 L 52,-43 L 12,-43 L 12,-57 L 60,-57 L 60,-70 L 0,-70 L 0,0 z" transform="translate(-31.5,0)"/><path id="M" d="M -31.5,0 L -19.5,0 L -19.5,-48 L -5.5,0 L 5.5,0 L 19.5,-48 L 19.5,0 L 31.5,0 L 31.5,-70 L 14,-70 L 0,-22 L -14,-70 L -31.5,-70 L -31.5,0 z"/><path id="E_" d="M -26.25,0 L 26.25,0 L 26.25,-12 L -14.25,-12 L -14.25,-28 L 18.75,-28 L 18.75,-40 L -14.25,-40 L -14.25,-51 L 25,-51 L 25,-63 L -26.25,-63 L -26.25,0 z"/><path id="P" d="M -31.5,0 L -18.5,0 L -18.5,-26 L 9.5,-26 C 21.650264,-26 31.5,-35.849736 31.5,-48 C 31.5,-60.150264 21.650264,-70 9.5,-70 L -30.5,-70 L -31.5,0 z M -18.5,-39 L 8.5,-39 C 13.470563,-39 17.5,-43.029437 17.5,-48 C 17.5,-52.970563 13.470563,-57 8.5,-57 L -18.5,-57 L -18.5,-39 z" style="fill-rule:evenodd"/><g id="G"><clipPath id="gcut"><path id="path2451" d="M -31.5,0 L -31.5,-70 L 31.5,-70 L 31.5,0 L -31.5,0 z M 0,-47 L 0,-35 L 31.5,-35 L 31.5,-47 L 0,-47 z"/></clipPath><use id="use2453" width="4200" height="2940" x="0" y="0" clip-path="url(#gcut)" xlink:href="#O"/><rect id="rect2455" width="26.5" height="10" x="5" y="-35"/><rect id="rect2457" width="10" height="35" x="21.5" y="-35"/></g><path id="S" d="M -15.75,-22 C -15.75,-15 -9,-11.5 1,-11.5 C 11,-11.5 15.74,-14.75 15.75,-19.25 C 15.75,-33.5 -31,-24.5 -30.75,-49.5 C -30.5,-71 -6,-70 3,-70 C 12,-70 29,-66 28.75,-48.75 L 13.5,-48.75 C 13.5,-56.25 6.5,-59 -1.5,-59 C -9.25,-59 -14.75,-57.75 -14.75,-50.5 C -15,-38.75 31.5,-46.5 31.5,-21.75 C 31.5,-3.5 13.5,0 0,0 C -11.5,0 -31.55,-4.5 -31.5,-22 L -15.75,-22 z"/><g id="star"><g id="cone"><polygon id="triangle" points="0 0 0 1 .5 1 0 0" transform="matrix(0.9510565,0.309017,-0.309017,0.9510565,0,-1)"/><use id="use2463" width="4200" height="2940" x="0" y="0" transform="scale(-1,1)" xlink:href="#triangle"/></g><use id="use2465" width="4200" height="2940" x="0" y="0" transform="matrix(0.309017,0.9510565,-0.9510565,0.309017,0,0)" xlink:href="#cone"/><use id="use2467" width="4200" height="2940" x="0" y="0" transform="matrix(0.309017,-0.9510565,0.9510565,0.309017,0,0)" xlink:href="#cone"/><use id="use2469" width="4200" height="2940" x="0" y="0" transform="matrix(-0.809017,0.5877853,-0.5877853,-0.809017,0,0)" xlink:href="#cone"/><use id="use2471" width="4200" height="2940" x="0" y="0" transform="matrix(-0.809017,-0.5877853,0.5877853,-0.809017,0,0)" xlink:href="#cone"/></g><use id="star1" width="4200" height="2940" x="0" y="0" transform="scale(31.5,31.5)" xlink:href="#star"/><use id="star2" width="4200" height="2940" x="0" y="0" transform="scale(26.25,26.25)" xlink:href="#star"/><use id="star3" width="4200" height="2940" x="0" y="0" transform="scale(21,21)" xlink:href="#star"/><use id="star4" width="4200" height="2940" x="0" y="0" transform="scale(15,15)" xlink:href="#star"/><use id="star5" width="4200" height="2940" x="0" y="0" transform="scale(10.5,10.5)" xlink:href="#star"/></defs><rect id="field" width="4200" height="2940" x="-2100" y="-1470" style="fill:#00923f"/><path id="rhombus" d="M -1743,0 L 0,1113 L 1743,0 L 0,-1113 L -1743,0 z" style="fill:#f8c300"/><circle id="circle" cx="0" cy="0" r="735" style="fill:#28166f"/><clipPath id="clipcircle"><use id="use2482" width="4200" height="2940" x="0" y="0" xlink:href="#circle"/></clipPath><path id="band" d="M -2205,1470 C -2205,484.17173 -1405.8283,-314.99997 -420,-314.99997 C 565.82827,-314.99997 1365,484.17173 1365,1470 L 1260,1470 C 1260,542.16162 507.83838,-210 -420,-210 C -1347.8384,-210 -2100,542.16162 -2100,1470 L -2205,1470 z" clip-path="url(#clipcircle)" style="fill:#fff"/><g id="g2485" transform="translate(-420,1470)" style="fill:#00923f"><g id="ORDEM" transform="matrix(0.9925462,-0.1218693,0.1218693,0.9925462,0,0)"><use id="use2488" width="4200" height="2940" x="0" y="0" transform="translate(0,-1697.5)" xlink:href="#O"/><use id="use2490" width="4200" height="2940" x="0" y="0" transform="matrix(0.9986295,5.2335956e-2,-5.2335956e-2,0.9986295,88.840286,-1695.1736)" xlink:href="#R"/><use id="use2492" width="4200" height="2940" x="0" y="0" transform="matrix(0.9945219,0.1045285,-0.1045285,0.9945219,177.43707,-1688.2009)" xlink:href="#D"/><use id="use2494" width="4200" height="2940" x="0" y="0" transform="matrix(0.9876883,0.1564345,-0.1564345,0.9876883,265.5475,-1676.601)" xlink:href="#E"/><use id="use2496" width="4200" height="2940" x="0" y="0" transform="matrix(0.9781476,0.2079117,-0.2079117,0.9781476,352.9301,-1660.4056)" xlink:href="#M"/></g><use id="use2498" width="4200" height="2940" x="0" y="0" transform="matrix(0.9855561,0.1693495,-0.1693495,0.9855561,287.47078,-1672.9814)" xlink:href="#E_"/><g id="PROGRESSO" transform="matrix(0.9681476,0.25038,-0.25038,0.9681476,0,0)"><use id="use2501" width="4200" height="2940" x="0" y="0" transform="translate(0,-1697.5)" xlink:href="#P"/><use id="use2503" width="4200" height="2940" x="0" y="0" transform="matrix(0.9986295,5.2335956e-2,-5.2335956e-2,0.9986295,88.840286,-1695.1736)" xlink:href="#R"/><use id="use2505" width="4200" height="2940" x="0" y="0" transform="matrix(0.9945219,0.1045285,-0.1045285,0.9945219,177.43707,-1688.2009)" xlink:href="#O"/><use id="use2507" width="4200" height="2940" x="0" y="0" transform="matrix(0.9876883,0.1564345,-0.1564345,0.9876883,265.5475,-1676.601)" xlink:href="#G"/><use id="use2509" width="4200" height="2940" x="0" y="0" transform="matrix(0.9781476,0.2079117,-0.2079117,0.9781476,352.9301,-1660.4056)" xlink:href="#R"/><use id="use2511" width="4200" height="2940" x="0" y="0" transform="matrix(0.9659258,0.258819,-0.258819,0.9659258,439.34533,-1639.6591)" xlink:href="#E"/><use id="use2513" width="4200" height="2940" x="0" y="0" transform="matrix(0.9510565,0.309017,-0.309017,0.9510565,524.55635,-1614.4184)" xlink:href="#S"/><use id="use2515" width="4200" height="2940" x="0" y="0" transform="matrix(0.9335804,0.3583679,-0.3583679,0.9335804,608.32959,-1584.7528)" xlink:href="#S"/><use id="use2517" width="4200" height="2940" x="0" y="0" transform="matrix(0.9135455,0.4067366,-0.4067366,0.9135455,690.43545,-1550.7434)" xlink:href="#O"/></g></g><g id="stars" style="fill:#fff"><use id="Alpha_Canis_Minoris" width="4200" height="2940" x="0" y="0" transform="translate(-600,-132)" xlink:href="#star1"/><g id="Canis_Majoris"><use id="Alpha_Canis_Majoris" width="4200" height="2940" x="0" y="0" transform="translate(-535,177)" xlink:href="#star1"/><use id="Beta_Canis_Majoris" width="4200" height="2940" x="0" y="0" transform="translate(-625,243)" xlink:href="#star3"/><use id="Gamma_Canis_Majoris" width="4200" height="2940" x="0" y="0" transform="translate(-463,132)" xlink:href="#star4"/><use id="Delta_Canis_Majoris" width="4200" height="2940" x="0" y="0" transform="translate(-382,250)" xlink:href="#star2"/><use id="Epsilon_Canis_Majoris" width="4200" height="2940" x="0" y="0" transform="translate(-404,323)" xlink:href="#star2"/></g><use id="Alpha_Virginis" width="4200" height="2940" x="0" y="0" transform="translate(228,-228)" xlink:href="#star1"/><g id="Scorpio"><use id="Alpha_Scorpii" width="4200" height="2940" x="0" y="0" transform="translate(515,258)" xlink:href="#star1"/><use id="Beta_Scorpii" width="4200" height="2940" x="0" y="0" transform="translate(617,265)" xlink:href="#star3"/><use id="Epsilon_Scorpii" width="4200" height="2940" x="0" y="0" transform="translate(545,323)" xlink:href="#star2"/><use id="Theta_Scorpii" width="4200" height="2940" x="0" y="0" transform="translate(368,477)" xlink:href="#star2"/><use id="Iota_Scorpii" width="4200" height="2940" x="0" y="0" transform="translate(367,551)" xlink:href="#star3"/><use id="Kappa_Scorpii" width="4200" height="2940" x="0" y="0" transform="translate(441,419)" xlink:href="#star3"/><use id="Lambda_Scorpii" width="4200" height="2940" x="0" y="0" transform="translate(500,382)" xlink:href="#star2"/><use id="Mu_Scorpii" width="4200" height="2940" x="0" y="0" transform="translate(365,405)" xlink:href="#star3"/></g><g id="Hydra"><use id="Alpha_Hydrae" width="4200" height="2940" x="0" y="0" transform="translate(-280,30)" xlink:href="#star2"/><use id="Gamma_Hydrae" width="4200" height="2940" x="0" y="0" transform="translate(200,-37)" xlink:href="#star3"/></g><g id="Crux"><use id="Alpha_Crucis" width="4200" height="2940" x="0" y="0" transform="translate(0,330)" xlink:href="#star1"/><use id="Beta_Crucis" width="4200" height="2940" x="0" y="0" transform="translate(85,184)" xlink:href="#star2"/><use id="Gamma_Crucis" width="4200" height="2940" x="0" y="0" transform="translate(0,118)" xlink:href="#star2"/><use id="Delta_Crucis" width="4200" height="2940" x="0" y="0" transform="translate(-74,184)" xlink:href="#star3"/><use id="Epsilon_Crucis" width="4200" height="2940" x="0" y="0" transform="translate(-37,235)" xlink:href="#star4"/></g><g id="Triangulum_Australe"><use id="Alpha_Trianguli_Australe" width="4200" height="2940" x="0" y="0" transform="translate(220,495)" xlink:href="#star2"/><use id="Beta_Trianguli_Australe" width="4200" height="2940" x="0" y="0" transform="translate(283,430)" xlink:href="#star3"/><use id="Gamma_Trianguli_Australe" width="4200" height="2940" x="0" y="0" transform="translate(162,412)" xlink:href="#star3"/></g><use id="Alpha_Carinae" width="4200" height="2940" x="0" y="0" transform="translate(-295,390)" xlink:href="#star1"/><use id="Sigma_Octantis" width="4200" height="2940" x="0" y="0" transform="translate(0,575)" xlink:href="#star5"/></g></svg>