<svg xmlns="http://www.w3.org/2000/svg" xmlns:svg="http://www.w3.org/2000/svg" xmlns:xlink="http://www.w3.org/1999/xlink" id="svg2" width="256" height="256" version="1.0" viewBox="-150 -100 300 200"><metadata/><defs id="defs4"><g id="smallcross"><clipPath id="vclip"><path id="path8" d="M -109,104 C -51.562386,104 -5,57.437614 -5,0 C -5,-57.437614 -51.562386,-104 -109,-104 L 109,-104 C 51.562386,-104 5,-57.437614 5,-1.2736327e-14 C 5,57.437614 51.562386,104 109,104 L -109,104 z"/></clipPath><path id="varm" d="M -55,74 C -55,43.624339 -30.375661,19 -1.0103336e-14,19 C 30.375661,19 55,43.624339 55,74 L 55,-74 C 55,-43.624339 30.375661,-19 3.3677787e-15,-19 C -30.375661,-19 -55,-43.624339 -55,-74 L -55,74 z" clip-path="url(#vclip)"/><use id="use11" width="300" height="200" x="0" y="0" transform="matrix(0,1,-1,0,0,0)" xlink:href="#varm"/></g></defs><rect id="rect13" width="300" height="200" x="-150" y="-100" style="fill:#fff"/><g id="bigcross" style="fill:red"><rect id="rect16" width="40" height="200" x="-20" y="-100"/><rect id="rect18" width="300" height="40" x="-150" y="-20"/></g><use id="use20" width="300" height="200" x="0" y="0" transform="translate(-85,-60)" xlink:href="#smallcross" style="fill:red"/><use id="use22" width="300" height="200" x="0" y="0" transform="translate(85,-60)" xlink:href="#smallcross" style="fill:red"/><use id="use24" width="300" height="200" x="0" y="0" transform="translate(-85,60)" xlink:href="#smallcross" style="fill:red"/><use id="use26" width="300" height="200" x="0" y="0" transform="translate(85,60)" xlink:href="#smallcross" style="fill:red"/></svg>