<svg xmlns="http://www.w3.org/2000/svg" xmlns:svg="http://www.w3.org/2000/svg" xmlns:xlink="http://www.w3.org/1999/xlink" id="svg3289" width="256" height="256" version="1.0" viewBox="-30 -20 60 40"><metadata/><desc id="desc3291">Flag of Algeria</desc><rect id="rect3295" width="60" height="40" x="-30" y="-20" style="fill:#fff"/><rect id="rect3297" width="30" height="40" x="-30" y="-20" style="fill:#007229"/><g id="g3299" style="fill:#d21034"><path id="path3301" d="M 8.660254,5 C 6.3972256,8.9196802 1.7836447,10.830688 -2.5881905,9.6592583 C -6.9600256,8.4878286 -10,4.5260568 -10,1.2246468e-15 C -10,-4.5260568 -6.9600256,-8.4878286 -2.5881905,-9.6592583 C 1.7836447,-10.830688 6.3972256,-8.9196802 8.660254,-5 C 6.5371707,-7.6517302 2.9709491,-8.6735438 -0.23427373,-7.5485093 C -3.4394966,-6.4234748 -5.584744,-3.3969334 -5.584744,-9.7971744e-16 C -5.584744,3.3969334 -3.4394966,6.4234748 -0.23427373,7.5485093 C 2.9709491,8.6735438 6.5371707,7.6517302 8.660254,5"/><g id="g3303" transform="matrix(5,0,0,5,4.045085,0)"><g id="cone"><polygon id="triangle" points="0 0 -1 0 -1 .5 0 0" transform="matrix(0.9510565,0.309017,-0.309017,0.9510565,1,0)"/><use id="use3307" width="60" height="40" x="0" y="0" transform="scale(1,-1)" xlink:href="#triangle"/></g><use id="use3309" width="60" height="40" x="0" y="0" transform="matrix(0.309017,0.9510565,-0.9510565,0.309017,0,0)" xlink:href="#cone"/><use id="use3311" width="60" height="40" x="0" y="0" transform="matrix(0.309017,-0.9510565,0.9510565,0.309017,0,0)" xlink:href="#cone"/><use id="use3313" width="60" height="40" x="0" y="0" transform="matrix(-0.809017,0.5877853,-0.5877853,-0.809017,0,0)" xlink:href="#cone"/><use id="use3315" width="60" height="40" x="0" y="0" transform="matrix(-0.809017,-0.5877853,0.5877853,-0.809017,0,0)" xlink:href="#cone"/></g></g></svg>