<svg xmlns="http://www.w3.org/2000/svg" xmlns:svg="http://www.w3.org/2000/svg" id="svg2413" width="256" height="256" version="1.0" viewBox="0 0 144 96"><metadata id="metadata4504"/><path id="green_triangle" d="M 0,0 L 144,0 L 0,96 L 0,0 z" style="fill:#1eb53a"/><path id="blue_triangle" d="M 0,96 L 144,96 L 144,0 L 0,96 z" style="fill:#00a3dd"/><path style="font-size:medium;font-style:normal;font-variant:normal;font-weight:400;font-stretch:normal;text-indent:0;text-align:start;text-decoration:none;line-height:normal;letter-spacing:normal;word-spacing:normal;text-transform:none;direction:ltr;block-progression:tb;writing-mode:lr-tb;text-anchor:start;baseline-shift:baseline;color:#000;fill:#fcd116;fill-opacity:1;fill-rule:nonzero;stroke:none;stroke-width:38;marker:none;visibility:visible;display:inline;overflow:visible;enable-background:accumulate;font-family:Sans;-inkscape-font-specification:Sans" id="yellow_stripes" d="M 195.125 42.65625 L 0 172.75 L 0 213.3125 L 0 213.34375 L 60.875 213.34375 L 256 83.25 L 256 42.6875 L 256 42.65625 L 195.125 42.65625 z" transform="matrix(0.5625,0,0,0.5625,0,-24)"/><path style="font-size:medium;font-style:normal;font-variant:normal;font-weight:400;font-stretch:normal;text-indent:0;text-align:start;text-decoration:none;line-height:normal;letter-spacing:normal;word-spacing:normal;text-transform:none;direction:ltr;block-progression:tb;writing-mode:lr-tb;text-anchor:start;baseline-shift:baseline;color:#000;fill:#000;fill-opacity:1;fill-rule:nonzero;stroke:none;stroke-width:26;marker:none;visibility:visible;display:inline;overflow:visible;enable-background:accumulate;font-family:Sans;-inkscape-font-specification:Sans" id="black_stripe" d="M 214.34375 42.65625 L 0 185.5625 L 0 213.34375 L 41.65625 213.34375 L 256 70.4375 L 256 42.65625 L 214.34375 42.65625 z" transform="matrix(0.5625,0,0,0.5625,0,-24)"/></svg>