<svg xmlns="http://www.w3.org/2000/svg" xmlns:svg="http://www.w3.org/2000/svg" xmlns:xlink="http://www.w3.org/1999/xlink" id="svg4347" width="256" height="256" version="1.0" viewBox="0 0 450 300"><metadata/><rect id="saffron" width="450" height="100" x="0" y="0" style="fill:#ff9932"/><rect id="white" width="450" height="100" x="0" y="100" style="fill:#fff"/><rect id="green" width="450" height="100" x="0" y="200" style="fill:#128807"/><g id="g4352" transform="translate(225,150)"><circle id="circle4354" cx="0" cy="0" r="46.5" style="fill:navy"/><circle id="circle4356" cx="0" cy="0" r="41" style="fill:#fff"/><g id="8"><g id="4"><g id="2"><g id="1"><circle id="circle4362" cx="0" cy="0" r="2.5" transform="matrix(0.9914449,0.1305262,-0.1305262,0.9914449,40.649239,5.3515739)" style="fill:navy"/><path id="path4364" d="M 0,41 L 1.5,17 C 0.83333333,15 0.33333333,9.3333333 0,0 C -0.33333333,9.3333333 -0.83333333,15 -1.5,17 L 0,41 z" style="fill:navy"/></g><use id="use4366" width="450" height="300" x="0" y="0" transform="matrix(0.9659258,0.258819,-0.258819,0.9659258,0,0)" xlink:href="#1"/></g><use id="use4368" width="450" height="300" x="0" y="0" transform="matrix(0.8660254,0.5,-0.5,0.8660254,0,0)" xlink:href="#2"/></g><use id="use4370" width="450" height="300" x="0" y="0" transform="matrix(0.5,0.8660254,-0.8660254,0.5,0,0)" xlink:href="#4"/></g><use id="use4372" width="450" height="300" x="0" y="0" transform="matrix(-0.5,0.8660254,-0.8660254,-0.5,0,0)" xlink:href="#8"/><use id="use4374" width="450" height="300" x="0" y="0" transform="matrix(-0.5,-0.8660254,0.8660254,-0.5,0,0)" xlink:href="#8"/><circle id="circle4376" cx="0" cy="0" r="8" style="fill:navy"/></g></svg>