<svg xmlns="http://www.w3.org/2000/svg" xmlns:svg="http://www.w3.org/2000/svg" xmlns:xlink="http://www.w3.org/1999/xlink" id="svg3846" width="256" height="256" version="1.0"><metadata/><rect id="rect3848" width="256" height="153.6" x="0" y="51.4" style="fill:#ffc61e"/><rect id="rect2304" width="256" height="115.2" x="0" y="89.8" style="fill:#fff"/><rect id="rect2926" width="256" height="76.8" x="0" y="128.2" style="fill:#ce1126"/><rect id="rect3548" width="256" height="38.4" x="0" y="166.6" style="fill:#3a75c4"/><path id="path4170" d="M 0,204.99999 L 128,128.19999 L 0,51.399992 L 0,204.99999 L 0,204.99999 z" style="fill:#3d8e33"/><path id="path5413" d="M 78.080005,128.19998 C 78.080005,147.28695 62.606966,162.75998 43.520002,162.75998 C 24.433037,162.75998 8.9599964,147.28695 8.9599964,128.19998 C 8.9599964,109.11302 24.433037,93.639982 43.520002,93.639982 C 62.606966,93.639982 78.080005,109.11302 78.080005,128.19998 z" style="fill:#fff"/><path id="path5414" d="M 93.44,128.19999 C 93.44,147.28695 77.966966,162.75998 58.88,162.75998 C 39.793037,162.75998 24.319996,147.28695 24.319996,128.19998 C 24.319996,109.11302 39.793037,93.639982 58.88,93.639982 C 77.966966,93.639982 93.440005,109.11302 93.440005,128.19998 L 93.440051,128.19998 L 93.440051,128.19999 L 93.44,128.19999 z" style="fill:#3d8e33"/><use id="use2407" width="500" height="300" x="0" y="0" transform="translate(0,49.472)" xlink:href="#path6092"/><path id="path6092" d="M 45.113569,101.48639 L 49.763599,101.48639 L 51.199995,97.063992 L 52.63639,101.48639 L 57.286426,101.48639 L 53.525012,104.21919 L 54.961413,108.64159 L 51.199995,105.90878 L 47.438587,108.64159 L 48.874982,104.21919 L 45.113569,101.48639 z" style="fill:#fff"/><use id="use2403" width="500" height="300" x="0" y="0" transform="translate(0,16.490652)" xlink:href="#path6092"/><use id="use2405" width="500" height="300" x="0" y="0" transform="translate(0,32.981302)" xlink:href="#path6092"/></svg>