<svg xmlns="http://www.w3.org/2000/svg" xmlns:svg="http://www.w3.org/2000/svg" id="svg2382" width="256" height="256" version="1.0"><metadata/><rect id="rect2384" width="256" height="170.667" x="0" y="42.333" style="fill:#00267f"/><rect id="rect2386" width="85.333" height="170.667" x="85.333" y="42.333" style="fill:#ffc726"/><path id="path2388" d="M 128,86.322685 C 125.22609,93.887585 122.4031,101.7538 116.352,107.78934 C 118.22967,107.1687 121.51824,106.61372 123.62133,106.66934 L 123.62133,138.47202 L 114.65067,139.80535 C 114.3252,139.77233 114.21437,139.27039 114.21333,138.58402 C 113.35323,128.71517 111.01523,120.40865 108.33067,111.83201 C 108.14076,110.65504 104.74081,106.17759 107.36,106.96269 C 107.67549,107.00329 111.1927,108.43701 110.63467,107.75202 C 105.85179,102.80607 98.871916,99.244005 92.085333,98.184015 C 91.485669,98.030225 91.134177,98.331365 91.674667,99.026685 C 100.6669,112.88712 108.20094,129.23646 108.13867,148.63735 C 111.64239,148.63735 120.11761,146.57335 123.62133,146.57335 C 123.62133,146.57335 123.62133,169.01069 123.62133,169.01069 L 132.37867,169.01069 C 132.37867,169.01069 132.37867,146.57335 132.37867,146.57335 C 135.88239,146.57335 144.35761,148.63735 147.86133,148.63735 C 147.79906,129.23646 155.3331,112.88712 164.32533,99.026685 C 164.86582,98.331365 164.51433,98.030225 163.91467,98.184015 C 157.12809,99.244005 150.14821,102.80607 145.36533,107.75202 C 144.8073,108.43701 148.32451,107.00329 148.64,106.96269 C 151.25919,106.17759 147.85924,110.65504 147.66933,111.83201 C 144.98477,120.40865 142.64144,128.71517 141.78133,138.58402 C 141.7803,139.27039 141.6748,139.77233 141.34933,139.80535 L 132.37867,138.47202 L 132.37867,106.66934 C 134.48176,106.61372 137.77033,107.1687 139.648,107.78934 C 133.5969,101.7538 130.77391,93.887585 128,86.322685 z" style="fill:#000"/></svg>