<svg xmlns="http://www.w3.org/2000/svg" xmlns:svg="http://www.w3.org/2000/svg" id="svg2816" width="256" height="256" version="1.0"><metadata/><path id="path2818" d="M 0,60.263158 L 256,60.263158 L 256,72.511962 L 256,84.760766 L 256,97.009569 L 256,109.25837 L 256,121.50718 L 256,133.75598 L 256,146.00478 L 256,158.25359 L 256,170.50239 L 256,182.7512 L 256,195 L 0,195 L 0,182.7512 L 0,170.50239 L 0,158.25359 L 0,146.00478 L 0,133.75598 L 0,60.263158 z" style="fill:#bf0a30"/><path id="path2820" d="M 0,72.511962 L 256,72.511962 L 256,84.760766 L 0,84.760766 L 0,97.009569 L 256,97.009569 L 256,109.25837 L 0,109.2135 L 0,121.50718 L 256,121.50718 L 256,133.75598 L 0,133.75598 L 0,121.50718 L 0,72.511962 z M 0,146.00478 L 256,146.00478 L 256,158.25359 L 0,158.25359 L 0,146.00478 z M 0,170.50239 L 256,170.50239 L 256,182.7512 L 0,182.7512 L 0,170.50239 z" style="fill:#fff"/><rect id="rect2822" width="61.244" height="61.244" x="0" y="60.263" style="fill:#002868"/><path id="path2824" d="M 19.820757,105.75164 L 30.625684,97.915784 L 41.435862,105.77457 L 37.298637,93.049329 L 48.102634,85.207358 L 34.749022,85.207358 L 30.625684,72.508839 L 26.496622,85.199836 L 13.14285,85.206751 L 23.946416,93.049329 L 19.820757,105.75164 z" style="fill:#fff"/></svg>