<svg xmlns="http://www.w3.org/2000/svg" xmlns:svg="http://www.w3.org/2000/svg" xmlns:xlink="http://www.w3.org/1999/xlink" id="svg2" width="256" height="256" version="1.0"><metadata/><rect id="rect3936" width="256" height="170.667" x="0" y="42.333" style="fill:#de2910"/><g id="petal" transform="matrix(0.2844444,0,0,0.2844449,0,42.332986)"><path id="path3961" d="M 449.96406,299.9134 C 344.70101,255.42714 391.36232,118.33155 492.03362,125.2227 C 471.66753,135.68964 468.71587,155.22042 480.34658,173.31291 C 493.37102,193.56871 479.14761,226.16147 461.54081,234.08031 C 432.60596,247.10474 426.8129,281.8303 449.96406,299.9134 L 449.96406,299.9134 z" style="fill:#fff"/><path id="path3963" d="M 444.27188,200.91974 L 438.35212,210.21352 L 436.20758,199.39932 L 425.52946,196.64004 L 435.15407,191.25054 L 434.48303,180.25099 L 442.56845,187.74044 L 452.82423,183.69773 L 448.2137,193.70715 L 455.21513,202.21256 L 444.27188,200.91974 z" style="fill:#de2910"/><path id="path3965" d="M 450.56002,298.75902 C 437.82888,292.22451 427.56372,278.60411 423.09163,262.32768 C 417.97665,243.65799 420.91894,223.58521 431.17471,207.29 L 428.96682,205.89629 C 418.32625,222.825 415.27369,243.63922 420.58107,263.01515 C 425.30891,280.23716 435.79462,294.1133 449.3681,301.07953 L 450.56002,298.75902 z" style="fill:#de2910"/></g><use id="use3967" width="900" height="600" x="0" y="0" transform="matrix(-0.809017,-0.5877864,0.5877842,-0.809017,156.51037,306.22254)" xlink:href="#petal"/><use id="use3969" width="900" height="600" x="0" y="0" transform="matrix(-0.809017,0.5877864,-0.5877842,-0.809017,306.5905,155.67633)" xlink:href="#petal"/><use id="use3971" width="900" height="600" x="0" y="0" transform="matrix(0.309017,0.9510583,-0.9510547,0.309017,210.01651,-33.527059)" xlink:href="#petal"/><use id="use3975" width="900" height="600" x="0" y="0" transform="matrix(0.309017,-0.9510583,0.9510547,0.309017,-33.08732,209.92622)" xlink:href="#petal"/></svg>