<svg xmlns="http://www.w3.org/2000/svg" xmlns:svg="http://www.w3.org/2000/svg" xmlns:xlink="http://www.w3.org/1999/xlink" id="Flag_of_Guinea-Bissau" width="256" height="256" version="1.0" viewBox="0 0 12 6"><metadata/><rect id="rect3948" width="4" height="6" x="0" y="0" style="fill:#ce1126"/><rect id="rect3950" width="8" height="3" x="4" y="0" style="fill:#fcd116"/><rect id="rect3952" width="8" height="3" x="4" y="3" style="fill:#009e49"/><g id="star" transform="translate(2,3)" style="fill:#000"><g id="cone"><polygon id="triangle" points="0 0 0 1 .5 1 0 0" transform="matrix(0.9510565,0.309017,-0.309017,0.9510565,0,-1)"/><use id="use3957" width="12" height="6" x="0" y="0" transform="scale(-1,1)" xlink:href="#triangle"/></g><use id="use3959" width="12" height="6" x="0" y="0" transform="matrix(0.309017,0.9510565,-0.9510565,0.309017,0,0)" xlink:href="#cone"/><use id="use3961" width="12" height="6" x="0" y="0" transform="matrix(0.309017,-0.9510565,0.9510565,0.309017,0,0)" xlink:href="#cone"/><use id="use3963" width="12" height="6" x="0" y="0" transform="matrix(-0.809017,0.5877853,-0.5877853,-0.809017,0,0)" xlink:href="#cone"/><use id="use3965" width="12" height="6" x="0" y="0" transform="matrix(-0.809017,-0.5877853,0.5877853,-0.809017,0,0)" xlink:href="#cone"/></g></svg>