<svg xmlns="http://www.w3.org/2000/svg" xmlns:svg="http://www.w3.org/2000/svg" id="svg9226" width="256" height="256" version="1.0"><metadata/><g id="layer1"><rect id="rect10982" width="256" height="128" x="0" y="64" style="fill:#006b3f;fill-opacity:1;stroke:none;stroke-opacity:1"/><rect id="rect10984" width="256" height="10.667" x="0" y="133.333" style="fill:#fff;fill-opacity:1;stroke:none;stroke-opacity:1"/><rect id="rect11859" width="256" height="10.667" x="0" y="122.667" style="fill:#000;fill-opacity:1;stroke:none;stroke-opacity:1"/><rect id="rect12734" width="256" height="10.667" x="0" y="112" style="fill:#fcd116;fill-opacity:1;stroke:none;stroke-opacity:1"/><rect id="rect13609" width="10.667" height="128" x="112" y="64" style="fill:#fcd116;fill-opacity:1;stroke:none;stroke-opacity:1"/><rect id="rect13611" width="10.667" height="128" x="122.667" y="64" style="fill:#000;fill-opacity:1;stroke:none;stroke-opacity:1"/><rect id="rect14486" width="10.667" height="128" x="133.333" y="64" style="fill:#fff;fill-opacity:1;stroke:none;stroke-opacity:1"/><path id="path15361" d="M 750.8831,300.25232 A 150.37846,150.37846 0 1 1 450.12617,300.25232 A 150.37846,150.37846 0 1 1 750.8831,300.25232 z" transform="matrix(0.2127964,0,0,0.2127964,0.2147575,64.10741)" style="fill:#d41c30;fill-opacity:1;stroke:none;stroke-opacity:1"/><path id="path601" d="M 126.97386,102.73978 C 126.97386,102.69257 127.99999,99.8131 127.99999,99.8131 L 128.93283,102.69257 C 128.93283,102.69257 132.05781,102.78698 132.05781,102.73978 C 132.05781,102.69257 129.5858,104.62799 129.5858,104.62799 C 129.5858,104.62799 130.75181,107.93234 130.70522,107.83792 C 130.65858,107.74351 127.99999,105.85529 127.99999,105.85529 C 127.99999,105.85529 125.29481,107.74351 125.34145,107.74351 C 125.3881,107.74351 126.36753,104.62799 126.36753,104.62799 L 123.94219,102.78698 L 126.97386,102.73978 z" style="font-size:12px;fill:#006b3f;fill-opacity:1;fill-rule:evenodd;stroke:#000;stroke-width:.21333334;stroke-miterlimit:4;stroke-dasharray:none;stroke-opacity:1"/><path id="path16237" d="M 129.02614,153.33317 C 129.02614,153.38038 128.00001,156.25985 128.00001,156.25985 L 127.06717,153.38038 C 127.06717,153.38038 123.94219,153.28596 123.94219,153.33317 C 123.94219,153.38038 126.4142,151.44495 126.4142,151.44495 C 126.4142,151.44495 125.24819,148.1406 125.29478,148.23502 C 125.34142,148.32944 128.00001,150.21765 128.00001,150.21765 C 128.00001,150.21765 130.70519,148.32944 130.65855,148.32944 C 130.6119,148.32944 129.63247,151.44495 129.63247,151.44495 L 132.05781,153.28596 L 129.02614,153.33317 z" style="font-size:12px;fill:#006b3f;fill-opacity:1;fill-rule:evenodd;stroke:#000;stroke-width:.21333334;stroke-miterlimit:4;stroke-dasharray:none;stroke-opacity:1"/><path id="path16244" d="M 142.87276,109.96442 C 142.87276,110.01163 141.84663,112.8911 141.84663,112.8911 L 140.91379,110.01163 C 140.91379,110.01163 137.7888,109.91721 137.7888,109.96442 C 137.7888,110.01163 140.26081,108.0762 140.26081,108.0762 C 140.26081,108.0762 139.09481,104.77185 139.14139,104.86627 C 139.18804,104.96069 141.84663,106.8489 141.84663,106.8489 C 141.84663,106.8489 144.55181,104.96069 144.50516,104.96069 C 144.45852,104.96069 143.47909,108.0762 143.47909,108.0762 L 145.90443,109.91721 L 142.87276,109.96442 z" style="font-size:12px;fill:#006b3f;fill-opacity:1;fill-rule:evenodd;stroke:#000;stroke-width:.21333334;stroke-miterlimit:4;stroke-dasharray:none;stroke-opacity:1"/><path id="path16246" d="M 151.85329,136.21519 C 151.85329,136.2624 150.82716,139.14187 150.82716,139.14187 L 149.89432,136.2624 C 149.89432,136.2624 146.76934,136.16798 146.76934,136.21519 C 146.76934,136.2624 149.24135,134.32698 149.24135,134.32698 C 149.24135,134.32698 148.07534,131.02263 148.12193,131.11704 C 148.16857,131.21146 150.82716,133.09968 150.82716,133.09968 C 150.82716,133.09968 153.53234,131.21146 153.4857,131.21146 C 153.43905,131.21146 152.45962,134.32698 152.45962,134.32698 L 154.88496,136.16798 L 151.85329,136.21519 z" style="font-size:12px;fill:#006b3f;fill-opacity:1;fill-rule:evenodd;stroke:#000;stroke-width:.21333334;stroke-miterlimit:4;stroke-dasharray:none;stroke-opacity:1"/><path id="path16248" d="M 106.195,136.96536 C 106.195,137.01257 105.16886,139.89204 105.16886,139.89204 L 104.23602,137.01257 C 104.23602,137.01257 101.11104,136.91815 101.11104,136.96536 C 101.11104,137.01257 103.58305,135.07715 103.58305,135.07715 C 103.58305,135.07715 102.41704,131.7728 102.46363,131.86721 C 102.51028,131.96163 105.16886,133.84985 105.16886,133.84985 C 105.16886,133.84985 107.87404,131.96163 107.8274,131.96163 C 107.78076,131.96163 106.80132,135.07715 106.80132,135.07715 L 109.22667,136.91815 L 106.195,136.96536 z" style="font-size:12px;fill:#006b3f;fill-opacity:1;fill-rule:evenodd;stroke:#000;stroke-width:.21333334;stroke-miterlimit:4;stroke-dasharray:none;stroke-opacity:1"/><path id="path16252" d="M 114.48449,110.27142 C 114.48449,110.31863 113.45836,113.1981 113.45836,113.1981 L 112.52552,110.31863 C 112.52552,110.31863 109.40054,110.22421 109.40054,110.27142 C 109.40054,110.31863 111.87255,108.38321 111.87255,108.38321 C 111.87255,108.38321 110.70654,105.07886 110.75313,105.17328 C 110.79977,105.26769 113.45836,107.15591 113.45836,107.15591 C 113.45836,107.15591 116.16354,105.26769 116.1169,105.26769 C 116.07025,105.26769 115.09082,108.38321 115.09082,108.38321 L 117.51616,110.22421 L 114.48449,110.27142 z" style="font-size:12px;fill:#006b3f;fill-opacity:1;fill-rule:evenodd;stroke:#000;stroke-width:.21333334;stroke-miterlimit:4;stroke-dasharray:none;stroke-opacity:1"/><path id="path16254" d="M 103.96105,119.86422 C 103.96105,119.81701 104.98718,116.93754 104.98718,116.93754 L 105.92002,119.81701 C 105.92002,119.81701 109.045,119.91143 109.045,119.86422 C 109.045,119.81701 106.57299,121.75243 106.57299,121.75243 C 106.57299,121.75243 107.739,125.05678 107.69241,124.96237 C 107.64576,124.86795 104.98718,122.97973 104.98718,122.97973 C 104.98718,122.97973 102.282,124.86795 102.32864,124.86795 C 102.37529,124.86795 103.35472,121.75243 103.35472,121.75243 L 100.92937,119.91143 L 103.96105,119.86422 z" style="font-size:12px;fill:#006b3f;fill-opacity:1;fill-rule:evenodd;stroke:#000;stroke-width:.21333334;stroke-miterlimit:4;stroke-dasharray:none;stroke-opacity:1"/><path id="path16256" d="M 112.88356,146.0663 C 112.88356,146.01909 113.90969,143.13962 113.90969,143.13962 L 114.84253,146.01909 C 114.84253,146.01909 117.96751,146.11351 117.96751,146.0663 C 117.96751,146.01909 115.4955,147.95451 115.4955,147.95451 C 115.4955,147.95451 116.66151,151.25886 116.61492,151.16445 C 116.56828,151.07003 113.90969,149.18181 113.90969,149.18181 C 113.90969,149.18181 111.20451,151.07003 111.25116,151.07003 C 111.2978,151.07003 112.27723,147.95451 112.27723,147.95451 L 109.85189,146.11351 L 112.88356,146.0663 z" style="font-size:12px;fill:#006b3f;fill-opacity:1;fill-rule:evenodd;stroke:#000;stroke-width:.21333334;stroke-miterlimit:4;stroke-dasharray:none;stroke-opacity:1"/><path id="path16258" d="M 149.63851,119.16483 C 149.63851,119.11762 150.66464,116.23815 150.66464,116.23815 L 151.59748,119.11762 C 151.59748,119.11762 154.72247,119.21204 154.72247,119.16483 C 154.72247,119.11762 152.25046,121.05304 152.25046,121.05304 C 152.25046,121.05304 153.41647,124.35739 153.36988,124.26298 C 153.32323,124.16856 150.66464,122.28034 150.66464,122.28034 C 150.66464,122.28034 147.95946,124.16856 148.00611,124.16856 C 148.05275,124.16856 149.03218,121.05304 149.03218,121.05304 L 146.60684,119.21204 L 149.63851,119.16483 z" style="font-size:12px;fill:#006b3f;fill-opacity:1;fill-rule:evenodd;stroke:#000;stroke-width:.21333334;stroke-miterlimit:4;stroke-dasharray:none;stroke-opacity:1"/><path id="path16260" d="M 141.32276,145.81973 C 141.32276,145.77252 142.34889,142.89305 142.34889,142.89305 L 143.28173,145.77252 C 143.28173,145.77252 146.40672,145.86694 146.40672,145.81973 C 146.40672,145.77252 143.93471,147.70795 143.93471,147.70795 C 143.93471,147.70795 145.10072,151.0123 145.05413,150.91788 C 145.00748,150.82346 142.34889,148.93525 142.34889,148.93525 C 142.34889,148.93525 139.64372,150.82346 139.69036,150.82346 C 139.737,150.82346 140.71644,147.70795 140.71644,147.70795 L 138.29109,145.86694 L 141.32276,145.81973 z" style="font-size:12px;fill:#006b3f;fill-opacity:1;fill-rule:evenodd;stroke:#000;stroke-width:.21333334;stroke-miterlimit:4;stroke-dasharray:none;stroke-opacity:1"/><rect id="rect600" width=".153" height="0" x="106.47" y="121.028" style="font-size:12px;fill:#009543;fill-rule:evenodd;stroke-width:1pt"/><rect id="rect628" width=".153" height="0" x="134.017" y="140.421" style="font-size:12px;fill:#009543;fill-rule:evenodd;stroke-width:1pt"/><rect id="rect634" width=".153" height="0" x="125.989" y="171.201" style="font-size:12px;fill:#009543;fill-rule:evenodd;stroke-width:1pt"/><rect id="rect640" width=".153" height="0" x="87.475" y="171.201" style="font-size:12px;fill:#009543;fill-rule:evenodd;stroke-width:1pt"/><rect id="rect646" width=".153" height="0" x="80.441" y="139.627" style="font-size:12px;fill:#009543;fill-rule:evenodd;stroke-width:1pt"/><rect id="rect652" width=".153" height="0" x="-164.815" y="-82.367" transform="scale(-1,-1)" style="font-size:12px;fill:#009543;fill-rule:evenodd;stroke-width:1pt"/><rect id="rect599" width=".153" height="0" x="-175.874" y="-112.446" transform="scale(-1,-1)" style="font-size:12px;fill:#009543;fill-rule:evenodd;stroke-width:1pt"/><rect id="rect607" width=".153" height="0" x="-148.449" y="-134.452" transform="scale(-1,-1)" style="font-size:12px;fill:#009543;fill-rule:evenodd;stroke-width:1pt"/><rect id="rect613" width=".153" height="0" x="-122.683" y="-112.446" transform="scale(-1,-1)" style="font-size:12px;fill:#009543;fill-rule:evenodd;stroke-width:1pt"/><rect id="rect619" width=".153" height="0" x="-132.193" y="-82.809" transform="scale(-1,-1)" style="font-size:12px;fill:#009543;fill-rule:evenodd;stroke-width:1pt"/><g id="g13518" transform="matrix(0.268953,0,0,0.268953,-6.6452373,60.58993)"><g id="g1112" transform="translate(7.403947,348.7255)" style="font-size:12px"><g id="g1014" transform="matrix(0.163503,-1.627543e-2,1.182242e-2,0.184363,429.835,-215.6278)"><ellipse id="path1011" cx="680.206" cy="586.126" rx="30.805" ry="189.825" transform="matrix(1.405124,-5.812161e-3,8.166948e-3,0.999983,-534.2869,263.7234)" style="fill:#006b3f;fill-opacity:1;fill-rule:evenodd;stroke:#000;stroke-width:2.5"/><ellipse id="path1012" cx="680.206" cy="586.126" rx="30.805" ry="189.825" transform="matrix(1.486152,-5.812161e-3,8.637901e-3,0.999983,-547.2176,267.0538)" style="fill:#006b3f;fill-opacity:1;fill-rule:evenodd;stroke:#000;stroke-width:2.5"/><ellipse id="path1013" cx="680.206" cy="586.126" rx="30.805" ry="189.825" transform="matrix(1.18905,-6.423977e-3,6.911065e-3,1.105246,-364.9289,214.0982)" style="fill:#006b3f;fill-opacity:1;fill-rule:evenodd;stroke:#000;stroke-width:2.5"/></g><g id="g1105" transform="translate(72.86526,-9.797035)"><path id="path1010" d="M 238.342,971.79 C 268.314,970.125 254.993,955.138 269.979,946.813 C 284.965,938.487 306.612,943.483 313.272,953.473 C 319.933,963.464 314.938,973.455 323.263,973.455 C 331.589,973.455 557.819,960.78 566.144,969.106 C 574.47,977.431 576.135,994.083 567.809,1000.74 C 559.484,1007.4 273.309,1015.08 263.319,1008.42 C 253.328,1001.76 238.342,973.455 238.342,971.79 z" transform="matrix(0.202443,3.486294e-3,-3.936657e-3,0.21385,340.8638,-247.3115)" style="fill:#9c4a00;fill-opacity:1;fill-rule:evenodd;stroke:#000;stroke-width:2.50539994"/><path id="path1506" d="M 529.59,405.459 C 529.59,445.442 575.152,433.338 576.4,466.708 C 575.676,502.116 499.694,470.175 497.765,405.459 C 499.694,340.743 572.872,307.53 574.47,344.448 C 575.716,375.134 529.59,365.476 529.59,405.459 z" transform="matrix(0.147992,1.951432e-3,-2.754835e-3,0.114586,340.4216,-81.69088)" style="fill:#fcd116;fill-opacity:1;fill-rule:evenodd;stroke:#000;stroke-width:3.85272002"/><path id="path1507" d="M 529.59,405.459 C 529.59,445.442 575.152,433.338 576.4,466.708 C 575.676,502.116 499.694,470.175 497.765,405.459 C 499.694,340.743 572.872,307.53 574.47,344.448 C 575.716,375.134 529.59,365.476 529.59,405.459 z" transform="matrix(0.147992,1.951432e-3,-2.754835e-3,0.114586,344.4198,-81.63816)" style="fill:#fcd116;fill-opacity:1;fill-rule:evenodd;stroke:#000;stroke-width:3.85272002"/><path id="path1508" d="M 529.59,405.459 C 529.59,445.442 575.152,433.338 576.4,466.708 C 575.676,502.116 499.694,470.175 497.765,405.459 C 499.694,340.743 572.872,307.53 574.47,344.448 C 575.716,375.134 529.59,365.476 529.59,405.459 z" transform="matrix(0.147992,1.951432e-3,-2.754835e-3,0.114586,348.7088,-81.79968)" style="fill:#fcd116;fill-opacity:1;fill-rule:evenodd;stroke:#000;stroke-width:3.85272002"/><path id="path1509" d="M 529.59,405.459 C 529.59,445.442 575.152,433.338 576.4,466.708 C 575.676,502.116 499.694,470.175 497.765,405.459 C 499.694,340.743 572.872,307.53 574.47,344.448 C 575.716,375.134 529.59,365.476 529.59,405.459 z" transform="matrix(0.147992,1.951432e-3,-2.754835e-3,0.114586,352.7069,-81.74693)" style="fill:#fcd116;fill-opacity:1;fill-rule:evenodd;stroke:#000;stroke-width:3.85272002"/><ellipse id="path1091" cx="478.382" cy="-41.086" rx="3.534" ry="3.403" transform="matrix(1.094549,1.648336e-2,-2.428555e-2,1.153662,-75.5714,4.677567)" style="fill:#9c4a00;fill-opacity:1;fill-rule:evenodd;stroke:#000;stroke-width:.39908299"/></g><g id="g1048" transform="matrix(0.994885,-0.101022,0.101022,0.994885,66.68384,66.33841)"><ellipse id="path1049" cx="427.106" cy="904.998" rx="20.814" ry="24.144" transform="matrix(0.166193,-8.072795e-3,1.687537e-3,0.315205,369.7997,-361.6541)" style="fill:#006b3f;fill-opacity:1;fill-rule:evenodd;stroke:#000;stroke-width:2.5"/><ellipse id="path1050" cx="427.106" cy="904.998" rx="20.814" ry="24.144" transform="matrix(0.166193,-8.072795e-3,1.687537e-3,0.315205,364.0408,-362.7012)" style="fill:#006b3f;fill-opacity:1;fill-rule:evenodd;stroke:#000;stroke-width:2.5"/><ellipse id="path1052" cx="427.106" cy="904.998" rx="20.814" ry="24.144" transform="matrix(0.166193,-8.072776e-3,1.687537e-3,0.315204,360.6378,-370.5537)" style="fill:#006b3f;fill-opacity:1;fill-rule:evenodd;stroke:#000;stroke-width:2.5"/><ellipse id="path1053" cx="427.106" cy="904.998" rx="20.814" ry="24.144" transform="matrix(0.159905,-8.905569e-3,1.623691e-3,0.347721,369.2988,-399.3517)" style="fill:#006b3f;fill-opacity:1;fill-rule:evenodd;stroke:#000;stroke-width:2.5"/><ellipse id="path1054" cx="427.106" cy="904.998" rx="20.814" ry="24.144" transform="matrix(0.159905,-8.350374e-3,1.623691e-3,0.326043,377.4103,-379.0724)" style="fill:#009543;fill-rule:evenodd;stroke:#000;stroke-width:2.5"/><ellipse id="path1055" cx="427.106" cy="904.998" rx="20.814" ry="24.144" transform="matrix(0.159905,-8.350374e-3,1.623691e-3,0.326043,373.222,-382.2137)" style="fill:#009543;fill-rule:evenodd;stroke:#000;stroke-width:2.5"/><ellipse id="path1056" cx="427.106" cy="904.998" rx="20.814" ry="24.144" transform="matrix(0.159905,-8.350374e-3,1.623691e-3,0.326043,367.9866,-386.6638)" style="fill:#009543;fill-rule:evenodd;stroke:#000;stroke-width:2.5"/><ellipse id="path1057" cx="427.106" cy="904.998" rx="20.814" ry="24.144" transform="matrix(0.159905,-8.350374e-3,1.623691e-3,0.326043,363.0129,-389.5432)" style="fill:#006b3f;fill-opacity:1;fill-rule:evenodd;stroke:#000;stroke-width:2.5"/></g><path id="path851" d="M 173.174,346.347 C 173.174,346.347 118.976,411.24 151.922,555.162 C 185.88,699.752 330.887,744.945 330.887,744.945 C 330.887,744.945 357.383,697.522 332.613,580.904 C 292.65,411.061 216.467,346.347 216.467,346.347 L 173.174,346.347 z" transform="matrix(0.176889,3.219125e-2,-3.142231e-2,0.182359,461.7877,-208.6117)" style="fill:#9461c9;fill-opacity:1;fill-rule:evenodd;stroke:#000;stroke-width:2.5"/><g id="g1026" transform="matrix(0.996961,7.791016e-2,-7.791016e-2,0.996961,60.53158,-11.75977)"><ellipse id="path1025" cx="427.106" cy="904.998" rx="20.814" ry="24.144" transform="matrix(0.166193,-8.072795e-3,1.687537e-3,0.315205,369.7997,-361.6541)" style="fill:#006b3f;fill-opacity:1;fill-rule:evenodd;stroke:#000;stroke-width:2.5"/><ellipse id="path1017" cx="427.106" cy="904.998" rx="20.814" ry="24.144" transform="matrix(0.166193,-8.072795e-3,1.687537e-3,0.315205,364.0408,-362.7012)" style="fill:#006b3f;fill-opacity:1;fill-rule:evenodd;stroke:#000;stroke-width:2.5"/><ellipse id="path1016" cx="427.106" cy="904.998" rx="20.814" ry="24.144" transform="matrix(0.166193,-8.072776e-3,1.687537e-3,0.315204,360.6378,-370.5537)" style="fill:#006b3f;fill-opacity:1;fill-rule:evenodd;stroke:#000;stroke-width:2.5"/><ellipse id="path1018" cx="427.106" cy="904.998" rx="20.814" ry="24.144" transform="matrix(0.159905,-8.905569e-3,1.623691e-3,0.347721,369.2988,-399.3517)" style="fill:#006b3f;fill-opacity:1;fill-rule:evenodd;stroke:#000;stroke-width:2.5"/><ellipse id="path1020" cx="427.106" cy="904.998" rx="20.814" ry="24.144" transform="matrix(0.159905,-8.350374e-3,1.623691e-3,0.326043,377.4103,-379.0724)" style="fill:#006b3f;fill-opacity:1;fill-rule:evenodd;stroke:#000;stroke-width:2.5"/><ellipse id="path1019" cx="427.106" cy="904.998" rx="20.814" ry="24.144" transform="matrix(0.159905,-8.350374e-3,1.623691e-3,0.326043,373.222,-382.2137)" style="fill:#006b3f;fill-opacity:1;fill-rule:evenodd;stroke:#000;stroke-width:2.5"/><ellipse id="path1005" cx="427.106" cy="904.998" rx="20.814" ry="24.144" transform="matrix(0.159905,-8.350374e-3,1.623691e-3,0.326043,367.9866,-386.6638)" style="fill:#006b3f;fill-opacity:1;fill-rule:evenodd;stroke:#000;stroke-width:2.5"/><ellipse id="path988" cx="427.106" cy="904.998" rx="20.814" ry="24.144" transform="matrix(0.159905,-8.350374e-3,1.623691e-3,0.326043,363.0129,-389.5432)" style="fill:#006b3f;fill-opacity:1;fill-rule:evenodd;stroke:#000;stroke-width:2.5"/></g><ellipse id="path985" cx="624.424" cy="606.107" rx="58.28" ry="186.495" transform="matrix(0.156948,-6.062813e-2,6.364226e-2,0.148405,369.6128,-145.0546)" style="fill:#d41c30;fill-opacity:1;fill-rule:evenodd;stroke:#000;stroke-width:1pt"/><g id="g1072" transform="matrix(0.999842,1.780211e-2,-1.780211e-2,0.999842,-34.81445,-4.628464)"><ellipse id="path872" cx="218.132" cy="356.754" rx="10.823" ry="12.905" transform="matrix(0.395296,0,0,0.292704,445.0725,-230.5263)" style="fill:#009543;fill-rule:evenodd;stroke:#000;stroke-width:1.46349001"/><ellipse id="path888" cx="218.132" cy="356.754" rx="10.823" ry="12.905" transform="matrix(0.35412,0,0,0.292704,457.1741,-235.9224)" style="fill:#009543;fill-rule:evenodd;stroke:#000;stroke-width:1.54622996"/><ellipse id="path887" cx="218.132" cy="356.754" rx="10.823" ry="12.905" transform="matrix(0.35412,0,0,0.292704,452.0043,-235.9224)" style="fill:#009543;fill-rule:evenodd;stroke:#000;stroke-width:1.54622996"/><ellipse id="path879" cx="218.132" cy="356.754" rx="10.823" ry="12.905" transform="matrix(0.370591,0,0,0.274783,449.4811,-233.4606)" style="fill:#006b3f;fill-opacity:1;fill-rule:evenodd;stroke:#000;stroke-width:1.55999005"/><ellipse id="path878" cx="218.132" cy="356.754" rx="10.823" ry="12.905" transform="matrix(0.370591,0,0,0.274783,448.9463,-237.9316)" style="fill:#006b3f;fill-opacity:1;fill-rule:evenodd;stroke:#000;stroke-width:1.55999005"/><ellipse id="path867" cx="218.132" cy="356.754" rx="10.823" ry="12.905" transform="matrix(0.35412,0,0,0.292704,447.0128,-238.8517)" style="fill:#006b3f;fill-opacity:1;fill-rule:evenodd;stroke:#000;stroke-width:1.54622996"/><ellipse id="path877" cx="218.132" cy="356.754" rx="10.823" ry="12.905" transform="matrix(0.35412,0,0,0.28673,448.0824,-241.577)" style="fill:#006b3f;fill-opacity:1;fill-rule:evenodd;stroke:#000;stroke-width:1.56226003"/><ellipse id="path876" cx="218.132" cy="356.754" rx="10.823" ry="12.905" transform="matrix(0.395296,0,0,0.292704,432.772,-243.4769)" style="fill:#006b3f;fill-opacity:1;fill-rule:evenodd;stroke:#000;stroke-width:1.46349001"/><ellipse id="path874" cx="218.132" cy="356.754" rx="10.823" ry="12.905" transform="matrix(0.370591,0,0,0.274783,445.9157,-243.4819)" style="fill:#006b3f;fill-opacity:1;fill-rule:evenodd;stroke:#000;stroke-width:1.55999005"/><ellipse id="path873" cx="218.132" cy="356.754" rx="10.823" ry="12.905" transform="matrix(0.35412,0,0,0.28673,444.1605,-246.9731)" style="fill:#006b3f;fill-opacity:1;fill-rule:evenodd;stroke:#000;stroke-width:1.56226003"/><ellipse id="path871" cx="218.132" cy="356.754" rx="10.823" ry="12.905" transform="matrix(0.35412,0,0,0.292704,436.1385,-243.1686)" style="fill:#006b3f;fill-opacity:1;fill-rule:evenodd;stroke:#000;stroke-width:1.54622996"/><ellipse id="path1070" cx="218.132" cy="356.754" rx="10.823" ry="12.905" transform="matrix(0.35412,0,0,0.28673,437.4203,-243.8784)" style="fill:#006b3f;fill-opacity:1;fill-rule:evenodd;stroke:#000;stroke-width:1.56226003"/><ellipse id="path869" cx="218.132" cy="356.754" rx="10.823" ry="12.905" transform="matrix(0.35412,0,0,0.28673,438.9908,-247.0197)" style="fill:#006b3f;fill-opacity:1;fill-rule:evenodd;stroke:#000;stroke-width:1.56226003"/></g><g id="g946" transform="matrix(0.179609,-4.521057e-3,4.192619e-3,0.185123,420.9863,-216.8024)"><ellipse id="path889" cx="528.679" cy="564.479" rx="67.438" ry="205.644" transform="matrix(0.97574,-0.307929,0.363045,0.874481,-245.8061,324.3975)" style="fill:#006b3f;fill-opacity:1;fill-rule:evenodd;stroke:#000;stroke-width:2.54485989"/><ellipse id="path894" cx="528.679" cy="646.07" rx="13.321" ry="40.796" transform="matrix(0.917882,-0.396852,0.396852,0.917882,-210.4826,304.4884)" style="fill:#006b3f;fill-opacity:1;fill-rule:evenodd;stroke:#000;stroke-width:2.5"/><path id="path893" d="M 139.87,643.988 C 139.87,701.665 121.115,730.159 105.319,754.303 C 112.836,721.833 118.224,701.666 118.224,643.989 C 118.224,586.312 147.803,558.652 158.603,542 C 154.417,558.652 139.87,586.312 139.87,643.988 z" transform="matrix(1.882818,-0.455977,0.953423,1.182187,-352.2551,-10.01956)" style="fill:#006b3f;fill-opacity:1;fill-rule:evenodd;stroke:#000;stroke-width:1.53268003"/><path id="path892" d="M 139.87,643.988 C 139.87,701.665 121.115,730.159 105.319,754.303 C 112.836,721.833 118.224,701.666 118.224,643.989 C 118.224,586.312 147.803,558.652 158.603,542 C 154.417,558.652 139.87,586.312 139.87,643.988 z" transform="matrix(1.882818,-0.455977,0.953423,1.182187,-348.4234,44.05751)" style="fill:#006b3f;fill-opacity:1;fill-rule:evenodd;stroke:#000;stroke-width:1.53268003"/><path id="path891" d="M 139.87,643.988 C 139.87,701.665 121.115,730.159 105.319,754.303 C 112.836,721.833 118.224,701.666 118.224,643.989 C 118.224,586.312 147.803,558.652 158.603,542 C 154.417,558.652 139.87,586.312 139.87,643.988 z" transform="matrix(1.87302,-0.494682,0.977582,1.162287,-361.9242,105.7834)" style="fill:#006b3f;fill-opacity:1;fill-rule:evenodd;stroke:#000;stroke-width:1.53268003"/><ellipse id="path895" cx="528.679" cy="646.07" rx="13.321" ry="40.796" transform="matrix(1.810478,-0.400515,0.699068,1.635286,-915.63,-221.0144)" style="fill:#006b3f;fill-opacity:1;fill-rule:evenodd;stroke:#000;stroke-width:1.38874996"/><ellipse id="path896" cx="528.679" cy="646.07" rx="13.321" ry="40.796" transform="matrix(1.625675,-0.230684,0.541575,1.352842,-739.4891,-91.77486)" style="fill:#006b3f;fill-opacity:1;fill-rule:evenodd;stroke:#000;stroke-width:1.63984001"/><ellipse id="path897" cx="528.679" cy="646.07" rx="13.321" ry="40.796" transform="matrix(1.630439,-0.197194,0.512514,1.363529,-750.6206,-91.82552)" style="fill:#006b3f;fill-opacity:1;fill-rule:evenodd;stroke:#000;stroke-width:1.63984001"/><ellipse id="path898" cx="528.679" cy="646.07" rx="13.321" ry="40.796" transform="matrix(1.31445,-0.200604,0.468889,1.010117,-531.0563,47.56802)" style="fill:#006b3f;fill-opacity:1;fill-rule:evenodd;stroke:#000;stroke-width:2.09662008"/><ellipse id="path899" cx="528.679" cy="646.07" rx="13.321" ry="40.796" transform="matrix(1.325781,-0.130444,0.403422,1.032739,-517.8685,12.21143)" style="fill:#006b3f;fill-opacity:1;fill-rule:evenodd;stroke:#000;stroke-width:2.09662008"/><path id="path945" d="M 145.698,569.474 C 145.698,603.48 138.986,631.084 130.713,631.084 C 122.441,631.084 115.727,603.48 115.727,569.474" transform="matrix(1.025425,-0.492771,0.464381,1.177331,12.76656,-14.519)" style="fill:#006b3f;fill-opacity:1;fill-rule:evenodd;stroke:#000;stroke-width:2.08615994"/><ellipse id="path902" cx="528.679" cy="646.07" rx="13.321" ry="40.796" transform="matrix(1.325781,-0.130444,0.403422,1.032739,-519.5336,-34.41226)" style="fill:#006b3f;fill-opacity:1;fill-rule:evenodd;stroke:#000;stroke-width:2.09662008"/><ellipse id="path903" cx="528.679" cy="646.07" rx="13.321" ry="40.796" transform="matrix(1.328753,-0.105107,0.379547,1.040012,-533.9751,-40.12073)" style="fill:#006b3f;fill-opacity:1;fill-rule:evenodd;stroke:#000;stroke-width:2.09662008"/><path id="path909" d="M 145.698,569.474 C 145.698,603.48 138.986,631.084 130.713,631.084 C 122.441,631.084 115.727,603.48 115.727,569.474" transform="matrix(0.672197,-0.471822,0.458936,0.799103,39.48589,143.278)" style="fill:#006b3f;fill-opacity:1;fill-rule:evenodd;stroke:#000;stroke-width:2.8796699"/><path id="path906" d="M 145.698,569.474 C 145.698,603.48 138.986,631.084 130.713,631.084 C 122.441,631.084 115.727,603.48 115.727,569.474" transform="matrix(0.672197,-0.471822,0.458936,0.799103,51.14178,125.7941)" style="fill:#006b3f;fill-opacity:1;fill-rule:evenodd;stroke:#000;stroke-width:2.8796699"/><path id="path907" d="M 145.698,569.474 C 145.698,603.48 138.986,631.084 130.713,631.084 C 122.441,631.084 115.727,603.48 115.727,569.474" transform="matrix(0.937396,-0.644677,0.639998,1.091861,-40.19822,-10.74352)" style="fill:#006b3f;fill-opacity:1;fill-rule:evenodd;stroke:#000;stroke-width:2.08615994"/><path id="path908" d="M 145.698,569.474 C 145.698,603.48 138.986,631.084 130.713,631.084 C 122.441,631.084 115.727,603.48 115.727,569.474" transform="matrix(0.672197,-0.520221,0.458936,0.881076,68.62559,71.17856)" style="fill:#006b3f;fill-opacity:1;fill-rule:evenodd;stroke:#000;stroke-width:2.74245"/></g><g id="g919" transform="matrix(1.101444,0.275869,-0.265588,0.974374,-85.41525,-157.9016)"><path id="path875" d="M 276.266,345.409 C 263.988,354.583 276.675,370.553 288.288,376.088 C 301.348,383.76 374.891,434.273 424.605,388.087 C 383.81,388.92 305.942,324.904 276.266,345.409 z" transform="matrix(0.134413,-3.04485e-2,4.851113e-2,0.216811,448.7474,-184.9145)" style="fill:#9461c9;fill-opacity:1;fill-rule:evenodd;stroke:#000;stroke-width:2.5"/><path id="path870" d="M 276.266,345.409 C 263.988,354.583 276.675,370.553 288.288,376.088 C 301.348,383.76 374.891,434.273 424.605,388.087 C 383.81,388.92 305.942,324.904 276.266,345.409 z" transform="matrix(0.134413,-3.04485e-2,4.851113e-2,0.216811,446.2043,-190.218)" style="fill:#9461c9;fill-opacity:1;fill-rule:evenodd;stroke:#000;stroke-width:2.5"/><path id="path868" d="M 276.266,345.409 C 263.988,354.583 276.675,370.553 288.288,376.088 C 301.348,383.76 374.891,434.273 424.605,388.087 C 383.81,388.92 305.942,324.904 276.266,345.409 z" transform="matrix(0.134413,-3.04485e-2,4.851113e-2,0.216811,443.3872,-195.1923)" style="fill:#9461c9;fill-opacity:1;fill-rule:evenodd;stroke:#000;stroke-width:2.5"/><path id="path866" d="M 276.266,345.409 C 263.988,354.583 276.675,370.553 288.288,376.088 C 301.348,383.76 374.891,434.273 424.605,388.087 C 383.81,388.92 305.942,324.904 276.266,345.409 z" transform="matrix(0.134413,-3.04485e-2,4.851113e-2,0.216811,438.6063,-200.4414)" style="fill:#9461c9;fill-opacity:1;fill-rule:evenodd;stroke:#000;stroke-width:2.5"/></g><g id="g907" transform="matrix(0.999842,1.780211e-2,-1.780211e-2,0.999842,12.04015,10.60534)"><path id="path852" d="M 211.167,247.301 C 232.94,235.236 267.785,237.552 290.901,258.466 C 310.261,275.409 336.208,333.66 361.223,351.3 C 340.996,351.319 329.925,345.531 318.982,336.12 C 290.215,351.562 280.855,352.844 255.092,351.752 C 219.211,350.418 192.633,334.098 186.914,311.148 C 180.748,289.344 191.839,258.65 211.167,247.301 z" transform="matrix(0.208828,-4.091126e-2,4.730467e-2,0.180604,407.8048,-213.6359)" style="fill:#9461c9;fill-opacity:1;fill-rule:evenodd;stroke:#000;stroke-width:2.5"/><ellipse id="path1051" cx="287.235" cy="323.035" rx="14.154" ry="14.986" transform="matrix(0.24521,0,0,0.134333,401.8211,-215.1804)" style="fill:#d41c30;fill-opacity:1;fill-rule:evenodd;stroke:#000;stroke-width:2.5"/><ellipse id="path1062" cx="204.578" cy="348.262" rx="23.254" ry="15.895" transform="matrix(0.19364,-7.598685e-2,6.759024e-2,0.17273,398.6623,-208.0622)" style="fill:#fcd116;fill-opacity:1;fill-rule:evenodd;stroke:#000;stroke-width:2.5"/><ellipse id="path1059" cx="283.905" cy="333.858" rx="5.828" ry="5.828" transform="matrix(0.214119,0,0,0.18518,411.2866,-233.7407)" style="fill-rule:evenodd;stroke-width:1pt"/><path id="path1061" d="M 516.796,260.294 C 521.221,278.401 510.122,303.377 483.663,312.903 C 456.888,326.076 437.584,354.734 428.022,400.92 C 380.778,297.65 404.915,252.645 448.622,240.574 C 485.999,226.211 509.042,227.203 516.796,260.294 z" transform="matrix(9.228922e-2,8.874689e-4,-3.397048e-3,8.481727e-2,417.8523,-191.4926)" style="fill:#fcd116;fill-opacity:1;fill-rule:evenodd;stroke:#000;stroke-width:6.55976009"/><ellipse id="path1113" cx="198.985" cy="362.391" rx="4.71" ry="4.71" transform="matrix(0.186968,-1.313064e-2,1.398806e-2,0.19143,418.6864,-234.9767)" style="fill-rule:evenodd;stroke-width:1pt"/></g></g></g></g></svg>