<svg xmlns="http://www.w3.org/2000/svg" xmlns:svg="http://www.w3.org/2000/svg" id="svg4144" width="256" height="256" version="1.0"><metadata/><rect id="rect4146" width="256" height="128" x="0" y="64" style="fill:#002b7f"/><rect id="rect4148" width="256" height="10.667" x="0" y="122.667" style="fill:#ffc61e"/><path id="path4150" d="M 64,176 L 61.239253,164.96986 L 53.333333,173.14185 L 56.457515,162.20915 L 45.524779,165.33333 L 53.696811,157.42741 L 42.666667,154.66667 L 53.696811,151.90592 L 45.524779,144 L 56.457515,147.12418 L 53.333333,136.19149 L 61.239253,144.36348 L 64,133.33333 L 66.760747,144.36348 L 74.666667,136.19149 L 71.542485,147.12418 L 82.475221,144 L 74.303189,151.90592 L 85.333333,154.66667 L 74.303189,157.42741 L 82.475221,165.33333 L 71.542485,162.20915 L 74.666667,173.14185 L 66.760747,164.96986 L 64,176 z" style="fill:#fff"/></svg>