<svg xmlns="http://www.w3.org/2000/svg" xmlns:svg="http://www.w3.org/2000/svg" xmlns:xlink="http://www.w3.org/1999/xlink" id="svg2567" width="256" height="256" version="1.0" viewBox="-120 -80 240 160"><metadata/><defs id="defs2569"><path id="spearshape" stroke-miterlimit="10" d="M -1,55.425626 L 1,55.425626 L 1,-38 C 3,-40 3,-43 3,-46 C 3,-48 3,-56 0,-64.66323 C -3,-56 -3,-48 -3,-46 C -3,-43 -3,-40 -1,-38 L -1,55.425626 z" transform="matrix(0.8660254,0.5,-0.5,0.8660254,0,0)" style="stroke-miterlimit:10"/></defs><rect id="rect2572" width="240" height="160" x="-120" y="-80" style="fill:#fff"/><rect id="rect2574" width="240" height="48" x="-120" y="-80"/><rect id="rect2576" width="240" height="48" x="-120" y="32" style="fill:#060"/><g id="spear"><use id="use2579" width="240" height="160" x="0" y="0" xlink:href="#spearshape"/><use id="use2581" width="240" height="160" x="0" y="0" xlink:href="#spearshape" style="fill:#fff"/></g><use id="use2583" width="240" height="160" x="0" y="0" transform="scale(-1,1)" xlink:href="#spear"/><path id="path2585" d="M -120,-24 L -120,24 L -19,24 C -16,32 -6,48 0,48 C 6,48 16,32 19,24 L 120,24 L 120,-24 L 19,-24 C 16,-32 6,-48 0,-48 C -6,-48 -16,-32 -19,-24 L -120,-24 z" style="fill:#b00"/><path id="deco_r" d="M 19,24 C 22,16 24,8 24,0 C 24,-8 22,-16 19,-24 C 16,-16 14,-8 14,0 C 14,8 16,16 19,24"/><use id="use2588" width="240" height="160" x="0" y="0" transform="scale(-1,1)" xlink:href="#deco_r"/><g id="g2590" style="fill:#fff"><ellipse id="ellipse2592" cx="0" cy="0" rx="4" ry="6"/><path id="deco_br" d="M 1,5.85 C 1,5.85 5,13.85 5,26.85 C 5,39.85 1,47.85 1,47.85 L 1,5.85 z"/><use id="use2595" width="240" height="160" x="0" y="0" transform="scale(-1,-1)" xlink:href="#deco_br"/><use id="use2597" width="240" height="160" x="0" y="0" transform="scale(-1,1)" xlink:href="#deco_br"/><use id="use2599" width="240" height="160" x="0" y="0" transform="scale(1,-1)" xlink:href="#deco_br"/></g></svg>