<svg xmlns="http://www.w3.org/2000/svg" xmlns:svg="http://www.w3.org/2000/svg" xmlns:xlink="http://www.w3.org/1999/xlink" id="svg2871" width="256" height="256" version="1.0" viewBox="0 0 90 60"><metadata/><desc id="desc2873">Flag of Cameroon</desc><rect id="rect2875" width="30" height="60" x="0" y="0" style="fill:#007a5e"/><rect id="rect2877" width="30" height="60" x="30" y="0" style="fill:#ce1126"/><rect id="rect2879" width="30" height="60" x="60" y="0" style="fill:#fcd116"/><g id="star" transform="matrix(8,0,0,8,45,30)" style="fill:#fcd116"><g id="c"><path id="triangle" d="M 0,0 L 0,1 L 0.5,1 L 0,0 z" transform="matrix(0.9510565,0.309017,-0.309017,0.9510565,0,-1)"/><use id="use2884" width="90" height="60" x="0" y="0" transform="scale(-1,1)" xlink:href="#triangle"/></g><use id="use2886" width="90" height="60" x="0" y="0" transform="matrix(0.309017,0.9510565,-0.9510565,0.309017,0,0)" xlink:href="#c"/><use id="use2888" width="90" height="60" x="0" y="0" transform="matrix(-0.809017,0.5877853,-0.5877853,-0.809017,0,0)" xlink:href="#c"/><use id="use2890" width="90" height="60" x="0" y="0" transform="matrix(-0.809017,-0.5877853,0.5877853,-0.809017,0,0)" xlink:href="#c"/><use id="use2892" width="90" height="60" x="0" y="0" transform="matrix(0.309017,-0.9510565,0.9510565,0.309017,0,0)" xlink:href="#c"/></g></svg>