<svg xmlns="http://www.w3.org/2000/svg" xmlns:svg="http://www.w3.org/2000/svg" xmlns:xlink="http://www.w3.org/1999/xlink" id="svg6159" width="256" height="256" version="1.0" viewBox="-72 -48 144 96"><metadata/><defs id="defs6161"><rect id="b1" width="24" height="4" x="-12" y="-2"/><g id="b2"><rect id="rect6165" width="11" height="4" x="-12" y="-2"/><rect id="rect6167" width="11" height="4" x="1" y="-2"/></g></defs><rect id="rect6169" width="144" height="96" x="-72" y="-48" style="fill:#fff"/><g id="g6171" transform="matrix(0.5546992,0.8320509,-0.8320509,0.5546992,0,0)"><use id="use6173" width="144" height="96" x="0" y="0" transform="translate(0,-38)" xlink:href="#b2"/><use id="use6175" width="144" height="96" x="0" y="0" transform="translate(0,-44)" xlink:href="#b1"/><use id="use6177" width="144" height="96" x="0" y="0" transform="translate(0,-50)" xlink:href="#b2"/><use id="use6179" width="144" height="96" x="0" y="0" transform="translate(0,38)" xlink:href="#b1"/><use id="use6181" width="144" height="96" x="0" y="0" transform="translate(0,44)" xlink:href="#b2"/><use id="use6183" width="144" height="96" x="0" y="0" transform="translate(0,50)" xlink:href="#b1"/></g><g id="g6185" transform="matrix(0.5546992,-0.8320509,0.8320509,0.5546992,0,0)"><use id="use6187" width="144" height="96" x="0" y="0" transform="translate(0,-38)" xlink:href="#b1"/><use id="use6189" width="144" height="96" x="0" y="0" transform="translate(0,-44)" xlink:href="#b1"/><use id="use6191" width="144" height="96" x="0" y="0" transform="translate(0,-50)" xlink:href="#b1"/><use id="use6193" width="144" height="96" x="0" y="0" transform="translate(0,38)" xlink:href="#b2"/><use id="use6195" width="144" height="96" x="0" y="0" transform="translate(0,44)" xlink:href="#b2"/><use id="use6197" width="144" height="96" x="0" y="0" transform="translate(0,50)" xlink:href="#b2"/><path id="path6199" d="M 0,24 C 13.254834,24 24,13.254834 24,0 C 24,-13.254834 13.254834,-24 1.4695762e-15,-24 C -9.9411255,-24 -18,-15.941125 -18,-6 C -18,3.9411255 -9.9411255,12 -3.3065464e-15,12" style="fill:#c60c30"/><path id="path6201" d="M 0,-24 C -6.627417,-24 -12,-18.627417 -12,-12 C -12,-5.372583 -6.627417,-1.2174368e-15 -2.2043642e-15,0 C 6.627417,4.0581225e-16 12,5.372583 12,12 C 12,18.627417 6.627417,24 7.3478808e-16,24 C -13.254834,24 -24,13.254834 -24,2.9391523e-15 C -24,-13.254834 -13.254834,-24 -4.4087285e-15,-24" style="fill:#003478"/></g></svg>