<svg xmlns="http://www.w3.org/2000/svg" xmlns:svg="http://www.w3.org/2000/svg" xmlns:xlink="http://www.w3.org/1999/xlink" id="svg1353" width="256" height="256" version="1.0"><metadata/><rect id="red area" width="256" height="128" x="0" y="64" style="fill:#ce1126"/><rect id="blue quarter" width="128" height="64" x="0" y="64" style="fill:#002b7f"/><polygon id="polygon1441" points="0 -1 .588 .809 -.951 -.309 .951 -.309 -.588 .809 0 -1" transform="matrix(9.3463307,0,0,9.3463307,63.999994,117.772)" style="fill:#fff"/><polygon id="polygon1449" points="0 -1 .588 .809 -.951 -.309 .951 -.309 -.588 .809 0 -1" transform="matrix(7.4770629,0,0,7.3704854,44.44444,90.0372)" style="fill:#fff"/><polygon id="polygon1451" points="0 -1 .588 .809 -.951 -.309 .951 -.309 -.588 .809 0 -1" transform="matrix(7.0097475,0,0,6.8791197,83.999992,86.8791)" style="fill:#fff"/><use id="use2402" width="288" height="144" x="0" y="0" transform="translate(19.555556,-16)" xlink:href="#polygon1449"/><polygon id="polygon1455" points="0 -1 .588 .809 -.951 -.309 .951 -.309 -.588 .809 0 -1" transform="matrix(4.673164,0,0,4.673164,73.777771,101.1082)" style="fill:#fff"/></svg>