<svg xmlns="http://www.w3.org/2000/svg" xmlns:svg="http://www.w3.org/2000/svg" id="svg3382" width="256" height="256" preserveAspectRatio="xMidYMid meet" version="1.0" viewBox="0 0 240 120" zoomAndPan="magnify"><metadata/><rect id="red" width="240" height="120" x="0" y="0" style="fill:#dc171c"/><rect id="blue" width="80" height="120" x="80" y="0" style="fill:#47aecf"/><g id="g3386" style="fill:#fbea0f"><circle id="crescent" cx="40" cy="41" r="11"/><circle id="crescent_overlay" cx="40" cy="36" r="12" style="fill:#dc171c"/><path id="flame" d="M 35,23 C 35,25.761424 37.238576,28 40,28 C 42.761424,28 45,25.761424 45,23 C 45,21 43.75,20.75 43.75,20 C 43.75,19.25 44.5,18.25 43,17 C 43.75,18.25 42.5,18.5 42.5,19.75 C 42.5,21 43,21 43,22 C 43,22.552285 42.552285,23 42,23 C 41.447715,23 41,22.552285 41,22 C 41,21 42,20 42,18.5 C 42,17 41.75,16.5 41,15.25 C 40.25,14 39,13 40,12 C 38.5,12.5 39.25,14.5 39.25,15.75 C 39.25,17 38.25,17.75 38.25,19.25 C 38.25,20.75 39,21 39,22 C 39,22.552285 38.552285,23 38,23 C 37.447715,23 37,22.552285 37,22 C 37,21 37.5,21 37.5,19.75 C 37.5,18.5 36.25,18.25 37,17 C 35.5,18.25 36.25,19.25 36.25,20 C 36.25,20.75 35,21 35,23"/><circle id="moon" cx="40" cy="38" r="8"/><circle id="yinyang" cx="40" cy="78" r="10"/><path id="cornered_stuff" d="M 18,54 L 28,54 L 28,102 L 18,102 L 18,54 z M 52,54 L 62,54 L 62,102 L 52,102 L 52,54 z M 30,54 L 40,60 L 50,54 L 30,54 z M 30,62 L 30,66 L 50,66 L 50,62 L 30,62 z M 30,90 L 30,94 L 50,94 L 50,90 L 30,90 z M 30,96 L 40,102 L 50,96 L 30,96 z"/></g><circle id="yinyang_top" cx="40" cy="72.7" r="2" style="fill:#dc171c"/><circle id="yinyang_bottom" cx="40" cy="83.3" r="2" style="fill:#dc171c"/><path id="yinyang_center" d="M 40,67.5 C 42.899495,67.5 45.25,69.850505 45.25,72.75 C 45.25,75.649495 42.899495,78 40,78 C 37.100505,78 34.75,80.350505 34.75,83.25 C 34.75,86.149495 37.100505,88.5 40,88.5" style="fill:none;stroke:#dc171c"/></svg>