<svg xmlns="http://www.w3.org/2000/svg" xmlns:svg="http://www.w3.org/2000/svg" xmlns:xlink="http://www.w3.org/1999/xlink" id="svg2397" width="256" height="256" version="1.0" viewBox="0 0 360 180"><metadata/><rect id="rect2399" width="360" height="180" x="0" y="0" style="fill:#090"/><rect id="rect2401" width="360" height="120" x="0" y="0" style="fill:#c00"/><rect id="rect2403" width="40" height="180" x="0" y="0" style="fill:#fff"/><g id="2"><g id="1" style="fill:#c00"><path id="path2407" d="M 20,90 L 20,89 L 19,89 L 19,87 L 18,87 L 18,85 L 16,85 L 16,87 L 17,87 L 17,89 L 18,89 L 18,90 L 20,90 z M 10,90 L 10,88 L 8,88 L 8,85 L 7,85 L 7,82 L 5,82 L 5,79 L 4,79 L 4,75 L 6,75 L 6,78 L 8,78 L 8,81 L 10,81 L 10,84 L 11,84 L 11,81 L 13,81 L 13,78 L 15,78 L 15,75 L 17,75 L 17,72 L 19,72 L 19,68 L 17,68 L 17,63 L 15,63 L 15,59 L 13,59 L 13,64 L 14,64 L 14,69 L 13,69 L 13,73 L 11,73 L 11,77 L 10,77 L 10,73 L 8,73 L 8,69 L 6,69 L 6,64 L 5,64 L 5,60 L 6,60 L 6,56 L 8,56 L 8,52 L 9,52 L 9,48 L 11,48 L 11,44 L 13,44 L 13,48 L 15,48 L 15,52 L 17,52 L 17,56 L 19,56 L 19,61 L 20,61 L 20,76 L 18,76 L 18,79 L 16,79 L 16,82 L 14,82 L 14,85 L 13,85 L 13,88 L 11,88 L 11,90 L 10,90 z M 11,37 L 13,37 L 13,33 L 15,33 L 15,29 L 17,29 L 17,25 L 19,25 L 19,21 L 20,21 L 20,17 L 19,17 L 19,13 L 17,13 L 17,9 L 15,9 L 15,5 L 13,5 L 13,1 L 11,1 L 11,5 L 9,5 L 9,9 L 7,9 L 7,13 L 5,13 L 5,17 L 4,17 L 4,21 L 5,21 L 5,25 L 7,25 L 7,29 L 9,29 L 9,33 L 11,33 L 11,37 z M 4,9 L 4,5 L 6,5 L 6,9 L 4,9 z M 4,33 L 4,29 L 6,29 L 6,33 L 4,33 z M 4,52 L 4,48 L 6,48 L 6,52 L 4,52 z M 4,74 L 4,70 L 6,70 L 6,74 L 4,74 z M 4,90 L 4,88 L 6,88 L 6,90 L 4,90 z M 14,90 L 14,88 L 16,88 L 16,90 L 14,90 z M 19,84 L 19,80 L 20,80 L 20,84 L 19,84 z M 19,52 L 19,48 L 20,48 L 20,52 L 19,52 z M 19,33 L 19,29 L 21,29 L 21,33 L 19,33 z M 19,9 L 19,5 L 20,5 L 20,9 L 19,9 z"/><path id="path2409" d="M 11,29 L 13,29 L 13,25 L 15,25 L 15,21 L 17,21 L 17,17 L 15,17 L 15,13 L 13,13 L 13,9 L 11,9 L 11,13 L 9,13 L 9,17 L 7,17 L 7,21 L 9,21 L 9,25 L 11,25 L 11,29 z" style="fill:#fff"/><path id="path2411" d="M 11,21 L 13,21 L 13,17 L 11,17 L 11,21 z"/><g id="3"><path id="path2414" d="M 17,48 L 18,48 L 18,45 L 19,45 L 19,42 L 20,42 L 20,39 L 19,39 L 19,36 L 18,36 L 18,33 L 17,33 L 17,36 L 16,36 L 16,39 L 15,39 L 15,42 L 16,42 L 16,45 L 17,45 L 17,48 z"/><path id="path2416" d="M 17,39 L 18,39 L 18,42 L 17,42 L 17,39 z" style="fill:#fff"/></g><use id="use2418" width="360" height="180" x="0" y="0" transform="translate(-10,0)" xlink:href="#3"/></g><use id="use2420" width="360" height="180" x="0" y="0" transform="matrix(-1,0,0,-1,40,180)" xlink:href="#1"/></g><use id="use2422" width="360" height="180" x="0" y="0" transform="matrix(1,0,0,-1,0,180)" xlink:href="#2"/></svg>