<svg xmlns="http://www.w3.org/2000/svg" xmlns:svg="http://www.w3.org/2000/svg" xmlns:xlink="http://www.w3.org/1999/xlink" id="svg4159" width="256" height="256" version="1.0" viewBox="-18 -5 72 88"><metadata/><defs id="defs4161"><clipPath id="helper1"><rect id="rect4164" width="50" height="30" x="-20" y="21"/></clipPath><clipPath id="helper2"><rect id="rect4167" width="50" height="30" x="-20" y="20"/></clipPath></defs><path id="path4169" d="M -15,0 L -15,80 L 45,80 L 2.5735931,37.573593 L 45,37.573593 L -15,0 z" style="stroke:#003893;stroke-width:5.16467524"/><path id="path4171" d="M -15,0 L -15,80 L 45,80 L 2.5735931,37.573593 L 45,37.573593 L -15,0 z" style="fill:#ce1126;stroke:none"/><g id="g4173" style="fill:#fff"><circle id="circle4175" cx="0" cy="23.483" r="11.95" clip-path="url(#helper1)"/><circle id="circle4177" cx="0" cy="18.787" r="12.84" clip-path="url(#helper2)" style="fill:#ce1126"/><g id="g4179" transform="matrix(5.5610606,0,0,5.5610606,0,29.044556)"><circle id="circle4181" cx="0" cy="0" r="1"/><g id="6jags"><g id="3jags"><path id="jag" d="M 0.19509032,-0.98078528 L 0,-1.3887841 L -0.19509032,-0.98078528" transform="matrix(0.9807853,0.1950903,-0.1950903,0.9807853,0,0)"/><use id="use4186" width="72" height="88" x="0" y="0" transform="matrix(0.9238795,0.3826834,-0.3826834,0.9238795,0,0)" xlink:href="#jag"/><use id="use4188" width="72" height="88" x="0" y="0" transform="matrix(0.7071068,0.7071068,-0.7071068,0.7071068,0,0)" xlink:href="#jag"/></g><use id="use4190" width="72" height="88" x="0" y="0" transform="matrix(0.3826834,0.9238795,-0.9238795,0.3826834,0,0)" xlink:href="#3jags"/></g><use id="use4192" width="72" height="88" x="0" y="0" transform="scale(-1,1)" xlink:href="#6jags"/></g><g id="g4194" transform="matrix(8.1433983,0,0,8.1433983,0,58.786797)"><circle id="circle4196" cx="0" cy="0" r="1"/><g id="4rays"><g id="2rays"><path id="ray" d="M 0.25881905,0.96592583 L 0,1.5767493 L -0.25881905,0.96592583"/><use id="use4201" width="72" height="88" x="0" y="0" transform="scale(-1,-1)" xlink:href="#ray"/></g><use id="use4203" width="72" height="88" x="0" y="0" transform="matrix(0,1,-1,0,0,0)" xlink:href="#2rays"/></g><use id="use4205" width="72" height="88" x="0" y="0" transform="matrix(0.8660254,0.5,-0.5,0.8660254,0,0)" xlink:href="#4rays"/><use id="use4207" width="72" height="88" x="0" y="0" transform="matrix(0.5,0.8660254,-0.8660254,0.5,0,0)" xlink:href="#4rays"/></g></g></svg>