<svg xmlns="http://www.w3.org/2000/svg" xmlns:svg="http://www.w3.org/2000/svg" xmlns:xlink="http://www.w3.org/1999/xlink" id="svg2596" width="256" height="256" preserveAspectRatio="xMidYMid meet" version="1.0" viewBox="-35 -30 200 100" zoomAndPan="magnify"><metadata/><defs id="defs2598"><clipPath id="rect"><rect id="rect2601" width="200" height="100" x="-35" y="-30"/></clipPath></defs><rect id="rect2603" width="200" height="100" x="-35" y="-30" style="fill:#215b33"/><path id="path2605" d="M -35,-30 L 165,-30 L -35,70" style="fill:#0051ba"/><line id="line2607" x1="165" x2="-35" y1="-30" y2="70" clip-path="url(#rect)" style="stroke:#fcd116;stroke-width:9"/><g id="star" transform="scale(10,10)" style="fill:#fff"><g id="cone"><polygon id="triangle" points="0 0 0 1 .5 1 0 0" transform="matrix(0.9510565,0.309017,-0.309017,0.9510565,0,-1)"/><use id="use2612" width="200" height="100" x="0" y="0" transform="scale(-1,1)" xlink:href="#triangle"/></g><use id="use2614" width="200" height="100" x="0" y="0" transform="matrix(0.309017,0.9510565,-0.9510565,0.309017,0,0)" xlink:href="#cone"/><use id="use2616" width="200" height="100" x="0" y="0" transform="matrix(0.309017,-0.9510565,0.9510565,0.309017,0,0)" xlink:href="#cone"/><use id="use2618" width="200" height="100" x="0" y="0" transform="matrix(-0.809017,0.5877853,-0.5877853,-0.809017,0,0)" xlink:href="#cone"/><use id="use2620" width="200" height="100" x="0" y="0" transform="matrix(-0.809017,-0.5877853,0.5877853,-0.809017,0,0)" xlink:href="#cone"/></g><use id="use2622" width="200" height="100" x="0" y="0" transform="translate(18.384776,18.384776)" xlink:href="#star"/><use id="use2624" width="200" height="100" x="0" y="0" transform="translate(-18.384776,18.384776)" xlink:href="#star"/><use id="use2626" width="200" height="100" x="0" y="0" transform="translate(-18.384776,-18.384776)" xlink:href="#star"/><use id="use2628" width="200" height="100" x="0" y="0" transform="translate(18.384776,-18.384776)" xlink:href="#star"/></svg>