<svg xmlns="http://www.w3.org/2000/svg" xmlns:svg="http://www.w3.org/2000/svg" xmlns:xlink="http://www.w3.org/1999/xlink" id="svg4693" width="256" height="256" version="1.0" viewBox="-27 -14 54 36"><metadata/><rect id="rect4695" width="54" height="36" x="-27" y="-14" style="fill:#fff"/><rect id="rect4697" width="12" height="36" x="-6" y="-14" style="fill:#dc171d"/><rect id="rect4699" width="54" height="12" x="-27" y="-2" style="fill:#00007b"/><g id="star" transform="scale(1.5,1.5)" style="fill:#fff"><g id="cone"><polygon id="triangle" points="0 0 0 1 .5 1 0 0" transform="matrix(0.9510565,0.309017,-0.309017,0.9510565,0,-1)"/><use id="use4704" width="54" height="36" x="0" y="0" transform="scale(-1,1)" xlink:href="#triangle"/></g><use id="use4706" width="54" height="36" x="0" y="0" transform="matrix(0.309017,0.9510565,-0.9510565,0.309017,0,0)" xlink:href="#cone"/><use id="use4708" width="54" height="36" x="0" y="0" transform="matrix(0.309017,-0.9510565,0.9510565,0.309017,0,0)" xlink:href="#cone"/><use id="use4710" width="54" height="36" x="0" y="0" transform="matrix(-0.809017,0.5877853,-0.5877853,-0.809017,0,0)" xlink:href="#cone"/><use id="use4712" width="54" height="36" x="0" y="0" transform="matrix(-0.809017,-0.5877853,0.5877853,-0.809017,0,0)" xlink:href="#cone"/></g><g id="2stars"><use id="use4715" width="54" height="36" x="0" y="0" transform="translate(8,3.3137085)" xlink:href="#star"/><use id="use4717" width="54" height="36" x="0" y="0" transform="translate(3.3137085,8)" xlink:href="#star"/></g><use id="use4719" width="54" height="36" x="0" y="0" transform="scale(-1,1)" xlink:href="#2stars"/></svg>