<svg xmlns="http://www.w3.org/2000/svg" xmlns:svg="http://www.w3.org/2000/svg" xmlns:xlink="http://www.w3.org/1999/xlink" id="Flag of Chile" width="256" height="256" version="1.0"><metadata/><rect id="rect2410" width="256" height="170.667" x="0" y="42.333" style="fill:#fff"/><rect id="rect2412" width="85.333" height="170.667" x="0" y="42.333" style="fill:#0035ad"/><rect id="rect2414" width="256" height="85.333" x="0" y="127.667" style="fill:#d42e12"/><g id="star" transform="matrix(21.333333,0,0,21.333333,42.666667,84.999977)" style="fill:#fff"><g id="cone"><polygon id="triangle" points="0 0 0 1 .5 1 0 0" transform="matrix(0.9510565,0.309017,-0.309017,0.9510565,0,-1)"/><use id="use12" width="1500" height="1000" x="0" y="0" transform="scale(-1,1)" xlink:href="#triangle"/></g><use id="use14" width="1500" height="1000" x="0" y="0" transform="matrix(0.309017,0.9510565,-0.9510565,0.309017,0,0)" xlink:href="#cone"/><use id="use16" width="1500" height="1000" x="0" y="0" transform="matrix(0.309017,-0.9510565,0.9510565,0.309017,0,0)" xlink:href="#cone"/><use id="use18" width="1500" height="1000" x="0" y="0" transform="matrix(-0.809017,0.5877853,-0.5877853,-0.809017,0,0)" xlink:href="#cone"/><use id="use20" width="1500" height="1000" x="0" y="0" transform="matrix(-0.809017,-0.5877853,0.5877853,-0.809017,0,0)" xlink:href="#cone"/></g></svg>