<svg xmlns="http://www.w3.org/2000/svg" xmlns:svg="http://www.w3.org/2000/svg" xmlns:xlink="http://www.w3.org/1999/xlink" id="svg2" width="256" height="256" version="1.0" viewBox="0 0 250 125"><metadata/><defs id="defs9"><g id="star" style="fill:#fff"><g id="cone"><polygon id="triangle" points="0 0 0 1 .5 1 0 0" transform="matrix(0.9510565,0.309017,-0.309017,0.9510565,0,-1)"/><use id="use14" width="500" height="250" x="0" y="0" transform="scale(-1,1)" xlink:href="#triangle"/></g><use id="use16" width="500" height="250" x="0" y="0" transform="matrix(0.309017,0.9510565,-0.9510565,0.309017,0,0)" xlink:href="#cone"/><use id="use18" width="500" height="250" x="0" y="0" transform="matrix(0.309017,-0.9510565,0.9510565,0.309017,0,0)" xlink:href="#cone"/><use id="use20" width="500" height="250" x="0" y="0" transform="matrix(-0.809017,0.5877853,-0.5877853,-0.809017,0,0)" xlink:href="#cone"/><use id="use22" width="500" height="250" x="0" y="0" transform="matrix(-0.809017,-0.5877853,0.5877853,-0.809017,0,0)" xlink:href="#cone"/></g></defs><rect id="blue_stripe" width="250" height="40" x="0" y="0" style="fill:#0099b5"/><rect id="lower_red_stripe" width="250" height="45" x="0" y="40" style="fill:#ce1126"/><rect id="white_stripe" width="250" height="40" x="0" y="42.5" style="fill:#fff"/><rect id="green_stripe" width="250" height="40" x="0" y="85" style="fill:#1eb53a"/><circle id="circle24" cx="70" cy="40" r="30" transform="scale(0.5,0.5)" style="fill:#fff"/><circle id="circle26" cx="83.5" cy="40" r="25" transform="matrix(0.6,0,0,0.6,-10.1,-4)" style="fill:#0099b5"/><use id="use42" width="500" height="250" x="0" y="0" transform="matrix(3.1543867,0,0,3.3167184,44,32.316719)" xlink:href="#star"/><use id="use2922" width="250" height="125" x="0" y="0" transform="translate(12,-4.3333003e-7)" xlink:href="#use42"/><use id="use2924" width="250" height="125" x="0" y="0" transform="translate(24,-4.3333003e-7)" xlink:href="#use42"/><use id="use2926" width="250" height="125" x="0" y="0" transform="translate(36,-4.3333003e-7)" xlink:href="#use42"/><use id="use2928" width="250" height="125" x="0" y="0" transform="translate(48,-4.3333003e-7)" xlink:href="#use42"/><use id="use2930" width="250" height="125" x="0" y="0" transform="translate(12,-12)" xlink:href="#use42"/><use id="use2932" width="250" height="125" x="0" y="0" transform="translate(24,-12)" xlink:href="#use42"/><use id="use2934" width="250" height="125" x="0" y="0" transform="translate(36,-12)" xlink:href="#use42"/><use id="use2936" width="250" height="125" x="0" y="0" transform="translate(48,-12)" xlink:href="#use42"/><use id="use2938" width="250" height="125" x="0" y="0" transform="translate(24,-24)" xlink:href="#use42"/><use id="use2940" width="250" height="125" x="0" y="0" transform="translate(36,-24)" xlink:href="#use42"/><use id="use2942" width="250" height="125" x="0" y="0" transform="translate(48,-24)" xlink:href="#use42"/></svg>