<svg xmlns="http://www.w3.org/2000/svg" xmlns:svg="http://www.w3.org/2000/svg" xmlns:xlink="http://www.w3.org/1999/xlink" id="svg2614" width="256" height="256" version="1.0" viewBox="0 0 20 10"><metadata/><clipPath id="a"><rect id="rect2617" width="20" height="10" x="0" y="0"/></clipPath><g id="g2619" clip-path="url(#a)"><rect id="blue_stripes" width="20" height="10" x="0" y="0" style="fill:#002a8f"/><path id="white_stripes" d="M 0,3 L 20,3 M 0,7 L 20,7" style="stroke:#fff;stroke-width:2"/><g id="red_triangle" style="fill:#cf142b"><path id="path2624" d="M 0,0 L 10,0 L 0,7" transform="matrix(0.8660254,0.5,-0.5,0.8660254,0,0)"/><path id="path2626" d="M 0,10 L 10,10 L 0,4" transform="matrix(0.8660254,-0.5,0.5,0.8660254,-5,1.339746)"/></g><comment id="comment2628">the star is in the center of gravity of the triangle, so the x-pos is irrational (5 / sin30 * sin60)</comment><g id="star" transform="matrix(1.5,0,0,1.5,2.8867513,5)" style="fill:#fff"><g id="cone"><polygon id="triangle" points="0 0 0 1 .5 1 0 0" transform="matrix(0.9510565,0.309017,-0.309017,0.9510565,0,-1)"/><use id="use2633" width="20" height="10" x="0" y="0" transform="scale(-1,1)" xlink:href="#triangle"/></g><use id="use2635" width="20" height="10" x="0" y="0" transform="matrix(0.309017,0.9510565,-0.9510565,0.309017,0,0)" xlink:href="#cone"/><use id="use2637" width="20" height="10" x="0" y="0" transform="matrix(0.309017,-0.9510565,0.9510565,0.309017,0,0)" xlink:href="#cone"/><use id="use2639" width="20" height="10" x="0" y="0" transform="matrix(-0.809017,0.5877853,-0.5877853,-0.809017,0,0)" xlink:href="#cone"/><use id="use2641" width="20" height="10" x="0" y="0" transform="matrix(-0.809017,-0.5877853,0.5877853,-0.809017,0,0)" xlink:href="#cone"/></g></g></svg>