<svg xmlns="http://www.w3.org/2000/svg" xmlns:svg="http://www.w3.org/2000/svg" xmlns:xlink="http://www.w3.org/1999/xlink" id="svg3870" width="256" height="256" version="1.0" viewBox="-75 -50 150 100"><metadata/><defs id="defs3872"><clipPath id="frame"><rect id="rect3875" width="150" height="100" x="-75" y="-50"/></clipPath></defs><path id="path3877" d="M 75,-50 L -75,-50 L -75,50" style="fill:#009e49"/><path id="path3879" d="M -75,50 L 75,50 L 75,-50" style="fill:#ce1126"/><g id="g3881" clip-path="url(#frame)"><path id="path3883" d="M -75,50 L 75,-50" style="stroke:#fcd116;stroke-width:42"/><path id="path3885" d="M -75,50 L 75,-50" style="stroke:#000;stroke-width:30"/></g><g id="star" transform="matrix(11.648713,-7.765789,7.765789,11.648713,28.5,-19)" style="fill:#fff"><comment id="comment3888">the rotation angle above should be -arctan(2/3)</comment><g id="cone"><polygon id="triangle" points="0 0 0 1 .5 1 0 0" transform="matrix(0.9510565,0.309017,-0.309017,0.9510565,0,-1)"/><use id="use3892" width="150" height="100" x="0" y="0" transform="scale(-1,1)" xlink:href="#triangle"/></g><use id="use3894" width="150" height="100" x="0" y="0" transform="matrix(0.309017,0.9510565,-0.9510565,0.309017,0,0)" xlink:href="#cone"/><use id="use3896" width="150" height="100" x="0" y="0" transform="matrix(0.309017,-0.9510565,0.9510565,0.309017,0,0)" xlink:href="#cone"/><use id="use3898" width="150" height="100" x="0" y="0" transform="matrix(-0.809017,0.5877853,-0.5877853,-0.809017,0,0)" xlink:href="#cone"/><use id="use3900" width="150" height="100" x="0" y="0" transform="matrix(-0.809017,-0.5877853,0.5877853,-0.809017,0,0)" xlink:href="#cone"/></g><use id="use3902" width="150" height="100" x="0" y="0" transform="translate(-57,38)" xlink:href="#star"/></svg>