<svg xmlns="http://www.w3.org/2000/svg" xmlns:svg="http://www.w3.org/2000/svg" xmlns:xlink="http://www.w3.org/1999/xlink" id="svg1" width="256" height="256" x="0" y="0" version="1.0"><metadata/><g id="g2309" transform="matrix(0.4266666,0,0,0.4266666,0,64.000004)"><g id="g2296"><path id="path4861" d="M 300.00002,-1e-05 L 600.00005,-1e-05 L 600.00005,300.00001 L 0,300.00001 L 0,150 L 300.00002,150 L 300.00002,-1e-05 z" style="fill:#75aadb;fill-opacity:1;fill-rule:evenodd;stroke:none;stroke-width:1px;stroke-linecap:butt;stroke-linejoin:miter;stroke-opacity:1"/></g><g id="g2095" transform="matrix(0.604757,0,0,0.604757,-7.315296e-3,3.329625e-3)"><polygon id="polygon136" points="591.041 433.161 533.774 391.476 476.501 433.151 498.449 365.806 441.115 324.214 511.946 324.278 533.785 256.897 555.613 324.281 626.445 324.23 569.104 365.812 591.041 433.161" transform="matrix(0.498761,0,0,0.469385,657.6627,-98.2599)" style="font-size:12px;fill:#fcd116;fill-opacity:1;fill-rule:evenodd;stroke-width:1pt"/><polygon id="polygon3314" points="591.041 433.161 533.774 391.476 476.501 433.151 498.449 365.806 441.115 324.214 511.946 324.278 533.785 256.897 555.613 324.281 626.445 324.23 569.104 365.812 591.041 433.161" transform="matrix(0.498761,0,0,0.469385,569.0006,153.8731)" style="font-size:12px;fill:#fcd116;fill-opacity:1;fill-rule:evenodd;stroke-width:1pt"/><polygon id="polygon3315" points="591.041 433.161 533.774 391.476 476.501 433.151 498.449 365.806 441.115 324.214 511.946 324.278 533.785 256.897 555.613 324.281 626.445 324.23 569.104 365.812 591.041 433.161" transform="matrix(0.498761,0,0,0.469385,657.6628,96.79682)" style="font-size:12px;fill:#fcd116;fill-opacity:1;fill-rule:evenodd;stroke-width:1pt"/><polygon id="polygon3317" points="591.041 433.161 533.774 391.476 476.501 433.151 498.449 365.806 441.115 324.214 511.946 324.278 533.785 256.897 555.613 324.281 626.445 324.23 569.104 365.812 591.041 433.161" transform="matrix(0.498761,0,0,0.469385,276.4154,279.6626)" style="font-size:12px;fill:#fcd116;fill-opacity:1;fill-rule:evenodd;stroke-width:1pt"/><polygon id="polygon3319" points="591.041 433.161 533.774 391.476 476.501 433.151 498.449 365.806 441.115 324.214 511.946 324.278 533.785 256.897 555.613 324.281 626.445 324.23 569.104 365.812 591.041 433.161" transform="matrix(-0.498761,0,0,-0.469385,910.834,486.0882)" style="font-size:12px;fill:#fcd116;fill-opacity:1;fill-rule:evenodd;stroke-width:1pt"/><polygon id="polygon3320" points="591.041 433.161 533.774 391.476 476.501 433.151 498.449 365.806 441.115 324.214 511.946 324.278 533.785 256.897 555.613 324.281 626.445 324.23 569.104 365.812 591.041 433.161" transform="matrix(-0.498761,0,0,-0.469385,1015.012,342.0122)" style="font-size:12px;fill:#fcd116;fill-opacity:1;fill-rule:evenodd;stroke-width:1pt"/><polygon id="polygon3321" points="591.041 433.161 533.774 391.476 476.501 433.151 498.449 365.806 441.115 324.214 511.946 324.278 533.785 256.897 555.613 324.281 626.445 324.23 569.104 365.812 591.041 433.161" transform="matrix(-0.498761,0,0,-0.469385,1102.566,312.0887)" style="font-size:12px;fill:#fcd116;fill-opacity:1;fill-rule:evenodd;stroke-width:1pt"/><polygon id="polygon3322" points="591.041 433.161 533.774 391.476 476.501 433.151 498.449 365.806 441.115 324.214 511.946 324.278 533.785 256.897 555.613 324.281 626.445 324.23 569.104 365.812 591.041 433.161" transform="matrix(-0.498761,0,0,-0.469385,1015.012,561.451)" style="font-size:12px;fill:#fcd116;fill-opacity:1;fill-rule:evenodd;stroke-width:1pt"/><polygon id="polygon3323" points="591.041 433.161 533.774 391.476 476.501 433.151 498.449 365.806 441.115 324.214 511.946 324.278 533.785 256.897 555.613 324.281 626.445 324.23 569.104 365.812 591.041 433.161" transform="matrix(-0.498761,0,0,-0.469385,910.834,586.9413)" style="font-size:12px;fill:#fcd116;fill-opacity:1;fill-rule:evenodd;stroke-width:1pt"/></g></g><g id="g3845" transform="matrix(0.2133332,0,0,0.2133332,0,64.000024)"><g id="g3847"><g id="g3849"><rect id="rect1764" width="600" height="300" x="0" y="0" style="fill:#00267f;fill-opacity:1;fill-rule:evenodd;stroke:none;stroke-width:1pt;stroke-linecap:butt;stroke-linejoin:miter;stroke-opacity:1"/><path id="path4640" d="M 1.110223e-14,299.99999 L 67.08,299.99999 L 600,33.539988 L 600,-1.2e-05 L 532.92,-1.2e-05 L 1.110223e-14,266.45999 L 1.110223e-14,299.99999 z" style="fill:#fff;fill-opacity:1;fill-rule:evenodd;stroke:none;stroke-width:1pt;stroke-linecap:butt;stroke-linejoin:miter;stroke-opacity:1"/><path id="path6505" d="M 600,299.99999 L 532.92,299.99999 L 1.110223e-14,33.539988 L 1.110223e-14,-1.2e-05 L 67.08,-1.2e-05 L 600,266.45999 L 600,299.99999 z" style="fill:#fff;fill-opacity:1;fill-rule:evenodd;stroke:none;stroke-width:1pt;stroke-linecap:butt;stroke-linejoin:miter;stroke-opacity:1"/><path id="rect1530" d="M 250,0 L 250,100 L 0,100 L 0,200 L 250,200 L 250,300 L 350,300 L 350,200 L 600,200 L 600,100 L 350,100 L 350,0 L 250,0 z" style="fill:#fff;fill-opacity:1;fill-rule:evenodd;stroke:none;stroke-width:1pt;stroke-linecap:butt;stroke-linejoin:miter;stroke-opacity:1"/><path id="rect3395" d="M 270,0 L 270,120 L 0,120 L 0,180 L 270,180 L 270,300 L 330,300 L 330,180 L 600,180 L 600,120 L 330,120 L 330,0 L 270,0 z" style="fill:#d21034;fill-opacity:1;fill-rule:evenodd;stroke:none;stroke-width:1pt;stroke-linecap:butt;stroke-linejoin:miter;stroke-opacity:1"/><path id="path8371" d="M 355.28,99.999988 L 400,99.999988 L 600,-1.2e-05 L 555.28,-1.2e-05 L 355.28,99.999988 z" style="fill:#d21034;fill-opacity:1;fill-rule:evenodd;stroke:none;stroke-width:1pt;stroke-linecap:butt;stroke-linejoin:miter;stroke-opacity:1"/><path id="path9616" d="M 1.110223e-14,-1.2e-05 L 1.110223e-14,22.359988 L 155.28,99.999988 L 200,99.999988 L 1.110223e-14,-1.2e-05 z" style="fill:#d21034;fill-opacity:1;fill-rule:evenodd;stroke:none;stroke-width:1pt;stroke-linecap:butt;stroke-linejoin:miter;stroke-opacity:1"/><use id="use3668" width="600" height="300" x="0" y="0" transform="matrix(-1,0,0,-1,600,300)" xlink:href="#path9616"/><use id="use3711" width="600" height="300" x="0" y="0" transform="translate(-355.28,200)" xlink:href="#path8371"/></g></g></g></svg>