<svg xmlns="http://www.w3.org/2000/svg" xmlns:svg="http://www.w3.org/2000/svg" xmlns:xlink="http://www.w3.org/1999/xlink" id="svg5687" width="256" height="256" version="1.0"><metadata/><rect id="rect5689" width="256" height="85.333" x="0" y="42.333" style="fill:#ed2939"/><rect id="rect5691" width="256" height="85.333" x="0" y="127.667" style="fill:#fff"/><path id="path5693" d="M 87.803141,84.99979 C 87.803141,102.72201 73.436456,117.08872 55.714251,117.08872 C 37.992047,117.08872 23.625362,102.72201 23.625362,84.99979 C 23.625362,67.277573 37.992047,52.910858 55.714251,52.910858 C 73.436456,52.910858 87.803141,67.277573 87.803141,84.99979 L 87.803141,84.99979 z" style="fill:#fff"/><path id="path5695" d="M 97.886519,84.99979 C 97.886519,101.74791 84.309535,115.32482 67.561481,115.32482 C 50.813426,115.32482 37.236444,101.74791 37.236444,84.99979 C 37.236444,68.251674 50.813426,54.67476 67.561481,54.67476 C 84.309535,54.67476 97.886519,68.251674 97.886519,84.99979 L 97.886519,84.99979 z" style="fill:#ed2939"/><path id="star" d="M 59.685636,85.773991 L 55.326498,82.429988 L 50.968462,85.775591 L 52.646274,80.383286 L 48.273272,77.059382 L 53.669357,77.070782 L 55.324735,71.670877 L 56.981887,77.070182 L 62.377967,77.056782 L 58.006056,80.382386 L 59.685636,85.773991 z" style="fill:#fff"/><use id="use5698" width="4320" height="2880" x="0" y="0" transform="translate(34.203765,6.3706134e-6)" xlink:href="#star"/><use id="use5700" width="4320" height="2880" x="0" y="0" transform="translate(17.11932,-12.694006)" xlink:href="#star"/><use id="use5702" width="4320" height="2880" x="0" y="0" transform="translate(6.3999721,20.311026)" xlink:href="#star"/><use id="use5704" width="4320" height="2880" x="0" y="0" transform="translate(27.803765,20.311026)" xlink:href="#star"/></svg>