<svg xmlns="http://www.w3.org/2000/svg" xmlns:svg="http://www.w3.org/2000/svg" xmlns:xlink="http://www.w3.org/1999/xlink" id="svg3226" width="256" height="256" version="1.0" viewBox="0 0 45 30"><metadata id="metadata3"/><clipPath id="a"><rect id="rect3229" width="45" height="30" x="0" y="0"/></clipPath><rect id="red_stripes" width="45" height="30" x="0" y="0" style="fill:#ed0000"/><path id="white_stripes" d="M 2.8410687,8.841098 42.158932,8.841098 M 2.8410687,21.158902 42.158932,21.158902" style="stroke:#fff;stroke-width:5.68213749;stroke-linecap:square;stroke-miterlimit:4;stroke-dasharray:none"/><g id="blue_triangle" transform="translate(-0.07054273,0)" style="fill:#0050f0"><path id="path3236" d="M 15.061092,4.0545094 30,30 C 23.690598,26.392594 9.7202013,18.326781 30,30 L 0.06109201,30.035271" transform="matrix(0.8660254,-0.5,0.5,0.8660254,-15,4.0192379)"/></g><comment id="comment3238">the star is in the center of gravity of the triangle, so the x-pos is irrational (tan(30 deg) * 15)</comment><g id="star" transform="matrix(5,0,0,5,8.660254,15)" style="fill:#fff"><g id="cone"><polygon id="triangle" points="0 0 0 1 .5 1 0 0" transform="matrix(0.9510565,0.309017,-0.309017,0.9510565,0,-1)"/><use id="use3243" width="45" height="30" x="0" y="0" transform="scale(-1,1)" xlink:href="#triangle"/></g><use id="use3245" width="45" height="30" x="0" y="0" transform="matrix(0.309017,0.9510565,-0.9510565,0.309017,0,0)" xlink:href="#cone"/><use id="use3247" width="45" height="30" x="0" y="0" transform="matrix(0.309017,-0.9510565,0.9510565,0.309017,0,0)" xlink:href="#cone"/><use id="use3249" width="45" height="30" x="0" y="0" transform="matrix(-0.809017,0.5877853,-0.5877853,-0.809017,0,0)" xlink:href="#cone"/><use id="use3251" width="45" height="30" x="0" y="0" transform="matrix(-0.809017,-0.5877853,0.5877853,-0.809017,0,0)" xlink:href="#cone"/></g></svg>