<svg xmlns="http://www.w3.org/2000/svg" xmlns:svg="http://www.w3.org/2000/svg" xmlns:xlink="http://www.w3.org/1999/xlink" id="svg1022" width="256" height="256" version="1.0"><metadata/><rect id="rect1031" width="256" height="153.6" x="0" y="51.4" style="fill:#ce1126"/><rect id="rect2276" width="212.992" height="110.592" x="21.504" y="72.904" style="fill:#007a5e"/><use id="use2407" width="500" height="300" x="0" y="0" transform="matrix(1,0,0,-1,0,256.40001)" xlink:href="#path3519"/><path id="path3519" d="M 21.504,183.496 L 128,128.2 L 234.496,183.496 L 21.504,183.496 L 21.504,183.496 z" style="fill:#fcd116"/><path id="path2394" d="M 146.432,128.2 C 146.432,138.37971 138.17971,146.632 128,146.632 C 117.82029,146.632 109.568,138.37971 109.568,128.2 C 109.568,118.02029 117.82029,109.768 128,109.768 C 138.17971,109.768 146.432,118.02029 146.432,128.2 L 146.432,128.2 z" style="fill:#ce1126"/><path id="path2203" d="M 111.93088,122.97972 L 124.20769,122.97972 L 128,111.30401 L 131.79231,122.97972 L 144.06912,122.97972 L 134.1384,130.1947 L 137.93072,141.87041 L 128,134.65544 L 118.06928,141.87041 L 121.8616,130.1947 L 111.93088,122.97972 z" style="fill:#fcd116"/><use id="use2413" width="500" height="300" x="0" y="0" transform="translate(-51.2,3.8540319e-6)" xlink:href="#use2411"/><use id="use2411" width="500" height="300" x="0" y="0" transform="translate(-51.2,3.8540319e-6)" xlink:href="#use2409"/><use id="use2409" width="500" height="300" x="0" y="0" transform="translate(102.4,-132.09599)" xlink:href="#path6678"/><path id="path6678" d="M 67.30496,191.16383 L 74.559171,191.16383 L 76.8,184.26402 L 79.040829,191.16383 L 86.29504,191.16383 L 80.427105,195.42756 L 82.667935,202.32738 L 76.8,198.06365 L 70.932065,202.32738 L 73.172895,195.42756 L 67.30496,191.16383 z" style="fill:#fcd116"/><use id="use2417" width="500" height="300" x="0" y="0" transform="translate(-51.2,3.8540319e-6)" xlink:href="#use2415"/><use id="use2415" width="500" height="300" x="0" y="0" transform="translate(102.4,132.09599)" xlink:href="#use2413"/><path id="path7321" d="M 34.687255,128.40768 C 36.993364,132.704 41.479221,137.3794 45.396451,139.02211 C 45.459632,134.66261 43.911696,129.07108 41.795129,124.61681 L 34.687255,128.40768 z" style="fill:#ce1126"/><path id="path7320" d="M 30.777463,113.67464 C 34.120016,120.6441 22.107431,137.26536 42.121277,141.1638 C 39.652311,137.79517 38.060786,132.23293 38.662849,127.7675 C 42.861462,129.36801 47.279432,134.03954 49.065091,137.61429 C 54.302771,118.59332 35.630305,119.75341 30.777463,113.67464 z" style="fill:#fcd116"/></svg>