<svg xmlns="http://www.w3.org/2000/svg" xmlns:svg="http://www.w3.org/2000/svg" id="svg2" width="256" height="256" version="1.0"><metadata/><rect id="blue" width="256" height="128" x="0" y="64" style="fill:#0098c3"/><rect id="red" width="256" height="42.667" x="0" y="106.667" style="fill:#e00034"/><rect id="green" width="256" height="42.667" x="0" y="149.333" style="fill:#00ae65"/><circle id="wcircle" cx="560" cy="300" r="84" transform="matrix(0.2133333,0,0,0.2133333,0,64)" style="fill:#fff"/><circle id="rcircle" cx="582" cy="300" r="70" transform="matrix(0.2133333,0,0,0.2133333,0,64)" style="fill:#e00034"/><path id="path4162" d="M 144.3952,134.78125 L 139.496,132.56409 L 137.60986,137.6 L 135.71338,132.56797 L 130.81875,134.7952 L 133.03591,129.896 L 128,128.00986 L 133.03203,126.11338 L 130.8048,121.21875 L 135.704,123.43591 L 137.59014,118.4 L 139.48662,123.43203 L 144.38125,121.2048 L 142.16409,126.104 L 147.2,127.99014 L 142.16797,129.88662 L 144.3952,134.78125 z" style="fill:#fff;fill-opacity:1"/></svg>