<svg xmlns="http://www.w3.org/2000/svg" xmlns:svg="http://www.w3.org/2000/svg" id="svg2494" width="256" height="256" version="1.0" viewBox="0 0 27 18"><metadata/><rect id="rect2496" width="27" height="18" x="0" y="0" style="fill:navy"/><path id="path2498" d="M 4,0 L 6,0 L 6,4 L 10,4 L 10,6 L 6,6 L 6,10 L 27,10 L 27,12 L 0,12 L 0,10 L 4,10 L 4,6 L 0,6 L 0,4 L 4,4 L 4,0 z M 10,2 L 27,2 L 27,4 L 10,4 L 10,2 z M 10,6 L 27,6 L 27,8 L 10,8 L 10,6 z M 0,10 L 0,12 L 0,10 z M 0,14 L 27,14 L 27,16 L 0,16 L 0,14 z" style="fill:#fff"/></svg>