<svg xmlns="http://www.w3.org/2000/svg" xmlns:svg="http://www.w3.org/2000/svg" xmlns:xlink="http://www.w3.org/1999/xlink" id="svg2" width="256" height="256" version="1.0"><metadata/><rect id="rect4" width="256" height="150.588" x="0" y="52.412" style="fill:#003893"/><rect id="rect6" width="256" height="37.647" x="0" y="127.706" style="fill:#fff"/><rect id="rect8" width="256" height="12.549" x="0" y="140.255" style="fill:#ce1126"/><path id="path2937" d="M 95.99997,101.35278 L 94.309843,106.55447 L 88.840463,106.55447 L 93.265283,109.76929 L 91.57515,114.97098 L 95.99997,111.75616 L 100.42479,114.97098 L 98.734662,109.76929 L 103.15948,106.55447 L 97.690102,106.55447 L 95.99997,101.35278 z" style="fill:#fc0"/><use id="use2409" width="510" height="300" x="0" y="0" transform="translate(-22.126431,7.18808)" xlink:href="#path2937"/><use id="use2393" width="510" height="300" x="0" y="0" transform="translate(22.126431,7.18808)" xlink:href="#path2937"/><use id="use2395" width="510" height="300" x="0" y="0" transform="translate(35.804863,26.01162)" xlink:href="#path2937"/><use id="use2397" width="510" height="300" x="0" y="0" transform="translate(35.804863,49.28252)" xlink:href="#path2937"/><use id="use2399" width="510" height="300" x="0" y="0" transform="translate(22.126431,68.10605)" xlink:href="#path2937"/><use id="use2401" width="510" height="300" x="0" y="0" transform="translate(0,75.29409)" xlink:href="#path2937"/><use id="use2403" width="510" height="300" x="0" y="0" transform="translate(-22.126431,68.10605)" xlink:href="#path2937"/><use id="use2405" width="510" height="300" x="0" y="0" transform="translate(-35.804843,49.28252)" xlink:href="#path2937"/><use id="use2407" width="510" height="300" x="0" y="0" transform="translate(-35.804843,26.01162)" xlink:href="#path2937"/></svg>