<svg xmlns="http://www.w3.org/2000/svg" xmlns:svg="http://www.w3.org/2000/svg" id="svg2" width="256" height="256" version="1.0"><metadata/><defs id="defs4"><marker id="ArrowEnd" markerHeight="3" markerUnits="strokeWidth" markerWidth="4" orient="auto" refX="0" refY="5" viewBox="0 0 10 10"><path id="path7" d="M 0,0 L 10,5 L 0,10 L 0,0 z"/></marker><marker id="ArrowStart" markerHeight="3" markerUnits="strokeWidth" markerWidth="4" orient="auto" refX="10" refY="5" viewBox="0 0 10 10"><path id="path10" d="M 10,0 L 0,5 L 10,10 L 10,0 z"/></marker></defs><path id="path14" d="M 256,213 L 256,42.33342 L 1.0908417e-08,42.33342 L 1.0908417e-08,213 L 256,213 z" style="fill:#efb22d;fill-opacity:1;stroke:none;stroke-width:.25"/><path id="path16" style="fill:#ffb835;stroke:#000;stroke-width:.29629657"/><path id="path20" d="M 1.0908417e-08,213 L 256,213 L 256,42.33342 L 1.0908417e-08,213 z" style="fill:#e23d28;fill-opacity:1;stroke:none;stroke-width:.25;stroke-linejoin:bevel"/><path id="path26" d="M 137.02862,95.69215 C 135.60996,95.18845 134.69381,95.92113 134.74003,97.75272 C 134.78507,99.5843 135.74744,100.63746 137.16611,99.95065 L 137.02862,95.69215 z" style="fill:#fff;stroke:#000;stroke-width:.14814828"/><path id="path28" d="M 138.27544,92.26234 C 137.09381,91.32936 135.99159,91.72936 135.4464,93.47858 C 134.90122,95.22768 135.47366,96.53399 137.03811,96.33938 L 138.27544,92.26234 z" style="fill:#fff;stroke:#000;stroke-width:.14814828"/><path id="path30" d="M 140.24167,88.94204 C 139.22359,87.83141 138.07159,88.04936 137.25262,89.68859 C 136.43485,91.32794 136.7904,92.70892 138.3667,92.76782 L 140.24167,88.94204 z" style="fill:#fff;stroke:#000;stroke-width:.14814828"/><path id="path32" d="M 138.95218,105.07895 C 137.21233,105.72002 137.02862,108.10117 138.12848,109.56642 C 139.22715,111.03166 141.24196,111.30639 142.34063,109.56642 L 138.95218,105.07895 z" style="fill:#fff;stroke:#000;stroke-width:.14814828"/><path id="path34" d="M 136.93737,100.04214 C 135.28877,99.49269 133.80373,101.70685 133.54892,103.70532 C 133.22892,106.22372 129.65677,107.0479 131.62655,110.84843 C 132.03781,108.42165 133.64136,107.09376 134.92255,107.00215 C 136.20492,106.91054 138.12848,106.63581 138.95218,105.07895 L 136.93737,100.04214 z" style="fill:#fff;stroke:#000;stroke-width:.14814828"/><path id="path36" d="M 142.15811,109.84114 C 140.23455,110.29898 139.95959,112.86325 141.33322,114.69484 C 142.50893,116.26296 146.18656,115.88536 146.0953,114.3285 L 142.15811,109.84114 z" style="fill:#fff;stroke:#000;stroke-width:.14814828"/><path id="path38" d="M 147.60641,125.27215 C 147.69767,123.6238 145.04285,122.98273 143.76048,123.3032 C 142.47811,123.6238 140.02833,123.25745 139.45589,121.8837 C 138.9984,122.98273 139.66211,124.17325 141.51693,124.76845 C 142.92019,125.21917 142.89056,126.23369 142.47811,126.69165 C 143.53174,126.87476 146.64523,126.87476 147.60641,125.27215 z" style="fill:#fff;stroke:#000;stroke-width:.14814828"/><path id="path40" d="M 146.0953,114.74059 C 144.21797,113.91641 143.10507,115.17176 142.38685,116.38894 C 141.33322,118.17478 138.08225,115.88536 136.98359,118.2664 C 138.47218,117.62533 139.98685,118.99244 140.69204,119.45692 C 142.70685,120.7848 146.599,120.37271 147.14893,117.25899 L 146.0953,114.74059 z" style="fill:#fff;stroke:#000;stroke-width:.14814828"/><path id="path42" d="M 147.19397,116.93852 C 145.31663,118.35789 144.58419,120.05212 144.63041,121.19689 C 144.67663,122.34166 146.279,124.86006 148.01886,124.99743 C 149.02627,122.93686 149.52997,118.58687 147.19397,116.93852 z" style="fill:#fff;stroke:#000;stroke-width:.14814828"/><path id="path44" d="M 139.41085,125.77586 C 139.41085,125.08904 140.41826,124.81431 141.10448,125.04317 C 141.79189,125.27215 142.84434,125.95897 142.47811,126.69165 L 139.41085,125.77586 z" style="fill:#fff;stroke:#000;stroke-width:.14814828"/><path id="path46" d="M 129.0618,122.02107 C 128.87928,121.19689 130.20669,119.77739 131.99277,120.55582 C 133.77766,121.33425 134.00759,122.84536 133.27396,123.44056 L 129.0618,122.02107 z" style="fill:#fff;stroke:#000;stroke-width:.14814828"/><path id="path48" d="M 133.41144,123.53218 C 133.27396,123.07422 134.55988,122.15961 136.75485,122.70788 C 138.95218,123.25745 139.49144,124.67245 139.41085,125.77586 L 133.41144,123.53218 z" style="fill:#fff;stroke:#000;stroke-width:.14814828"/><path id="path50" d="M 128.83306,122.02107 C 129.97795,121.15114 129.54417,119.50231 128.51187,118.99896 C 126.63454,118.08317 127.32195,115.70213 126.13084,115.24429 C 124.94091,114.78633 123.79602,113.96216 123.7498,113.13798 C 123.15483,114.28263 123.52106,115.3359 124.34595,116.06847 C 125.16965,116.80115 123.70476,119.77739 124.75721,120.55582 L 128.83306,122.02107 z" style="fill:#fff;stroke:#000;stroke-width:.14814828"/><path id="path52" d="M 104.28975,121.38 C 103.32821,119.86901 101.03866,120.14373 100.07712,121.19689 C 99.115582,122.25005 99.252943,123.80691 100.16874,124.49372 L 104.28975,121.38 z" style="fill:#fff;stroke:#000;stroke-width:.14814828"/><path id="path54" d="M 109.78451,119.13632 C 109.41817,117.12163 106.99126,116.89265 105.66338,117.39635 C 104.3355,117.90006 103.4197,119.91475 104.28975,121.38 L 109.78451,119.13632 z" style="fill:#fff;stroke:#000;stroke-width:.14814828"/><path id="path56" d="M 113.44768,118.8616 C 114.31761,117.16737 112.62351,114.64897 110.7003,114.28263 C 109.09473,113.97721 107.19737,113.98503 106.57917,112.4053 C 106.18996,113.77904 107.22036,114.64897 108.41088,115.4274 C 109.60128,116.20583 108.18178,118.22065 110.10498,119.3653 L 113.44768,118.8616 z" style="fill:#fff;stroke:#000;stroke-width:.14814828"/><path id="path58" d="M 113.26445,118.91991 C 112.86374,117.70628 113.67654,116.09158 115.3217,116.20477 C 116.96698,116.31795 117.90446,117.51357 117.17913,119.0082 L 113.26445,118.91991 z" style="fill:#fff;stroke:#000;stroke-width:.14814828"/><path id="path60" d="M 116.92763,119.0114 C 116.70126,117.75357 117.73261,116.26924 119.34564,116.61212 C 120.95868,116.95499 121.71839,118.27043 120.79157,119.64844 L 116.92763,119.0114 z" style="fill:#fff;stroke:#000;stroke-width:.14814828"/><path id="path62" d="M 120.56402,119.58954 C 120.40046,118.32163 121.50506,116.89087 123.09913,117.31363 C 124.69321,117.73662 125.38654,119.08868 124.39098,120.41846 L 120.56402,119.58954 z" style="fill:#fff;stroke:#000;stroke-width:.14814828"/><path id="path64" d="M 92.934004,140.5658 C 89.866032,140.5658 89.116638,141.29623 88.675513,144.45795 C 88.12606,148.39585 93.483457,148.85369 92.934004,140.5658 z" style="fill:#fff;stroke:#000;stroke-width:.14814828"/><path id="path66" d="M 94.307635,136.44478 C 89.591304,134.65894 87.027154,142.12266 82.356691,140.79478 C 84.027921,143.45054 88.079243,140.79951 89.591304,141.0695 C 92.155574,141.52746 97.696085,140.5658 94.307635,136.44478 z" style="fill:#fff;stroke:#000;stroke-width:.14814828"/><path id="path68" d="M 91.239782,146.65576 C 88.90449,145.60272 86.386088,149.17428 86.843924,150.73102 C 87.425257,152.70851 92.750774,151.09736 91.239782,146.65576 z" style="fill:#fff;stroke:#000;stroke-width:.14814828"/><path id="path70" d="M 80.341874,162.04173 C 81.624007,162.40677 83.180752,163.1404 82.906024,165.61269 C 82.631299,168.08499 77.960835,173.12204 73.748208,173.397 C 69.535583,173.67196 68.024469,178.75404 64.407161,177.33419 C 67.795491,176.69419 67.795491,172.84707 70.451375,171.65715 C 68.528175,170.96974 67.520883,175.32056 65.04823,175.32056 C 62.575575,175.32056 61.385055,179.25775 58.36295,178.98278 C 55.340842,178.709 55.022739,183.77686 48.976153,183.8373 C 44.35132,183.88234 38.627701,189.28561 36.567134,186.95079 C 41.054606,186.3096 42.865215,183.82308 45.541839,181.08886 C 49.846081,176.69419 54.699775,178.66278 56.34825,174.77063 C 54.379181,176.09804 52.089759,176.73922 49.846081,176.69419 C 47.029603,176.63611 43.939231,181.1813 40.779762,179.16648 C 42.611348,178.93775 43.801987,178.15908 45.72507,176.14426 C 47.694495,174.08085 50.584214,175.41418 52.868186,173.30574 C 56.439747,170.00855 59.507719,172.75581 62.941917,168.63492 C 61.980255,168.17744 59.919808,168.49744 57.996608,169.50485 C 56.073406,170.51225 53.60087,168.81744 51.402942,170.00855 C 51.677667,167.30751 56.806089,168.85299 60.011306,166.98633 C 63.62873,164.88025 66.627964,165.49773 69.489716,165.75018 C 65.506066,165.72766 63.949205,161.94928 58.454564,163.04795 C 56.058117,163.52795 54.150322,159.75195 51.769284,161.67432 C 51.837906,160.25565 54.333553,159.11052 56.897703,160.48439 C 59.461853,161.85802 60.495217,159.28238 65.59768,162.49921 C 67.703994,163.82662 71.321302,161.67432 73.610844,163.09417 C 73.313244,162.22425 72.008116,161.67432 70.47425,161.78928 C 71.435911,159.82069 77.64036,160.07195 80.341874,162.04173 z" style="fill:#fff;stroke:#000;stroke-width:.14814828"/><path id="path72" d="M 84.417138,159.06478 C 82.402438,157.50792 79.60931,159.38572 77.686108,158.65269 C 77.686108,159.93447 78.327174,161.85802 80.433488,162.59047 C 81.074555,162.13299 83.959182,159.61447 84.417138,159.06478 z" style="fill:#fff;stroke:#000;stroke-width:.14814828"/><path id="path74" d="M 87.576607,154.62317 C 84.417138,153.02056 83.867685,157.00421 81.39503,156.18003 C 81.486646,157.32481 82.402438,158.7443 84.417138,159.06478 L 87.576607,154.62317 z" style="fill:#fff;stroke:#000;stroke-width:.14814828"/><path id="path76" d="M 89.453943,151.00587 C 84.78348,149.17428 84.18816,153.66163 81.44078,152.79159 C 82.081846,154.34845 86.019746,155.17262 88.034443,154.62317 L 89.453943,151.00587 z" style="fill:#fff;stroke:#000;stroke-width:.14814828"/><path id="path78" d="M 95.864496,131.36211 C 94.62811,129.62214 92.01821,131.04164 91.606121,133.10209 C 91.194032,135.16265 92.201324,138.04739 93.941412,137.40633 L 95.864496,131.36211 z" style="fill:#fff;stroke:#000;stroke-width:.14814828"/><path id="path80" d="M 99.023965,125.86735 C 96.871904,125.36377 94.399251,125.59263 94.673976,127.69894 C 93.849679,128.06528 93.620821,130.76691 95.864496,131.36211 L 99.023965,125.86735 z" style="fill:#fff;stroke:#000;stroke-width:.14814828"/><path id="path82" d="M 100.44346,124.44797 C 98.337151,121.97532 95.988112,122.0328 94.673976,123.07422 C 92.247071,124.99743 89.888904,123.89852 89.820282,125.8216 C 91.285649,124.69983 92.567662,126.05058 93.758182,125.63849 C 94.948704,125.2264 95.818748,127.51583 99.115582,126.55429 L 100.44346,124.44797 z" style="fill:#fff;stroke:#000;stroke-width:.14814828"/><path id="path84" d="M 95.360793,161.40054 C 95.681385,161.9955 97.650218,162.27047 98.611876,161.26306 C 99.886307,159.92736 98.474515,156.22578 96.459696,155.95106 C 94.444999,155.67633 94.261887,160.11817 95.360793,161.40054 z" style="fill:#fff;stroke:#000;stroke-width:.14814828"/><path id="path86" d="M 93.071368,161.4918 C 95.955993,162.54425 97.192379,160.16321 95.635518,158.65269 C 95.223429,159.15639 93.712315,160.9881 93.071368,161.4918 z" style="fill:#fff;stroke:#000;stroke-width:.14814828"/><path id="path88" d="M 82.265077,165.42899 C 81.715505,167.07759 78.876627,167.35255 75.67141,172.48085 C 72.466074,177.60915 69.398219,175.45685 68.619789,178.98278 C 72.466074,175.8693 75.486758,177.93745 77.777605,174.86189 C 81.257669,170.19107 84.12333,170.86189 85.470293,167.71877 C 87.393377,163.23165 95.818748,163.32292 96.276585,156.27165 C 93.43759,155.72208 84.462885,163.32292 82.265077,165.42899 z" style="fill:#fff;stroke:#000;stroke-width:.14814828"/><path id="path90" d="M 154.52079,96.19586 C 158.1842,97.38638 158.27546,102.14845 162.48761,103.70532 C 166.70095,105.26218 167.1134,109.01685 170.54688,108.10117 C 167.34214,107.23113 167.57088,103.5222 164.22865,102.60641 C 160.30805,101.5324 158.82539,95.55479 155.71072,94.639" style="fill:#fff;stroke:#000;stroke-width:.14814828"/><path id="path94" d="M 171.32555,121.05953 C 171.96673,122.52477 171.87547,125.13479 169.5857,125.8216 C 170.82184,126.60003 172.65296,125.86735 173.66036,124.17325 C 172.14925,127.51583 173.15666,130.53793 175.5377,131.13325 C 174.39281,128.79796 176.95755,127.69894 176.13385,126.18795 C 177.64496,126.82901 178.97237,128.88958 178.92615,130.17159 C 180.89593,127.97366 177.46126,125.04317 178.10244,122.98273 L 171.32555,121.05953 z" style="fill:#fff;stroke:#000;stroke-width:.14814828"/><path id="path96" d="M 147.60641,144.59531 C 145.36285,142.62636 144.40522,145.11004 143.30182,144.25184 C 142.27189,143.45054 140.89826,143.33605 140.37204,144.13736 C 142.29559,144.2061 141.35574,145.69422 145.08789,146.06056 C 141.35574,146.31241 142.04315,150.47929 139.54715,150.27318 C 142.20315,152.79159 143.57678,148.02951 145.72908,148.80794 C 145.08789,148.99105 146.73649,150.50216 145.5916,152.51686 C 147.44641,152.47111 148.20138,149.90684 148.4313,148.57896 L 147.60641,144.59531 z" style="fill:#fff;stroke:#000;stroke-width:.14814828"/><path id="path98" d="M 98.199787,165.97892 C 97.37549,165.29269 94.994451,164.97151 94.078657,165.52144 C 93.162982,166.07018 93.483457,166.20766 94.582362,166.3001 C 95.681385,166.39136 97.10041,168.16914 94.719723,168.2687 C 93.620821,168.31374 93.987162,170.96974 91.697618,171.15344 C 92.636285,172.29833 95.315043,171.54218 96.276585,170.28351 C 96.093473,171.31344 97.467104,172.25211 96.917654,173.48826 C 98.611876,173.67196 97.627343,170.05477 100.3061,170.23729 C 99.207076,170.37477 99.665034,172.84707 101.58812,172.20589 C 100.44346,172.75581 101.03866,174.08322 102.3208,173.76322 C 101.49662,174.03818 101.22178,175.09063 102.36655,175.68678 C 103.46557,174.17567 102.22918,168.7724 98.199787,165.97892 z" style="fill:#fff;stroke:#000;stroke-width:.14814828"/><path id="path102" d="M 197.92942,115.4549 C 201.43402,115.4549 204.27491,112.61341 204.27491,109.10846 C 204.27491,105.60399 201.43402,102.76238 197.92942,102.76238 C 194.42364,102.76238 191.58275,105.60399 191.58275,109.10846 C 191.58275,112.61341 194.42364,115.4549 197.92942,115.4549 z" style="fill:#fff;stroke:#000;stroke-width:.14814828"/><path id="path104" style="fill:#fff;stroke:#000;stroke-width:.14814828"/><path id="path106" d="M 164.77739,123.12009 C 166.70095,121.2885 169.63192,120.37271 171.64555,121.74634 C 173.66036,123.12009 180.346,124.76845 183.64319,122.47902 C 186.93919,120.18948 188.49653,118.99896 189.96142,119.27369 C 191.06127,120.92216 192.38868,121.70059 194.03727,121.83796 C 194.54098,122.38741 196.32705,122.84536 197.33446,122.70788 C 198.79935,123.07422 200.58543,122.61639 202.0041,121.05953 C 204.20262,121.38 206.26247,119.73164 207.04114,117.25899 C 209.37595,116.98426 209.51344,114.37425 208.04855,112.63427 C 206.67492,112.35955 207.72855,107.73483 202.73654,108.65062 C 204.8438,109.93264 203.24024,112.49691 204.98128,113.68743 C 203.79017,113.68743 202.25654,114.19113 201.89032,115.97685 C 202.3478,114.74059 201.82158,113.91641 201.50039,113.64168 C 201.54661,112.58852 199.2118,110.00138 197.01328,110.94005 C 198.59313,111.28352 197.70068,113.82479 198.84557,114.78633 C 198.02069,114.8322 197.15076,115.24429 196.64705,115.97685 C 196.05209,114.9237 193.94601,113.82479 192.66364,113.73318 C 192.66364,113.36684 192.5949,112.63427 192.4349,112.26793 C 191.86246,111.16903 191.38127,109.86414 191.61001,108.19267 C 190.51134,109.38319 189.59519,111.03166 189.04645,112.22218 C 187.3066,111.03166 183.002,112.77163 180.98719,113.22947 C 178.97237,113.68743 172.19547,112.58852 170.63814,110.94005 C 169.08199,109.29169 166.05976,108.28428 163.22124,107.4601 C 159.31724,106.32707 159.28287,102.05696 154.97827,99.12635 C 154.88701,104.438 162.94628,121.2885 164.77739,123.12009 z" style="fill:#fff;stroke:#000;stroke-width:.14814828"/><path id="path110" d="M 119.90387,163.59788 C 123.29232,163.59788 126.03958,160.85062 126.03958,157.46217 C 126.03958,154.07372 123.29232,151.3267 119.90387,151.3267 C 116.51518,151.3267 113.76816,154.07372 113.76816,157.46217 C 113.76816,160.85062 116.51518,163.59788 119.90387,163.59788 z" style="fill:#fff;stroke:#000;stroke-width:.14814828"/><path id="path112" style="fill:#fff;stroke:#000;stroke-width:.14814828"/><path id="path114" d="M 105.25141,158.88167 C 106.48768,160.48439 108.59399,160.39314 109.46392,160.25565 C 110.1966,162.17802 112.53177,162.13299 113.53918,163.18543 C 114.54659,164.23906 117.98031,164.1478 118.98772,163.55165 C 118.07276,163.4604 116.88188,162.91165 115.73711,161.94928 C 114.3553,160.78899 115.00443,158.46946 113.90552,157.64528 C 114.7297,156.72949 114.86706,155.21849 114.68395,154.62317 C 115.554,154.11947 116.19494,153.29529 116.28656,152.8832 C 117.79779,152.79159 119.1252,152.01316 119.67513,151.41796 C 120.45379,152.15052 122.42239,151.18898 123.47602,152.42524 C 123.70476,149.40314 120.82002,147.80053 118.89646,148.80794 C 118.11779,148.39585 116.05758,148.67057 115.69136,149.22003 C 115.05029,148.9453 113.26445,149.86109 112.44028,150.45629 C 113.35607,149.95271 113.49343,148.4416 113.12709,147.89214 C 113.90552,147.57167 114.77557,146.51851 114.86706,145.74008 C 115.96609,145.92319 117.61409,145.19051 118.34653,145.37374 C 117.15661,143.81688 115.18766,143.26743 113.17284,143.40479 C 111.08928,143.5194 110.1966,144.98464 109.92187,146.56426 C 108.68549,147.29683 108.2734,149.76948 108.73135,150.63952 C 108.02143,150.61677 107.3576,151.30359 107.08288,151.69268 C 106.12134,151.28059 104.74759,150.98311 103.76305,150.98311" style="fill:#fff;stroke:#000;stroke-width:.14814828"/><path id="path118" d="M 104.19813,148.48734 C 103.78605,147.29683 104.33182,146.22506 104.61022,145.28213 C 105.31991,142.87833 104.88495,142.26002 102.73289,142.58061 C 102.54978,143.72527 103.64868,147.48006 104.19813,148.48734 z" style="fill:#fff;stroke:#000;stroke-width:.14814828"/><path id="path120" d="M 102.61828,142.71798 C 103.16773,143.26743 105.11393,143.5194 105.31991,141.77943 C 105.55648,139.78191 104.74759,139.00894 103.00761,139.78737 C 102.87025,140.24532 102.70978,142.12266 102.61828,142.71798 z" style="fill:#fff;stroke:#000;stroke-width:.14814828"/><path id="path122" d="M 103.03037,139.71886 C 103.76305,140.01634 105.34291,140.61166 106.21283,138.91744 C 106.94267,137.49652 105.98397,136.39904 104.47298,136.49053 C 104.10652,136.90262 103.37396,138.36799 103.03037,139.71886 z" style="fill:#fff;stroke:#000;stroke-width:.14814828"/><path id="path124" d="M 104.38136,136.35317 C 104.56448,136.90262 106.44193,138.73421 107.81556,137.40633 C 109.18931,136.07844 109.18931,134.1095 107.12875,133.37693 C 106.57917,133.46843 104.93082,135.39163 104.38136,136.35317 z" style="fill:#fff;stroke:#000;stroke-width:.14814828"/><path id="path126" d="M 107.12875,133.37693 C 107.54083,134.52158 108.82285,136.49053 111.20389,135.57474 C 113.58505,134.65894 112.57764,131.68271 111.47873,131.08739 C 110.83767,131.13325 108.22765,132.32377 107.12875,133.37693 z" style="fill:#fff;stroke:#000;stroke-width:.14814828"/><path id="path128" d="M 111.47873,131.08739 C 111.2955,132.0948 111.47873,134.84218 114.7297,134.79631 C 117.98031,134.75056 117.06535,130.95002 116.24081,130.40057 C 114.91293,130.40057 112.66925,130.44632 111.47873,131.08739 z" style="fill:#fff;stroke:#000;stroke-width:.14814828"/><path id="path130" d="M 116.37818,130.53793 C 116.01183,131.31636 115.18647,136.44004 121.55246,135.02529 C 122.37617,134.84218 124.52846,130.12585 116.37818,130.53793 z" style="fill:#fff;stroke:#000;stroke-width:.14814828"/><path id="path132" d="M 119.85764,130.99589 C 119.21764,131.63684 120.86505,136.81113 125.16965,135.94108 C 129.47425,135.07104 125.85706,130.17159 119.85764,130.99589 z" style="fill:#fff;stroke:#000;stroke-width:.14814828"/><path id="path134" d="M 123.52106,131.7742 C 122.83483,133.1937 123.86594,137.40633 129.17677,137.40633 C 133.98981,137.40633 128.92432,131.86582 123.52106,131.7742 z" style="fill:#fff;stroke:#000;stroke-width:.14814828"/><path id="path136" d="M 127.68817,133.01059 C 127.34328,133.79743 126.92136,138.26357 133.1827,138.64271 C 137.71603,138.91744 136.61737,132.50688 127.68817,133.01059 z" style="fill:#fff;stroke:#000;stroke-width:.14814828"/><path id="path138" d="M 134.41884,134.88793 C 133.64136,136.26167 132.81647,139.69587 139.68463,139.97059 C 144.08522,140.14671 141.37944,134.97954 134.41884,134.88793 z" style="fill:#fff;stroke:#000;stroke-width:.14814828"/><path id="path140" d="M 140.14329,135.94108 C 139.13589,137.31483 139.87781,140.00935 142.43189,140.52005 C 145.63782,141.16112 146.0953,138.13901 143.89797,136.67376 C 141.69944,135.20852 140.14329,135.94108 140.14329,135.94108 z" style="fill:#fff;stroke:#000;stroke-width:.14814828"/><path id="path142" d="M 143.25678,136.58215 C 142.52434,137.86428 142.97826,140.97789 147.83515,140.97789 C 148.84256,140.97789 152.68968,137.03999 143.25678,136.58215 z" style="fill:#fff;stroke:#000;stroke-width:.14814828"/><path id="path146" d="M 105.66528,196.29598 C 109.59915,196.29598 112.78836,193.10665 112.78836,189.17301 C 112.78836,185.2382 109.59915,182.04886 105.66528,182.04886 C 101.73105,182.04886 98.541832,185.2382 98.541832,189.17301 C 98.541832,193.10665 101.73105,196.29598 105.66528,196.29598 z" style="fill:#fff;stroke:#000;stroke-width:.14814828"/><path id="path148" style="fill:#fff;stroke:#000;stroke-width:.14814828"/><path id="path150" d="M 157.90924,92.71591 C 157.35931,93.26537 156.21561,94.91372 155.98568,95.55479 C 153.60464,102.69791 159.9608,108.03373 163.67873,115.70213 C 166.60969,121.74634 166.24347,131.27062 161.66391,137.31483 C 160.09709,139.38227 160.56524,139.97059 158.55042,142.07691 C 157.77768,142.88497 156.90183,143.9085 157.17679,146.83899 C 158.45917,146.38103 160.29028,147.57167 160.6565,148.57896 C 161.57265,148.12112 162.85502,148.30423 163.3125,148.85369 C 164.86865,148.12112 166.15102,148.48734 167.52465,149.95271 C 168.71577,149.76948 169.99814,149.95271 171.18806,151.23472 C 171.82925,149.95271 173.11162,149.49475 174.02659,149.76948 C 173.93533,148.12112 175.58392,146.9306 177.04881,147.57167 C 176.59133,145.37374 178.60615,143.72527 180.52971,144.36633 C 182.17711,143.0842 185.4743,142.9927 187.1229,144.91579 C 184.19193,144.09161 184.28438,147.20533 181.81089,146.9306 C 182.45208,148.76219 180.80348,149.81535 179.15607,150.41055 C 180.20852,149.90684 181.35341,149.31164 181.71963,149.95271 C 182.63578,149.15152 184.46689,149.44901 184.92556,149.86109 C 186.13801,149.472 187.3066,149.76948 187.85534,151.23472 C 189.50394,152.24213 190.6026,154.80628 189.41268,156.72949 C 189.04645,154.71479 187.67282,154.80628 187.1229,153.98211 C 185.84053,154.44006 184.55815,154.44006 184.19193,153.61576 C 183.45949,154.34845 180.98719,154.98951 179.88852,153.89049 C 179.47607,155.53897 178.05622,156.91272 176.40763,156.91272 C 176.8663,158.19473 175.58392,160.39314 174.57651,161.4918 C 176.13385,162.31551 175.67518,164.1478 175.30896,165.24647 C 177.69,165.61269 175.67518,167.71877 179.79608,169.0924 C 177.78244,169.73359 173.84407,169.0924 173.29414,166.6201 C 171.27933,166.52884 169.9057,164.51403 169.99814,162.40677 C 168.4408,160.94187 168.21206,158.8358 170.36436,157.37055 C 168.53206,157.92001 167.52465,154.98951 164.86865,156.18003 C 163.54835,156.77239 160.06154,155.76794 160.10776,154.53156 C 159.55783,155.44735 156.21561,155.08113 155.75694,153.52427 C 154.65827,154.11947 152.09353,153.11218 152.13975,151.60107 C 150.7199,152.24213 148.79753,151.09736 148.88879,149.63212 C 147.56138,149.44901 147.42389,148.25849 147.51515,147.25108 C 146.32404,146.70163 146.64523,145.55685 147.10271,144.18322 C 146.279,143.26743 146.64523,141.98529 147.28641,140.79478 C 146.37026,139.87898 146.55397,138.78008 146.82775,137.49794 C 142.43189,137.1316 136.92551,136.07145 124.29973,132.18641 C 105.25141,126.32531 100.12287,140.06209 104.3355,148.67057 C 109.19583,158.60315 103.78605,160.75936 105.43452,168.17744 C 107.17449,168.54366 108.09029,170.00855 107.99879,171.56589 C 109.02872,171.61092 109.7614,172.57211 109.39506,174.40441 C 110.2651,174.24441 111.38712,174.49567 112.11968,175.22811 C 112.76075,174.03818 114.86706,173.76322 115.96609,175.13685 C 118.34653,174.95315 119.53764,176.87671 119.44639,179.25775 C 120.72757,181.54753 120.27009,184.34101 118.89646,186.1259 C 119.03394,185.16472 118.89646,183.79108 118.85142,182.96738 C 118.76609,181.45153 116.6529,181.13508 116.88188,179.89893 C 115.78298,179.99019 114.7297,179.39523 114.36348,178.57152 C 113.72241,179.12026 112.80662,179.30397 112.02819,179.029 C 113.26445,179.57893 114.22611,181.77627 113.85977,183.24116 C 114.50084,184.34101 114.36348,186.35583 113.58505,187.22575 C 113.21871,189.01064 111.84508,189.65183 110.05924,188.87316 C 111.06665,188.23316 111.43287,187.08827 111.38712,186.1259 C 110.74605,185.57716 110.42558,184.52353 110.37971,183.88234 C 108.59399,184.15731 106.12134,182.64619 105.66528,182.04886 C 101.73105,182.04886 98.541832,185.2382 98.541832,189.17301 C 98.358721,187.70694 96.505562,186.26338 96.734423,185.02723 C 95.635518,181.63878 97.192379,178.47908 101.67973,177.83908 C 101.13028,176.5567 103.05336,175.22811 102.3208,173.76322 C 101.38486,171.89181 99.665034,169.45862 97.100882,166.6201 C 98.657743,163.9641 98.199787,160.39314 97.283993,158.19473 C 95.968912,155.03858 94.719723,155.81369 90.04926,160.94187 C 82.437638,169.29981 72.282963,166.98633 63.308139,172.48085 C 60.923425,173.941 58.546178,174.49567 61.110331,171.93211 C 63.674597,169.36737 70.451375,166.80381 74.847113,164.60529 C 83.079063,160.48914 90.04926,153.61576 92.79664,140.24532 C 99.252587,108.82425 123.01735,119.18219 138.03603,125.04317 C 152.1362,130.546 149.57501,118.08317 142.43189,110.57371 C 133.8464,101.54769 135.56374,94.45589 139.59337,88.77789 C 146.82775,87.77061 160.70272,90.28901 157.90924,92.71591 z" style="fill:#fff;stroke:#000;stroke-width:.14814828"/><path id="path154" d="M 183.41563,169.90189 C 187.74393,169.90189 191.25327,166.39373 191.25327,162.06543 C 191.25327,157.73689 187.74393,154.22791 183.41563,154.22791 C 179.08733,154.22791 175.578,157.73689 175.578,162.06543 C 175.578,166.39373 179.08733,169.90189 183.41563,169.90189 z" style="fill:#fff;stroke:#000;stroke-width:.14814828"/><path id="path156" style="fill:#fff;stroke:#000;stroke-width:.14814828"/><path id="path158" d="M 153.51338,93.08214 C 151.77353,100.77482 153.23842,104.25477 155.80316,107.64322 C 161.10213,114.64648 165.32732,130.62955 159.28287,141.0695" style="fill:none;stroke:#000;stroke-width:.14814828"/><path id="path162" d="M 162.67132,132.04893 C 163.40376,131.7742 164.77739,130.90428 165.09858,129.39316" style="fill:none;stroke:#000;stroke-width:.14814828;stroke-linecap:round"/><path id="path164" d="M 163.22124,128.70635 C 163.44998,127.37846 165.50984,126.80626 165.55606,125.38676" style="fill:none;stroke:#000;stroke-width:.14814828;stroke-linecap:round"/><path id="path166" d="M 163.26628,123.53218 C 163.1288,122.15843 165.32732,120.92216 165.00613,119.54853" style="fill:none;stroke:#000;stroke-width:.14814828;stroke-linecap:round"/><path id="path168" d="M 162.07635,118.58687 C 161.89265,117.80844 163.90746,116.3432 163.35873,115.10693" style="fill:none;stroke:#000;stroke-width:.14814828;stroke-linecap:round"/><path id="path170" d="M 160.56524,113.77904 C 160.1528,112.909 161.52643,111.90159 160.93146,110.9858" style="fill:none;stroke:#000;stroke-width:.14814828;stroke-linecap:round"/><path id="path172" d="M 158.36672,109.93264 C 158.22924,109.33744 159.07665,108.03255 158.61917,107.25424" style="fill:none;stroke:#000;stroke-width:.14814828;stroke-linecap:round"/><path id="path174" d="M 156.16938,105.39954 C 156.3519,105.17056 157.08553,104.62111 156.78687,103.93429" style="fill:none;stroke:#000;stroke-width:.14814828;stroke-linecap:round"/><path id="path176" d="M 154.65827,102.07995 C 154.95575,101.9196 155.8482,101.64475 155.73442,100.98105" style="fill:none;stroke:#000;stroke-width:.14814828;stroke-linecap:round"/><path id="path180" d="M 108.82285,188.41568 C 106.99126,187.7745 104.70184,188.69064 104.244,190.24798" style="fill:none;stroke:#000;stroke-width:.14814828;stroke-linecap:round;stroke-linejoin:round"/><path id="path182" d="M 105.61763,191.66665 C 105.84661,190.1105 108.22765,189.42309 108.96021,190.15553 C 107.44922,189.33183 106.71654,192.26161 108.04442,192.35405" style="fill:none;stroke:#000;stroke-width:.14814828;stroke-linecap:round;stroke-linejoin:round"/><path id="path184" d="M 120.36135,155.44735 C 119.26268,155.99692 118.94268,158.01162 120.36135,159.52321" style="fill:none;stroke:#000;stroke-width:.14814828;stroke-linecap:round;stroke-linejoin:round"/><path id="path186" d="M 122.00994,155.90531 C 121.23246,156.54637 121.2775,158.46946 122.42239,158.92741 C 121.4612,158.2406 122.42239,157.05008 123.1098,157.00421 C 123.79602,156.95846 124.2535,157.78264 123.4298,158.60682" style="fill:none;stroke:#000;stroke-width:.14814828;stroke-linecap:round;stroke-linejoin:round"/><path id="path188" d="M 186.34423,160.43817 C 183.78067,159.75195 181.71963,162.72795 184.05445,165.38395 C 184.00941,162.81921 185.84053,161.12558 188.08408,161.58306" style="fill:none;stroke:#000;stroke-width:.14814828;stroke-linecap:round;stroke-linejoin:round"/><path id="path190" d="M 187.05416,163.35729 C 186.42364,163.35729 186.06927,163.85032 186.06927,164.33032 C 186.06927,164.83403 186.50423,165.31521 187.21416,165.31521 C 187.67282,165.31521 188.03904,164.78899 188.03904,164.37655" style="fill:none;stroke:#000;stroke-width:.14814828;stroke-linecap:round;stroke-linejoin:round"/><path id="path192" d="M 196.09713,107.13951 C 196.50957,108.69637 198.66187,109.33744 200.3555,108.9711" style="fill:none;stroke:#000;stroke-width:.14814828;stroke-linecap:round;stroke-linejoin:round"/><path id="path194" d="M 200.3555,107.96369 C 199.02809,108.00956 197.92942,106.77317 198.02069,105.72002 C 198.02069,106.49844 199.80676,106.86479 200.3555,106.36108" style="fill:none;stroke:#000;stroke-width:.14814828;stroke-linecap:round;stroke-linejoin:round"/><path id="path198" d="M 109.46392,160.25565 C 109.0977,159.3395 110.56294,158.42371 110.60869,157.55366 C 110.65456,156.68374 112.25704,155.99692 113.90552,157.64528" style="fill:none;stroke:#000;stroke-width:.14814828;stroke-linecap:round"/><path id="path200" d="M 113.12709,147.89214 C 112.80662,148.02951 112.53177,148.21262 112.25704,148.30423" style="fill:none;stroke:#000;stroke-width:.14814828;stroke-linecap:round"/><path id="path202" d="M 116.28656,152.8832 C 115.89723,152.90631 115.09604,152.86044 114.66096,152.56261" style="fill:none;stroke:#000;stroke-width:.14814828;stroke-linecap:round"/><path id="path204" d="M 114.68395,154.62317 C 114.36348,154.78365 113.65343,155.05837 113.24134,155.14999" style="fill:none;stroke:#000;stroke-width:.14814828;stroke-linecap:round"/><path id="path206" d="M 98.978218,182.27997 C 98.932351,183.10486 99.756648,184.29479 100.21448,184.66101" style="fill:none;stroke:#000;stroke-width:.14814828;stroke-linecap:round"/><path id="path208" d="M 102.54978,180.31138 C 102.09182,180.9976 101.81721,182.18871 102.09182,183.01242" style="fill:none;stroke:#000;stroke-width:.14814828;stroke-linecap:round"/><path id="path210" d="M 109.37242,183.05864 C 108.54812,182.50871 109.0977,181.08886 109.00608,180.17389 C 108.91446,179.25775 109.96774,177.79285 112.02819,179.029" style="fill:none;stroke:#000;stroke-width:.14814828;stroke-linecap:round"/><path id="path212" d="M 101.67973,177.83908 C 102.50403,177.7016 103.37396,177.74663 103.92341,177.97537" style="fill:none;stroke:#000;stroke-width:.14814828;stroke-linecap:round"/><path id="path214" d="M 112.11968,175.22811 C 111.75346,175.73182 111.66185,176.28174 111.6161,176.64797" style="fill:none;stroke:#000;stroke-width:.14814828;stroke-linecap:round"/><path id="path216" d="M 115.96609,175.13685 C 115.32502,175.13685 114.77557,175.59433 114.50084,176.053" style="fill:none;stroke:#000;stroke-width:.14814828;stroke-linecap:round"/><path id="path218" d="M 107.08288,151.69268 C 107.81556,151.94465 109.71565,153.11218 109.78451,154.32569" style="fill:none;stroke:#000;stroke-width:.14814828;stroke-linecap:round"/><path id="path220" d="M 114.86706,145.74008 C 112.62351,145.69422 111.75346,143.40479 113.44768,143.40479" style="fill:none;stroke:#000;stroke-width:.14814828;stroke-linecap:round"/><path id="path222" d="M 118.89646,148.80794 C 118.02653,149.17428 118.43898,150.68527 119.67513,151.41796" style="fill:none;stroke:#000;stroke-width:.14814828;stroke-linecap:round"/><path id="path224" d="M 113.53918,163.18543 C 113.1041,162.63669 113.67654,161.03432 115.09604,161.51432" style="fill:none;stroke:#000;stroke-width:.14814828;stroke-linecap:round"/><path id="path226" d="M 116.88188,179.89893 C 116.9729,178.50278 118.73646,177.67789 119.44639,179.25775" style="fill:none;stroke:#000;stroke-width:.14814828;stroke-linecap:round"/><path id="path228" d="M 110.37971,183.88234 C 110.2651,182.34871 111.04353,181.84501 111.73035,181.75375 C 112.41716,181.66249 113.40194,182.23375 113.85977,183.24116" style="fill:none;stroke:#000;stroke-width:.14814828;stroke-linecap:round"/><path id="path230" d="M 96.734423,185.02723 C 96.826037,184.11108 97.604468,183.1499 98.428646,183.28738" style="fill:none;stroke:#000;stroke-width:.14814828;stroke-linecap:round"/><path id="path232" d="M 180.52971,144.36633 C 179.93356,144.80153 179.54481,146.74737 181.81089,146.9306" style="fill:none;stroke:#000;stroke-width:.14814828;stroke-linecap:round"/><path id="path234" d="M 177.04881,147.57167 C 177.04881,147.80053 177.3463,148.12112 177.53,148.25849" style="fill:none;stroke:#000;stroke-width:.14814828;stroke-linecap:round"/><path id="path236" d="M 187.85534,151.23472 C 187.26038,150.77689 185.72556,152.63147 187.1229,153.98211" style="fill:none;stroke:#000;stroke-width:.14814828;stroke-linecap:round"/><path id="path238" d="M 173.29414,166.6201 C 172.95044,165.31521 174.16407,164.97151 175.30896,165.24647" style="fill:none;stroke:#000;stroke-width:.14814828;stroke-linecap:round"/><path id="path240" d="M 170.36436,157.37055 C 171.05058,156.91272 171.73799,156.40901 172.60792,156.18003" style="fill:none;stroke:#000;stroke-width:.14814828;stroke-linecap:round"/><path id="path242" d="M 169.99814,162.40677 C 169.99814,161.3081 170.54688,160.39314 171.05058,160.11817" style="fill:none;stroke:#000;stroke-width:.14814828;stroke-linecap:round"/><path id="path244" d="M 174.02659,149.76948 C 173.93533,151.09736 174.48525,152.3795 174.8977,153.06631" style="fill:none;stroke:#000;stroke-width:.14814828;stroke-linecap:round"/><path id="path246" d="M 184.92556,149.86109 C 184.26067,150.06732 183.66571,150.31893 183.41445,150.8685" style="fill:none;stroke:#000;stroke-width:.14814828;stroke-linecap:round"/><path id="path248" d="M 184.19193,153.61576 C 184.51312,153.34104 184.87934,153.02056 185.03934,152.79159" style="fill:none;stroke:#000;stroke-width:.14814828;stroke-linecap:round"/><path id="path250" d="M 201.50039,113.64168 C 201.50039,114.9237 199.89802,115.61051 198.84557,114.78633" style="fill:none;stroke:#000;stroke-width:.14814828;stroke-linecap:round"/><path id="path252" d="M 204.98128,113.68743 C 205.69002,114.23688 208.1398,113.71054 207.56736,112.29104" style="fill:none;stroke:#000;stroke-width:.14814828;stroke-linecap:round"/><path id="path254" d="M 202.0041,121.05953 C 201.50039,120.96791 200.63047,120.41846 200.26424,119.96062" style="fill:none;stroke:#000;stroke-width:.14814828;stroke-linecap:round"/><path id="path256" d="M 207.04114,117.25899 C 206.21743,117.4421 205.66751,117.25899 205.25506,117.07588" style="fill:none;stroke:#000;stroke-width:.14814828;stroke-linecap:round"/><path id="path258" d="M 194.03727,121.83796 C 194.49476,121.83796 195.59342,121.65473 196.34957,121.26575" style="fill:none;stroke:#000;stroke-width:.14814828;stroke-linecap:round"/><path id="path260" d="M 192.66364,113.73318 C 192.06868,113.66467 191.63253,113.77904 191.29001,114.0079" style="fill:none;stroke:#000;stroke-width:.14814828;stroke-linecap:round"/><path id="path262" d="M 201.89032,115.97685 C 201.73032,116.54942 201.31787,117.4421 200.81417,117.83155" style="fill:none;stroke:#000;stroke-width:.14814828;stroke-linecap:round"/><path id="path264" d="M 191.10631,117.99167 C 192.2512,117.48797 193.67105,121.38 196.41831,120.00637" style="fill:none;stroke:#000;stroke-width:.14814828;stroke-linecap:round;stroke-linejoin:round"/><path id="path266" d="M 196.64705,115.97685 C 196.28083,116.48056 196.05209,117.25899 196.00587,117.9458" style="fill:none;stroke:#000;stroke-width:.14814828;stroke-linecap:round;stroke-linejoin:round"/><path id="path270" d="M 141.88315,110.02425 C 142.24937,109.97851 142.89056,109.84114 143.02804,109.38319" style="fill:none;stroke:#000;stroke-width:.14814828"/><path id="path272" d="M 94.765474,152.65422 C 96.139223,153.43265 97.100882,154.76054 96.505562,156.72949" style="fill:none;stroke:#000;stroke-width:.14814828"/><path id="path274" d="M 157.72553,105.81163 C 158.13798,106.08635 159.69532,106.08635 160.56524,105.76588" style="fill:none;stroke:#000;stroke-width:.14814828"/><path id="path276" d="M 161.66391,106.72742 C 161.61769,107.36849 161.80139,109.79528 160.56524,110.29898" style="fill:none;stroke:#000;stroke-width:.14814828"/><path id="path278" d="M 161.02272,109.97851 C 162.16761,110.34485 164.45739,110.20737 165.18984,108.10117" style="fill:none;stroke:#000;stroke-width:.14814828"/><path id="path280" d="M 163.58747,109.88689 C 164.18243,110.80268 164.36495,112.58852 162.58006,113.55007" style="fill:none;stroke:#000;stroke-width:.14814828"/><path id="path282" d="M 164.04495,111.398 C 165.37236,111.85584 168.4408,111.90159 168.11962,109.29169" style="fill:none;stroke:#000;stroke-width:.14814828"/><path id="path284" d="M 167.06717,111.398 C 167.98332,112.68002 172.01296,114.19113 171.37177,111.53537" style="fill:none;stroke:#000;stroke-width:.14814828"/><path id="path286" d="M 163.35873,115.10693 C 164.91487,115.47327 167.1134,114.41999 166.19725,111.67273" style="fill:none;stroke:#000;stroke-width:.14814828"/><path id="path288" d="M 170.5931,113.04636 C 170.82184,114.09952 175.95015,115.19842 175.26392,112.81738" style="fill:none;stroke:#000;stroke-width:.14814828"/><path id="path290" d="M 174.30155,114.19113 C 175.26392,116.38894 180.346,116.20583 178.74363,113.27534" style="fill:none;stroke:#000;stroke-width:.14814828"/><path id="path292" d="M 177.91874,115.56477 C 178.92615,116.80115 183.41445,116.06847 181.62837,113.09211" style="fill:none;stroke:#000;stroke-width:.14814828"/><path id="path294" d="M 181.58215,115.51902 C 184.37563,117.62533 187.6266,114.60322 184.10067,112.4053" style="fill:none;stroke:#000;stroke-width:.14814828"/><path id="path296" d="M 185.70304,114.8322 C 188.17653,116.80115 191.19875,113.22947 189.04645,112.22218" style="fill:none;stroke:#000;stroke-width:.14814828"/><path id="path298" d="M 166.15102,114.0079 C 166.92969,114.23688 168.57828,114.14527 168.94451,112.72589" style="fill:none;stroke:#000;stroke-width:.14814828"/><path id="path300" d="M 168.32584,113.68743 C 168.23458,115.77099 171.73799,116.57217 172.63044,114.16838" style="fill:none;stroke:#000;stroke-width:.14814828"/><path id="path302" d="M 171.46303,115.47327 C 172.10421,116.8469 175.17148,117.39635 175.67518,115.4274" style="fill:none;stroke:#000;stroke-width:.14814828"/><path id="path304" d="M 175.17148,116.3432 C 175.67518,117.71695 178.33118,117.57958 179.06363,116.16008" style="fill:none;stroke:#000;stroke-width:.14814828"/><path id="path306" d="M 178.10244,117.07588 C 178.92615,118.8616 182.31459,118.8616 183.09326,116.25158" style="fill:none;stroke:#000;stroke-width:.14814828"/><path id="path308" d="M 182.4983,117.39635 C 183.82571,118.22065 186.66541,117.90006 186.43549,115.3359" style="fill:none;stroke:#000;stroke-width:.14814828"/><path id="path310" d="M 185.88675,117.16737 C 187.85534,118.7701 190.64882,117.21324 189.27519,114.51161" style="fill:none;stroke:#000;stroke-width:.14814828"/><path id="path312" d="M 189.13771,119.27369 C 190.19134,119.09058 190.74009,116.98426 189.64142,116.43481" style="fill:none;stroke:#000;stroke-width:.14814828"/><path id="path314" d="M 164.73236,119.64003 C 166.92969,118.44951 167.34214,116.43481 165.83102,114.46586" style="fill:none;stroke:#000;stroke-width:.14814828"/><path id="path316" d="M 166.60969,117.62533 C 167.98332,118.44951 170.5931,117.57958 171.05058,115.56477" style="fill:none;stroke:#000;stroke-width:.14814828"/><path id="path318" d="M 168.48703,117.85431 C 169.26451,118.8616 169.40199,120.09798 168.39458,121.24264" style="fill:none;stroke:#000;stroke-width:.14814828"/><path id="path320" d="M 169.12821,119.13632 C 171.55429,117.62533 174.57651,120.41846 172.33296,122.11268" style="fill:none;stroke:#000;stroke-width:.14814828"/><path id="path322" d="M 171.92051,118.99896 C 172.47044,118.8616 173.43162,117.85431 173.52288,116.70954" style="fill:none;stroke:#000;stroke-width:.14814828"/><path id="path324" d="M 173.01918,120.05212 C 174.02659,118.99896 180.89593,121.15114 176.54511,123.34895" style="fill:none;stroke:#000;stroke-width:.14814828"/><path id="path326" d="M 176.22511,117.16737 C 177.55252,117.67108 178.23993,119.54853 176.22511,120.18948" style="fill:none;stroke:#000;stroke-width:.14814828"/><path id="path328" d="M 177.96496,121.74634 C 179.42985,120.23535 184.00941,121.19689 182.36082,123.12009" style="fill:none;stroke:#000;stroke-width:.14814828"/><path id="path330" d="M 181.26215,121.15114 C 182.08585,118.35789 186.98541,120.09798 185.38304,121.24264" style="fill:none;stroke:#000;stroke-width:.14814828"/><path id="path332" d="M 180.25474,118.35789 C 180.39222,118.90747 180.43726,120.2811 179.52229,121.01378" style="fill:none;stroke:#000;stroke-width:.14814828"/><path id="path334" d="M 184.37563,117.80844 C 184.55815,118.2664 184.51312,119.13632 184.10067,119.6859" style="fill:none;stroke:#000;stroke-width:.14814828"/><path id="path336" d="M 187.48912,117.85431 C 187.76408,118.35789 188.22156,119.31955 187.21416,120.09798" style="fill:none;stroke:#000;stroke-width:.14814828"/><path id="path338" d="M 148.29382,96.79118 C 148.33886,99.40107 149.25501,101.14117 152.78094,99.49269" style="fill:none;stroke:#000;stroke-width:.14814828"/><path id="path340" d="M 149.39249,99.90478 C 147.65264,102.24007 149.62123,104.75847 153.0559,102.24007" style="fill:none;stroke:#000;stroke-width:.14814828"/><path id="path342" d="M 144.03545,101.04955 C 146.41649,103.6137 150.67486,101.73637 147.9276,97.84421" style="fill:none;stroke:#000;stroke-width:.14814828"/><path id="path344" d="M 150.81234,103.24748 C 150.35367,105.76588 152.41472,106.26959 154.10835,105.12481" style="fill:none;stroke:#000;stroke-width:.14814828"/><path id="path346" d="M 141.92819,101.46164 C 142.36196,103.99355 144.95041,105.99474 147.46893,104.438" style="fill:none;stroke:#000;stroke-width:.14814828"/><path id="path348" d="M 145.04285,104.94159 C 145.04285,108.55901 150.03367,108.9711 151.17857,105.21643" style="fill:none;stroke:#000;stroke-width:.14814828"/><path id="path350" d="M 149.39249,107.50585 C 150.99486,110.80268 154.47457,109.4748 155.61946,107.4601" style="fill:none;stroke:#000;stroke-width:.14814828"/><path id="path352" d="M 145.86656,102.24007 C 146.50775,103.84268 147.79012,105.62852 150.76612,104.30064" style="fill:none;stroke:#000;stroke-width:.14814828"/><path id="path354" d="M 136.70862,101.46164 C 137.12107,102.78952 139.50211,104.39213 142.24937,102.56054" style="fill:none;stroke:#000;stroke-width:.14814828"/><path id="path356" d="M 138.40344,103.15586 C 136.93737,105.30792 139.86833,107.32274 143.39426,104.1174" style="fill:none;stroke:#000;stroke-width:.14814828"/><path id="path358" d="M 140.14329,105.81163 C 140.73826,108.83373 141.92819,111.26064 146.23278,107.36849" style="fill:none;stroke:#000;stroke-width:.14814828"/><path id="path360" d="M 144.08049,108.92535 C 145.63782,110.84843 148.01886,112.03895 150.26242,108.78799" style="fill:none;stroke:#000;stroke-width:.14814828"/><path id="path362" d="M 151.91101,109.4748 C 151.77353,111.76423 152.23101,112.909 154.01708,112.81738 C 155.42509,112.74532 156.76435,111.62687 157.54302,110.43635" style="fill:none;stroke:#000;stroke-width:.14814828"/><path id="path364" d="M 153.69708,112.81738 C 153.65086,115.4274 155.71072,117.48797 159.55783,114.8322" style="fill:none;stroke:#000;stroke-width:.14814828"/><path id="path366" d="M 155.29946,115.88536 C 154.56701,117.85431 156.76435,121.05953 161.06895,119.41105" style="fill:none;stroke:#000;stroke-width:.14814828"/><path id="path368" d="M 146.18656,110.66532 C 145.91278,113.18373 148.2476,114.87795 152.00227,111.62687" style="fill:none;stroke:#000;stroke-width:.14814828"/><path id="path370" d="M 148.01886,113.45845 C 148.15634,115.51902 150.49116,117.99167 153.92583,114.41999" style="fill:none;stroke:#000;stroke-width:.14814828"/><path id="path372" d="M 149.66745,116.06847 C 149.39249,119.59428 152.64345,120.60157 155.39072,117.90006" style="fill:none;stroke:#000;stroke-width:.14814828"/><path id="path374" d="M 144.76789,113.45845 C 145.50034,113.50432 146.0953,112.86325 146.46152,112.4053" style="fill:none;stroke:#000;stroke-width:.14814828"/><path id="path376" d="M 146.32404,116.02272 C 146.96523,116.16008 148.06508,115.56477 148.4313,114.8322" style="fill:none;stroke:#000;stroke-width:.14814828"/><path id="path378" d="M 147.9276,120.18948 C 148.66004,120.96791 151.13234,120.41846 151.45234,119.3653" style="fill:none;stroke:#000;stroke-width:.14814828"/><path id="path380" d="M 150.67486,120.14373 C 152.04849,123.34895 155.71072,123.21159 157.22183,119.59428" style="fill:none;stroke:#000;stroke-width:.14814828"/><path id="path382" d="M 156.53561,120.87642 C 157.22183,122.75375 158.96287,123.94427 161.80139,123.3032" style="fill:none;stroke:#000;stroke-width:.14814828"/><path id="path384" d="M 157.90924,122.7995 C 156.30687,125.40951 158.41294,128.47737 161.98391,125.45526" style="fill:none;stroke:#000;stroke-width:.14814828"/><path id="path386" d="M 158.77917,126.69165 C 158.59665,128.34001 160.10776,130.21746 162.16761,130.44632" style="fill:none;stroke:#000;stroke-width:.14814828"/><path id="path388" d="M 152.00227,121.8837 C 151.45234,125.59263 154.10835,127.37846 157.45176,125.40951" style="fill:none;stroke:#000;stroke-width:.14814828"/><path id="path390" d="M 148.11012,123.66954 C 148.98004,124.35636 150.53738,124.44797 152.00227,123.89852" style="fill:none;stroke:#000;stroke-width:.14814828"/><path id="path392" d="M 153.78835,126.05058 C 152.96345,129.1643 156.16938,131.40798 158.91665,127.92792" style="fill:none;stroke:#000;stroke-width:.14814828"/><path id="path394" d="M 149.34627,124.17325 C 149.39249,125.77586 150.94982,127.51583 153.65086,127.01212" style="fill:none;stroke:#000;stroke-width:.14814828"/><path id="path396" d="M 161.20643,130.21746 C 159.37413,131.45373 159.00791,133.65166 161.57265,135.07104" style="fill:none;stroke:#000;stroke-width:.14814828"/><path id="path398" d="M 156.71813,129.57639 C 156.81057,131.45373 157.6805,132.50688 159.74035,132.69" style="fill:none;stroke:#000;stroke-width:.14814828"/><path id="path400" d="M 154.01708,128.61473 C 151.26982,131.13325 153.97086,134.06374 157.22183,131.59109" style="fill:none;stroke:#000;stroke-width:.14814828"/><path id="path402" d="M 155.94064,132.36952 C 155.0245,135.25426 158.45917,136.99424 160.29028,134.06374" style="fill:none;stroke:#000;stroke-width:.14814828"/><path id="path404" d="M 150.26242,126.23369 C 149.25501,129.07269 150.53738,130.95002 152.8722,130.76691" style="fill:none;stroke:#000;stroke-width:.14814828"/><path id="path406" d="M 146.64523,125.68424 C 146.78271,127.37846 148.2476,127.97366 149.89619,127.60744" style="fill:none;stroke:#000;stroke-width:.14814828"/><path id="path408" d="M 147.69767,127.47008 C 146.46152,129.85112 148.33886,131.13325 150.81234,130.21746" style="fill:none;stroke:#000;stroke-width:.14814828"/><path id="path410" d="M 158.32168,135.52899 C 157.90924,137.03999 158.13798,138.13901 160.38154,138.64271" style="fill:none;stroke:#000;stroke-width:.14814828"/><path id="path412" d="M 158.45917,137.68105 C 155.75694,138.91744 155.5282,141.52746 157.63427,143.22156" style="fill:none;stroke:#000;stroke-width:.14814828"/><path id="path414" d="M 156.28316,134.77367 C 154.86449,136.05581 155.13827,138.27637 156.69561,139.1463" style="fill:none;stroke:#000;stroke-width:.14814828"/><path id="path416" d="M 144.26419,126.41692 C 142.70685,127.95103 144.19545,132.18641 147.62893,129.87423" style="fill:none;stroke:#000;stroke-width:.14814828"/><path id="path418" d="M 153.19338,131.7742 C 151.08612,133.51429 152.04849,136.67376 155.5282,135.80372" style="fill:none;stroke:#000;stroke-width:.14814828"/><path id="path420" d="M 149.71249,130.44632 C 148.61382,133.56004 149.66745,134.65894 152.13975,134.70481" style="fill:none;stroke:#000;stroke-width:.14814828"/><path id="path422" d="M 141.97441,126.27956 C 140.09707,127.69894 140.60078,129.71376 141.42567,130.62955 C 142.24937,131.54534 143.80552,131.13325 144.30922,129.94273" style="fill:none;stroke:#000;stroke-width:.14814828"/><path id="path424" d="M 138.03603,125.04317 C 135.92996,127.74481 138.03603,130.95002 141.01322,129.98848" style="fill:none;stroke:#000;stroke-width:.14814828"/><path id="path426" d="M 149.30123,133.05634 C 147.14893,133.83477 145.50745,135.78902 146.82775,137.49794 C 147.60641,138.50535 150.99486,138.64271 151.95605,134.75056" style="fill:none;stroke:#000;stroke-width:.14814828"/><path id="path428" d="M 145.40908,130.53793 C 144.17293,132.32377 144.58419,134.018 146.87397,134.88793" style="fill:none;stroke:#000;stroke-width:.14814828"/><path id="path430" d="M 145.2716,133.88052 C 143.943,134.6132 143.07307,135.48324 143.39426,137.08585" style="fill:none;stroke:#000;stroke-width:.14814828"/><path id="path432" d="M 142.29559,131.08739 C 141.79189,133.23957 142.38685,134.56745 143.71426,135.20852" style="fill:none;stroke:#000;stroke-width:.14814828"/><path id="path434" d="M 142.24937,133.65166 C 140.18833,133.51429 139.13589,134.38422 139.82211,136.39904" style="fill:none;stroke:#000;stroke-width:.14814828"/><path id="path436" d="M 140.00581,134.15536 C 137.991,133.42268 137.66981,131.68271 138.53974,129.85112" style="fill:none;stroke:#000;stroke-width:.14814828"/><path id="path438" d="M 138.26596,132.55263 C 136.06744,132.64425 135.10625,133.74315 135.10625,135.25426" style="fill:none;stroke:#000;stroke-width:.14814828"/><path id="path440" d="M 135.28877,123.99002 C 133.6864,124.67683 133.1827,126.82901 133.77766,128.01953 C 134.37381,129.21005 136.25114,129.30167 137.39603,128.52324" style="fill:none;stroke:#000;stroke-width:.14814828"/><path id="path442" d="M 130.80166,122.29579 C 129.33677,123.94427 131.0304,127.14949 133.64136,126.37106" style="fill:none;stroke:#000;stroke-width:.14814828"/><path id="path444" d="M 127.04699,121.01378 C 125.67336,122.93686 127.18447,126.1422 130.7104,125.2264" style="fill:none;stroke:#000;stroke-width:.14814828"/><path id="path446" d="M 130.89292,134.15536 C 130.52669,131.86582 132.90773,130.35482 135.8387,133.33106" style="fill:none;stroke:#000;stroke-width:.14814828"/><path id="path448" d="M 134.41884,128.70635 C 133.54892,129.48478 133.13766,130.72105 133.27396,131.72845" style="fill:none;stroke:#000;stroke-width:.14814828"/><path id="path450" d="M 123.29232,119.91475 C 121.7812,122.47902 123.6135,124.81431 126.86447,123.89852" style="fill:none;stroke:#000;stroke-width:.14814828"/><path id="path452" d="M 131.76403,126.27956 C 129.61173,128.43162 130.34417,130.58368 131.94655,131.82007" style="fill:none;stroke:#000;stroke-width:.14814828"/><path id="path454" d="M 130.38921,128.79796 C 127.13824,128.84371 126.95573,132.5985 129.61173,133.78902" style="fill:none;stroke:#000;stroke-width:.14814828"/><path id="path456" d="M 127.91691,125.04317 C 126.5895,125.95897 126.17706,128.47737 128.46684,129.48478" style="fill:none;stroke:#000;stroke-width:.14814828"/><path id="path458" d="M 127.82565,130.6753 C 126.45202,130.03423 124.80343,130.81266 124.94091,132.41527" style="fill:none;stroke:#000;stroke-width:.14814828"/><path id="path460" d="M 125.76461,130.72105 C 124.52846,127.79055 120.91128,128.29426 121.23246,131.31636" style="fill:none;stroke:#000;stroke-width:.14814828"/><path id="path462" d="M 126.77202,127.10374 C 125.99454,127.2411 124.43721,127.69894 123.84224,128.88958" style="fill:none;stroke:#000;stroke-width:.14814828"/><path id="path464" d="M 124.07098,123.80691 C 122.60609,125.45526 123.7498,127.42421 124.94091,127.8363" style="fill:none;stroke:#000;stroke-width:.14814828"/><path id="path466" d="M 119.72135,119.18219 C 119.44639,121.15114 120.22505,122.11268 122.69735,121.92957" style="fill:none;stroke:#000;stroke-width:.14814828"/><path id="path468" d="M 120.59128,121.70059 C 119.62891,124.08163 120.91128,125.13479 123.38358,124.99743" style="fill:none;stroke:#000;stroke-width:.14814828"/><path id="path470" d="M 121.14002,124.63108 C 119.67513,126.37106 120.68254,128.24851 122.1012,129.02694" style="fill:none;stroke:#000;stroke-width:.14814828"/><path id="path472" d="M 120.45379,126.82901 C 117.84401,126.50842 117.43157,129.53053 118.30149,130.95002" style="fill:none;stroke:#000;stroke-width:.14814828"/><path id="path474" d="M 118.34653,118.95321 C 116.74452,119.64003 115.82872,121.65473 116.69865,122.89111 C 117.56905,124.12738 119.3089,123.71529 120.27009,123.07422" style="fill:none;stroke:#000;stroke-width:.14814828"/><path id="path476" d="M 117.24786,123.44056 C 115.92022,125.45526 117.11038,126.96638 118.53024,127.56158" style="fill:none;stroke:#000;stroke-width:.14814828"/><path id="path478" d="M 112.11968,118.72423 C 111.06665,119.82314 111.70759,122.06693 114.27186,122.11268 C 116.33634,122.14966 117.38535,120.18948 116.74452,118.81585" style="fill:none;stroke:#000;stroke-width:.14814828"/><path id="path480" d="M 113.90552,122.11268 C 113.08134,123.94427 113.58505,125.91322 116.69865,125.59263" style="fill:none;stroke:#000;stroke-width:.14814828"/><path id="path482" d="M 118.02653,128.47737 C 116.10345,127.60744 113.53918,128.47737 114.6382,130.76691" style="fill:none;stroke:#000;stroke-width:.14814828"/><path id="path484" d="M 114.36348,125.2264 C 113.58505,126.32531 113.85977,127.88217 114.7297,128.84371" style="fill:none;stroke:#000;stroke-width:.14814828"/><path id="path486" d="M 114.22611,128.1569 C 112.94398,128.38587 111.70759,129.07269 112.48602,131.08739" style="fill:none;stroke:#000;stroke-width:.14814828"/><path id="path488" d="M 112.30291,129.43903 C 110.65456,128.93533 108.54812,130.12585 109.83026,131.82007" style="fill:none;stroke:#000;stroke-width:.14814828"/><path id="path490" d="M 109.55553,130.21746 C 108.13603,129.98848 106.44193,131.49948 107.81556,133.01059" style="fill:none;stroke:#000;stroke-width:.14814828"/><path id="path492" d="M 107.26611,131.7742 C 105.98397,132.0948 104.47298,133.56004 105.80074,134.70481" style="fill:none;stroke:#000;stroke-width:.14814828"/><path id="path494" d="M 113.72241,124.58534 C 111.89082,125.40951 111.70759,127.47008 112.57764,128.98107" style="fill:none;stroke:#000;stroke-width:.14814828"/><path id="path496" d="M 111.79921,120.7848 C 109.05183,121.83796 109.0977,125.50113 112.11968,126.64578" style="fill:none;stroke:#000;stroke-width:.14814828"/><path id="path498" d="M 110.83767,125.8216 C 109.18931,126.78315 108.86872,128.61473 109.96774,129.80525" style="fill:none;stroke:#000;stroke-width:.14814828"/><path id="path500" d="M 107.95292,119.41105 C 106.8539,119.77739 106.94551,123.16584 109.87613,123.07422" style="fill:none;stroke:#000;stroke-width:.14814828"/><path id="path502" d="M 104.93082,120.55582 C 102.73289,122.02107 105.38865,125.72999 108.96021,123.07422" style="fill:none;stroke:#000;stroke-width:.14814828"/><path id="path504" d="M 106.99126,123.99002 C 106.67079,125.50113 107.08288,127.14949 109.50978,127.33272" style="fill:none;stroke:#000;stroke-width:.14814828"/><path id="path506" d="M 107.12875,126.00483 C 105.38865,126.64578 105.06818,130.21746 108.22765,130.49219" style="fill:none;stroke:#000;stroke-width:.14814828"/><path id="path508" d="M 101.58812,122.75375 C 99.34444,124.81431 103.4197,126.60003 104.93082,123.6238" style="fill:none;stroke:#000;stroke-width:.14814828"/><path id="path510" d="M 98.474515,126.18795 C 97.37549,127.51583 101.22178,130.99589 102.916,125.18054" style="fill:none;stroke:#000;stroke-width:.14814828"/><path id="path512" d="M 103.32821,125.08904 C 103.4197,126.46267 104.244,127.28685 105.93811,127.37846" style="fill:none;stroke:#000;stroke-width:.14814828"/><path id="path514" d="M 105.89236,128.70635 C 103.19085,129.11844 102.3208,132.50688 105.34291,133.23957" style="fill:none;stroke:#000;stroke-width:.14814828"/><path id="path516" d="M 100.9013,128.24851 C 100.80969,129.53053 102.13757,130.58368 103.64868,130.35482" style="fill:none;stroke:#000;stroke-width:.14814828"/><path id="path518" d="M 105.02231,133.14795 C 102.54978,133.6974 102.22918,136.90262 104.42711,136.71951" style="fill:none;stroke:#000;stroke-width:.14814828"/><path id="path520" d="M 103.28246,139.69587 C 101.22178,139.07779 101.17603,136.6279 103.00761,135.7121" style="fill:none;stroke:#000;stroke-width:.14814828"/><path id="path522" d="M 101.58812,137.54369 C 99.848262,138.59685 100.53508,141.11525 101.45075,141.48159 C 102.36655,141.84793 103.09923,141.39009 103.19085,140.61166" style="fill:none;stroke:#000;stroke-width:.14814828"/><path id="path524" d="M 103.05336,144.13736 C 103.23659,145.32788 98.817743,144.87004 101.08453,141.16112" style="fill:none;stroke:#000;stroke-width:.14814828"/><path id="path526" d="M 101.06142,144.34358 C 99.573418,146.67887 102.00032,148.57896 103.53407,146.58737" style="fill:none;stroke:#000;stroke-width:.14814828"/><path id="path528" d="M 101.26764,147.15946 C 100.67232,149.03692 102.93875,150.38779 104.404,148.92254" style="fill:none;stroke:#000;stroke-width:.14814828"/><path id="path530" d="M 96.322451,129.57639 C 95.498154,131.27062 99.619168,131.91156 99.893893,128.43162" style="fill:none;stroke:#000;stroke-width:.14814828"/><path id="path532" d="M 95.177682,132.0948 C 94.353501,135.39163 100.58083,134.70481 98.978218,130.44632" style="fill:none;stroke:#000;stroke-width:.14814828"/><path id="path534" d="M 99.115582,132.64425 C 99.985507,133.14795 102.59564,133.1937 103.23659,130.40057" style="fill:none;stroke:#000;stroke-width:.14814828"/><path id="path536" d="M 101.35926,132.73586 C 101.54237,133.60579 102.3208,134.65894 103.05336,134.97954" style="fill:none;stroke:#000;stroke-width:.14814828"/><path id="path538" d="M 98.382898,133.60579 C 98.108173,135.39163 99.893893,136.85688 101.95446,136.71951" style="fill:none;stroke:#000;stroke-width:.14814828"/><path id="path540" d="M 98.703373,135.34576 C 97.696085,136.71951 97.37549,139.37528 100.53508,139.55851" style="fill:none;stroke:#000;stroke-width:.14814828"/><path id="path542" d="M 93.895546,135.80372 C 93.391843,137.22321 96.368201,138.68846 98.108173,136.35317" style="fill:none;stroke:#000;stroke-width:.14814828"/><path id="path544" d="M 92.979751,139.42103 C 92.727662,140.49729 95.40654,141.93954 96.917654,137.36058" style="fill:none;stroke:#000;stroke-width:.14814828"/><path id="path546" d="M 95.727135,139.69587 C 96.368201,140.84052 98.520262,141.75632 99.848262,139.51264" style="fill:none;stroke:#000;stroke-width:.14814828"/><path id="path548" d="M 97.696085,140.88639 C 97.146632,142.489 98.657743,143.99999 100.48921,143.54216" style="fill:none;stroke:#000;stroke-width:.14814828"/><path id="path550" d="M 94.261887,140.52005 C 93.895546,142.80947 96.551312,144.13736 98.199787,142.94684" style="fill:none;stroke:#000;stroke-width:.14814828"/><path id="path552" d="M 92.521796,141.52746 C 91.743485,144.45795 95.498154,145.55685 96.917654,143.35893" style="fill:none;stroke:#000;stroke-width:.14814828"/><path id="path554" d="M 95.955993,144.22897 C 96.093473,145.87745 98.657743,147.29683 100.67232,145.92319" style="fill:none;stroke:#000;stroke-width:.14814828"/><path id="path556" d="M 91.377143,145.60272 C 91.194032,146.33528 94.261887,147.06797 94.719723,144.5037" style="fill:none;stroke:#000;stroke-width:.14814828"/><path id="path558" d="M 93.162982,146.24367 C 93.895546,148.12112 96.368201,148.57896 97.787698,146.28954" style="fill:none;stroke:#000;stroke-width:.14814828"/><path id="path560" d="M 96.963401,147.20533 C 97.283993,148.9453 99.527671,149.90684 101.49662,148.71632" style="fill:none;stroke:#000;stroke-width:.14814828"/><path id="path562" d="M 102.3208,149.40314 C 101.81721,151.73843 104.244,153.61576 105.755,152.33375" style="fill:none;stroke:#000;stroke-width:.14814828"/><path id="path564" d="M 98.428646,148.99105 C 97.696085,151.55532 100.9013,153.02056 102.68714,151.60107" style="fill:none;stroke:#000;stroke-width:.14814828"/><path id="path566" d="M 94.582362,147.70903 C 94.399251,150.09007 96.276585,151.50945 98.428646,150.45629" style="fill:none;stroke:#000;stroke-width:.14814828"/><path id="path568" d="M 90.507218,147.93789 C 89.866032,149.49475 93.254599,150.77689 94.857087,149.44901" style="fill:none;stroke:#000;stroke-width:.14814828"/><path id="path570" d="M 88.400785,152.19639 C 89.270829,153.20367 92.292938,152.19639 92.567662,149.95271" style="fill:none;stroke:#000;stroke-width:.14814828"/><path id="path572" d="M 91.743485,151.60107 C 92.84239,152.8832 95.452407,153.57002 96.505562,150.82264" style="fill:none;stroke:#000;stroke-width:.14814828"/><path id="path574" d="M 95.589771,152.24213 C 95.543904,154.21108 99.069832,155.63058 100.21448,152.01316" style="fill:none;stroke:#000;stroke-width:.14814828"/><path id="path576" d="M 104.35825,152.72308 C 104.03766,153.68474 104.79345,155.21849 106.37295,155.4016" style="fill:none;stroke:#000;stroke-width:.14814828"/><path id="path578" d="M 101.45075,152.12788 C 101.22178,153.22679 102.8245,154.76054 104.51873,154.14258" style="fill:none;stroke:#000;stroke-width:.14814828"/><path id="path580" d="M 104.8392,154.60054 C 104.38136,155.79106 104.77034,157.50792 106.37295,157.48516" style="fill:none;stroke:#000;stroke-width:.14814828"/><path id="path582" d="M 104.99932,156.8211 C 103.8088,157.82839 104.31239,159.61447 106.02984,159.68321" style="fill:none;stroke:#000;stroke-width:.14814828"/><path id="path584" d="M 104.38136,158.51532 C 102.68714,159.65951 103.28246,162.17802 105.52602,162.04173" style="fill:none;stroke:#000;stroke-width:.14814828"/><path id="path586" d="M 99.252943,153.66163 C 99.252943,156.13429 102.3208,156.50051 102.916,154.21108" style="fill:none;stroke:#000;stroke-width:.14814828"/><path id="path588" d="M 101.7256,155.67633 C 101.26764,157.14157 102.45816,158.56107 104.3355,158.14898" style="fill:none;stroke:#000;stroke-width:.14814828"/><path id="path590" d="M 102.09182,173.35078 C 102.50403,173.94692 104.19813,172.93952 103.7403,171.93211 C 103.28246,170.9247 101.48773,171.47226 101.67973,172.52707" style="fill:none;stroke:#000;stroke-width:.14814828"/><path id="path592" d="M 103.32821,171.51966 C 103.55707,169.50485 101.17603,169.18485 100.58083,170.9247" style="fill:none;stroke:#000;stroke-width:.14814828"/><path id="path594" d="M 101.45075,169.91729 C 102.04607,168.90988 100.03137,167.53625 99.207076,169.00114" style="fill:none;stroke:#000;stroke-width:.14814828"/><path id="path596" d="M 99.939759,168.40618 C 100.48921,166.9401 98.199787,166.3001 98.016557,167.62751" style="fill:none;stroke:#000;stroke-width:.14814828"/><path id="path598" d="M 97.512854,165.70395 C 97.787698,164.97151 100.35185,165.42899 99.252943,166.9401" style="fill:none;stroke:#000;stroke-width:.14814828"/><path id="path600" d="M 101.22178,168.7724 C 102.22918,167.85625 100.53508,165.97892 99.481804,166.66632" style="fill:none;stroke:#000;stroke-width:.14814828"/><path id="path602" d="M 107.99879,171.56589 C 107.19725,171.65715 106.37295,172.18337 106.96827,173.87819 C 107.38107,175.05389 109.14344,175.11433 109.39506,174.40441" style="fill:none;stroke:#000;stroke-width:.14814828"/><path id="path604" d="M 106.83091,172.41211 C 106.05248,171.9084 104.35825,172.75581 105.13668,174.40441 C 105.72276,175.6453 107.19725,175.13685 107.42611,174.49567" style="fill:none;stroke:#000;stroke-width:.14814828"/><path id="path606" d="M 102.45816,174.77063 C 102.84714,175.45685 104.7931,175.16056 105.13668,174.40441" style="fill:none;stroke:#000;stroke-width:.14814828"/><path id="path608" d="M 103.78605,172.50455 C 104.19813,172.22959 104.95345,172.57211 105.11393,172.91581" style="fill:none;stroke:#000;stroke-width:.14814828"/><path id="path610" d="M 103.64868,161.21684 C 102.3208,162.08677 103.14498,164.74277 105.20554,164.05536" style="fill:none;stroke:#000;stroke-width:.14814828"/><path id="path612" d="M 103.23659,163.36914 C 102.18344,164.19284 103.14498,166.75759 105.11393,165.7964" style="fill:none;stroke:#000;stroke-width:.14814828"/><path id="path614" d="M 103.55707,165.7964 C 102.8245,166.52884 103.53407,168.56618 105.43452,168.17744" style="fill:none;stroke:#000;stroke-width:.14814828"/><path id="path616" d="M 103.28246,166.80381 C 102.87025,166.6201 101.7941,166.75759 101.33615,167.44381" style="fill:none;stroke:#000;stroke-width:.14814828"/><path id="path618" d="M 102.09182,157.53103 C 101.08453,158.49257 101.56512,160.46187 103.44246,160.62187" style="fill:none;stroke:#000;stroke-width:.14814828"/><path id="path620" d="M 101.7256,159.54573 C 100.28299,160.25565 100.28299,163.11669 103.16773,163.23165" style="fill:none;stroke:#000;stroke-width:.14814828"/><path id="path622" d="M 101.61087,162.77417 C 100.80969,163.41536 101.19878,165.88766 103.25935,165.56647" style="fill:none;stroke:#000;stroke-width:.14814828"/><path id="path624" d="M 102.27505,165.47521 C 101.97721,165.7727 101.93135,166.52884 102.18344,166.84884" style="fill:none;stroke:#000;stroke-width:.14814828"/><path id="path626" d="M 101.35926,164.53655 C 100.62669,164.55906 99.665034,165.08647 99.412946,165.84144" style="fill:none;stroke:#000;stroke-width:.14814828"/><path id="path628" d="M 98.085062,163.18543 C 98.359787,162.45299 100.62669,162.49921 100.78669,164.65151" style="fill:none;stroke:#000;stroke-width:.14814828"/><path id="path630" d="M 101.01567,162.08677 C 100.69508,162.15551 100.07712,162.45299 99.916768,163.07165" style="fill:none;stroke:#000;stroke-width:.14814828"/><path id="path632" d="M 100.03137,155.37885 C 99.046721,156.27165 98.566129,159.08789 101.56512,159.63699" style="fill:none;stroke:#000;stroke-width:.14814828"/><path id="path634" d="M 98.039312,161.19432 C 98.039312,160.43817 100.07712,159.79699 100.78669,160.91936" style="fill:none;stroke:#000;stroke-width:.14814828"/><path id="path636" d="M 96.734423,157.09583 C 97.031904,157.66839 98.451401,158.44682 99.321448,157.80576" style="fill:none;stroke:#000;stroke-width:.14814828"/><path id="path638" d="M 89.362326,152.60847 C 89.316696,153.93636 90.415601,155.12688 91.926596,154.94377 C 93.43759,154.76054 93.758182,153.43265 93.300226,152.56261" style="fill:none;stroke:#000;stroke-width:.14814828"/><path id="path640" d="M 92.155574,154.98951 C 91.148165,156.22578 92.384551,157.96587 93.529204,157.46217" style="fill:none;stroke:#000;stroke-width:.14814828"/><path id="path642" d="M 93.300226,154.11947 C 93.895546,153.89049 95.864496,153.61576 96.459696,154.53156" style="fill:none;stroke:#000;stroke-width:.14814828"/><path id="path644" d="M 86.935541,154.48581 C 86.477582,155.17262 89.316696,155.85956 90.278121,154.53156" style="fill:none;stroke:#000;stroke-width:.14814828"/><path id="path646" d="M 89.316696,155.21849 C 89.224963,156.13429 89.682921,157.69103 92.01821,157.05008" style="fill:none;stroke:#000;stroke-width:.14814828"/><path id="path648" d="M 92.384551,158.46946 C 92.750774,157.69103 91.010801,156.40901 89.682921,157.82839 C 88.355038,159.24789 89.866032,160.85062 90.690329,160.30069" style="fill:none;stroke:#000;stroke-width:.14814828"/><path id="path650" d="M 86.294471,155.4016 C 85.607657,156.59212 88.263421,158.7673 89.774535,156.7526" style="fill:none;stroke:#000;stroke-width:.14814828"/><path id="path652" d="M 84.531388,157.46217 C 83.569846,158.44682 84.760366,160.25565 86.202857,159.70573 C 87.64511,159.15639 87.507746,157.64528 87.164518,157.2563" style="fill:none;stroke:#000;stroke-width:.14814828"/><path id="path654" d="M 82.677166,159.29376 C 81.898735,160.00321 82.654055,161.67432 83.730321,161.67432 C 84.806116,161.67432 85.470293,160.8281 85.264071,159.75195" style="fill:none;stroke:#000;stroke-width:.14814828"/><path id="path656" d="M 87.04991,159.15639 C 86.912429,160.20943 88.46929,160.94187 89.476699,159.95817" style="fill:none;stroke:#000;stroke-width:.14814828"/><path id="path658" d="M 89.522446,158.03473 C 89.65981,157.80576 89.545557,157.4163 89.316696,157.23319" style="fill:none;stroke:#000;stroke-width:.14814828"/><path id="path660" d="M 81.005577,160.71314 C 80.112896,161.42306 82.036096,163.39165 83.249255,161.58306" style="fill:none;stroke:#000;stroke-width:.14814828"/><path id="path662" d="M 87.897082,160.32439 C 87.324518,160.87314 88.24031,162.31551 89.156104,161.88054" style="fill:none;stroke:#000;stroke-width:.14814828"/><path id="path664" d="M 84.760366,161.3318 C 84.897729,162.31551 86.820932,163.04795 88.034443,161.53802" style="fill:none;stroke:#000;stroke-width:.14814828"/><path id="path666" d="M 85.813524,162.31551 C 85.516041,162.93417 86.11136,163.91906 86.843924,163.78158" style="fill:none;stroke:#000;stroke-width:.14814828"/><path id="path668" d="M 104.03766,167.97122 C 103.32821,169.36737 105.59452,170.99344 107.243,169.29862" style="fill:none;stroke:#000;stroke-width:.14814828"/><path id="path670" d="M 105.68613,170.05477 C 105.34291,170.80974 105.755,171.86337 106.37295,172.25211" style="fill:none;stroke:#000;stroke-width:.14814828"/><path id="path672" d="M 103.53407,171.63463 C 103.69455,170.94722 104.67873,170.30603 105.57188,170.62722" style="fill:none;stroke:#000;stroke-width:.14814828"/><path id="path674" d="M 102.34355,169.82485 C 102.48092,169.20737 103.3051,168.5887 103.92341,168.74988" style="fill:none;stroke:#000;stroke-width:.14814828"/><path id="path676" d="M 156.26064,141.25261 C 153.00968,141.29848 154.38331,146.51851 157.17679,145.46524" style="fill:none;stroke:#000;stroke-width:.14814828"/><path id="path678" d="M 155.2082,145.09902 C 154.56701,146.15217 155.80316,147.82364 157.17679,146.83899" style="fill:none;stroke:#000;stroke-width:.14814828"/><path id="path680" d="M 156.81057,147.04521 C 155.8482,148.64782 159.28287,151.09736 160.6565,148.57896" style="fill:none;stroke:#000;stroke-width:.14814828"/><path id="path682" d="M 159.55783,149.5405 C 159.60287,151.05161 163.99873,152.01316 163.35873,148.99105" style="fill:none;stroke:#000;stroke-width:.14814828"/><path id="path684" d="M 162.94628,150.63952 C 163.99873,152.42524 167.9371,152.60847 167.52465,149.95271" style="fill:none;stroke:#000;stroke-width:.14814828"/><path id="path686" d="M 166.65473,151.7843 C 167.47962,152.97482 171.32555,153.70738 171.18806,151.23472" style="fill:none;stroke:#000;stroke-width:.14814828"/><path id="path688" d="M 151.04108,136.71951 C 151.58982,138.13901 153.46716,138.64271 155.5282,137.81842" style="fill:none;stroke:#000;stroke-width:.14814828"/><path id="path690" d="M 149.84997,137.72692 C 151.13234,138.5511 149.25501,142.30577 147.28641,140.79478" style="fill:none;stroke:#000;stroke-width:.14814828"/><path id="path692" d="M 149.84997,140.06209 C 151.26982,140.74903 153.00968,140.24532 153.51338,138.23051" style="fill:none;stroke:#000;stroke-width:.14814828"/><path id="path694" d="M 152.64345,139.78737 C 152.78094,140.84052 154.29205,141.66482 156.26064,141.25261" style="fill:none;stroke:#000;stroke-width:.14814828"/><path id="path696" d="M 149.11753,140.88639 C 150.94982,142.44325 148.29382,145.64847 147.10271,144.18322" style="fill:none;stroke:#000;stroke-width:.14814828"/><path id="path698" d="M 149.80494,142.07691 C 150.67486,142.71798 152.91842,142.35164 153.14716,140.65741" style="fill:none;stroke:#000;stroke-width:.14814828"/><path id="path700" d="M 152.13975,142.07691 C 152.32345,143.17581 153.19338,143.5879 154.42953,143.63377" style="fill:none;stroke:#000;stroke-width:.14814828"/><path id="path702" d="M 149.30123,143.5879 C 150.21619,144.87004 152.50597,145.23638 153.51338,143.54216" style="fill:none;stroke:#000;stroke-width:.14814828"/><path id="path704" d="M 152.50597,144.5037 C 152.41472,145.74008 153.78835,146.74737 155.2082,146.47265" style="fill:none;stroke:#000;stroke-width:.14814828"/><path id="path706" d="M 147.51515,147.25108 C 148.70508,147.84628 149.98745,145.60272 148.98004,144.04586" style="fill:none;stroke:#000;stroke-width:.14814828"/><path id="path708" d="M 148.88879,149.63212 C 150.30864,149.72373 150.49116,147.57167 149.16375,146.38103" style="fill:none;stroke:#000;stroke-width:.14814828"/><path id="path710" d="M 152.13975,151.60107 C 153.33086,151.32634 152.96345,148.71632 150.07871,148.48734" style="fill:none;stroke:#000;stroke-width:.14814828"/><path id="path712" d="M 155.75694,153.52427 C 156.90183,153.20367 155.98568,150.31893 152.82716,150.50216" style="fill:none;stroke:#000;stroke-width:.14814828"/><path id="path714" d="M 160.10776,154.53156 C 160.88524,153.34104 158.32168,151.32634 156.21561,152.3795" style="fill:none;stroke:#000;stroke-width:.14814828"/><path id="path716" d="M 162.25887,156.18003 C 163.67873,156.59212 164.63991,152.83745 160.1528,153.43265" style="fill:none;stroke:#000;stroke-width:.14814828"/><path id="path718" d="M 164.86865,156.18003 C 166.10599,155.85956 166.97591,153.61576 163.35873,154.34845" style="fill:none;stroke:#000;stroke-width:.14814828"/><path id="path720" d="M 167.6171,156.36314 C 168.71577,156.91272 169.21947,153.70738 165.87606,154.57742" style="fill:none;stroke:#000;stroke-width:.14814828"/><path id="path722" d="M 149.16375,146.38103 C 150.53738,147.15946 152.68968,146.24367 152.50597,144.5037" style="fill:none;stroke:#000;stroke-width:.14814828"/><path id="path724" d="M 151.95605,146.01481 C 152.41472,146.83899 152.23101,148.4416 151.36109,148.85369" style="fill:none;stroke:#000;stroke-width:.14814828"/><path id="path726" d="M 152.09353,147.93789 C 153.00968,148.30423 154.24583,147.98376 154.97827,146.51851" style="fill:none;stroke:#000;stroke-width:.14814828"/><path id="path728" d="M 153.69708,147.93789 C 153.97086,148.57896 154.06331,149.86109 153.46716,150.50216" style="fill:none;stroke:#000;stroke-width:.14814828"/><path id="path730" d="M 153.92583,149.03692 C 154.93323,149.58637 156.12316,148.85369 156.62687,147.80053" style="fill:none;stroke:#000;stroke-width:.14814828"/><path id="path732" d="M 155.98568,148.71632 C 156.71813,149.17428 157.35931,151.32634 156.12316,152.19639" style="fill:none;stroke:#000;stroke-width:.14814828"/><path id="path734" d="M 156.81057,151.18898 C 157.6805,151.23472 158.96287,151.23472 159.78657,150.13582" style="fill:none;stroke:#000;stroke-width:.14814828"/><path id="path736" d="M 159.19161,150.73102 C 159.97028,150.96 160.88524,152.24213 160.56524,153.38691" style="fill:none;stroke:#000;stroke-width:.14814828"/><path id="path738" d="M 160.61028,152.97482 C 161.48139,152.8832 162.99132,152.28788 163.40376,151.23472" style="fill:none;stroke:#000;stroke-width:.14814828"/><path id="path740" d="M 162.99132,151.92166 C 163.72495,152.33375 164.22865,153.20367 164.13621,154.21108" style="fill:none;stroke:#000;stroke-width:.14814828"/><path id="path742" d="M 164.13621,153.4784 C 165.00613,153.43265 165.7848,152.97482 166.01354,152.01316" style="fill:none;stroke:#000;stroke-width:.14814828"/><path id="path744" d="M 165.7848,152.65422 C 166.42599,152.8832 167.20465,153.61576 167.25088,154.48581" style="fill:none;stroke:#000;stroke-width:.14814828"/><path id="path746" d="M 167.15843,153.93636 C 167.79962,153.84474 168.2571,153.43265 168.66955,152.79159" style="fill:none;stroke:#000;stroke-width:.14814828"/><path id="path748" d="M 170.4094,152.69997 C 171.23429,153.52427 170.13562,156.27165 168.4408,155.76794" style="fill:none;stroke:#000;stroke-width:.14814828"/><path id="path750" d="M 152.82716,97.20327 C 151.13234,98.21055 146.32404,97.89008 148.70508,93.90643" style="fill:none;stroke:#000;stroke-width:.14814828"/><path id="path752" d="M 153.28464,94.50163 C 149.94242,95.82952 145.82034,93.26537 150.12494,90.47224" style="fill:none;stroke:#000;stroke-width:.14814828"/><path id="path754" d="M 148.98004,89.55632 C 146.18656,89.55632 144.30922,94.0438 148.06508,95.60054" style="fill:none;stroke:#000;stroke-width:.14814828"/><path id="path756" d="M 138.12848,91.43378 C 137.39603,92.85316 140.00581,94.41002 141.79189,92.99064 C 143.175,91.89091 143.07307,88.91537 142.24937,87.77061" style="fill:none;stroke:#000;stroke-width:.14814828"/><path id="path758" d="M 136.70862,94.82223 C 135.79247,97.84421 142.52434,98.02744 141.4707,93.2195" style="fill:none;stroke:#000;stroke-width:.14814828"/><path id="path760" d="M 136.3424,99.30958 C 136.57114,101.599 142.7993,100.86644 140.7833,96.2416" style="fill:none;stroke:#000;stroke-width:.14814828"/><path id="path762" d="M 141.51693,94.95959 C 142.02063,95.6464 143.39426,96.83692 145.72908,96.60795" style="fill:none;stroke:#000;stroke-width:.14814828"/><path id="path764" d="M 142.61559,91.70851 C 142.82182,92.53268 144.21797,93.17375 146.00404,92.55579" style="fill:none;stroke:#000;stroke-width:.14814828"/><path id="path766" d="M 80.135652,161.37684 C 78.556035,162.49921 80.982941,164.26158 81.875624,162.31551" style="fill:none;stroke:#000;stroke-width:.14814828"/><path id="path768" d="M 78.899266,162.24795 C 77.319766,163.36914 79.746555,165.13151 80.639355,163.18543" style="fill:none;stroke:#000;stroke-width:.14814828"/><path id="path770" d="M 77.594494,163.09417 C 76.014522,164.21655 78.441427,165.97892 79.334466,164.03284" style="fill:none;stroke:#000;stroke-width:.14814828"/><path id="path772" d="M 76.220863,163.87284 C 74.709749,164.67403 76.472477,166.64262 78.006583,164.90277" style="fill:none;stroke:#000;stroke-width:.14814828"/><path id="path774" d="M 74.732505,164.62899 C 73.221394,165.42899 74.984477,167.39877 76.518344,165.65892" style="fill:none;stroke:#000;stroke-width:.14814828"/><path id="path776" d="M 82.402438,162.27047 C 82.379327,163.43788 84.600366,163.91906 85.401435,162.17802" style="fill:none;stroke:#000;stroke-width:.14814828"/><path id="path778" d="M 83.798824,163.34662 C 83.11201,164.21655 84.371388,165.29269 85.058204,164.90277" style="fill:none;stroke:#000;stroke-width:.14814828"/><path id="path780" d="M 80.845577,163.18543 C 80.776719,164.17032 82.699802,164.74277 83.638707,163.66662" style="fill:none;stroke:#000;stroke-width:.14814828"/><path id="path782" d="M 81.898735,164.21655 C 81.280424,165.01773 82.493935,166.09388 83.272366,165.7727" style="fill:none;stroke:#000;stroke-width:.14814828"/><path id="path784" d="M 79.563444,164.07906 C 79.631946,164.85773 80.730852,165.75018 81.921491,165.24647" style="fill:none;stroke:#000;stroke-width:.14814828"/><path id="path786" d="M 80.273016,165.13151 C 79.815057,165.54395 80.044155,166.50632 80.685105,166.80381" style="fill:none;stroke:#000;stroke-width:.14814828"/><path id="path788" d="M 77.891974,165.06277 C 77.708863,165.7727 78.922377,167.03255 80.158644,166.20766" style="fill:none;stroke:#000;stroke-width:.14814828"/><path id="path790" d="M 78.143946,165.88766 C 77.411383,166.4601 77.50288,167.33003 78.441427,167.44381" style="fill:none;stroke:#000;stroke-width:.14814828"/><path id="path792" d="M 76.380863,165.7964 C 76.289366,166.2764 76.907677,167.05507 77.686108,166.96381" style="fill:none;stroke:#000;stroke-width:.14814828"/><path id="path794" d="M 72.466074,165.75018 C 71.733511,166.13892 73.610844,168.13122 74.778255,166.2764" style="fill:none;stroke:#000;stroke-width:.14814828"/><path id="path796" d="M 70.657241,166.57388 C 69.74145,167.01003 72.008116,169.20737 73.015644,166.96381" style="fill:none;stroke:#000;stroke-width:.14814828"/><path id="path798" d="M 76.587085,166.48262 C 75.877158,166.64262 75.419322,167.67374 76.014522,168.08499" style="fill:none;stroke:#000;stroke-width:.14814828"/><path id="path800" d="M 74.274549,166.84884 C 74.182936,167.26129 75.05298,167.94751 75.763024,167.69625" style="fill:none;stroke:#000;stroke-width:.14814828"/><path id="path802" d="M 73.679349,167.03255 C 72.992533,167.46751 73.358755,168.67996 74.160297,168.49744" style="fill:none;stroke:#000;stroke-width:.14814828"/><path id="path804" d="M 71.229805,167.83374 C 70.588738,168.31374 71.023583,169.2761 71.916622,169.04737" style="fill:none;stroke:#000;stroke-width:.14814828"/><path id="path806" d="M 72.397213,167.76499 C 72.420324,168.01625 72.992533,168.40618 73.473483,168.24618" style="fill:none;stroke:#000;stroke-width:.14814828"/><path id="path808" d="M 69.008766,167.35255 C 68.2077,167.69625 68.253447,169.71107 70.95508,168.6124" style="fill:none;stroke:#000;stroke-width:.14814828"/><path id="path810" d="M 67.200291,168.15374 C 66.078275,168.70366 66.444616,170.21477 68.894513,168.7724" style="fill:none;stroke:#000;stroke-width:.14814828"/><path id="path812" d="M 69.10038,168.88737 C 68.8029,169.1161 68.482425,170.12351 69.604086,169.73359" style="fill:none;stroke:#000;stroke-width:.14814828"/><path id="path814" d="M 67.039816,169.36737 C 66.58198,169.77981 66.879816,170.62722 67.887225,170.30603" style="fill:none;stroke:#000;stroke-width:.14814828"/><path id="path816" d="M 64.681889,169.50485 C 63.857711,169.98603 65.666186,170.62722 66.879816,169.34485" style="fill:none;stroke:#000;stroke-width:.14814828"/><path id="path818" d="M 65.231458,170.09981 C 64.865,170.46603 64.865,171.54218 65.826661,171.15344" style="fill:none;stroke:#000;stroke-width:.14814828"/><path id="path820" d="M 62.89605,170.53477 C 62.346597,170.94722 63.285147,171.49715 65.002364,170.741" style="fill:none;stroke:#000;stroke-width:.14814828"/><path id="path822" d="M 63.582983,171.13092 C 62.941917,171.65715 63.010419,172.32085 63.949205,172.11463" style="fill:none;stroke:#000;stroke-width:.14814828"/><path id="path824" d="M 61.682536,171.4284 C 60.972967,172.06959 62.003011,172.50455 63.239397,171.97715" style="fill:none;stroke:#000;stroke-width:.14814828"/><path id="path826" d="M 61.705647,172.13833 C 60.492017,172.68707 61.018714,173.69448 61.774153,173.30574" style="fill:none;stroke:#000;stroke-width:.14814828"/><path id="path828" d="M 102.22918,175.64056 C 101.94782,176.24619 102.87025,176.73922 103.7403,176.60174 C 104.57597,176.47019 105.37538,175.78159 104.74759,174.81685" style="fill:none;stroke:#000;stroke-width:.14814828"/><path id="path830" d="M 104.79345,176.00678 C 105.61763,176.64797 107.08288,175.91552 107.08288,174.95315" style="fill:none;stroke:#000;stroke-width:.14814828"/><path id="path834" d="M 155.29946,78.97901 C 151.63605,77.14742 144.03545,73.75898 141.88315,76.50636 C 143.85174,75.68218 149.62123,76.55222 154.38331,80.94796 L 155.29946,78.97901 z" style="fill:#fff;stroke:#000;stroke-width:.14814828"/><path id="path836" d="M 157.5205,78.78476 C 153.28464,73.85059 150.78982,74.95507 147.7439,73.25539 C 144.88285,71.65847 140.32581,71.33219 139.44285,73.87181 C 143.623,71.83589 147.46064,74.96656 149.81797,75.34535 C 153.0559,75.86529 154.88346,78.36828 155.83042,79.51958 L 157.5205,78.78476 z" style="fill:#fff;stroke:#000;stroke-width:.14814828"/><path id="path838" d="M 173.47785,78.15483 C 171.27933,73.11803 166.57888,74.43346 164.50243,72.29373 C 161.48139,69.18013 153.83457,66.29538 150.67486,68.44744 C 157.63427,68.0811 160.59843,73.24472 164.31991,75.04111 C 166.97591,76.32324 169.81443,79.07063 173.47785,78.15483 z" style="fill:#fff;stroke:#000;stroke-width:.14814828"/><path id="path840" d="M 165.23606,77.60538 C 161.48139,72.9348 155.71072,68.81379 153.0559,70.37065 C 156.53561,70.55376 157.63427,72.98066 160.10776,74.53741 C 162.58006,76.09427 161.48139,78.33794 165.23606,77.60538 z" style="fill:#fff;stroke:#000;stroke-width:.14814828"/><path id="path842" d="M 147.37767,85.8474 C 143.4393,84.38216 135.74744,83.64959 132.17529,88.13694 C 138.12848,89.14424 147.10271,88.59478 147.37767,85.8474 z" style="fill:#fff;stroke:#000;stroke-width:.14814828"/><path id="path844" d="M 146.64523,87.58749 C 142.70685,85.75591 139.63129,88.31425 135.92996,87.95372 C 128.87928,87.2669 123.84224,87.67899 123.20106,91.06744 C 127.23069,87.45013 134.00759,90.42637 136.75485,89.69381 C 139.50211,88.96112 149.66745,89.60219 152.8722,90.97582 C 151.2236,88.96112 148.66004,88.41167 146.64523,87.58749 z" style="fill:#fff;stroke:#000;stroke-width:.14814828"/><path id="path846" d="M 159.00791,77.10168 C 158.09294,74.07957 158.13798,70.87423 162.67132,71.10321 C 161.52643,69.68371 157.31427,68.95115 156.62687,74.26268 C 151.63605,70.59951 146.18656,69.95856 145.18034,73.11803 C 147.7439,70.9201 151.72731,72.52271 156.48938,77.92585 C 156.90183,77.69688 158.0005,77.23904 159.00791,77.10168 z" style="fill:#fff;stroke:#000;stroke-width:.14814828"/><path id="path848" d="M 152.13975,81.26844 C 149.30123,79.43697 145.45412,76.46061 152.18597,75.27009 C 149.30123,73.71323 145.08789,74.40004 145.54656,79.71169 C 137.85352,76.59797 132.32936,77.64888 131.16788,80.71898 C 129.88551,84.10743 134.64877,85.98477 135.47247,83.83271 C 134.60255,84.19904 131.62655,83.19164 133.1827,81.26844 C 134.74003,79.34535 142.7187,80.78903 150.30864,84.7485 C 152.41472,85.8474 159.64909,85.66429 152.13975,81.26844 z" style="fill:#fff;stroke:#000;stroke-width:.14814828"/><path id="path850" d="M 150.12494,86.30536 C 147.93471,81.83329 140.82952,85.89327 139.39781,81.56153 C 137.44107,87.90797 149.50153,84.39626 150.12494,86.30536 z" style="fill:#fff;stroke:#000;stroke-width:.14814828"/><path id="path852" d="M 195.31964,91.15905 C 196.80942,91.89932 198.09772,90.73559 195.81861,89.82276 C 197.30957,90.56267 198.60972,89.42667 196.33061,88.51348 C 197.82157,89.25339 199.12172,88.11751 196.84261,87.20432 C 196.23461,87.81635 195.36468,90.06003 195.31964,91.15905 z" style="fill:#fff;stroke:#000;stroke-width:.14814828"/><path id="path856" d="M 196.09713,82.55057 C 199.39432,79.07063 195.82335,77.88011 199.8518,74.30855 C 203.14899,71.38635 200.48113,69.43873 203.60765,67.16531 C 204.61506,66.43275 206.8124,64.9675 206.9961,63.50214 C 208.32351,66.79897 202.87402,67.25693 203.24024,72.56846 C 203.47373,75.95039 201.1875,75.65504 200.31046,81.36005 C 200.12676,82.55057 199.30306,85.20634 196.09713,82.55057 z" style="fill:#fff;stroke:#000;stroke-width:.14814828"/><path id="path858" d="M 197.5632,84.10743 C 199.39432,80.16953 201.49684,80.24538 202.5078,78.70428 C 204.43136,75.77379 208.50603,79.20799 211.9407,76.59797 C 211.34574,80.30689 206.72114,78.97901 204.70632,81.36005 C 202.69151,83.74109 201.04291,84.84011 197.5632,84.10743 z" style="fill:#fff;stroke:#000;stroke-width:.14814828"/><path id="path860" d="M 198.02069,85.38956 C 201.22661,82.8253 203.58869,84.53599 205.80499,83.19164 C 211.39077,79.80319 213.63552,83.87845 218.62633,82.27584 C 217.29774,85.48106 209.92588,82.7338 206.72114,85.11484 C 203.51521,87.49588 192.2512,89.7853 198.02069,85.38956 z" style="fill:#fff;stroke:#000;stroke-width:.14814828"/><path id="path864" d="M 188.68023,103.65957 C 188.63401,102.19432 187.26038,100.31687 185.33682,100.08801 C 183.41445,99.85903 182.58956,97.84421 181.12467,97.75272 C 179.65978,97.6611 178.69741,94.73061 176.68259,94.77636 C 174.66777,94.82223 173.84407,97.43212 178.55993,99.81316 C 183.27697,102.19432 188.49653,104.94159 188.68023,103.65957 z" style="fill:#fff;stroke:#000;stroke-width:.14814828"/><path id="path868" d="M 182.72704,104.89584 C 180.71222,104.98745 180.43726,107.91794 178.51489,108.00956 C 181.16971,109.42905 183.09326,107.36849 184.46689,105.5369 L 182.72704,104.89584 z" style="fill:#fff;stroke:#000;stroke-width:.14814828"/><path id="path870" d="M 184.37563,105.26218 C 182.63578,106.72742 182.13208,109.79528 184.6506,110.66532 C 183.13948,108.58189 187.3066,107.64322 186.02423,105.72002 L 184.37563,105.26218 z" style="fill:#fff;stroke:#000;stroke-width:.14814828"/><path id="path872" d="M 186.11549,105.35379 C 184.74186,108.00956 188.26779,108.33003 187.35164,110.34485 C 189.36645,109.88689 189.68764,106.08635 187.85534,105.07895 L 186.11549,105.35379 z" style="fill:#fff;stroke:#000;stroke-width:.14814828"/><path id="path874" d="M 172.65296,99.6758 C 175.95015,99.49269 178.96526,101.27628 180.98719,104.16327 C 182.26956,105.99474 186.57297,106.72742 188.03904,105.26218 C 189.50394,103.79693 188.68023,100.68321 185.01682,101.69062 C 184.10067,100.13376 181.44467,100.68321 180.16348,99.40107 C 178.88111,98.11906 173.93533,94.45589 172.65296,99.6758 z" style="fill:#fff;stroke:#000;stroke-width:.14814828"/><path id="path876" d="M 185.01682,101.69062 C 184.14689,101.87373 183.87193,103.38484 184.42067,104.16327" style="fill:#fff;stroke:#000;stroke-width:.14814828;stroke-linecap:round"/><path id="path878" d="M 186.89416,102.60641 C 187.16912,103.06425 186.98541,103.70532 186.84793,104.02591" style="fill:#fff;stroke:#000;stroke-width:.14814828;stroke-linecap:round"/><path id="path880" d="M 177.8737,99.81316 C 179.56733,99.90478 179.88852,101.14117 181.71963,101.599" style="fill:#fff;stroke:#000;stroke-width:.14814828;stroke-linecap:round"/><path id="path882" d="M 176.75489,95.6464 C 182.60615,97.11165 187.24853,98.39379 190.12734,100.04214 C 193.00616,101.69062 197.46365,102.14845 201.36409,101.04955 C 205.26454,99.95065 212.78574,98.94324 212.41477,103.79693 C 214.45922,101.37002 211.85774,98.76001 206.65714,98.30217 C 206.75077,95.92113 204.20262,93.76895 202.37032,95.18845 C 204.06514,94.95959 205.52765,98.11906 202.18543,99.40107 C 202.83491,97.02004 200.46691,94.86797 198.00646,95.92113 C 199.58513,96.37897 201.18158,99.02632 197.64972,100.04214 C 195.42039,100.68321 192.17061,99.85903 189.75638,98.39379 C 187.34216,96.92842 173.78362,91.61689 176.75489,95.6464 z" style="fill:#fff;stroke:#000;stroke-width:.14814828"/><path id="path886" d="M 191.51875,93.26537 C 189.68764,94.08954 190.87757,96.01275 188.03904,97.11165 C 185.19934,98.21055 183.23074,100.72896 183.87193,102.88114 C 185.79549,98.66851 189.18394,98.85162 190.37386,97.20327 C 191.56497,95.55479 193.30483,93.128 191.51875,93.26537 z" style="fill:#fff;stroke:#000;stroke-width:.14814828"/><path id="path888" d="M 192.02246,93.54009 C 191.9312,96.88267 189.30008,95.66501 190.32764,100.36274 C 190.64882,101.82798 191.24379,104.20902 190.23638,106.59006 C 193.18986,104.438 191.29001,99.91687 192.61742,98.21055 C 193.25861,97.38638 194.08231,96.10424 194.4035,95.00534 C 193.71609,96.92842 193.76231,100.5001 195.63964,101.41589 C 194.12853,97.84421 199.7155,94.91372 195.86839,90.79271 C 195.31964,91.80012 193.57861,93.58584 192.02246,93.54009 z" style="fill:#fff;stroke:#000;stroke-width:.14814828"/><path id="path890" d="M 182.68082,90.19739 C 183.13948,90.88421 183.59697,92.6243 183.18452,93.58584 C 184.10067,93.03639 185.42926,91.61689 185.84053,90.65535 C 187.71786,90.93007 188.45031,93.26537 186.66541,94.27266 C 187.76408,94.27266 189.64142,94.27266 190.69386,93.03639 C 189.41268,91.61689 185.42926,89.41896 182.68082,90.19739 z" style="fill:#fff;stroke:#000;stroke-width:.14814828"/><path id="path892" d="M 154.1996,83.6279 C 153.90331,83.35792 153.40316,83.10121 152.50597,82.91691 C 149.73382,82.34838 151.16553,79.84941 153.52523,79.87169 C 158.56109,74.37705 161.38895,78.61267 167.52465,76.8727 C 169.67221,76.26387 171.14658,76.44378 172.31636,76.94997 C 175.06363,75.11838 178.28615,75.63015 180.62215,77.78233 C 180.88171,77.36941 181.23015,77.05439 181.71963,76.91844 C 183.87074,76.32099 185.6106,78.15519 186.20556,80.53623 C 187.8826,80.22559 189.79786,81.05569 191.05771,82.20035 C 192.80231,81.30435 194.00409,81.26453 194.44616,82.18577 C 196.0035,81.45309 198.02069,80.99371 199.02809,83.46636 C 200.0355,85.93902 196.64705,85.20634 196.09713,90.42637 C 195.75816,93.64664 192.15994,94.91372 189.32023,92.99064 C 184.7786,89.91389 180.346,89.41896 178.14748,94.08954 C 175.95015,98.76001 174.22807,101.47373 168.89829,99.95065 C 166.97591,99.40107 164.50243,100.13376 162.94628,102.24007 C 161.38895,104.34638 159.00791,102.37743 156.16938,102.60641 C 159.74035,102.05696 158.37265,101.15871 161.48139,100.95794 C 164.31991,100.77482 163.58747,98.11906 165.41858,97.75272 C 158.27546,99.5843 158.55042,96.92842 152.68968,98.76001 C 155.25323,95.46317 159.28287,97.29476 161.29768,95.37168 C 155.98568,95.28006 153.61057,91.80996 151.2236,93.26537 C 147.46893,95.55479 149.11634,102.07308 139.3184,101.50739 C 134.55633,101.23266 131.5341,101.87373 128.69558,104.71272 C 133.64136,94.45589 140.36848,100.09085 143.623,96.83692 C 145.54656,94.91372 147.01145,93.44848 148.01886,91.61689 C 148.37323,90.97215 148.85323,90.60367 149.45293,90.46121 C 141.30241,87.89694 146.2316,83.90263 154.1996,83.6279 z" style="fill:#fff;stroke:#000;stroke-width:.14814828"/><path id="path894" d="M 194.44379,82.18684 C 194.56824,82.44438 194.63224,82.77848 194.63224,83.19164 C 194.63224,85.20634 191.61001,85.29795 191.42749,88.27431 C 191.33149,89.83117 191.15253,90.7011 190.0989,90.51799 C 189.04645,90.33476 188.13031,88.6864 189.13771,86.7632" style="fill:#fff;stroke:#000;stroke-width:.14814828;stroke-linecap:round"/><path id="path896" d="M 155.71072,80.62749 C 154.9522,80.09451 154.19368,79.87798 153.51338,79.87169" style="fill:#fff;stroke:#000;stroke-width:.14814828"/><path id="path898" d="M 172.29977,76.93539 C 174.72466,77.98523 175.90748,80.50399 179.42985,80.62749 C 182.82067,80.74648 184.92556,85.66429 190.6026,82.45896 C 190.75668,82.3722 190.9072,82.29125 191.05298,82.21611" style="fill:#fff;stroke:#000;stroke-width:.14814828"/><path id="path900" d="M 180.62215,77.78233 C 180.11608,78.58707 180.00111,79.71039 180.13978,80.69611" style="fill:#fff;stroke:#000;stroke-width:.14814828"/><path id="path902" d="M 169.53947,88.13694 C 165.23606,88.13694 164.13621,90.33476 164.13621,92.44107 C 164.13621,94.54738 166.15102,97.29476 169.72318,97.29476 C 173.29414,97.29476 175.2177,95.09695 175.2177,92.71591 C 175.2177,90.33476 173.01918,88.13694 169.53947,88.13694 z" style="fill:#fff;stroke:#000;stroke-width:.14814828"/><path id="path904" d="M 170.31814,97.20327 C 170.22688,96.01275 168.07458,96.19586 168.16584,95.28006 C 168.2571,94.36427 169.35695,93.99793 169.35695,92.71591 C 169.35695,91.43378 171.27933,91.34216 171.92051,92.34957 C 172.5617,93.35686 174.48525,95.32581 174.8977,94.31852" style="fill:#fff;stroke:#000;stroke-width:.14814828"/><path id="path906" d="M 171.92051,92.34957 C 170.9131,93.35686 170.45562,95.41743 171.78303,97.02004" style="fill:#fff;stroke:#000;stroke-width:.14814828"/><path id="path908" d="M 173.29414,93.90643 C 172.97414,94.59325 172.88288,95.6464 173.24911,96.28747" style="fill:#fff;stroke:#000;stroke-width:.14814828"/><path id="path910" d="M 190.39638,90.5411 C 193.76231,90.81582 194.33476,87.10678 191.81623,86.87792" style="fill:none;stroke:#000;stroke-width:.14814828"/><path id="path912" d="M 186.25297,80.53587 C 185.08556,79.04787 182.40704,78.54417 182.36082,81.70364" style="fill:none;stroke:#000;stroke-width:.14814828"/><path id="path914" d="M 182.04082,85.29795 C 180.89593,82.45896 177.96496,82.04687 176.40763,83.46636 C 175.11222,84.64776 175.08022,87.72486 177.8737,88.36581 C 178.83489,87.22115 180.71222,85.71004 182.04082,85.29795 z" style="fill:#fff;stroke:#000;stroke-width:.14814828"/><path id="path916" d="M 180.78096,83.51223 C 179.13237,82.04687 176.70511,84.81736 178.90363,87.35851" style="fill:#fff;stroke:#000;stroke-width:.14814828"/><path id="path918" d="M 186.25297,80.53587 C 185.24556,79.45984 183.04823,80.30689 183.66571,82.48207 C 184.14689,81.47477 185.17682,80.62749 186.25297,80.53587 z" style="fill:#000;stroke:none"/><path id="path920" d="M 180.02837,86.40207 C 180.72171,85.89872 181.43756,85.48521 182.04082,85.29795 C 181.71134,84.48325 181.23608,83.86826 180.68733,83.43922 C 180.16348,83.07739 178.65829,85.10156 180.02837,86.40207 z" style="fill:#000;stroke:none"/><path id="path922" d="M 177.32378,82.68793 C 175.67518,81.58903 174.16407,81.68064 173.66036,82.59644 C 172.47044,82.55057 171.48555,83.42061 171.43933,85.16059" style="fill:none;stroke:#000;stroke-width:.14814828;stroke-linecap:round"/><path id="path924" d="M 173.98155,85.89327 C 172.01296,84.54263 169.31073,85.04634 169.49443,88.06844" style="fill:none;stroke:#000;stroke-width:.14814828;stroke-linecap:round"/><path id="path928" d="M 168.30332,89.7853 C 169.26451,89.00687 170.63814,88.45742 171.69177,89.83117" style="fill:none;stroke:#000;stroke-width:.14814828;stroke-linecap:round"/><path id="path930" d="M 183.002,86.80906 C 182.63578,87.31265 182.36082,88.09108 182.95578,89.28172 C 182.22334,88.32006 180.39222,88.32006 178.42244,90.88421" style="fill:none;stroke:#000;stroke-width:.14814828;stroke-linecap:round"/><path id="path932" d="M 187.35164,86.6717 C 184.9706,86.94642 185.01682,88.50317 186.93919,89.1901" style="fill:none;stroke:#000;stroke-width:.14814828;stroke-linecap:round"/><path id="path934" d="M 170.4094,80.85634 C 168.39458,80.44426 166.92969,81.63477 169.72318,82.64218" style="fill:none;stroke:#000;stroke-width:.14814828;stroke-linecap:round"/><path id="path936" d="M 174.25651,79.48271 C 171.41681,78.7959 170.27192,79.52846 171.55429,80.16953" style="fill:none;stroke:#000;stroke-width:.14814828;stroke-linecap:round"/><path id="path938" d="M 166.05976,90.88421 C 165.96851,91.89162 166.51725,93.2195 168.16584,91.70851" style="fill:none;stroke:#000;stroke-width:.14814828;stroke-linecap:round"/><path id="path940" d="M 166.60969,93.90643 C 166.60969,94.18116 166.56347,94.50163 166.37976,94.73061" style="fill:none;stroke:#000;stroke-width:.14814828;stroke-linecap:round"/><path id="path942" d="M 160.01532,80.49012 C 158.27546,79.98642 157.95546,78.38381 159.97028,78.52117" style="fill:none;stroke:#000;stroke-width:.14814828;stroke-linecap:round"/><path id="path944" d="M 159.42035,84.19904 C 157.49679,83.55798 157.49679,81.68064 159.09917,81.86375" style="fill:none;stroke:#000;stroke-width:.14814828;stroke-linecap:round"/><path id="path946" d="M 162.99132,83.2375 C 160.74776,82.68793 160.6565,81.13107 162.35132,81.36005" style="fill:none;stroke:#000;stroke-width:.14814828;stroke-linecap:round"/><path id="path948" d="M 163.26628,78.47531 C 162.07635,78.38381 160.24405,79.71169 163.3125,80.49012" style="fill:none;stroke:#000;stroke-width:.14814828;stroke-linecap:round"/><path id="path950" d="M 166.60969,81.13107 C 163.81621,80.71898 163.86243,81.86375 165.50984,82.59644" style="fill:none;stroke:#000;stroke-width:.14814828;stroke-linecap:round"/><path id="path952" d="M 168.71577,78.47531 C 166.56347,78.06322 165.83102,79.34535 167.29591,79.8948" style="fill:none;stroke:#000;stroke-width:.14814828;stroke-linecap:round"/><path id="path954" d="M 161.93887,86.39697 C 161.41147,85.96213 160.97768,83.87845 163.49502,84.49688" style="fill:none;stroke:#000;stroke-width:.14814828;stroke-linecap:round"/><path id="path956" d="M 167.15843,85.75591 C 165.4648,85.29795 163.86243,86.94642 165.41858,87.90797" style="fill:none;stroke:#000;stroke-width:.14814828;stroke-linecap:round"/><path id="path958" d="M 169.40199,83.78696 C 167.6171,83.46636 166.10599,83.97007 167.06717,84.61113" style="fill:none;stroke:#000;stroke-width:.14814828;stroke-linecap:round"/><path id="path960" d="M 149.42212,90.45019 C 150.52553,90.18827 152.13857,90.72824 154.61205,91.89162 C 156.16938,92.6243 160.8402,94.18116 163.76998,92.6243 C 160.74776,93.7232 158.45917,89.14424 156.16938,89.69381 C 153.8796,90.24326 149.68997,91.09031 147.9276,89.41896 C 152.23101,89.69381 154.54568,86.28402 159.46539,89.23585 C 160.8402,90.06003 162.58006,90.6096 164.13621,90.51799 C 160.10776,85.66429 154.79575,88.77789 154.24583,84.84011 C 156.67309,87.45013 162.60258,84.24479 165.6248,89.14424" style="fill:#fff;stroke:#000;stroke-width:.14814828"/><path id="path962" d="M 186.15816,80.53658 C 185.15193,80.72301 184.25001,81.3143 183.66571,82.48207" style="fill:#fff;stroke:#000;stroke-width:.14814828"/><path id="path964" d="M 155.11694,85.57054 C 154.55042,84.86536 154.80642,84.16242 154.19842,83.60633" style="fill:#fff;stroke:#000;stroke-width:.14814828"/></svg>