<svg xmlns="http://www.w3.org/2000/svg" xmlns:svg="http://www.w3.org/2000/svg" xmlns:xlink="http://www.w3.org/1999/xlink" id="svg4109" width="256" height="256" preserveAspectRatio="xMidYMid meet" version="1.0" viewBox="-19 -10 38 20" zoomAndPan="magnify"><metadata/><rect id="rect4111" width="38" height="20" x="-19" y="-10" style="fill:#75b2dd"/><g id="star" transform="matrix(2,0,0,2,0,-6)" style="fill:#fff"><g id="cone"><polygon id="triangle" points="0 0 0 1 .5 1 0 0" transform="matrix(0.9510565,0.309017,-0.309017,0.9510565,0,-1)"/><use id="use4116" width="38" height="20" x="0" y="0" transform="scale(-1,1)" xlink:href="#triangle"/></g><use id="use4118" width="38" height="20" x="0" y="0" transform="matrix(0.309017,0.9510565,-0.9510565,0.309017,0,0)" xlink:href="#cone"/><use id="use4120" width="38" height="20" x="0" y="0" transform="matrix(0.309017,-0.9510565,0.9510565,0.309017,0,0)" xlink:href="#cone"/><use id="use4122" width="38" height="20" x="0" y="0" transform="matrix(-0.809017,0.5877853,-0.5877853,-0.809017,0,0)" xlink:href="#cone"/><use id="use4124" width="38" height="20" x="0" y="0" transform="matrix(-0.809017,-0.5877853,0.5877853,-0.809017,0,0)" xlink:href="#cone"/></g><use id="use4126" width="38" height="20" x="0" y="0" transform="matrix(0,1,-1,0,0,0)" xlink:href="#star"/><use id="use4128" width="38" height="20" x="0" y="0" transform="matrix(0,-1,1,0,0,0)" xlink:href="#star"/><use id="use4130" width="38" height="20" x="0" y="0" transform="scale(-1,-1)" xlink:href="#star"/></svg>