<svg xmlns="http://www.w3.org/2000/svg" xmlns:svg="http://www.w3.org/2000/svg" id="svg556" width="256" height="256" version="1.0"><metadata/><path id="path688" d="M -7.022551e-16,64.00006 L -7.022551e-16,192 L 256,192 L 256,64.00006 L -7.022551e-16,64.00006 z" style="font-size:12px;fill:#51b5e0;fill-opacity:1;fill-rule:evenodd;stroke-width:1pt"/><path id="path5001" d="M 168.06741,95.98303 L 168.06741,127.70001 C 168.71071,147.26015 178.53324,154.26375 192.24217,160.01697 C 207.95139,153.07359 215.93259,144.55503 215.93259,127.70001 L 215.93259,95.98303 L 168.06741,95.98303 z" style="font-size:12px;fill:#fff;fill-opacity:1;fill-rule:evenodd;stroke:#000;stroke-width:.51200002;stroke-miterlimit:4;stroke-dasharray:none;stroke-opacity:1"/><path id="path693" d="M 168.05968,127.16279 C 168.05968,127.16279 168.10884,131.24594 169.18823,136.37879 L 214.93075,136.35308 C 215.95068,131.78148 216.06838,127.16279 216.06838,127.16279 L 168.05968,127.16279 z" style="font-size:12px;fill:#d21034;fill-rule:evenodd;stroke-width:1pt"/><path id="path694" d="M 187.392,111.2412 L 187.40671,157.60528 C 189.67056,158.73176 192.5585,160.02296 192.5585,160.02296 C 192.5585,160.02296 194.48628,158.77383 196.608,157.71313 L 196.59329,111.2412 L 187.392,111.2412 z" style="font-size:12px;fill:#d21034;fill-rule:evenodd;stroke-width:1pt"/><rect id="rect962" width="128" height="64" x="0" y="64" style="font-size:12px;fill:#002868;fill-opacity:1;fill-rule:evenodd;stroke-width:1pt"/><path id="path5259" d="M -5.2247779e-16,64.00009 L -5.2247779e-16,71.1555 L 113.68914,128.00006 L 127.99996,128.00006 L 127.99996,120.84465 L 14.310823,64.00009 L -5.2247779e-16,64.00009 z" style="font-size:12px;fill:#fff;stroke-width:1pt"/><path id="path146" d="M 127.99996,64.00009 L 127.99996,71.15539 L 14.310823,128.00006 L -5.2247779e-16,128.00006 L -5.2247779e-16,120.84444 L 113.68914,64.00009 L 127.99996,64.00009 z" style="font-size:12px;fill:#fff;stroke-width:1pt"/><path id="path5255" d="M 53.333317,64.00009 L 53.333317,128.00006 L 74.666644,128.00006 L 74.666644,64.00009 L 53.333317,64.00009 z" style="font-size:12px;fill:#fff;stroke-width:1pt"/><path id="path136" d="M -5.2247779e-16,85.33341 L -5.2247779e-16,106.66674 L 127.99996,106.66674 L 127.99996,85.33341 L -5.2247779e-16,85.33341 z" style="font-size:12px;fill:#fff;stroke-width:1pt"/><path id="path5243" d="M -5.2247779e-16,89.60008 L -5.2247779e-16,102.40007 L 127.99996,102.40007 L 127.99996,89.60008 L -5.2247779e-16,89.60008 z" style="font-size:12px;fill:#ce1126;fill-opacity:1;stroke-width:1pt"/><path id="path141" d="M 57.599985,64.00009 L 57.599985,128.00006 L 70.39998,128.00006 L 70.39998,64.00009 L 57.599985,64.00009 z" style="font-size:12px;fill:#ce1126;fill-opacity:1;stroke-width:1pt"/><path id="path5251" d="M -5.2247779e-16,128.00006 L 42.666655,106.66674 L 52.207132,106.66674 L 9.5405627,128.00006 L -5.2247779e-16,128.00006 z" style="font-size:12px;fill:#d21034;stroke-width:1pt"/><path id="path5249" d="M -5.2247779e-16,64.00009 L 42.666655,85.33341 L 33.126177,85.33341 L -5.2247779e-16,68.77037 L -5.2247779e-16,64.00009 z" style="font-size:12px;fill:#d21034;stroke-width:1pt"/><path id="path5247" d="M 75.792832,85.33341 L 118.45949,64.00009 L 127.99996,64.00009 L 85.333309,85.33341 L 75.792832,85.33341 z" style="font-size:12px;fill:#d21034;stroke-width:1pt"/><path id="path150" d="M 127.99996,128.00006 L 85.333309,106.66674 L 94.873787,106.66674 L 127.99996,123.22972 L 127.99996,128.00006 z" style="font-size:12px;fill:#d21034;stroke-width:1pt"/><rect id="rect566" width="48" height="17.104" x="168" y="95.846" style="font-size:12px;fill:#d21034;fill-rule:evenodd;stroke-width:1pt"/><rect id="rect909" width="3.063" height="3.989" x="169.09" y="103.871" rx="1.519" ry="1.979" style="font-size:12px;fill:#f6efec;fill-opacity:1;fill-rule:evenodd;stroke:#000;stroke-width:.05375908;stroke-dasharray:none;stroke-opacity:1"/><path id="path908" d="M 205.74332,102.81024 C 205.74332,102.81024 208.50723,102.63256 209.47458,101.68487 C 210.44198,100.73723 208.81819,99.01959 209.85463,98.84191 C 210.26921,98.81227 210.85656,98.93078 211.30565,99.40454 C 211.23656,99.04923 210.96017,98.84191 210.85656,98.63469 C 210.4765,98.33845 210.09644,98.36809 209.54367,98.36809 C 209.16361,98.42737 209.09452,98.30881 208.47271,97.68695 C 208.16175,97.39081 208.16175,96.6505 208.40356,96.14704 C 207.67807,96.62086 207.81627,97.27231 207.88536,97.4204 C 208.05807,98.07195 208.23085,98.24963 208.23085,98.54582 C 208.02355,98.45695 207.6435,97.68695 205.67423,97.56849 C 203.7049,97.45004 198.72986,98.75309 196.4842,98.75309 C 194.23849,98.75309 190.99091,97.9535 190.99091,97.9535 C 190.99091,97.9535 191.82006,97.39081 190.81814,97.1539 C 189.81627,96.91699 187.60514,97.98313 186.98321,97.39081 C 186.53412,96.82813 186.70683,96.94658 186.63773,96.68008 C 186.46502,96.7689 186.36134,97.12431 186.60321,97.59813 C 186.84502,98.07195 186.98321,97.92386 186.94869,97.92386 C 186.91411,97.92386 186.15406,97.92386 186.08496,98.16082 C 186.01586,98.33845 185.91219,98.54577 186.29225,99.19727 C 186.43044,98.54577 185.91225,98.45695 187.05231,98.39773 C 188.19248,98.3385 188.98706,98.78273 189.95441,98.93078 C 190.92181,99.07887 190.92181,98.57541 190.95633,98.605 C 190.99091,98.63464 193.92752,99.31578 196.62233,99.16768 C 199.31714,99.01964 203.67038,97.74618 205.67417,98.01273 C 207.67802,98.27922 208.9909,99.52305 209.02542,100.67801 C 208.9909,101.38873 208.12717,101.7441 207.43621,101.86255 C 206.60706,101.98101 204.6723,102.15874 204.6723,102.15874 L 205.74332,102.81024 z" style="font-size:12px;fill:#ffd100;fill-opacity:1;fill-rule:evenodd;stroke:#000;stroke-width:.04914074;stroke-linecap:butt;stroke-linejoin:miter;stroke-dasharray:none;stroke-opacity:1"/><path id="path900" d="M 202.65027,103.48935 C 202.61668,103.48935 200.80432,103.53183 200.26735,104.50791 C 199.73037,105.48407 199.49542,106.41783 199.52901,106.41783 C 199.56254,106.41783 200.7372,105.61143 200.7372,105.61143 C 200.7372,105.61143 199.86462,107.22415 200.33447,108.66719 C 200.80432,110.11015 199.09404,110.02527 198.10794,110.06767 C 197.67162,109.64327 196.27784,108.92175 195.78082,108.79447 C 195.47046,108.64595 194.86101,108.62678 194.22445,109.53188 C 193.8495,110.08998 194.78171,109.00664 195.70637,109.09159 C 195.80635,109.21887 195.87071,109.3463 195.88852,109.64327 C 195.39584,109.60087 194.8831,108.87935 194.279,110.36479 C 194.8831,109.85551 194.95862,109.86613 195.26487,109.83427 C 195.67284,109.79607 195.62043,110.06775 195.60363,110.06775 C 195.53651,110.06775 195.37003,110.11015 195.118,110.40727 C 194.98375,110.61943 194.64814,111.08631 194.71527,111.08631 C 194.78239,111.08631 194.98308,110.83167 195.29727,110.61943 C 195.49362,110.44967 195.68011,110.44967 196.2735,110.66191 C 199.52901,111.63799 201.27418,110.91655 201.47555,110.53455 C 201.57626,110.36486 199.59607,105.56895 204.8653,104.29575 C 204.79817,104.25327 202.65027,103.53183 202.65027,103.48935 z" style="font-size:12px;fill:#ffd100;fill-opacity:1;fill-rule:evenodd;stroke:#000;stroke-width:.03313228;stroke-linecap:butt;stroke-linejoin:miter;stroke-dasharray:none;stroke-opacity:1"/><path id="path899" d="M 180.08574,108.79447 C 182.24559,110.74678 196.81489,106.71487 198.66059,105.31431 C 199.7209,104.50791 201.56659,103.91375 201.56659,106.67239 C 202.03782,104.80496 202.03789,104.33815 202.03789,104.38056 C 202.07713,104.42303 202.78397,105.10214 203.41235,107.39398 C 203.56943,105.35672 203.13743,104.16839 203.37305,104.33815 C 203.53012,104.16839 203.53012,105.35672 204.78674,107.01191 C 204.51189,105.69631 204.43335,105.10207 204.43335,105.10207 C 204.43335,105.10207 206.78958,107.56367 208.12474,107.90319 C 209.45997,108.24271 211.3842,107.22415 211.97327,107.81831 C 212.56228,108.41254 213.58348,109.47351 213.54392,110.32238 C 213.50501,111.17118 211.3449,110.44967 211.10928,111.12871 C 210.87366,111.80782 211.26636,111.80782 211.26636,111.80782 C 211.26636,111.80782 211.46267,112.3171 211.61982,112.7415 C 211.73759,112.44439 211.50198,111.80775 211.93397,111.76535 C 212.24813,111.80775 212.24813,112.35951 212.32666,112.65662 C 212.41826,112.3171 212.31354,111.63806 212.60158,111.63806 C 212.91574,111.56729 212.95497,112.17564 213.19059,112.57167 L 213.19059,111.63806 C 214.09389,111.34095 214.87901,111.29854 214.99705,110.66191 C 215.11443,110.02527 213.62239,108.5823 213.26893,107.64855 C 212.91574,106.71487 213.54392,106.33287 212.87644,105.82359 C 212.20889,105.31431 209.65628,106.62999 208.4782,106.12071 C 207.30005,105.61143 207.77128,101.96144 203.33374,101.15511 C 198.8962,100.34871 186.87951,105.39919 184.7589,105.61143 C 182.63828,105.82359 180.0465,104.88991 180.0465,104.88991 L 180.08574,108.79447 z" style="font-size:12px;fill:#ffd100;fill-opacity:1;fill-rule:evenodd;stroke:#000;stroke-width:.04479923;stroke-linecap:butt;stroke-linejoin:miter;stroke-dasharray:none;stroke-opacity:1"/><path id="path892" d="M 177.30576,107.39009 C 177.30576,107.39009 175.00824,110.26052 173.45926,110.20244 C 171.91732,110.09142 170.65305,108.19159 170.31585,108.32615 C 169.97863,108.46081 169.89794,108.16732 169.76801,107.64317 C 169.63809,107.11893 169.91214,106.85942 169.90505,106.91226 C 169.98232,106.93151 170.07005,107.77313 170.14035,107.84525 C 170.21059,107.91744 169.88052,106.79676 170.35825,106.80659 C 170.51983,106.79216 170.49162,107.60489 170.64263,107.97049 C 170.68827,107.92717 170.48116,106.78253 170.68139,106.77782 C 170.88157,106.773 170.96578,107.94162 171.2783,108.29278 C 171.71731,108.89394 172.43022,109.23567 173.35753,109.46663 C 174.33399,109.32737 176.63495,106.73116 176.82112,106.83224 L 177.30576,107.39009 z" style="font-size:12px;fill:#ffd100;fill-opacity:1;fill-rule:evenodd;stroke:#000;stroke-width:.0403384;stroke-linecap:butt;stroke-linejoin:miter;stroke-dasharray:none;stroke-opacity:1"/><path id="path891" d="M 177.3761,105.77983 C 177.3761,105.77983 175.49111,102.7614 173.95957,102.47394 C 172.42803,102.23443 170.93573,103.62385 170.62157,103.43221 C 170.30742,103.24049 170.18964,103.48016 169.99326,103.91131 C 169.79688,104.34254 170.03256,104.62991 170.0325,104.58204 C 170.11104,104.58204 170.30742,103.86336 170.38602,103.81549 C 170.46456,103.76754 169.99326,104.67794 170.46456,104.77368 C 170.62164,104.82163 170.70018,104.10295 170.89656,103.81541 C 170.93579,103.86336 170.58234,104.82163 170.77872,104.8695 C 170.97503,104.91745 171.21071,103.91131 171.5641,103.67172 C 172.07464,103.24057 172.82072,103.09672 173.76325,103.09681 C 174.70572,103.43221 176.62995,106.21097 176.82633,106.16302 L 177.3761,105.77983 z" style="font-size:12px;fill:#ffd100;fill-opacity:1;fill-rule:evenodd;stroke:#000;stroke-width:.03807886;stroke-linecap:butt;stroke-linejoin:miter;stroke-dasharray:none;stroke-opacity:1"/><path id="path887" d="M 176.43359,104.84743 L 174.35228,105.95088 L 175.88382,106.37535 L 174.78421,107.7335 L 176.35505,107.18174 L 176.23728,109.0067 L 177.1405,107.81838 L 177.72951,109.47358 L 178.35782,108.24278 L 179.10397,109.60087 L 179.41813,108.28519 L 180.32136,109.60087 L 180.63551,107.81838 L 181.73512,108.92183 L 181.57804,107.05439 L 182.9132,107.52126 L 182.08851,106.07823 C 182.08851,106.07823 183.54151,105.99335 183.46297,105.99335 C 183.38444,105.99335 182.36343,105.05967 181.4602,104.80503 L 176.43359,104.84743 z" style="font-size:12px;fill:#ffd100;fill-opacity:1;fill-rule:evenodd;stroke:#000;stroke-width:.03583939;stroke-linecap:butt;stroke-linejoin:miter;stroke-dasharray:none;stroke-opacity:1"/><path id="path888" d="M 177.53398,104.36219 L 176.39433,104.98715 L 177.23295,105.22756 L 176.63084,105.99677 L 177.49098,105.68428 L 177.42649,106.71788 L 177.92106,106.04485 L 178.24358,106.98231 L 178.58762,106.28522 L 178.99619,107.05439 L 179.16821,106.30923 L 179.66279,107.05439 L 179.83481,106.04485 L 180.43692,106.66981 L 180.35091,105.61214 L 181.08199,105.87657 L 180.63042,105.05928 C 180.63042,105.05928 181.42603,105.01121 181.38303,105.01121 C 181.34002,105.01121 180.78096,104.48239 180.28638,104.33817 L 177.53398,104.36219 z" style="font-size:12px;fill:#ffd100;fill-opacity:1;fill-rule:evenodd;stroke:#000;stroke-width:.03225545;stroke-linecap:butt;stroke-linejoin:miter;stroke-dasharray:none;stroke-opacity:1"/><path id="path901" d="M 178.12221,101.36727 C 178.12221,101.36727 177.5332,100.85799 177.29758,101.36727 C 177.0619,101.87663 177.80805,101.66439 177.80805,101.74927 C 177.80805,101.83415 177.29758,102.42831 177.29758,103.10743 C 177.29758,103.78647 177.69028,104.93238 177.69028,105.10214 C 177.69028,105.27191 177.84735,105.73871 178.39713,105.90847 C 178.9469,106.07823 179.14328,105.35678 179.26105,105.27191 C 179.3789,105.18703 180.12505,105.39919 180.3999,104.67774 C 180.67482,103.95623 180.67482,102.64055 180.67482,102.64055 C 180.67482,102.64055 181.14605,103.02247 181.14605,102.25855 C 181.14605,101.49463 180.63551,102.25855 180.63551,102.25855 C 180.63551,102.25855 180.71405,101.45222 179.49667,101.07023 C 178.27929,100.68823 178.16151,101.45222 178.12221,101.36727 z" style="font-size:12px;fill:#ffd100;fill-opacity:1;fill-rule:evenodd;stroke:#000;stroke-width:.03583939;stroke-linecap:butt;stroke-linejoin:miter;stroke-dasharray:none;stroke-opacity:1"/><path id="path893" d="M 177.96528,101.23315 C 177.8069,100.74867 177.34652,98.88978 177.34652,98.88978 L 178.36807,99.57209 C 178.02165,99.43971 177.72678,99.36383 177.76379,99.36315 C 177.80073,99.36248 178.22715,100.25662 178.22715,100.25662 C 178.62693,100.21154 179.0323,100.42099 179.52916,100.58647 C 179.52916,100.58647 179.91991,99.84364 179.88296,99.84432 C 179.84595,99.845 179.65847,99.72807 179.65847,99.72807 L 180.56801,99.02179 L 180.29239,99.95707 L 180.10746,99.96046 L 179.75234,100.64245 C 180.17111,100.7621 180.3767,100.85739 180.79267,101.27414 C 181.15143,101.18276 181.44991,100.87327 181.63903,100.63979 C 181.31235,100.50068 181.16197,100.39025 181.19891,100.38958 C 181.23592,100.3889 182.5604,100.47782 182.5604,100.47782 C 182.5604,100.47782 181.29157,101.80519 180.54411,102.29687 C 179.83595,101.9821 178.04317,101.41216 177.96528,101.23315 z" style="font-size:12px;fill:#ffd100;fill-opacity:1;fill-rule:evenodd;stroke:#000;stroke-width:.04472105;stroke-linecap:butt;stroke-linejoin:miter;stroke-dasharray:none;stroke-opacity:1"/><rect id="rect903" width=".919" height=".406" x="232.794" y="29.37" rx=".456" ry=".201" transform="matrix(0.890737,0.454519,-0.9932072,-0.1163592,0,0)" style="font-size:12px;fill:#000;fill-opacity:1;fill-rule:evenodd;stroke-width:1pt"/><rect id="rect904" width=".919" height=".406" x="233.854" y="29.135" rx=".456" ry=".201" transform="matrix(0.890737,0.454519,-0.9932072,-0.1163592,0,0)" style="font-size:12px;fill:#000;fill-opacity:1;fill-rule:evenodd;stroke-width:1pt"/><rect id="rect905" width="1.698" height=".788" x="335.019" y="136.652" rx=".842" ry=".391" transform="matrix(0.9384339,0.3454589,-0.9964473,-8.4218072e-2,0,0)" style="font-size:12px;fill:#000;fill-opacity:1;fill-rule:evenodd;stroke-width:1pt"/><rect id="rect906" width=".77" height=".353" x="298.483" y="98.164" rx=".382" ry=".175" transform="matrix(0.925753,0.3781288,-0.9956316,-9.3368871e-2,0,0)" style="font-size:12px;fill:#000;fill-opacity:1;fill-rule:evenodd;stroke-width:1pt"/><rect id="rect907" width=".697" height=".291" x="385.939" y="475.477" rx=".346" ry=".144" transform="matrix(0.3068891,-0.9517453,0.1264225,0.9919765,0,0)" style="font-size:12px;fill:#000;fill-opacity:1;fill-rule:evenodd;stroke-width:1pt"/><path id="path4960" d="M 171.63378,138.83593 L 170.68799,137.17493 L 172.03564,138.79966 L 172.0966,139.45674 L 171.63378,138.83593 z" style="font-size:12px;fill:#007500;fill-opacity:1;fill-rule:evenodd;stroke:#000;stroke-width:.0339001;stroke-dasharray:none;stroke-opacity:1"/><path id="path4962" d="M 171.9004,139.01338 L 172.05153,137.80878 L 172.4642,139.26915 L 172.0948,139.49656 L 171.9004,139.01338 z" style="font-size:12px;fill:#007500;fill-opacity:1;fill-rule:evenodd;stroke:#000;stroke-width:.03390009;stroke-dasharray:none;stroke-opacity:1"/><path id="path4964" d="M 171.55529,139.42068 L 169.96711,138.5908 L 171.28345,139.00102 L 172.14253,139.48586 L 171.55529,139.42068 z" style="font-size:12px;fill:#007500;fill-opacity:1;fill-rule:evenodd;stroke:#000;stroke-width:.0339001;stroke-dasharray:none;stroke-opacity:1"/><path id="path4966" d="M 172.02895,139.93547 L 169.61415,139.24177 L 171.50613,139.31378 L 172.14547,139.41928 L 172.02895,139.93547 z" style="font-size:12px;fill:#007500;fill-opacity:1;fill-rule:evenodd;stroke:#000;stroke-width:.03390015;stroke-dasharray:none;stroke-opacity:1"/><path id="path4968" d="M 172.16622,139.14062 L 173.64332,138.90557 L 173.12477,139.84022 L 172.00488,139.44257 L 172.16622,139.14062 z" style="font-size:12px;fill:#007500;fill-opacity:1;fill-rule:evenodd;stroke:#000;stroke-width:.03390016;stroke-dasharray:none;stroke-opacity:1"/><path id="path4970" d="M 172.99807,139.62841 L 174.87848,140.40436 L 173.30355,140.17288 L 171.97074,139.39648 L 172.99807,139.62841 z" style="font-size:12px;fill:#007500;fill-opacity:1;fill-rule:evenodd;stroke:#000;stroke-width:.03390005;stroke-dasharray:none;stroke-opacity:1"/><path id="path4972" d="M 173.26096,140.04641 L 175.26518,141.18078 L 173.48017,140.52833 L 172.00079,139.3846 L 173.26096,140.04641 z" style="font-size:12px;fill:#007500;fill-opacity:1;fill-rule:evenodd;stroke:#000;stroke-width:.03390012;stroke-dasharray:none;stroke-opacity:1"/><path id="path4974" d="M 173.27298,140.43725 L 174.43269,142.15386 L 172.62486,140.21673 L 172.06039,139.40589 L 173.27298,140.43725 z" style="font-size:12px;fill:#007500;fill-opacity:1;fill-rule:evenodd;stroke:#000;stroke-width:.03390013;stroke-dasharray:none;stroke-opacity:1"/><path id="path4976" d="M 172.97644,140.47499 L 173.00655,141.58286 L 172.12894,139.95952 L 172.05301,139.39506 L 172.97644,140.47499 z" style="font-size:12px;fill:#007500;fill-opacity:1;fill-rule:evenodd;stroke:#000;stroke-width:.03390012;stroke-dasharray:none;stroke-opacity:1"/><path id="path4978" d="M 172.52791,140.13215 L 171.65648,140.80212 L 171.70026,139.59656 L 172.09198,139.485 L 172.52791,140.13215 z" style="font-size:12px;fill:#007500;fill-opacity:1;fill-rule:evenodd;stroke:#000;stroke-width:.03390015;stroke-dasharray:none;stroke-opacity:1"/><path id="path4980" d="M 171.41824,138.81102 L 170.78024,137.871 L 171.65321,138.80049 L 172.07265,139.44445 L 171.41824,138.81102 z" style="font-size:12px;fill:#007500;fill-opacity:1;fill-rule:evenodd;stroke:#000;stroke-width:.03390012;stroke-dasharray:none;stroke-opacity:1"/><path id="path4982" d="M 171.88054,139.20781 L 171.2456,138.02407 L 172.16881,139.30686 L 172.2968,139.66582 L 171.88054,139.20781 z" style="font-size:12px;fill:#007500;fill-opacity:1;fill-rule:evenodd;stroke:#000;stroke-width:.02255037;stroke-dasharray:none;stroke-opacity:1"/><path id="path4984" d="M 171.92932,139.57276 L 170.25564,138.8406 L 171.6678,139.26796 L 172.28556,139.59047 L 171.92932,139.57276 z" style="font-size:12px;fill:#007500;fill-opacity:1;fill-rule:evenodd;stroke:#000;stroke-width:.02412894;stroke-dasharray:none;stroke-opacity:1"/><path id="path4986" d="M 172.37124,139.47843 L 173.9051,139.93625 L 172.74875,139.74743 L 172.14476,139.52424 L 172.37124,139.47843 z" style="font-size:12px;fill:#007500;fill-opacity:1;fill-rule:evenodd;stroke:#000;stroke-width:.02093055;stroke-dasharray:none;stroke-opacity:1"/><path id="path4988" d="M 172.43862,139.86474 L 171.97613,140.16563 L 172.21728,139.7147 L 172.19032,139.49691 L 172.43862,139.86474 z" style="font-size:12px;fill:#007500;fill-opacity:1;fill-rule:evenodd;stroke:#000;stroke-width:.0207743;stroke-dasharray:none;stroke-opacity:1"/><path id="path4990" d="M 173.09259,140.15885 L 174.0751,141.39112 L 173.24462,140.50689 L 172.23219,139.53881 L 173.09259,140.15885 z" style="font-size:12px;fill:#007500;fill-opacity:1;fill-rule:evenodd;stroke:#000;stroke-width:.03390012;stroke-dasharray:none;stroke-opacity:1"/><path id="path4992" d="M 172.83261,139.72819 L 173.1104,139.40251 L 173.20227,140.02667 L 172.26651,139.61031 L 172.83261,139.72819 z" style="font-size:12px;fill:#007500;fill-opacity:1;fill-rule:evenodd;stroke:#000;stroke-width:.0339001;stroke-dasharray:none;stroke-opacity:1"/><path id="path4994" d="M 171.77488,139.02208 L 171.35837,137.78606 L 172.0391,139.06683 L 172.10244,139.45775 L 171.77488,139.02208 z" style="font-size:12px;fill:#007500;fill-opacity:1;fill-rule:evenodd;stroke:#000;stroke-width:.02371963;stroke-dasharray:none;stroke-opacity:1"/><path id="path4997" d="M 176.4609,141.80039 C 176.68842,141.63227 178.37251,137.82329 186.38364,138.38325 C 181.83186,140.28792 179.00961,144.32095 178.32706,144.48873 C 177.82629,144.65686 176.73386,142.41629 176.4609,141.80039 z" style="font-size:12px;fill:#fff;fill-rule:evenodd;stroke:#000;stroke-width:.08464882"/><path id="path4999" d="M 187.19123,139.92145 C 185.9482,140.46425 185.33878,140.72242 184.71017,140.82884 C 185.03062,141.01063 185.7425,140.90013 186.55494,141.19089 C 185.83116,141.21176 184.49258,141.9445 183.93573,141.96232 C 184.32065,142.26886 185.69338,141.97352 185.9459,142.05347 C 185.21175,142.11407 184.03052,142.8687 183.29484,142.8687 C 182.95789,143.21038 185.00644,142.63498 185.82847,143.27963 C 184.97842,143.22158 183.32708,143.8703 182.43213,143.71397 C 183.11447,144.24456 184.33293,143.65694 185.34914,144.23183 C 185.05479,144.2746 182.69693,144.62493 181.86223,144.45843 C 182.36113,144.78992 183.86473,144.73492 184.2343,145.02924 C 183.61183,144.92129 181.95933,145.38008 181.38444,145.19778 C 181.90214,145.69273 183.46216,145.41369 183.74883,145.71157 C 182.72916,146.18309 181.18412,145.80679 180.47338,145.9346 C 180.95002,146.23045 181.34338,146.52934 181.76514,146.80635 C 182.3807,147.37971 184.30184,148.99235 185.44931,149.4766 C 184.17904,149.25612 183.73578,149.22709 182.91491,149.13798 L 184.7827,151.76495 C 184.00327,151.20788 182.62939,150.15536 181.71717,149.61205 C 179.69702,148.29933 178.24101,148.52644 176.84179,147.41535 C 174.87613,144.88666 173.7847,141.87271 173.68646,141.06867 C 173.58783,140.26516 173.50186,138.82462 171.7089,139.57519 C 173.44008,139.27934 172.20463,137.40893 174.01243,137.40893 C 175.09985,137.40893 174.95919,138.45754 175.36598,139.15514 C 175.63692,139.65569 177.50648,141.41748 177.88832,141.50862 C 181.32074,138.80273 184.10458,138.47023 187.19123,139.92145 z" style="font-size:12px;fill:#fff;fill-rule:evenodd;stroke:#000;stroke-width:.11579213"/><path id="path5003" d="M 197.82337,154.01275 C 197.75746,153.59829 197.71448,153.38911 197.90026,152.84568 C 198.17143,152.46302 198.3136,152.1238 198.80822,151.72772 C 199.34459,151.52878 199.52568,151.70828 200.22932,150.97369 C 200.45561,150.48963 200.80021,150.12391 200.99667,149.60203 C 201.4552,148.83282 201.60899,148.45297 201.97557,147.86113 C 202.46265,147.24597 202.85465,146.69439 203.13963,146.22304 C 203.44373,145.61884 203.71678,145.24535 204.15807,144.74855 C 204.33663,144.1818 204.71953,143.76134 205.17649,143.27443 C 205.52579,142.55609 206.19555,141.73353 206.48618,141.14486 C 207.0012,140.48058 207.20267,140.19192 207.64992,139.50678 C 208.04378,139.21421 208.70821,138.57255 209.25053,138.3602 C 209.9909,138.01074 210.38695,137.66446 210.87407,138.19624 C 211.19636,138.55913 211.77574,139.14319 211.37308,139.57427 C 211.16124,139.83858 210.81442,139.87143 210.41458,139.67072 C 210.00377,139.3711 209.80386,138.49941 209.25053,139.17924 C 208.85069,139.69335 208.64573,140.10358 208.08647,140.65337 C 207.80842,141.11411 207.60786,141.45863 207.359,142.12785 C 207.03007,142.55503 206.75828,143.03522 206.48618,143.76593 C 206.13339,144.09384 205.8293,144.74467 205.61306,145.24006 C 205.26406,145.65204 205.01203,146.07534 204.73992,146.71454 C 204.19039,147.30708 203.98512,147.80812 203.57586,148.18867 C 203.30566,148.83174 202.88007,149.44585 202.55743,149.82675 C 202.30259,150.29316 202.04963,150.77899 201.82995,151.30124 C 201.36702,151.83302 201.34662,151.94784 200.66589,152.77535 C 200.09907,153.60748 200.2899,153.50712 199.40233,154.47175 C 198.9165,154.65194 198.42847,154.71343 197.82337,154.01275 z" style="font-size:12px;fill:#006000;fill-rule:evenodd;stroke:#000;stroke-width:.06399998"/><rect id="rect5006" width="1.132" height="4.528" x="248.935" y="-39.086" rx=".562" ry="2.246" transform="matrix(0.7109652,0.7032272,-0.7032272,0.7109652,0,0)" style="font-size:12px;fill:#ffd100;fill-rule:evenodd;stroke:#000;stroke-width:.064"/><rect id="rect5008" width="1.132" height="4.528" x="239.247" y="58.257" rx=".562" ry="2.246" transform="matrix(0.9260784,0.3773312,-0.3773312,0.9260784,0,0)" style="font-size:12px;fill:#ffd100;fill-rule:evenodd;stroke:#000;stroke-width:.064"/><rect id="rect5010" width="1.132" height="4.528" x="241.944" y="50.605" rx=".562" ry="2.246" transform="matrix(0.9133073,0.4072711,-0.4072711,0.9133073,0,0)" style="font-size:12px;fill:#ffd100;fill-rule:evenodd;stroke:#000;stroke-width:.064"/><rect id="rect5012" width="1.132" height="4.528" x="249.322" y="-.115" rx=".562" ry="2.246" transform="matrix(0.8105749,0.585635,-0.5856343,0.8105754,0,0)" style="font-size:12px;fill:#ffd100;fill-rule:evenodd;stroke:#000;stroke-width:.064"/><rect id="rect5014" width="1.132" height="4.528" x="246.314" y="-60.464" rx=".562" ry="2.246" transform="matrix(0.6491,0.7607031,-0.7607031,0.6491,0,0)" style="font-size:12px;fill:#ffd100;fill-rule:evenodd;stroke:#000;stroke-width:.06400001"/><rect id="rect5016" width="1.132" height="4.528" x="249.258" y="-42.621" rx=".562" ry="2.246" transform="matrix(0.7014241,0.7127441,-0.7127441,0.7014241,0,0)" style="font-size:12px;fill:#ffd100;fill-rule:evenodd;stroke:#000;stroke-width:.06399999"/><rect id="rect5018" width="1.132" height="4.528" x="250.818" y=".001" rx=".562" ry="2.246" transform="matrix(0.8105749,0.585635,-0.5856343,0.8105754,0,0)" style="font-size:12px;fill:#ffd100;fill-rule:evenodd;stroke:#000;stroke-width:.064"/><rect id="rect5020" width="1.132" height="4.528" x="250.057" y="-.156" rx=".562" ry="2.246" transform="matrix(0.8105749,0.585635,-0.5856343,0.8105754,0,0)" style="font-size:12px;fill:#ffd100;fill-rule:evenodd;stroke:#000;stroke-width:.064"/><rect id="rect5022" width="1.132" height="4.528" x="246.287" y="-7.14" rx=".562" ry="2.246" transform="matrix(0.8105749,0.585635,-0.585635,0.8105749,0,0)" style="font-size:12px;fill:#ffd100;fill-rule:evenodd;stroke:#000;stroke-width:.06400002"/><rect id="rect5024" width="1.132" height="4.528" x="247.125" y="-7.184" rx=".562" ry="2.246" transform="matrix(0.8105749,0.585635,-0.585635,0.8105749,0,0)" style="font-size:12px;fill:#ffd100;fill-rule:evenodd;stroke:#000;stroke-width:.06400002"/><rect id="rect5026" width="1.132" height="4.528" x="247.998" y="-7.178" rx=".562" ry="2.246" transform="matrix(0.8105749,0.585635,-0.585635,0.8105749,0,0)" style="font-size:12px;fill:#ffd100;fill-rule:evenodd;stroke:#000;stroke-width:.06400002"/><rect id="rect5028" width="1.132" height="4.528" x="248.937" y="-7.191" rx=".562" ry="2.246" transform="matrix(0.8105749,0.585635,-0.585635,0.8105749,0,0)" style="font-size:12px;fill:#ffd100;fill-rule:evenodd;stroke:#000;stroke-width:.06400002"/><rect id="rect5030" width="1.132" height="4.528" x="249.689" y="-7.127" rx=".562" ry="2.246" transform="matrix(0.8105749,0.585635,-0.585635,0.8105749,0,0)" style="font-size:12px;fill:#ffd100;fill-rule:evenodd;stroke:#000;stroke-width:.06400002"/><rect id="rect5032" width="1.132" height="4.528" x="254.038" y="-7.621" rx=".562" ry="2.246" transform="matrix(0.8105749,0.585635,-0.585635,0.8105749,0,0)" style="font-size:12px;fill:#ffd100;fill-rule:evenodd;stroke:#000;stroke-width:.06400002"/><rect id="rect5034" width="1.132" height="4.528" x="253.441" y="-7.445" rx=".562" ry="2.246" transform="matrix(0.8105749,0.585635,-0.585635,0.8105749,0,0)" style="font-size:12px;fill:#ffd100;fill-rule:evenodd;stroke:#000;stroke-width:.06400002"/><rect id="rect5036" width="1.132" height="4.528" x="252.857" y="-7.356" rx=".562" ry="2.246" transform="matrix(0.8105749,0.585635,-0.585635,0.8105749,0,0)" style="font-size:12px;fill:#ffd100;fill-rule:evenodd;stroke:#000;stroke-width:.06400002"/><rect id="rect5038" width="1.132" height="4.528" x="251.998" y="-7.324" rx=".562" ry="2.246" transform="matrix(0.8105749,0.585635,-0.585635,0.8105749,0,0)" style="font-size:12px;fill:#ffd100;fill-rule:evenodd;stroke:#000;stroke-width:.06400002"/><rect id="rect5040" width="1.132" height="4.528" x="251.156" y="-7.186" rx=".562" ry="2.246" transform="matrix(0.8105749,0.585635,-0.585635,0.8105749,0,0)" style="font-size:12px;fill:#ffd100;fill-rule:evenodd;stroke:#000;stroke-width:.06400002"/><rect id="rect5042" width="1.132" height="4.528" x="250.424" y="-7.168" rx=".562" ry="2.246" transform="matrix(0.8105749,0.585635,-0.585635,0.8105749,0,0)" style="font-size:12px;fill:#ffd100;fill-rule:evenodd;stroke:#000;stroke-width:.06400002"/><rect id="rect5044" width="1.132" height="4.528" x="246.103" y="31.854" rx=".562" ry="2.246" transform="matrix(0.8790357,0.4767559,-0.4767571,0.8790351,0,0)" style="font-size:12px;fill:#ffd100;fill-rule:evenodd;stroke:#000;stroke-width:.06400003"/><rect id="rect5046" width="1.132" height="4.528" x="246.067" y="-3.526" rx=".562" ry="2.246" transform="matrix(0.8105749,0.585635,-0.585635,0.8105749,0,0)" style="font-size:12px;fill:#ffd100;fill-rule:evenodd;stroke:#000;stroke-width:.06400002"/><rect id="rect5048" width="1.132" height="4.528" x="246.904" y="-3.57" rx=".562" ry="2.246" transform="matrix(0.8105749,0.585635,-0.585635,0.8105749,0,0)" style="font-size:12px;fill:#ffd100;fill-rule:evenodd;stroke:#000;stroke-width:.06400002"/><rect id="rect5050" width="1.132" height="4.528" x="247.778" y="-3.565" rx=".562" ry="2.246" transform="matrix(0.8105749,0.585635,-0.585635,0.8105749,0,0)" style="font-size:12px;fill:#ffd100;fill-rule:evenodd;stroke:#000;stroke-width:.06400002"/><rect id="rect5052" width="1.132" height="4.528" x="248.716" y="-3.577" rx=".562" ry="2.246" transform="matrix(0.8105749,0.585635,-0.585635,0.8105749,0,0)" style="font-size:12px;fill:#ffd100;fill-rule:evenodd;stroke:#000;stroke-width:.06400002"/><rect id="rect5054" width="1.132" height="4.528" x="249.469" y="-3.513" rx=".562" ry="2.246" transform="matrix(0.8105749,0.585635,-0.585635,0.8105749,0,0)" style="font-size:12px;fill:#ffd100;fill-rule:evenodd;stroke:#000;stroke-width:.06400002"/><rect id="rect5056" width="1.132" height="4.528" x="253.818" y="-4.008" rx=".562" ry="2.246" transform="matrix(0.8105749,0.585635,-0.585635,0.8105749,0,0)" style="font-size:12px;fill:#ffd100;fill-rule:evenodd;stroke:#000;stroke-width:.06400002"/><rect id="rect5058" width="1.132" height="4.528" x="253.22" y="-3.831" rx=".562" ry="2.246" transform="matrix(0.8105749,0.585635,-0.585635,0.8105749,0,0)" style="font-size:12px;fill:#ffd100;fill-rule:evenodd;stroke:#000;stroke-width:.06400002"/><rect id="rect5060" width="1.132" height="4.528" x="252.637" y="-3.743" rx=".562" ry="2.246" transform="matrix(0.8105749,0.585635,-0.585635,0.8105749,0,0)" style="font-size:12px;fill:#ffd100;fill-rule:evenodd;stroke:#000;stroke-width:.06400002"/><rect id="rect5062" width="1.132" height="4.528" x="251.778" y="-3.71" rx=".562" ry="2.246" transform="matrix(0.8105749,0.585635,-0.585635,0.8105749,0,0)" style="font-size:12px;fill:#ffd100;fill-rule:evenodd;stroke:#000;stroke-width:.06400002"/><rect id="rect5064" width="1.132" height="4.528" x="250.936" y="-3.573" rx=".562" ry="2.246" transform="matrix(0.8105749,0.585635,-0.585635,0.8105749,0,0)" style="font-size:12px;fill:#ffd100;fill-rule:evenodd;stroke:#000;stroke-width:.06400002"/><rect id="rect5066" width="1.132" height="4.528" x="250.204" y="-3.554" rx=".562" ry="2.246" transform="matrix(0.8105749,0.585635,-0.585635,0.8105749,0,0)" style="font-size:12px;fill:#ffd100;fill-rule:evenodd;stroke:#000;stroke-width:.06400002"/><rect id="rect5068" width="1.544" height="9.589" x="205.054" y="117.455" rx=".766" ry=".267" style="font-size:12px;fill:#b2802e;fill-rule:evenodd;stroke:#000;stroke-width:.04410828"/><path id="path5071" d="M 204.21604,121.08263 L 199.78583,124.07296 L 202.63472,120.44764 L 205.48776,119.78379 L 204.21604,121.08263 z" style="font-size:12px;fill:#007500;fill-opacity:1;fill-rule:evenodd;stroke:#000;stroke-width:.08970384;stroke-dasharray:none;stroke-opacity:1"/><path id="path5073" d="M 204.10817,120.48866 L 197.95398,121.26996 L 203.32097,119.33511 L 205.68056,119.75259 L 204.10817,120.48866 z" style="font-size:12px;fill:#007500;fill-opacity:1;fill-rule:evenodd;stroke:#000;stroke-width:.08970384;stroke-dasharray:none;stroke-opacity:1"/><path id="path5075" d="M 207.22193,120.71208 L 208.92866,124.05523 L 206.21816,121.52211 L 205.46272,119.68294 L 207.22193,120.71208 z" style="font-size:12px;fill:#007500;fill-opacity:1;fill-rule:evenodd;stroke:#000;stroke-width:.08970381;stroke-dasharray:none;stroke-opacity:1"/><path id="path5077" d="M 207.96164,119.48558 L 213.20871,124.08217 L 206.89669,120.88463 L 205.14261,119.7346 L 207.96164,119.48558 z" style="font-size:12px;fill:#007500;fill-opacity:1;fill-rule:evenodd;stroke:#000;stroke-width:.08970399;stroke-dasharray:none;stroke-opacity:1"/><path id="path5079" d="M 203.76856,119.93921 L 197.48102,117.6923 L 203.66614,117.75121 L 205.74498,119.94798 L 203.76856,119.93921 z" style="font-size:12px;fill:#007500;fill-opacity:1;fill-rule:evenodd;stroke:#000;stroke-width:.08970406;stroke-dasharray:none;stroke-opacity:1"/><path id="path5081" d="M 203.12258,118.14269 L 200.1373,114.36138 L 204.59082,117.17001 L 205.64984,120.04409 L 203.12258,118.14269 z" style="font-size:12px;fill:#007500;fill-opacity:1;fill-rule:evenodd;stroke:#000;stroke-width:.08970365;stroke-dasharray:none;stroke-opacity:1"/><path id="path5083" d="M 204.14993,117.34881 L 202.4027,113.05529 L 205.62928,116.5727 L 205.48863,120.00435 L 204.14993,117.34881 z" style="font-size:12px;fill:#007500;fill-opacity:1;fill-rule:evenodd;stroke:#000;stroke-width:.08970387;stroke-dasharray:none;stroke-opacity:1"/><path id="path5085" d="M 205.93172,116.9942 L 209.86986,113.60169 L 207.17971,118.2573 L 205.37814,119.8874 L 205.93172,116.9942 z" style="font-size:12px;fill:#007500;fill-opacity:1;fill-rule:evenodd;stroke:#000;stroke-width:.08970391;stroke-dasharray:none;stroke-opacity:1"/><path id="path5087" d="M 207.1499,117.45315 L 212.21565,116.45431 L 207.72162,119.29935 L 205.35353,119.90868 L 207.1499,117.45315 z" style="font-size:12px;fill:#007500;fill-opacity:1;fill-rule:evenodd;stroke:#000;stroke-width:.08970391;stroke-dasharray:none;stroke-opacity:1"/><path id="path5089" d="M 207.12594,118.49013 L 213.3155,119.36063 L 207.53404,120.32069 L 205.63682,119.76698 L 207.12594,118.49013 z" style="font-size:12px;fill:#007500;fill-opacity:1;fill-rule:evenodd;stroke:#000;stroke-width:.08970397;stroke-dasharray:none;stroke-opacity:1"/><path id="path5091" d="M 204.85783,121.4612 L 202.71164,123.32382 L 203.98301,121.08076 L 205.51519,119.83398 L 204.85783,121.4612 z" style="font-size:12px;fill:#007500;fill-opacity:1;fill-rule:evenodd;stroke:#000;stroke-width:.0897039;stroke-dasharray:none;stroke-opacity:1"/><path id="path5093" d="M 205.08572,120.35504 L 201.79112,122.42135 L 204.53523,119.79241 L 205.76107,119.27281 L 205.08572,120.35504 z" style="font-size:12px;fill:#007500;fill-opacity:1;fill-rule:evenodd;stroke:#000;stroke-width:.0596711;stroke-dasharray:none;stroke-opacity:1"/><path id="path5095" d="M 206.61849,119.96136 L 209.0818,123.36253 L 206.11462,120.65588 L 205.44939,119.35574 L 206.61849,119.96136 z" style="font-size:12px;fill:#007500;fill-opacity:1;fill-rule:evenodd;stroke:#000;stroke-width:.06384824;stroke-dasharray:none;stroke-opacity:1"/><path id="path5097" d="M 204.62479,119.31004 L 201.37212,116.3756 L 204.55398,118.45393 L 205.63447,119.64618 L 204.62479,119.31004 z" style="font-size:12px;fill:#007500;fill-opacity:1;fill-rule:evenodd;stroke:#000;stroke-width:.05538485;stroke-dasharray:none;stroke-opacity:1"/><path id="path5099" d="M 206.19098,118.86732 L 209.22071,119.37614 L 206.26835,119.36268 L 205.3464,119.59391 L 206.19098,118.86732 z" style="font-size:12px;fill:#007500;fill-opacity:1;fill-rule:evenodd;stroke:#000;stroke-width:.05497139;stroke-dasharray:none;stroke-opacity:1"/><path id="path5101" d="M 205.26661,117.53167 L 207.56652,114.84771 L 206.35705,116.98157 L 205.39554,119.48882 L 205.26661,117.53167 z" style="font-size:12px;fill:#007500;fill-opacity:1;fill-rule:evenodd;stroke:#000;stroke-width:.08970387;stroke-dasharray:none;stroke-opacity:1"/><path id="path5103" d="M 204.16903,118.33125 L 201.67262,118.14979 L 204.26344,117.4629 L 205.60795,119.3705 L 204.16903,118.33125 z" style="font-size:12px;fill:#007500;fill-opacity:1;fill-rule:evenodd;stroke:#000;stroke-width:.08970389;stroke-dasharray:none;stroke-opacity:1"/><path id="path5105" d="M 204.58987,120.689 L 200.28359,122.43807 L 203.87033,120.21276 L 205.4726,119.77293 L 204.58987,120.689 z" style="font-size:12px;fill:#007500;fill-opacity:1;fill-rule:evenodd;stroke:#000;stroke-width:.06276504;stroke-dasharray:none;stroke-opacity:1"/><rect id="rect5107" width=".812" height="7.403" x="209.399" y="48.13" rx=".403" ry=".206" transform="matrix(0.9362097,0.351442,-0.2954386,0.9553617,0,0)" style="font-size:12px;fill:#b2802e;fill-rule:evenodd;stroke:#000;stroke-width:.04126147"/><rect id="rect5109" width=".803" height="7.471" x="177.587" y="119.086" rx=".398" ry=".208" style="font-size:12px;fill:#b2802e;fill-rule:evenodd;stroke:#000;stroke-width:.04122531"/><path id="path5111" d="M 175.5303,115.2711 C 176.51233,114.97911 177.25889,115.58307 177.5774,116.89489 C 177.58177,117.01389 177.81,117.03334 177.8068,117.00003 C 177.63869,114.77233 179.85102,112.93937 181.25706,116.0895 C 181.39715,116.58879 180.58578,115.84005 180.07127,115.26671 C 179.42551,114.47133 178.5497,115.43629 178.49082,117.50635 C 178.43146,117.9756 178.35219,119.00288 178.35219,119.00288 C 178.35219,119.00288 177.62604,118.90811 177.60815,118.88018 C 177.59038,118.85245 177.00682,116.31266 175.93944,116.05032 C 175.14272,115.9296 175.35464,116.42216 174.40937,116.63144 C 173.52728,116.71428 173.5522,116.58476 174.20958,116.29158 C 174.77898,116.26163 175.15142,115.40996 175.5303,115.2711 z" style="font-size:12px;fill:#004500;fill-opacity:1;fill-rule:evenodd;stroke:#000;stroke-width:.04270815;stroke-linecap:butt;stroke-linejoin:miter;stroke-dasharray:none;stroke-opacity:1"/><path id="path5113" d="M 175.72894,116.5587 C 176.72541,116.33379 177.43685,116.98718 177.68155,118.31809 C 177.67928,118.43716 177.90599,118.47204 177.90466,118.43856 C 177.86117,116.20369 181.00984,116.1384 182.23744,119.37783 C 182.34939,119.88566 182.13042,119.84537 181.64887,119.23826 C 181.04872,118.40064 178.73341,116.92812 178.55912,118.99027 C 178.47369,119.45462 178.33724,120.47459 178.33724,120.47459 C 178.33724,120.47459 177.61775,120.3308 177.60146,120.30171 C 177.58527,120.27282 177.14455,117.69831 176.09382,117.36417 C 175.30535,117.1897 175.06711,117.911 174.11195,118.05585 C 173.2269,118.07878 173.259,117.95119 173.9315,117.7031 C 174.05828,117.68274 175.34303,116.67163 175.72894,116.5587 z" style="font-size:12px;fill:#004500;fill-opacity:1;fill-rule:evenodd;stroke:#000;stroke-width:.04270818;stroke-linecap:butt;stroke-linejoin:miter;stroke-dasharray:none;stroke-opacity:1"/><path id="path5115" d="M 175.98693,118.10284 C 176.99659,117.96696 177.65802,118.68129 177.80477,120.02958 C 177.79382,120.14805 178.01725,120.20291 178.01836,120.16943 C 178.13817,117.93795 180.16151,119.15953 180.96327,122.22092 C 181.07158,122.54878 180.3337,121.88543 179.89804,121.23761 C 179.36098,120.34952 178.9547,118.73732 178.63043,120.77734 C 178.51138,121.23261 178.3009,122.23719 178.3009,122.23719 C 178.3009,122.23719 177.59425,122.0301 177.58013,121.99967 C 177.5661,121.96944 177.31476,119.36421 176.29183,118.93803 C 175.51865,118.69426 175.06129,120.74152 174.09866,120.80126 C 173.2148,120.74569 173.25612,120.62136 173.94455,120.43366 C 174.0724,120.42461 175.59403,118.18121 175.98693,118.10284 z" style="font-size:12px;fill:#004500;fill-opacity:1;fill-rule:evenodd;stroke:#000;stroke-width:.04270817;stroke-linecap:butt;stroke-linejoin:miter;stroke-dasharray:none;stroke-opacity:1"/><rect id="rect5117" width=".803" height="7.471" x="123.676" y="168.702" rx=".398" ry=".208" transform="matrix(0.9455186,-0.3255682,0.3255682,0.9455186,0,0)" style="font-size:12px;fill:#b2802e;fill-rule:evenodd;stroke:#000;stroke-width:.04122533"/><path id="path5120" d="M 172.9166,114.84197 C 171.89714,114.94807 171.4393,115.79134 171.64877,117.12442 C 171.69043,117.23597 171.48702,117.34125 171.47719,117.30927 C 170.77706,115.18807 168.49387,115.24491 168.40448,118.69142 C 168.46678,119.20602 168.9303,118.22052 169.18551,117.4943 C 169.47671,116.51286 170.19032,116.14966 171.03964,118.03846 C 171.27468,118.44902 171.74242,119.3672 171.74242,119.3672 C 171.74242,119.3672 172.37694,119.00188 172.38274,118.96925 C 172.3885,118.93684 171.95236,116.36855 172.83781,115.71797 C 173.52756,115.3017 173.55571,115.31684 174.50944,115.14844 C 175.35624,114.88746 175.28348,114.7774 174.56352,114.7582 C 174.43655,114.77949 173.31997,114.82522 172.9166,114.84197 z" style="font-size:12px;fill:#004500;fill-opacity:1;fill-rule:evenodd;stroke:#000;stroke-width:.04270815;stroke-linecap:butt;stroke-linejoin:miter;stroke-dasharray:none;stroke-opacity:1"/><path id="path5122" d="M 173.22764,116.10688 C 172.2206,116.28044 171.81419,117.15592 172.09919,118.47839 C 172.14701,118.58747 171.95094,118.70641 171.93932,118.675 C 171.12128,116.59485 168.85549,116.80233 168.96526,120.26302 C 169.05684,120.77475 169.4607,119.75632 169.67248,119.01154 C 169.90531,118.00854 170.59358,117.59742 171.5465,119.43478 C 171.80375,119.83084 172.32151,120.72039 172.32151,120.72039 C 172.32151,120.72039 172.93105,120.31237 172.93493,120.27928 C 172.93879,120.24641 172.35734,117.7007 173.19982,116.99019 C 173.86132,116.52744 173.89017,116.54077 174.8283,116.3091 C 175.65482,115.99167 175.57616,115.88615 174.85955,115.91436 C 174.73459,115.94406 173.62756,116.06351 173.22764,116.10688 z" style="font-size:12px;fill:#004500;fill-opacity:1;fill-rule:evenodd;stroke:#000;stroke-width:.0427082;stroke-linecap:butt;stroke-linejoin:miter;stroke-dasharray:none;stroke-opacity:1"/><path id="path5124" d="M 173.58215,117.63134 C 172.59711,117.89216 172.26031,118.80476 172.64248,120.10581 C 172.6981,120.21101 172.51273,120.34714 172.49884,120.31666 C 171.53123,118.30212 169.30115,118.70548 169.67084,122.16492 C 169.80019,122.66997 170.12369,121.6143 170.27744,120.84947 C 170.43261,119.82402 171.08379,119.35258 172.16678,121.11212 C 172.45161,121.48694 173.03184,122.33396 173.03184,122.33396 C 173.03184,122.33396 173.60522,121.8724 173.60658,121.8389 C 173.60793,121.80562 172.83971,119.304 173.62117,118.51914 C 174.24193,117.99827 174.27152,118.00914 175.18387,117.69601 C 175.97915,117.30655 175.89324,117.20756 175.1851,117.29763 C 175.06349,117.33819 173.97525,117.55339 173.58215,117.63134 z" style="font-size:12px;fill:#004500;fill-opacity:1;fill-rule:evenodd;stroke:#000;stroke-width:.0427082;stroke-linecap:butt;stroke-linejoin:miter;stroke-dasharray:none;stroke-opacity:1"/><path id="path5126" d="M 181.4139,114.35699 C 182.42768,114.44833 182.94472,115.29499 182.84157,116.64817 C 182.80914,116.76177 183.01793,116.86517 183.02515,116.83263 C 183.5511,114.67366 186.19587,113.77358 186.55153,117.26209 C 186.53001,117.78414 185.99645,116.77708 185.68837,116.04575 C 185.32497,115.05655 184.20447,115.63809 183.51332,117.56409 C 183.31335,117.98354 182.92326,118.92067 182.92326,118.92067 C 182.92326,118.92067 182.26905,118.56077 182.2608,118.52782 C 182.2526,118.4951 182.48346,115.88757 181.5596,115.24278 C 180.84696,114.83216 180.8951,115.37467 179.94132,115.21921 C 179.08582,114.96832 179.14905,114.85573 179.85769,114.82491 C 180.4027,115.009 181.01473,114.34641 181.4139,114.35699 z" style="font-size:12px;fill:#004500;fill-opacity:1;fill-rule:evenodd;stroke:#000;stroke-width:.04270817;stroke-linecap:butt;stroke-linejoin:miter;stroke-dasharray:none;stroke-opacity:1"/><path id="path5128" d="M 181.20541,115.64268 C 182.21218,115.80252 182.68099,116.68261 182.50252,118.02624 C 182.46381,118.13743 182.66644,118.25478 182.67547,118.22279 C 183.3209,116.10353 186.3039,117.21592 186.46421,120.72192 C 186.4136,121.24153 186.21992,121.12198 185.95323,120.37116 C 185.64572,119.35921 183.91921,117.11039 183.12189,118.98593 C 182.89889,119.39104 182.45725,120.29998 182.45725,120.29998 C 182.45725,120.29998 181.82436,119.89644 181.81795,119.863 C 181.81159,119.82978 182.18754,117.24282 181.3014,116.53667 C 180.61302,116.07855 180.16731,116.66849 179.22401,116.4487 C 178.38412,116.14034 178.45352,116.03225 179.16254,116.04949 C 179.2881,116.0776 180.80759,115.60509 181.20541,115.64268 z" style="font-size:12px;fill:#004500;fill-opacity:1;fill-rule:evenodd;stroke:#000;stroke-width:.04270819;stroke-linecap:butt;stroke-linejoin:miter;stroke-dasharray:none;stroke-opacity:1"/><path id="path5130" d="M 180.97396,117.19193 C 181.96579,117.44047 182.36883,118.35924 182.09285,119.68271 C 182.04616,119.79012 182.23956,119.92504 182.25089,119.89395 C 183.04895,117.83875 184.57777,119.74259 184.39206,122.92229 C 184.39329,123.2712 183.90266,122.37189 183.69164,121.59986 C 183.45901,120.56394 183.57182,118.89538 182.64016,120.69418 C 182.38831,121.07821 181.88174,121.94506 181.88174,121.94506 C 181.88174,121.94506 181.28036,121.48675 181.27642,121.45285 C 181.2725,121.41917 181.83608,118.87392 181.00438,118.09153 C 180.35167,117.57389 179.29255,119.32989 178.36835,119.02723 C 177.5537,118.64543 177.63076,118.54383 178.33623,118.62386 C 178.45932,118.663 180.58017,117.1192 180.97396,117.19193 z" style="font-size:12px;fill:#004500;fill-opacity:1;fill-rule:evenodd;stroke:#000;stroke-width:.04270818;stroke-linecap:butt;stroke-linejoin:miter;stroke-dasharray:none;stroke-opacity:1"/><path id="path5239" d="M 168.06741,95.98303 L 168.06741,127.70001 C 168.71071,147.26015 178.53324,154.26375 192.24217,160.01697 C 207.95139,153.07359 215.93259,144.55503 215.93259,127.70001 L 215.93259,95.98303 L 168.06741,95.98303 z" style="font-size:12px;fill:none;fill-opacity:1;fill-rule:evenodd;stroke:#000;stroke-width:.51200002;stroke-miterlimit:4;stroke-dasharray:none;stroke-opacity:1"/></svg>