<svg xmlns="http://www.w3.org/2000/svg" xmlns:svg="http://www.w3.org/2000/svg" id="svg1375" width="256" height="256" version="1.0"><metadata id="metadata3"/><desc id="desc1377">Flag of Wallis and Futuna</desc><defs id="defs1387"><polygon id="triangle" points="0 -40 120 -160 -120 -160 0 -40" style="fill:#fff"/></defs><g id="g3291"><rect id="rect1379" width="250.938" height="167.292" x="5.062" y="46.708" style="fill:#002654;fill-opacity:1"/><path style="fill:#fff;fill-opacity:1" id="rect1379-7" d="M 5.0625 46.71875 L 5.0625 114.4375 L 105.40625 114.4375 L 106.28125 114.4375 L 106.28125 113.5625 L 106.28125 46.71875 L 5.0625 46.71875 z"/><rect id="rect1383" width="66.917" height="66.917" x="38.52" y="46.708" style="fill:#fff;fill-opacity:1"/><rect id="rect2278" width="33.458" height="66.917" x="71.979" y="46.708" style="fill:#ce1126;fill-opacity:1;fill-rule:evenodd;stroke:none;stroke-width:2;stroke-linecap:butt;stroke-linejoin:miter;stroke-miterlimit:4;stroke-dasharray:none;stroke-dashoffset:0;stroke-opacity:1"/><path id="path3219" d="M 153.53246,123.23389 L 158.91717,131.80761 L 174.23486,131.80761 L 174.23486,161.71109 L 162.73352,143.72718 L 147.259,168.40278 L 156.8783,168.40278 L 158.31597,165.68428 L 167.94833,165.68428 L 179.04451,183.45908 L 190.14068,165.68428 L 199.77305,165.68428 L 201.21071,168.40278 L 210.83001,168.40278 L 195.35549,143.72718 L 183.85415,161.71109 L 183.85415,145.19099 L 190.75495,145.19099 L 195.87828,137.03549 L 183.85415,137.03549 L 183.85415,131.80761 L 199.17184,131.80761 L 204.55655,123.23389 L 153.53246,123.23389 z M 162.80766,154.05787 L 166.56097,159.89268 L 159.8805,159.92975 L 162.80766,154.05787 z M 195.13309,154.65093 L 198.13438,159.89268 L 192.04696,159.85562 L 195.13309,154.65093 z" style="fill:#fff;fill-opacity:1;fill-rule:evenodd;stroke:none;stroke-width:1px;stroke-linecap:butt;stroke-linejoin:miter;stroke-opacity:1"/><path id="path3255" d="M 456,298.63999 L 460.73445,313.48359 L 476.31458,313.39939 L 463.6605,322.48905 L 468.5551,337.28061 L 456,328.05473 L 443.4449,337.28061 L 448.3395,322.48905 L 435.68543,313.39939 L 451.26555,313.48359 L 456,298.63999 z" transform="matrix(0.4182303,0,0,0.4182305,6.9892416,50.113511)" style="fill:#fff;fill-opacity:1;fill-rule:evenodd;stroke:none;stroke-width:4;stroke-linecap:butt;stroke-linejoin:miter;stroke-miterlimit:4;stroke-dasharray:none;stroke-dashoffset:0;stroke-opacity:1"/><path id="path3257" d="M 456,298.63999 L 460.73445,313.48359 L 476.31458,313.39939 L 463.6605,322.48905 L 468.5551,337.28061 L 456,328.05473 L 443.4449,337.28061 L 448.3395,322.48905 L 435.68543,313.39939 L 451.26555,313.48359 L 456,298.63999 z" transform="matrix(0.4182303,0,0,0.4182305,-11.878757,64.521396)" style="fill:#fff;fill-opacity:1;fill-rule:evenodd;stroke:none;stroke-width:4;stroke-linecap:butt;stroke-linejoin:miter;stroke-miterlimit:4;stroke-dasharray:none;stroke-dashoffset:0;stroke-opacity:1"/><path id="path3263" d="M 456,298.63999 L 460.73445,313.48359 L 476.31458,313.39939 L 463.6605,322.48905 L 468.5551,337.28061 L 456,328.05473 L 443.4449,337.28061 L 448.3395,322.48905 L 435.68543,313.39939 L 451.26555,313.48359 L 456,298.63999 z" transform="matrix(-0.4182303,0,0,0.4182305,351.19715,50.138951)" style="fill:#fff;fill-opacity:1;fill-rule:evenodd;stroke:none;stroke-width:4;stroke-linecap:butt;stroke-linejoin:miter;stroke-miterlimit:4;stroke-dasharray:none;stroke-dashoffset:0;stroke-opacity:1"/><path id="path2191" d="M 456,298.63999 L 460.73445,313.48359 L 476.31458,313.39939 L 463.6605,322.48905 L 468.5551,337.28061 L 456,328.05473 L 443.4449,337.28061 L 448.3395,322.48905 L 435.68543,313.39939 L 451.26555,313.48359 L 456,298.63999 z" transform="matrix(0.4182303,0,0,0.4182305,22.843903,7.8324456)" style="fill:#fff;fill-opacity:1;fill-rule:evenodd;stroke:none;stroke-width:4;stroke-linecap:butt;stroke-linejoin:miter;stroke-miterlimit:4;stroke-dasharray:none;stroke-dashoffset:0;stroke-opacity:1"/><path id="path2193" d="M 456,298.63999 L 460.73445,313.48359 L 476.31458,313.39939 L 463.6605,322.48905 L 468.5551,337.28061 L 456,328.05473 L 443.4449,337.28061 L 448.3395,322.48905 L 435.68543,313.39939 L 451.26555,313.48359 L 456,298.63999 z" transform="matrix(0.4182303,0,0,0.4182305,-45.879059,7.7096256)" style="fill:#fff;fill-opacity:1;fill-rule:evenodd;stroke:none;stroke-width:4;stroke-linecap:butt;stroke-linejoin:miter;stroke-miterlimit:4;stroke-dasharray:none;stroke-dashoffset:0;stroke-opacity:1"/><rect id="rect2278-1" width="33.458" height="66.917" x="5.062" y="46.708" style="fill:#002654;fill-opacity:1;fill-rule:evenodd;stroke:none"/></g></svg>