<svg xmlns="http://www.w3.org/2000/svg" xmlns:svg="http://www.w3.org/2000/svg" id="svg4125" width="256" height="256" version="1.0"><metadata/><clipPath id="r"><rect id="rect4128" width="900" height="600" x="0" y="0"/></clipPath><path id="blue_area" d="M -3.5527137e-15,42.33333 L 256,42.33333 L -3.5527137e-15,213 L -3.5527137e-15,42.33333 z" style="fill:#003580"/><path id="green_area" d="M -3.5527137e-15,213 L 256,213 L 256,42.33333 L -3.5527137e-15,213 z" style="fill:#009543"/><line id="white_stripes" x1="0" x2="900" y1="600" y2="0" clip-path="url(#r)" transform="matrix(0.2844444,0,0,0.2844444,0,42.33333)" style="stroke:#fff;stroke-width:200"/><line id="red_stripe" x1="0" x2="900" y1="600" y2="0" clip-path="url(#r)" transform="matrix(0.2844444,0,0,0.2844444,0,42.33333)" style="stroke:#d21034;stroke-width:150"/><path id="star" d="M 75.83359,103.4889 L 63.267938,101.33464 L 65.422204,113.90029 L 55.617163,105.75181 L 51.199986,117.71112 L 46.782811,105.75181 L 36.97777,113.90029 L 39.132035,101.33464 L 26.566384,103.4889 L 34.71486,93.68386 L 22.755552,89.26669 L 34.71486,84.84951 L 26.566384,75.04447 L 39.132035,77.19874 L 36.97777,64.63308 L 46.782811,72.78156 L 51.199986,60.82225 L 55.617163,72.78156 L 65.422204,64.63308 L 63.267938,77.19874 L 75.83359,75.04447 L 67.685115,84.84951 L 79.64442,89.26669 L 67.685115,93.68386 L 75.83359,103.4889 z" style="fill:#ffce00"/><path id="blue_gap" d="M 68.266659,89.26667 C 68.266659,98.69233 60.625654,106.33333 51.199997,106.33333 C 41.774338,106.33333 34.133332,98.69233 34.133332,89.26667 C 34.133332,79.84101 41.774338,72.20001 51.199997,72.20001 C 60.625654,72.20001 68.266659,79.84101 68.266659,89.26667 L 68.266659,89.26667 z" style="fill:#003580"/><path id="yellow_circle" d="M 65.422226,89.26666 C 65.42487,97.12325 59.056589,103.49367 51.200001,103.49367 C 43.343414,103.49367 36.975133,97.12325 36.977777,89.26666 C 36.975133,81.41008 43.343414,75.03965 51.200001,75.03965 C 59.056589,75.03965 65.42487,81.41008 65.422226,89.26666 L 65.422226,89.26666 z" style="fill:#ffce00"/></svg>