<svg xmlns="http://www.w3.org/2000/svg" xmlns:svg="http://www.w3.org/2000/svg" id="svg3074" width="256" height="256" version="1.0" viewBox="0 0 224 112"><metadata/><defs id="defs3076"><pattern id="str" width="99" height="16" patternUnits="userSpaceOnUse"><rect id="rect3079" width="99" height="16" fill="#fff"/><rect id="rect3081" width="99" height="8" fill="#dc241f"/></pattern></defs><rect id="rect3083" width="224" height="112" x="0" y="0" style="fill:url(#str)"/><rect id="rect3085" width="112" height="64" x="0" y="0" style="fill:#0035ad"/><circle id="circle3087" cx="46" cy="32" r="24" style="fill:#ffd100"/><circle id="circle3089" cx="51" cy="32" r="21" style="fill:#0035ad"/><polygon id="polygon3091" points="70 52 68.22 39.799 61.322 50.019 65.012 38.255 54.363 44.47 62.792 35.471 50.501 36.45 62 32 50.501 27.55 62.792 28.529 54.363 19.53 65.012 25.745 61.322 13.981 68.22 24.201 70 12 71.78 24.201 78.678 13.981 74.988 25.745 85.637 19.53 77.208 28.529 89.499 27.55 78 32 89.499 36.45 77.208 35.471 85.637 44.47 74.988 38.255 78.678 50.019 71.78 39.799 70 52" style="fill:#ffd100"/></svg>